%TF.GenerationSoftware,KiCad,Pcbnew,5.1.5+dfsg1-2build2*%
%TF.CreationDate,2021-03-18T01:20:22+03:00*%
%TF.ProjectId,som_f1c,736f6d5f-6631-4632-9e6b-696361645f70,rev?*%
%TF.SameCoordinates,Original*%
%TF.FileFunction,Soldermask,Bot*%
%TF.FilePolarity,Negative*%
%FSLAX46Y46*%
G04 Gerber Fmt 4.6, Leading zero omitted, Abs format (unit mm)*
G04 Created by KiCad (PCBNEW 5.1.5+dfsg1-2build2) date 2021-03-18 01:20:22*
%MOMM*%
%LPD*%
G04 APERTURE LIST*
%ADD10O,1.000000X1.000000*%
%ADD11R,1.000000X1.000000*%
G04 APERTURE END LIST*
D10*
%TO.C,J3*%
X210721600Y-105002800D03*
X210721600Y-103732800D03*
X210721600Y-102462800D03*
X210721600Y-101192800D03*
X210721600Y-99922800D03*
X210721600Y-98652800D03*
X210721600Y-97382800D03*
X210721600Y-96112800D03*
X210721600Y-94842800D03*
X210721600Y-93572800D03*
X210721600Y-92302800D03*
X210721600Y-91032800D03*
X210721600Y-89762800D03*
X210721600Y-88492800D03*
D11*
X210721600Y-87222800D03*
%TD*%
D10*
%TO.C,J2*%
X177824200Y-84086200D03*
X179094200Y-84086200D03*
X180364200Y-84086200D03*
X181634200Y-84086200D03*
X182904200Y-84086200D03*
X184174200Y-84086200D03*
X185444200Y-84086200D03*
X186714200Y-84086200D03*
X187984200Y-84086200D03*
X189254200Y-84086200D03*
X190524200Y-84086200D03*
X191794200Y-84086200D03*
X193064200Y-84086200D03*
X194334200Y-84086200D03*
X195604200Y-84086200D03*
X196874200Y-84086200D03*
X198144200Y-84086200D03*
X199414200Y-84086200D03*
X200684200Y-84086200D03*
X201954200Y-84086200D03*
X203224200Y-84086200D03*
X204494200Y-84086200D03*
X205764200Y-84086200D03*
X207034200Y-84086200D03*
X208304200Y-84086200D03*
D11*
X209574200Y-84086200D03*
%TD*%
D10*
%TO.C,J1*%
X209573400Y-108162800D03*
X208303400Y-108162800D03*
X207033400Y-108162800D03*
X205763400Y-108162800D03*
X204493400Y-108162800D03*
X203223400Y-108162800D03*
X201953400Y-108162800D03*
X200683400Y-108162800D03*
X199413400Y-108162800D03*
X198143400Y-108162800D03*
X196873400Y-108162800D03*
X195603400Y-108162800D03*
X194333400Y-108162800D03*
X193063400Y-108162800D03*
X191793400Y-108162800D03*
X190523400Y-108162800D03*
X189253400Y-108162800D03*
X187983400Y-108162800D03*
X186713400Y-108162800D03*
X185443400Y-108162800D03*
X184173400Y-108162800D03*
X182903400Y-108162800D03*
X181633400Y-108162800D03*
X180363400Y-108162800D03*
X179093400Y-108162800D03*
D11*
X177823400Y-108162800D03*
%TD*%
M02*
