%TF.GenerationSoftware,KiCad,Pcbnew,5.1.5+dfsg1-2build2*%
%TF.CreationDate,2021-03-18T01:20:22+03:00*%
%TF.ProjectId,som_f1c,736f6d5f-6631-4632-9e6b-696361645f70,rev?*%
%TF.SameCoordinates,Original*%
%TF.FileFunction,Copper,L2,Bot*%
%TF.FilePolarity,Positive*%
%FSLAX46Y46*%
G04 Gerber Fmt 4.6, Leading zero omitted, Abs format (unit mm)*
G04 Created by KiCad (PCBNEW 5.1.5+dfsg1-2build2) date 2021-03-18 01:20:22*
%MOMM*%
%LPD*%
G04 APERTURE LIST*
%TA.AperFunction,ComponentPad*%
%ADD10O,1.000000X1.000000*%
%TD*%
%TA.AperFunction,ComponentPad*%
%ADD11R,1.000000X1.000000*%
%TD*%
%TA.AperFunction,ViaPad*%
%ADD12C,0.635000*%
%TD*%
%TA.AperFunction,Conductor*%
%ADD13C,0.609600*%
%TD*%
%TA.AperFunction,Conductor*%
%ADD14C,0.203200*%
%TD*%
%TA.AperFunction,Conductor*%
%ADD15C,0.406400*%
%TD*%
%TA.AperFunction,Conductor*%
%ADD16C,0.254000*%
%TD*%
%TA.AperFunction,Conductor*%
%ADD17C,0.050800*%
%TD*%
G04 APERTURE END LIST*
D10*
%TO.P,J3,15*%
%TO.N,GND*%
X210721600Y-105002800D03*
%TO.P,J3,14*%
%TO.N,PD0*%
X210721600Y-103732800D03*
%TO.P,J3,13*%
%TO.N,PD2*%
X210721600Y-102462800D03*
%TO.P,J3,12*%
%TO.N,PD3*%
X210721600Y-101192800D03*
%TO.P,J3,11*%
%TO.N,PD4*%
X210721600Y-99922800D03*
%TO.P,J3,10*%
%TO.N,PD5*%
X210721600Y-98652800D03*
%TO.P,J3,9*%
%TO.N,PD6*%
X210721600Y-97382800D03*
%TO.P,J3,8*%
%TO.N,PD7*%
X210721600Y-96112800D03*
%TO.P,J3,7*%
%TO.N,PD8*%
X210721600Y-94842800D03*
%TO.P,J3,6*%
%TO.N,PD9*%
X210721600Y-93572800D03*
%TO.P,J3,5*%
%TO.N,PD10*%
X210721600Y-92302800D03*
%TO.P,J3,4*%
%TO.N,PD11*%
X210721600Y-91032800D03*
%TO.P,J3,3*%
%TO.N,PD12*%
X210721600Y-89762800D03*
%TO.P,J3,2*%
%TO.N,PD13*%
X210721600Y-88492800D03*
D11*
%TO.P,J3,1*%
%TO.N,GND*%
X210721600Y-87222800D03*
%TD*%
D10*
%TO.P,J2,26*%
%TO.N,GND*%
X177824200Y-84086200D03*
%TO.P,J2,25*%
%TO.N,+3V3*%
X179094200Y-84086200D03*
%TO.P,J2,24*%
%TO.N,UART_RX*%
X180364200Y-84086200D03*
%TO.P,J2,23*%
%TO.N,UART_TX*%
X181634200Y-84086200D03*
%TO.P,J2,22*%
%TO.N,PE2*%
X182904200Y-84086200D03*
%TO.P,J2,21*%
%TO.N,PE3*%
X184174200Y-84086200D03*
%TO.P,J2,20*%
%TO.N,PE4*%
X185444200Y-84086200D03*
%TO.P,J2,19*%
%TO.N,PE5*%
X186714200Y-84086200D03*
%TO.P,J2,18*%
%TO.N,PE6*%
X187984200Y-84086200D03*
%TO.P,J2,17*%
%TO.N,PE7*%
X189254200Y-84086200D03*
%TO.P,J2,16*%
%TO.N,PE8*%
X190524200Y-84086200D03*
%TO.P,J2,15*%
%TO.N,PE9*%
X191794200Y-84086200D03*
%TO.P,J2,14*%
%TO.N,PE10*%
X193064200Y-84086200D03*
%TO.P,J2,13*%
%TO.N,PE11*%
X194334200Y-84086200D03*
%TO.P,J2,12*%
%TO.N,PE12*%
X195604200Y-84086200D03*
%TO.P,J2,11*%
%TO.N,PD21*%
X196874200Y-84086200D03*
%TO.P,J2,10*%
%TO.N,PD20*%
X198144200Y-84086200D03*
%TO.P,J2,9*%
%TO.N,PD19*%
X199414200Y-84086200D03*
%TO.P,J2,8*%
%TO.N,PD18*%
X200684200Y-84086200D03*
%TO.P,J2,7*%
%TO.N,PD17*%
X201954200Y-84086200D03*
%TO.P,J2,6*%
%TO.N,PD16*%
X203224200Y-84086200D03*
%TO.P,J2,5*%
%TO.N,PD15*%
X204494200Y-84086200D03*
%TO.P,J2,4*%
%TO.N,PD14*%
X205764200Y-84086200D03*
%TO.P,J2,3*%
%TO.N,+3V3*%
X207034200Y-84086200D03*
%TO.P,J2,2*%
%TO.N,POWER_IN*%
X208304200Y-84086200D03*
D11*
%TO.P,J2,1*%
%TO.N,GND*%
X209574200Y-84086200D03*
%TD*%
D10*
%TO.P,J1,26*%
%TO.N,HEADPHONE_COMMON*%
X209573400Y-108162800D03*
%TO.P,J1,25*%
%TO.N,HEADPHONE_COMMON_FB*%
X208303400Y-108162800D03*
%TO.P,J1,24*%
%TO.N,HEADPHONE_L*%
X207033400Y-108162800D03*
%TO.P,J1,23*%
%TO.N,HEADPHONE_R*%
X205763400Y-108162800D03*
%TO.P,J1,22*%
%TO.N,GND*%
X204493400Y-108162800D03*
%TO.P,J1,21*%
%TO.N,+3V3*%
X203223400Y-108162800D03*
%TO.P,J1,20*%
%TO.N,MIC_IN*%
X201953400Y-108162800D03*
%TO.P,J1,19*%
%TO.N,LINE_IN*%
X200683400Y-108162800D03*
%TO.P,J1,18*%
%TO.N,FM_IN_R*%
X199413400Y-108162800D03*
%TO.P,J1,17*%
%TO.N,FM_IN_L*%
X198143400Y-108162800D03*
%TO.P,J1,16*%
%TO.N,TV_IN_0*%
X196873400Y-108162800D03*
%TO.P,J1,15*%
%TO.N,TV_IN_1*%
X195603400Y-108162800D03*
%TO.P,J1,14*%
%TO.N,LRADC*%
X194333400Y-108162800D03*
%TO.P,J1,13*%
%TO.N,TV_OUT*%
X193063400Y-108162800D03*
%TO.P,J1,12*%
%TO.N,USB-DP*%
X191793400Y-108162800D03*
%TO.P,J1,11*%
%TO.N,USB-DM*%
X190523400Y-108162800D03*
%TO.P,J1,10*%
%TO.N,GND*%
X189253400Y-108162800D03*
%TO.P,J1,9*%
%TO.N,+3V3*%
X187983400Y-108162800D03*
%TO.P,J1,8*%
%TO.N,SDC0_CMD_JTAG_TDO*%
X186713400Y-108162800D03*
%TO.P,J1,7*%
%TO.N,SDC0_D3*%
X185443400Y-108162800D03*
%TO.P,J1,6*%
%TO.N,SDC0_D2_JTAG_TCK*%
X184173400Y-108162800D03*
%TO.P,J1,5*%
%TO.N,SDC0_D1_JTAG_TMS*%
X182903400Y-108162800D03*
%TO.P,J1,4*%
%TO.N,SDC0_D0_JTAG_TDI*%
X181633400Y-108162800D03*
%TO.P,J1,3*%
%TO.N,SDC0_CLK*%
X180363400Y-108162800D03*
%TO.P,J1,2*%
%TO.N,+3V3*%
X179093400Y-108162800D03*
D11*
%TO.P,J1,1*%
%TO.N,GND*%
X177823400Y-108162800D03*
%TD*%
D12*
%TO.N,GND*%
X177546000Y-91440000D03*
X177546000Y-93980000D03*
X177546000Y-96520000D03*
X177546000Y-99060000D03*
X177546000Y-101600000D03*
X177546000Y-104140000D03*
X177800000Y-106781600D03*
X177546000Y-88900000D03*
X177800000Y-85852000D03*
X178409600Y-105562400D03*
X178308000Y-87630000D03*
X179832000Y-86360000D03*
X179832000Y-88900000D03*
X179070000Y-90170000D03*
X180975000Y-88900000D03*
X182245000Y-86360000D03*
X180975000Y-86360000D03*
X183515000Y-86360000D03*
X184785000Y-86360000D03*
X186690000Y-90170000D03*
X186182000Y-88900000D03*
X186055000Y-86360000D03*
X192151000Y-86360000D03*
X193675000Y-86360000D03*
X199085200Y-86258400D03*
X195326000Y-85852000D03*
X196723000Y-85852000D03*
X201676000Y-85471000D03*
X200482200Y-86309200D03*
X199542400Y-87655400D03*
X203581000Y-86106000D03*
X202819000Y-87122000D03*
X201803000Y-88011000D03*
X202311000Y-89535000D03*
X205232000Y-86106000D03*
X203454000Y-88519000D03*
X204673200Y-90017600D03*
X202311000Y-95504000D03*
X207010000Y-95504000D03*
X210134200Y-85725000D03*
X208889600Y-89662000D03*
X209550000Y-91744800D03*
X209550000Y-94183200D03*
X209550000Y-96723200D03*
X209550000Y-99314000D03*
X209042000Y-101803200D03*
X206095600Y-103936800D03*
X209092800Y-105003600D03*
X204089000Y-106299000D03*
X204724000Y-107061000D03*
X202565000Y-107061000D03*
X198628000Y-104775000D03*
X201676000Y-103632000D03*
X203327000Y-104013000D03*
X207010000Y-103073200D03*
X209499200Y-100584000D03*
X208940400Y-103124000D03*
X185928000Y-100203000D03*
X185928000Y-102235000D03*
X186309000Y-101092000D03*
X187325000Y-107188000D03*
X189280800Y-107035600D03*
X181229000Y-103124000D03*
X181356000Y-104648000D03*
X179705000Y-95885000D03*
X180975000Y-95885000D03*
X180975000Y-97155000D03*
X179705000Y-97155000D03*
X179705000Y-98425000D03*
X182753000Y-99949000D03*
X183515000Y-107188000D03*
X180975000Y-107188000D03*
X185928000Y-107061000D03*
X204571600Y-87680800D03*
X205867000Y-86995000D03*
X209245200Y-87223600D03*
X197535800Y-87706200D03*
X209143600Y-86385400D03*
X207645000Y-107086400D03*
X208915000Y-107238800D03*
X206349600Y-107086400D03*
X207213200Y-87731600D03*
X206298800Y-88646000D03*
X208076800Y-104495600D03*
X207975200Y-103124000D03*
X182829200Y-103936800D03*
X179120800Y-103378000D03*
%TO.N,STATUS_LED*%
X201117200Y-101605900D03*
X198205476Y-98326028D03*
%TO.N,SPI_SCK*%
X183476435Y-98234500D03*
X180932472Y-99898199D03*
%TO.N,HEADPHONE_L*%
X198397979Y-103326280D03*
%TO.N,HEADPHONE_COMMON_FB*%
X198861336Y-102687988D03*
%TO.N,HEADPHONE_COMMON*%
X198879490Y-101951610D03*
%TO.N,PD0*%
X198879490Y-99427378D03*
%TO.N,PD2*%
X198983600Y-98602800D03*
%TO.N,PD3*%
X199178418Y-97791950D03*
%TO.N,PD4*%
X198876461Y-97058927D03*
%TO.N,PD5*%
X199102074Y-96357727D03*
%TO.N,PD6*%
X199034400Y-95504000D03*
%TO.N,PD7*%
X199034400Y-94767397D03*
%TO.N,PD8*%
X199085200Y-94030800D03*
%TO.N,PD9*%
X199136000Y-93268800D03*
%TO.N,PD10*%
X199083520Y-92534069D03*
%TO.N,PD11*%
X198679276Y-91849683D03*
%TO.N,PD12*%
X198360525Y-91162281D03*
%TO.N,PD13*%
X198313693Y-90427169D03*
%TO.N,PD14*%
X198676290Y-89738200D03*
%TO.N,PD15*%
X198448042Y-88785700D03*
%TO.N,PD16*%
X197643649Y-88559009D03*
%TO.N,PD17*%
X196913664Y-88666657D03*
%TO.N,PD18*%
X195498036Y-89581724D03*
%TO.N,PD19*%
X195021211Y-89001600D03*
%TO.N,PD20*%
X194243100Y-90255722D03*
%TO.N,PD21*%
X193809711Y-89624179D03*
%TO.N,SDC0_D2_JTAG_TCK*%
X183950409Y-95908572D03*
%TO.N,SDC0_D3*%
X184650026Y-96150149D03*
%TO.N,SDC0_CMD_JTAG_TDO*%
X185342311Y-96467711D03*
%TO.N,SDC0_CLK*%
X183293323Y-96241470D03*
%TO.N,SDC0_D0_JTAG_TDI*%
X183002310Y-96918147D03*
%TO.N,SDC0_D1_JTAG_TMS*%
X183022395Y-97654475D03*
%TO.N,USB-DM*%
X186537597Y-103200200D03*
%TO.N,USB-DP*%
X187274200Y-103200200D03*
%TO.N,TV_OUT*%
X189273949Y-103193349D03*
%TO.N,TV_IN_1*%
X191843100Y-103174800D03*
%TO.N,TV_IN_0*%
X192578583Y-103134215D03*
%TO.N,LRADC*%
X192887600Y-102412800D03*
%TO.N,FM_IN_L*%
X194779900Y-103032090D03*
%TO.N,FM_IN_R*%
X195516503Y-103032090D03*
%TO.N,LINE_IN*%
X196253106Y-103032090D03*
%TO.N,MIC_IN*%
X196989552Y-103016904D03*
%TO.N,HEADPHONE_R*%
X197726117Y-103024314D03*
%TO.N,+3V3*%
X184816641Y-93792900D03*
X178917600Y-93065600D03*
X198729600Y-100888800D03*
X196018736Y-92439248D03*
X196215000Y-88900000D03*
X205365800Y-102990200D03*
%TO.N,+2V5*%
X193433690Y-103040261D03*
X193040000Y-89484200D03*
%TO.N,+1V1*%
X191201700Y-89119000D03*
X191736079Y-92267531D03*
X188366400Y-104038400D03*
X193675000Y-88900000D03*
%TD*%
D13*
%TO.N,GND*%
X209245200Y-87223600D02*
X210286990Y-87223600D01*
X209542612Y-105002800D02*
X210286990Y-105002800D01*
X209541812Y-105003600D02*
X209542612Y-105002800D01*
X209092800Y-105003600D02*
X209541812Y-105003600D01*
X204493400Y-107740612D02*
X204493400Y-107747190D01*
X204724000Y-107510012D02*
X204493400Y-107740612D01*
X204724000Y-107061000D02*
X204724000Y-107510012D01*
X189253400Y-107512012D02*
X189253400Y-107747190D01*
X189280800Y-107484612D02*
X189253400Y-107512012D01*
X189280800Y-107035600D02*
X189280800Y-107484612D01*
X177800000Y-107723790D02*
X177823400Y-107747190D01*
X177800000Y-106781600D02*
X177800000Y-107723790D01*
X177800000Y-85852000D02*
X177800000Y-84530810D01*
D14*
%TO.N,STATUS_LED*%
X200920801Y-101409501D02*
X201117200Y-101605900D01*
X198479663Y-101409501D02*
X200920801Y-101409501D01*
X198208899Y-101138737D02*
X198479663Y-101409501D01*
X198208899Y-98778463D02*
X198208899Y-101138737D01*
X198205476Y-98775040D02*
X198208899Y-98778463D01*
X198205476Y-98326028D02*
X198205476Y-98775040D01*
%TO.N,SPI_SCK*%
X182596171Y-98234500D02*
X180932472Y-99898199D01*
X183476435Y-98234500D02*
X182596171Y-98234500D01*
%TO.N,HEADPHONE_L*%
X207033400Y-106982800D02*
X207033400Y-107950000D01*
X205231960Y-105181360D02*
X207033400Y-106982800D01*
X200253560Y-105181360D02*
X205231960Y-105181360D01*
X200076301Y-105004101D02*
X200253560Y-105181360D01*
X200075800Y-105004101D02*
X200076301Y-105004101D01*
X198397979Y-103326280D02*
X200075800Y-105004101D01*
%TO.N,HEADPHONE_COMMON_FB*%
X208303400Y-106855800D02*
X208303400Y-107950000D01*
X206324150Y-104876550D02*
X208303400Y-106855800D01*
X201049898Y-104876550D02*
X206324150Y-104876550D01*
X198861336Y-102687988D02*
X201049898Y-104876550D01*
%TO.N,HEADPHONE_COMMON*%
X209573400Y-107084400D02*
X209573400Y-107950000D01*
X207060740Y-104571740D02*
X209573400Y-107084400D01*
X201499620Y-104571740D02*
X207060740Y-104571740D01*
X198879490Y-101951610D02*
X201499620Y-104571740D01*
%TO.N,PD0*%
X206898962Y-103732800D02*
X210490190Y-103732800D01*
X205635661Y-102469499D02*
X206898962Y-103732800D01*
X203476555Y-102469499D02*
X205635661Y-102469499D01*
X200473456Y-99466400D02*
X203476555Y-102469499D01*
X198932800Y-99466400D02*
X200473456Y-99466400D01*
%TO.N,PD2*%
X208673699Y-102501699D02*
X210490190Y-102501699D01*
X208336689Y-102164689D02*
X208673699Y-102501699D01*
X204069489Y-102164689D02*
X208336689Y-102164689D01*
X200825099Y-98920299D02*
X204069489Y-102164689D01*
X199301099Y-98920299D02*
X200825099Y-98920299D01*
X198983600Y-98602800D02*
X199301099Y-98920299D01*
%TO.N,PD3*%
X204012800Y-101193600D02*
X210490190Y-101193600D01*
X200928649Y-98109449D02*
X204012800Y-101193600D01*
X199495917Y-98109449D02*
X200928649Y-98109449D01*
X199178418Y-97791950D02*
X199495917Y-98109449D01*
%TO.N,PD4*%
X199754838Y-97488292D02*
X201323492Y-97488292D01*
X199325473Y-97058927D02*
X199754838Y-97488292D01*
X198876461Y-97058927D02*
X199325473Y-97058927D01*
X201323492Y-97488292D02*
X203758800Y-99923600D01*
X203758800Y-99923600D02*
X210018399Y-99923600D01*
X210018399Y-99923600D02*
X210490190Y-99923600D01*
%TO.N,PD5*%
X199102074Y-96357727D02*
X201158127Y-96357727D01*
X203492099Y-98691699D02*
X210490190Y-98691699D01*
X201158127Y-96357727D02*
X203492099Y-98691699D01*
%TO.N,PD6*%
X199034400Y-95504000D02*
X201574400Y-95504000D01*
X203453200Y-97382800D02*
X210490190Y-97382800D01*
X201574400Y-95504000D02*
X203453200Y-97382800D01*
%TO.N,PD7*%
X204824800Y-96112800D02*
X210490190Y-96112800D01*
X203479397Y-94767397D02*
X204824800Y-96112800D01*
X199034400Y-94767397D02*
X203479397Y-94767397D01*
%TO.N,PD8*%
X207923600Y-94842800D02*
X210490190Y-94842800D01*
X207111600Y-94030800D02*
X207923600Y-94842800D01*
X199085200Y-94030800D02*
X207111600Y-94030800D01*
%TO.N,PD9*%
X208990400Y-93572800D02*
X210490190Y-93572800D01*
X208686400Y-93268800D02*
X208990400Y-93572800D01*
X199136000Y-93268800D02*
X208686400Y-93268800D01*
%TO.N,PD10*%
X199083520Y-92534069D02*
X207490731Y-92534069D01*
X207722000Y-92302800D02*
X210490190Y-92302800D01*
X207490731Y-92534069D02*
X207722000Y-92302800D01*
%TO.N,PD11*%
X208839600Y-91032800D02*
X210490190Y-91032800D01*
X208022717Y-91849683D02*
X208839600Y-91032800D01*
X198679276Y-91849683D02*
X208022717Y-91849683D01*
%TO.N,PD12*%
X209715823Y-89725511D02*
X210490190Y-89725511D01*
X208279053Y-91162281D02*
X209715823Y-89725511D01*
X198360525Y-91162281D02*
X208279053Y-91162281D01*
%TO.N,PD13*%
X208433200Y-88492800D02*
X210490190Y-88492800D01*
X206387699Y-90538301D02*
X208433200Y-88492800D01*
X198873837Y-90538301D02*
X206387699Y-90538301D01*
X198762705Y-90427169D02*
X198873837Y-90538301D01*
X198313693Y-90427169D02*
X198762705Y-90427169D01*
%TO.N,PD14*%
X204216000Y-86741000D02*
X204216000Y-85634400D01*
X201536299Y-89420701D02*
X204216000Y-86741000D01*
X204216000Y-85634400D02*
X205587600Y-84328000D01*
X198993789Y-89420701D02*
X201536299Y-89420701D01*
X198676290Y-89738200D02*
X198993789Y-89420701D01*
%TO.N,PD15*%
X199794700Y-88785700D02*
X204266800Y-84328000D01*
X198448042Y-88785700D02*
X199794700Y-88785700D01*
%TO.N,PD16*%
X203224200Y-84925134D02*
X203224200Y-84328000D01*
X199907824Y-88241510D02*
X203224200Y-84925134D01*
X197961148Y-88241510D02*
X199907824Y-88241510D01*
X197643649Y-88559009D02*
X197961148Y-88241510D01*
%TO.N,PD17*%
X200543990Y-85496410D02*
X201777600Y-84328000D01*
X198866122Y-85496410D02*
X200543990Y-85496410D01*
X196913664Y-87448868D02*
X198866122Y-85496410D01*
X196913664Y-88666657D02*
X196913664Y-87448868D01*
%TO.N,PD18*%
X199578800Y-85191600D02*
X200355200Y-84328000D01*
X198739866Y-85191600D02*
X199578800Y-85191600D01*
X195694299Y-88237167D02*
X198739866Y-85191600D01*
X195694299Y-89099150D02*
X195694299Y-88237167D01*
X195498036Y-89295413D02*
X195694299Y-89099150D01*
X195498036Y-89581724D02*
X195498036Y-89295413D01*
%TO.N,PD19*%
X195021211Y-88479189D02*
X199136000Y-84328000D01*
X195021211Y-89001600D02*
X195021211Y-88479189D01*
%TO.N,PD20*%
X196469000Y-85217000D02*
X197013400Y-85217000D01*
X194500511Y-87448127D02*
X195846701Y-86101937D01*
X197013400Y-85217000D02*
X197967600Y-84328000D01*
X194500511Y-89704017D02*
X194500511Y-87448127D01*
X194243100Y-89961428D02*
X194500511Y-89704017D01*
X195846701Y-85839299D02*
X196469000Y-85217000D01*
X195846701Y-86101937D02*
X195846701Y-85839299D01*
X194243100Y-90255722D02*
X194243100Y-89961428D01*
%TO.N,PD21*%
X195743400Y-85217000D02*
X196646800Y-84328000D01*
X195072000Y-85217000D02*
X195743400Y-85217000D01*
X194195701Y-86093299D02*
X195072000Y-85217000D01*
X194195701Y-89238189D02*
X194195701Y-86093299D01*
X193809711Y-89624179D02*
X194195701Y-89238189D01*
%TO.N,SDC0_D2_JTAG_TCK*%
X184173400Y-107113800D02*
X184173400Y-107950000D01*
X184173400Y-98160827D02*
X184173400Y-107113800D01*
X183950409Y-97937836D02*
X184173400Y-98160827D01*
X183950409Y-95908572D02*
X183950409Y-97937836D01*
%TO.N,SDC0_D3*%
X185443400Y-107313000D02*
X185443400Y-107950000D01*
X184650026Y-106519626D02*
X185443400Y-107313000D01*
X184650026Y-96150149D02*
X184650026Y-106519626D01*
%TO.N,SDC0_CMD_JTAG_TDO*%
X186713400Y-107059000D02*
X186713400Y-107950000D01*
X185342311Y-105687911D02*
X186713400Y-107059000D01*
X185342311Y-96467711D02*
X185342311Y-105687911D01*
%TO.N,SDC0_CLK*%
X180363400Y-106881200D02*
X180363400Y-107950000D01*
X179802151Y-106319951D02*
X180363400Y-106881200D01*
X179802151Y-99238228D02*
X179802151Y-106319951D01*
X182798909Y-96241470D02*
X179802151Y-99238228D01*
X183293323Y-96241470D02*
X182798909Y-96241470D01*
%TO.N,SDC0_D0_JTAG_TDI*%
X181633400Y-107059000D02*
X181633400Y-107950000D01*
X180106961Y-105532561D02*
X181633400Y-107059000D01*
X180106961Y-99364484D02*
X180106961Y-105532561D01*
X182553298Y-96918147D02*
X180106961Y-99364484D01*
X183002310Y-96918147D02*
X182553298Y-96918147D01*
%TO.N,SDC0_D1_JTAG_TMS*%
X180411771Y-104643571D02*
X182903400Y-107135200D01*
X180411771Y-99648262D02*
X180411771Y-104643571D01*
X182903400Y-107135200D02*
X182903400Y-107950000D01*
X182405558Y-97654475D02*
X180411771Y-99648262D01*
X183022395Y-97654475D02*
X182405558Y-97654475D01*
%TO.N,USB-DM*%
X188671200Y-106451400D02*
X189763400Y-106451400D01*
X189763400Y-106451400D02*
X190523400Y-107211400D01*
X186537597Y-104317797D02*
X188671200Y-106451400D01*
X190523400Y-107211400D02*
X190523400Y-107950000D01*
X186537597Y-103200200D02*
X186537597Y-104317797D01*
%TO.N,USB-DP*%
X191793400Y-107338400D02*
X191793400Y-107950000D01*
X190398400Y-105943400D02*
X191793400Y-107338400D01*
X188925200Y-105943400D02*
X190398400Y-105943400D01*
X187274200Y-104292400D02*
X188925200Y-105943400D01*
X187274200Y-103200200D02*
X187274200Y-104292400D01*
%TO.N,TV_OUT*%
X193063400Y-107262200D02*
X193063400Y-107950000D01*
X190728600Y-104927400D02*
X193063400Y-107262200D01*
X189712600Y-104927400D02*
X190728600Y-104927400D01*
X189273949Y-104488749D02*
X189712600Y-104927400D01*
X189273949Y-103193349D02*
X189273949Y-104488749D01*
%TO.N,TV_IN_1*%
X195603400Y-107236800D02*
X195603400Y-107950000D01*
X194995800Y-106629200D02*
X195603400Y-107236800D01*
X194004466Y-106629200D02*
X194995800Y-106629200D01*
X191843100Y-104467834D02*
X194004466Y-106629200D01*
X191843100Y-103174800D02*
X191843100Y-104467834D01*
%TO.N,TV_IN_0*%
X196873400Y-107160600D02*
X196873400Y-107950000D01*
X195834000Y-106121200D02*
X196873400Y-107160600D01*
X194284600Y-106121200D02*
X195834000Y-106121200D01*
X192578583Y-104415183D02*
X194284600Y-106121200D01*
X192578583Y-103134215D02*
X192578583Y-104415183D01*
%TO.N,LRADC*%
X194333400Y-107389200D02*
X194333400Y-107950000D01*
X191322399Y-102924863D02*
X191322399Y-104378199D01*
X191322399Y-104378199D02*
X194333400Y-107389200D01*
X191834462Y-102412800D02*
X191322399Y-102924863D01*
X192887600Y-102412800D02*
X191834462Y-102412800D01*
%TO.N,FM_IN_L*%
X198143400Y-107262200D02*
X198143400Y-107950000D01*
X196697590Y-105816390D02*
X198143400Y-107262200D01*
X195072000Y-105816390D02*
X196697590Y-105816390D01*
X194779900Y-105524290D02*
X195072000Y-105816390D01*
X194779900Y-103032090D02*
X194779900Y-105524290D01*
%TO.N,FM_IN_R*%
X199413400Y-106932000D02*
X199413400Y-107950000D01*
X198882000Y-106400600D02*
X199413400Y-106932000D01*
X197712866Y-106400600D02*
X198882000Y-106400600D01*
X196823847Y-105511581D02*
X197712866Y-106400600D01*
X195630800Y-105511580D02*
X196823847Y-105511581D01*
X195516503Y-105397283D02*
X195630800Y-105511580D01*
X195516503Y-103032090D02*
X195516503Y-105397283D01*
%TO.N,LINE_IN*%
X200683400Y-107186000D02*
X200683400Y-107950000D01*
X199593190Y-106095790D02*
X200683400Y-107186000D01*
X197839120Y-106095790D02*
X199593190Y-106095790D01*
X196950102Y-105206772D02*
X197839120Y-106095790D01*
X196253106Y-104940077D02*
X196519800Y-105206771D01*
X196519800Y-105206771D02*
X196950102Y-105206772D01*
X196253106Y-103032090D02*
X196253106Y-104940077D01*
%TO.N,MIC_IN*%
X201953400Y-107109800D02*
X201953400Y-107950000D01*
X200634580Y-105790980D02*
X201953400Y-107109800D01*
X197965376Y-105790980D02*
X200634580Y-105790980D01*
X197307051Y-105132655D02*
X197965376Y-105790980D01*
X197307051Y-103334403D02*
X197307051Y-105132655D01*
X196989552Y-103016904D02*
X197307051Y-103334403D01*
%TO.N,HEADPHONE_R*%
X205763400Y-107084400D02*
X205763400Y-107950000D01*
X204165170Y-105486170D02*
X205763400Y-107084400D01*
X198091632Y-105486170D02*
X204165170Y-105486170D01*
X197726117Y-105120655D02*
X198091632Y-105486170D01*
X197726117Y-103024314D02*
X197726117Y-105120655D01*
%TO.N,+3V3*%
X184089341Y-93065600D02*
X178917600Y-93065600D01*
X184816641Y-93792900D02*
X184089341Y-93065600D01*
X196018736Y-92439248D02*
X196018736Y-89096264D01*
X196018736Y-89096264D02*
X196215000Y-88900000D01*
D15*
X202089006Y-103124000D02*
X205232000Y-103124000D01*
X205232000Y-103124000D02*
X205365800Y-102990200D01*
X201803000Y-102837994D02*
X202089006Y-103124000D01*
X201803000Y-101370694D02*
X201803000Y-102837994D01*
X198729600Y-100888800D02*
X201321106Y-100888800D01*
X201321106Y-100888800D02*
X201803000Y-101370694D01*
D14*
%TO.N,+2V5*%
X192913000Y-89611200D02*
X193040000Y-89484200D01*
X192913000Y-91821000D02*
X192913000Y-89611200D01*
X193433690Y-92341690D02*
X192913000Y-91821000D01*
X193433690Y-103040261D02*
X193433690Y-92341690D01*
%TO.N,+1V1*%
X191201700Y-91733152D02*
X191736079Y-92267531D01*
X191201700Y-89119000D02*
X191201700Y-91733152D01*
D16*
X191736079Y-99922989D02*
X191736079Y-92267531D01*
X188366400Y-103292668D02*
X191736079Y-99922989D01*
X188366400Y-104038400D02*
X188366400Y-103292668D01*
D14*
X191420700Y-88900000D02*
X191201700Y-89119000D01*
X193675000Y-88900000D02*
X191420700Y-88900000D01*
%TD*%
D17*
%TO.N,GND*%
G36*
X177095600Y-84314802D02*
G01*
X177189522Y-84314802D01*
X177176650Y-84420211D01*
X177254255Y-84540124D01*
X177353763Y-84642593D01*
X177471349Y-84723680D01*
X177490192Y-84733731D01*
X177595600Y-84717538D01*
X177595600Y-84314800D01*
X177575600Y-84314800D01*
X177575600Y-84149800D01*
X178072800Y-84149800D01*
X178072800Y-84314800D01*
X178052800Y-84314800D01*
X178052800Y-84717538D01*
X178158208Y-84733731D01*
X178177051Y-84723680D01*
X178294637Y-84642593D01*
X178394145Y-84540124D01*
X178471750Y-84420211D01*
X178458878Y-84314802D01*
X178510230Y-84314802D01*
X178538560Y-84383196D01*
X178607177Y-84485889D01*
X178694511Y-84573223D01*
X178797204Y-84641840D01*
X178911311Y-84689105D01*
X179032446Y-84713200D01*
X179155954Y-84713200D01*
X179277089Y-84689105D01*
X179391196Y-84641840D01*
X179493889Y-84573223D01*
X179581223Y-84485889D01*
X179649840Y-84383196D01*
X179697105Y-84269089D01*
X179720833Y-84149800D01*
X179737567Y-84149800D01*
X179761295Y-84269089D01*
X179808560Y-84383196D01*
X179877177Y-84485889D01*
X179964511Y-84573223D01*
X180067204Y-84641840D01*
X180181311Y-84689105D01*
X180302446Y-84713200D01*
X180425954Y-84713200D01*
X180547089Y-84689105D01*
X180661196Y-84641840D01*
X180763889Y-84573223D01*
X180851223Y-84485889D01*
X180919840Y-84383196D01*
X180967105Y-84269089D01*
X180990833Y-84149800D01*
X181007567Y-84149800D01*
X181031295Y-84269089D01*
X181078560Y-84383196D01*
X181147177Y-84485889D01*
X181234511Y-84573223D01*
X181337204Y-84641840D01*
X181451311Y-84689105D01*
X181572446Y-84713200D01*
X181695954Y-84713200D01*
X181817089Y-84689105D01*
X181931196Y-84641840D01*
X182033889Y-84573223D01*
X182121223Y-84485889D01*
X182189840Y-84383196D01*
X182237105Y-84269089D01*
X182260833Y-84149800D01*
X182277567Y-84149800D01*
X182301295Y-84269089D01*
X182348560Y-84383196D01*
X182417177Y-84485889D01*
X182504511Y-84573223D01*
X182607204Y-84641840D01*
X182721311Y-84689105D01*
X182842446Y-84713200D01*
X182965954Y-84713200D01*
X183087089Y-84689105D01*
X183201196Y-84641840D01*
X183303889Y-84573223D01*
X183391223Y-84485889D01*
X183459840Y-84383196D01*
X183507105Y-84269089D01*
X183530833Y-84149800D01*
X183547567Y-84149800D01*
X183571295Y-84269089D01*
X183618560Y-84383196D01*
X183687177Y-84485889D01*
X183774511Y-84573223D01*
X183877204Y-84641840D01*
X183991311Y-84689105D01*
X184112446Y-84713200D01*
X184235954Y-84713200D01*
X184357089Y-84689105D01*
X184471196Y-84641840D01*
X184573889Y-84573223D01*
X184661223Y-84485889D01*
X184729840Y-84383196D01*
X184777105Y-84269089D01*
X184800833Y-84149800D01*
X184817567Y-84149800D01*
X184841295Y-84269089D01*
X184888560Y-84383196D01*
X184957177Y-84485889D01*
X185044511Y-84573223D01*
X185147204Y-84641840D01*
X185261311Y-84689105D01*
X185382446Y-84713200D01*
X185505954Y-84713200D01*
X185627089Y-84689105D01*
X185741196Y-84641840D01*
X185843889Y-84573223D01*
X185931223Y-84485889D01*
X185999840Y-84383196D01*
X186047105Y-84269089D01*
X186070833Y-84149800D01*
X186087567Y-84149800D01*
X186111295Y-84269089D01*
X186158560Y-84383196D01*
X186227177Y-84485889D01*
X186314511Y-84573223D01*
X186417204Y-84641840D01*
X186531311Y-84689105D01*
X186652446Y-84713200D01*
X186775954Y-84713200D01*
X186897089Y-84689105D01*
X187011196Y-84641840D01*
X187113889Y-84573223D01*
X187201223Y-84485889D01*
X187269840Y-84383196D01*
X187317105Y-84269089D01*
X187340833Y-84149800D01*
X187357567Y-84149800D01*
X187381295Y-84269089D01*
X187428560Y-84383196D01*
X187497177Y-84485889D01*
X187584511Y-84573223D01*
X187687204Y-84641840D01*
X187801311Y-84689105D01*
X187922446Y-84713200D01*
X188045954Y-84713200D01*
X188167089Y-84689105D01*
X188281196Y-84641840D01*
X188383889Y-84573223D01*
X188471223Y-84485889D01*
X188539840Y-84383196D01*
X188587105Y-84269089D01*
X188610833Y-84149800D01*
X188627567Y-84149800D01*
X188651295Y-84269089D01*
X188698560Y-84383196D01*
X188767177Y-84485889D01*
X188854511Y-84573223D01*
X188957204Y-84641840D01*
X189071311Y-84689105D01*
X189192446Y-84713200D01*
X189315954Y-84713200D01*
X189437089Y-84689105D01*
X189551196Y-84641840D01*
X189653889Y-84573223D01*
X189741223Y-84485889D01*
X189809840Y-84383196D01*
X189857105Y-84269089D01*
X189880833Y-84149800D01*
X189897567Y-84149800D01*
X189921295Y-84269089D01*
X189968560Y-84383196D01*
X190037177Y-84485889D01*
X190124511Y-84573223D01*
X190227204Y-84641840D01*
X190341311Y-84689105D01*
X190462446Y-84713200D01*
X190585954Y-84713200D01*
X190707089Y-84689105D01*
X190821196Y-84641840D01*
X190923889Y-84573223D01*
X191011223Y-84485889D01*
X191079840Y-84383196D01*
X191127105Y-84269089D01*
X191150833Y-84149800D01*
X191167567Y-84149800D01*
X191191295Y-84269089D01*
X191238560Y-84383196D01*
X191307177Y-84485889D01*
X191394511Y-84573223D01*
X191497204Y-84641840D01*
X191611311Y-84689105D01*
X191732446Y-84713200D01*
X191855954Y-84713200D01*
X191977089Y-84689105D01*
X192091196Y-84641840D01*
X192193889Y-84573223D01*
X192281223Y-84485889D01*
X192349840Y-84383196D01*
X192397105Y-84269089D01*
X192420833Y-84149800D01*
X192437567Y-84149800D01*
X192461295Y-84269089D01*
X192508560Y-84383196D01*
X192577177Y-84485889D01*
X192664511Y-84573223D01*
X192767204Y-84641840D01*
X192881311Y-84689105D01*
X193002446Y-84713200D01*
X193125954Y-84713200D01*
X193247089Y-84689105D01*
X193361196Y-84641840D01*
X193463889Y-84573223D01*
X193551223Y-84485889D01*
X193619840Y-84383196D01*
X193667105Y-84269089D01*
X193690833Y-84149800D01*
X193707567Y-84149800D01*
X193731295Y-84269089D01*
X193778560Y-84383196D01*
X193847177Y-84485889D01*
X193934511Y-84573223D01*
X194037204Y-84641840D01*
X194151311Y-84689105D01*
X194272446Y-84713200D01*
X194395954Y-84713200D01*
X194517089Y-84689105D01*
X194631196Y-84641840D01*
X194733889Y-84573223D01*
X194821223Y-84485889D01*
X194889840Y-84383196D01*
X194937105Y-84269089D01*
X194960833Y-84149800D01*
X194977567Y-84149800D01*
X195001295Y-84269089D01*
X195048560Y-84383196D01*
X195117177Y-84485889D01*
X195204511Y-84573223D01*
X195307204Y-84641840D01*
X195421311Y-84689105D01*
X195542446Y-84713200D01*
X195665954Y-84713200D01*
X195787089Y-84689105D01*
X195901196Y-84641840D01*
X196003889Y-84573223D01*
X196091223Y-84485889D01*
X196159840Y-84383196D01*
X196207105Y-84269089D01*
X196230833Y-84149800D01*
X196247567Y-84149800D01*
X196271295Y-84269089D01*
X196302990Y-84345607D01*
X195649786Y-84988400D01*
X195083229Y-84988400D01*
X195072000Y-84987294D01*
X195027186Y-84991708D01*
X194984095Y-85004779D01*
X194944382Y-85026006D01*
X194909573Y-85054573D01*
X194902411Y-85063300D01*
X194042002Y-85923710D01*
X194033275Y-85930872D01*
X194004708Y-85965681D01*
X193993361Y-85986909D01*
X193983480Y-86005395D01*
X193970409Y-86048486D01*
X193965995Y-86093299D01*
X193967102Y-86104538D01*
X193967101Y-88563483D01*
X193958352Y-88554734D01*
X193885550Y-88506089D01*
X193804656Y-88472582D01*
X193718779Y-88455500D01*
X193631221Y-88455500D01*
X193545344Y-88472582D01*
X193464450Y-88506089D01*
X193391648Y-88554734D01*
X193329734Y-88616648D01*
X193293150Y-88671400D01*
X191431929Y-88671400D01*
X191420700Y-88670294D01*
X191375886Y-88674708D01*
X191336596Y-88686626D01*
X191332795Y-88687779D01*
X191327219Y-88690759D01*
X191245479Y-88674500D01*
X191157921Y-88674500D01*
X191072044Y-88691582D01*
X190991150Y-88725089D01*
X190918348Y-88773734D01*
X190856434Y-88835648D01*
X190807789Y-88908450D01*
X190774282Y-88989344D01*
X190757200Y-89075221D01*
X190757200Y-89162779D01*
X190774282Y-89248656D01*
X190807789Y-89329550D01*
X190856434Y-89402352D01*
X190918348Y-89464266D01*
X190973100Y-89500850D01*
X190973101Y-91721913D01*
X190971994Y-91733152D01*
X190976408Y-91777965D01*
X190989479Y-91821056D01*
X190999360Y-91839542D01*
X191010707Y-91860770D01*
X191039274Y-91895579D01*
X191048001Y-91902741D01*
X191304426Y-92159166D01*
X191291579Y-92223752D01*
X191291579Y-92311310D01*
X191308661Y-92397187D01*
X191342168Y-92478081D01*
X191390813Y-92550883D01*
X191452727Y-92612797D01*
X191482080Y-92632410D01*
X191482079Y-99817778D01*
X188195604Y-103104254D01*
X188185928Y-103112195D01*
X188177987Y-103121871D01*
X188177978Y-103121880D01*
X188154186Y-103150872D01*
X188130600Y-103194997D01*
X188125376Y-103212220D01*
X188116077Y-103242875D01*
X188113409Y-103269967D01*
X188111173Y-103292668D01*
X188112401Y-103305136D01*
X188112400Y-103673521D01*
X188083048Y-103693134D01*
X188021134Y-103755048D01*
X187972489Y-103827850D01*
X187938982Y-103908744D01*
X187921900Y-103994621D01*
X187921900Y-104082179D01*
X187938982Y-104168056D01*
X187972489Y-104248950D01*
X188021134Y-104321752D01*
X188083048Y-104383666D01*
X188155850Y-104432311D01*
X188236744Y-104465818D01*
X188322621Y-104482900D01*
X188410179Y-104482900D01*
X188496056Y-104465818D01*
X188576950Y-104432311D01*
X188649752Y-104383666D01*
X188711666Y-104321752D01*
X188760311Y-104248950D01*
X188793818Y-104168056D01*
X188810900Y-104082179D01*
X188810900Y-103994621D01*
X188793818Y-103908744D01*
X188760311Y-103827850D01*
X188711666Y-103755048D01*
X188649752Y-103693134D01*
X188620400Y-103673522D01*
X188620400Y-103397878D01*
X188829449Y-103188829D01*
X188829449Y-103237128D01*
X188846531Y-103323005D01*
X188880038Y-103403899D01*
X188928683Y-103476701D01*
X188990597Y-103538615D01*
X189045349Y-103575200D01*
X189045350Y-104477510D01*
X189044243Y-104488749D01*
X189048657Y-104533562D01*
X189061728Y-104576653D01*
X189061729Y-104576654D01*
X189082956Y-104616367D01*
X189111523Y-104651176D01*
X189120250Y-104658338D01*
X189543010Y-105081099D01*
X189550173Y-105089827D01*
X189584982Y-105118394D01*
X189624695Y-105139621D01*
X189657757Y-105149650D01*
X189667786Y-105152692D01*
X189712599Y-105157106D01*
X189723828Y-105156000D01*
X190633912Y-105156000D01*
X192834800Y-107356889D01*
X192834800Y-107578829D01*
X192766404Y-107607160D01*
X192663711Y-107675777D01*
X192576377Y-107763111D01*
X192507760Y-107865804D01*
X192460495Y-107979911D01*
X192436400Y-108101046D01*
X192436400Y-108128200D01*
X192420400Y-108128200D01*
X192420400Y-108101046D01*
X192396305Y-107979911D01*
X192349040Y-107865804D01*
X192280423Y-107763111D01*
X192193089Y-107675777D01*
X192090396Y-107607160D01*
X192022000Y-107578829D01*
X192022000Y-107349629D01*
X192023106Y-107338400D01*
X192018692Y-107293586D01*
X192005621Y-107250495D01*
X192000769Y-107241418D01*
X191984394Y-107210782D01*
X191955827Y-107175973D01*
X191947101Y-107168812D01*
X190567994Y-105789706D01*
X190560827Y-105780973D01*
X190526018Y-105752406D01*
X190486305Y-105731179D01*
X190443213Y-105718108D01*
X190409629Y-105714800D01*
X190398400Y-105713694D01*
X190387171Y-105714800D01*
X189019890Y-105714800D01*
X187502800Y-104197712D01*
X187502800Y-103582050D01*
X187557552Y-103545466D01*
X187619466Y-103483552D01*
X187668111Y-103410750D01*
X187701618Y-103329856D01*
X187718700Y-103243979D01*
X187718700Y-103156421D01*
X187701618Y-103070544D01*
X187668111Y-102989650D01*
X187619466Y-102916848D01*
X187557552Y-102854934D01*
X187484750Y-102806289D01*
X187403856Y-102772782D01*
X187317979Y-102755700D01*
X187230421Y-102755700D01*
X187144544Y-102772782D01*
X187063650Y-102806289D01*
X186990848Y-102854934D01*
X186928934Y-102916848D01*
X186905899Y-102951323D01*
X186882863Y-102916848D01*
X186820949Y-102854934D01*
X186748147Y-102806289D01*
X186667253Y-102772782D01*
X186581376Y-102755700D01*
X186493818Y-102755700D01*
X186407941Y-102772782D01*
X186327047Y-102806289D01*
X186254245Y-102854934D01*
X186192331Y-102916848D01*
X186143686Y-102989650D01*
X186110179Y-103070544D01*
X186093097Y-103156421D01*
X186093097Y-103243979D01*
X186110179Y-103329856D01*
X186143686Y-103410750D01*
X186192331Y-103483552D01*
X186254245Y-103545466D01*
X186308997Y-103582051D01*
X186308998Y-104306558D01*
X186307891Y-104317797D01*
X186312305Y-104362610D01*
X186325376Y-104405701D01*
X186333029Y-104420018D01*
X186346604Y-104445415D01*
X186375171Y-104480224D01*
X186383898Y-104487386D01*
X188501611Y-106605100D01*
X188508773Y-106613827D01*
X188543582Y-106642394D01*
X188583295Y-106663621D01*
X188615303Y-106673330D01*
X188626386Y-106676692D01*
X188671199Y-106681106D01*
X188682428Y-106680000D01*
X189668712Y-106680000D01*
X190294800Y-107306089D01*
X190294800Y-107578829D01*
X190226404Y-107607160D01*
X190123711Y-107675777D01*
X190036377Y-107763111D01*
X189967760Y-107865804D01*
X189939430Y-107934198D01*
X189888078Y-107934198D01*
X189900950Y-107828789D01*
X189823345Y-107708876D01*
X189723837Y-107606407D01*
X189606251Y-107525320D01*
X189587408Y-107515269D01*
X189482000Y-107531462D01*
X189482000Y-107934200D01*
X189502000Y-107934200D01*
X189502000Y-108128200D01*
X189004800Y-108128200D01*
X189004800Y-107934200D01*
X189024800Y-107934200D01*
X189024800Y-107531462D01*
X188919392Y-107515269D01*
X188900549Y-107525320D01*
X188782963Y-107606407D01*
X188683455Y-107708876D01*
X188605850Y-107828789D01*
X188618722Y-107934198D01*
X188567370Y-107934198D01*
X188539040Y-107865804D01*
X188470423Y-107763111D01*
X188383089Y-107675777D01*
X188280396Y-107607160D01*
X188166289Y-107559895D01*
X188045154Y-107535800D01*
X187921646Y-107535800D01*
X187800511Y-107559895D01*
X187686404Y-107607160D01*
X187583711Y-107675777D01*
X187496377Y-107763111D01*
X187427760Y-107865804D01*
X187380495Y-107979911D01*
X187356400Y-108101046D01*
X187356400Y-108128200D01*
X187340400Y-108128200D01*
X187340400Y-108101046D01*
X187316305Y-107979911D01*
X187269040Y-107865804D01*
X187200423Y-107763111D01*
X187113089Y-107675777D01*
X187010396Y-107607160D01*
X186942000Y-107578829D01*
X186942000Y-107070229D01*
X186943106Y-107059000D01*
X186938692Y-107014186D01*
X186925621Y-106971095D01*
X186917971Y-106956783D01*
X186904394Y-106931382D01*
X186875827Y-106896573D01*
X186867101Y-106889412D01*
X185570911Y-105593223D01*
X185570911Y-96849561D01*
X185625663Y-96812977D01*
X185687577Y-96751063D01*
X185736222Y-96678261D01*
X185769729Y-96597367D01*
X185786811Y-96511490D01*
X185786811Y-96423932D01*
X185769729Y-96338055D01*
X185736222Y-96257161D01*
X185687577Y-96184359D01*
X185625663Y-96122445D01*
X185552861Y-96073800D01*
X185471967Y-96040293D01*
X185386090Y-96023211D01*
X185298532Y-96023211D01*
X185212655Y-96040293D01*
X185131761Y-96073800D01*
X185093176Y-96099582D01*
X185077444Y-96020493D01*
X185043937Y-95939599D01*
X184995292Y-95866797D01*
X184933378Y-95804883D01*
X184860576Y-95756238D01*
X184779682Y-95722731D01*
X184693805Y-95705649D01*
X184606247Y-95705649D01*
X184520370Y-95722731D01*
X184439476Y-95756238D01*
X184381078Y-95795259D01*
X184377827Y-95778916D01*
X184344320Y-95698022D01*
X184295675Y-95625220D01*
X184233761Y-95563306D01*
X184160959Y-95514661D01*
X184080065Y-95481154D01*
X183994188Y-95464072D01*
X183906630Y-95464072D01*
X183820753Y-95481154D01*
X183739859Y-95514661D01*
X183667057Y-95563306D01*
X183605143Y-95625220D01*
X183556498Y-95698022D01*
X183522991Y-95778916D01*
X183508696Y-95850782D01*
X183503873Y-95847559D01*
X183422979Y-95814052D01*
X183337102Y-95796970D01*
X183249544Y-95796970D01*
X183163667Y-95814052D01*
X183082773Y-95847559D01*
X183009971Y-95896204D01*
X182948057Y-95958118D01*
X182911473Y-96012870D01*
X182810138Y-96012870D01*
X182798909Y-96011764D01*
X182754095Y-96016178D01*
X182725358Y-96024895D01*
X182711004Y-96029249D01*
X182671291Y-96050476D01*
X182636482Y-96079043D01*
X182629320Y-96087770D01*
X179648457Y-99068634D01*
X179639724Y-99075801D01*
X179611157Y-99110611D01*
X179592460Y-99145591D01*
X179589930Y-99150324D01*
X179576859Y-99193415D01*
X179572445Y-99238228D01*
X179573551Y-99249457D01*
X179573552Y-106308712D01*
X179572445Y-106319951D01*
X179576859Y-106364764D01*
X179589930Y-106407855D01*
X179589931Y-106407856D01*
X179611158Y-106447569D01*
X179639725Y-106482378D01*
X179648452Y-106489540D01*
X180134800Y-106975889D01*
X180134801Y-107578829D01*
X180066404Y-107607160D01*
X179963711Y-107675777D01*
X179876377Y-107763111D01*
X179807760Y-107865804D01*
X179760495Y-107979911D01*
X179736400Y-108101046D01*
X179736400Y-108128200D01*
X179720400Y-108128200D01*
X179720400Y-108101046D01*
X179696305Y-107979911D01*
X179649040Y-107865804D01*
X179580423Y-107763111D01*
X179493089Y-107675777D01*
X179390396Y-107607160D01*
X179276289Y-107559895D01*
X179155154Y-107535800D01*
X179031646Y-107535800D01*
X178910511Y-107559895D01*
X178796404Y-107607160D01*
X178693711Y-107675777D01*
X178606377Y-107763111D01*
X178552169Y-107844239D01*
X178553106Y-107662800D01*
X178548692Y-107617987D01*
X178535621Y-107574895D01*
X178514394Y-107535182D01*
X178485827Y-107500373D01*
X178451018Y-107471806D01*
X178411305Y-107450579D01*
X178368213Y-107437508D01*
X178323400Y-107433094D01*
X178109150Y-107434200D01*
X178052000Y-107491350D01*
X178052000Y-107934200D01*
X178072000Y-107934200D01*
X178072000Y-108128200D01*
X177574800Y-108128200D01*
X177574800Y-107934200D01*
X177594800Y-107934200D01*
X177594800Y-107491350D01*
X177537650Y-107434200D01*
X177323400Y-107433094D01*
X177278587Y-107437508D01*
X177235495Y-107450579D01*
X177195782Y-107471806D01*
X177160973Y-107500373D01*
X177132406Y-107535182D01*
X177111179Y-107574895D01*
X177098108Y-107617987D01*
X177093694Y-107662800D01*
X177094800Y-107877050D01*
X177151948Y-107934198D01*
X177094800Y-107934198D01*
X177094800Y-108128108D01*
X176732800Y-108127838D01*
X176732800Y-93021821D01*
X178473100Y-93021821D01*
X178473100Y-93109379D01*
X178490182Y-93195256D01*
X178523689Y-93276150D01*
X178572334Y-93348952D01*
X178634248Y-93410866D01*
X178707050Y-93459511D01*
X178787944Y-93493018D01*
X178873821Y-93510100D01*
X178961379Y-93510100D01*
X179047256Y-93493018D01*
X179128150Y-93459511D01*
X179200952Y-93410866D01*
X179262866Y-93348952D01*
X179299450Y-93294200D01*
X183994653Y-93294200D01*
X184384988Y-93684536D01*
X184372141Y-93749121D01*
X184372141Y-93836679D01*
X184389223Y-93922556D01*
X184422730Y-94003450D01*
X184471375Y-94076252D01*
X184533289Y-94138166D01*
X184606091Y-94186811D01*
X184686985Y-94220318D01*
X184772862Y-94237400D01*
X184860420Y-94237400D01*
X184946297Y-94220318D01*
X185027191Y-94186811D01*
X185099993Y-94138166D01*
X185161907Y-94076252D01*
X185210552Y-94003450D01*
X185244059Y-93922556D01*
X185261141Y-93836679D01*
X185261141Y-93749121D01*
X185244059Y-93663244D01*
X185210552Y-93582350D01*
X185161907Y-93509548D01*
X185099993Y-93447634D01*
X185027191Y-93398989D01*
X184946297Y-93365482D01*
X184860420Y-93348400D01*
X184772862Y-93348400D01*
X184708277Y-93361247D01*
X184258935Y-92911906D01*
X184251768Y-92903173D01*
X184216959Y-92874606D01*
X184177246Y-92853379D01*
X184134154Y-92840308D01*
X184100570Y-92837000D01*
X184089341Y-92835894D01*
X184078112Y-92837000D01*
X179299450Y-92837000D01*
X179262866Y-92782248D01*
X179200952Y-92720334D01*
X179128150Y-92671689D01*
X179047256Y-92638182D01*
X178961379Y-92621100D01*
X178873821Y-92621100D01*
X178787944Y-92638182D01*
X178707050Y-92671689D01*
X178634248Y-92720334D01*
X178572334Y-92782248D01*
X178523689Y-92855050D01*
X178490182Y-92935944D01*
X178473100Y-93021821D01*
X176732800Y-93021821D01*
X176732800Y-84149800D01*
X177095600Y-84149800D01*
X177095600Y-84314802D01*
G37*
X177095600Y-84314802D02*
X177189522Y-84314802D01*
X177176650Y-84420211D01*
X177254255Y-84540124D01*
X177353763Y-84642593D01*
X177471349Y-84723680D01*
X177490192Y-84733731D01*
X177595600Y-84717538D01*
X177595600Y-84314800D01*
X177575600Y-84314800D01*
X177575600Y-84149800D01*
X178072800Y-84149800D01*
X178072800Y-84314800D01*
X178052800Y-84314800D01*
X178052800Y-84717538D01*
X178158208Y-84733731D01*
X178177051Y-84723680D01*
X178294637Y-84642593D01*
X178394145Y-84540124D01*
X178471750Y-84420211D01*
X178458878Y-84314802D01*
X178510230Y-84314802D01*
X178538560Y-84383196D01*
X178607177Y-84485889D01*
X178694511Y-84573223D01*
X178797204Y-84641840D01*
X178911311Y-84689105D01*
X179032446Y-84713200D01*
X179155954Y-84713200D01*
X179277089Y-84689105D01*
X179391196Y-84641840D01*
X179493889Y-84573223D01*
X179581223Y-84485889D01*
X179649840Y-84383196D01*
X179697105Y-84269089D01*
X179720833Y-84149800D01*
X179737567Y-84149800D01*
X179761295Y-84269089D01*
X179808560Y-84383196D01*
X179877177Y-84485889D01*
X179964511Y-84573223D01*
X180067204Y-84641840D01*
X180181311Y-84689105D01*
X180302446Y-84713200D01*
X180425954Y-84713200D01*
X180547089Y-84689105D01*
X180661196Y-84641840D01*
X180763889Y-84573223D01*
X180851223Y-84485889D01*
X180919840Y-84383196D01*
X180967105Y-84269089D01*
X180990833Y-84149800D01*
X181007567Y-84149800D01*
X181031295Y-84269089D01*
X181078560Y-84383196D01*
X181147177Y-84485889D01*
X181234511Y-84573223D01*
X181337204Y-84641840D01*
X181451311Y-84689105D01*
X181572446Y-84713200D01*
X181695954Y-84713200D01*
X181817089Y-84689105D01*
X181931196Y-84641840D01*
X182033889Y-84573223D01*
X182121223Y-84485889D01*
X182189840Y-84383196D01*
X182237105Y-84269089D01*
X182260833Y-84149800D01*
X182277567Y-84149800D01*
X182301295Y-84269089D01*
X182348560Y-84383196D01*
X182417177Y-84485889D01*
X182504511Y-84573223D01*
X182607204Y-84641840D01*
X182721311Y-84689105D01*
X182842446Y-84713200D01*
X182965954Y-84713200D01*
X183087089Y-84689105D01*
X183201196Y-84641840D01*
X183303889Y-84573223D01*
X183391223Y-84485889D01*
X183459840Y-84383196D01*
X183507105Y-84269089D01*
X183530833Y-84149800D01*
X183547567Y-84149800D01*
X183571295Y-84269089D01*
X183618560Y-84383196D01*
X183687177Y-84485889D01*
X183774511Y-84573223D01*
X183877204Y-84641840D01*
X183991311Y-84689105D01*
X184112446Y-84713200D01*
X184235954Y-84713200D01*
X184357089Y-84689105D01*
X184471196Y-84641840D01*
X184573889Y-84573223D01*
X184661223Y-84485889D01*
X184729840Y-84383196D01*
X184777105Y-84269089D01*
X184800833Y-84149800D01*
X184817567Y-84149800D01*
X184841295Y-84269089D01*
X184888560Y-84383196D01*
X184957177Y-84485889D01*
X185044511Y-84573223D01*
X185147204Y-84641840D01*
X185261311Y-84689105D01*
X185382446Y-84713200D01*
X185505954Y-84713200D01*
X185627089Y-84689105D01*
X185741196Y-84641840D01*
X185843889Y-84573223D01*
X185931223Y-84485889D01*
X185999840Y-84383196D01*
X186047105Y-84269089D01*
X186070833Y-84149800D01*
X186087567Y-84149800D01*
X186111295Y-84269089D01*
X186158560Y-84383196D01*
X186227177Y-84485889D01*
X186314511Y-84573223D01*
X186417204Y-84641840D01*
X186531311Y-84689105D01*
X186652446Y-84713200D01*
X186775954Y-84713200D01*
X186897089Y-84689105D01*
X187011196Y-84641840D01*
X187113889Y-84573223D01*
X187201223Y-84485889D01*
X187269840Y-84383196D01*
X187317105Y-84269089D01*
X187340833Y-84149800D01*
X187357567Y-84149800D01*
X187381295Y-84269089D01*
X187428560Y-84383196D01*
X187497177Y-84485889D01*
X187584511Y-84573223D01*
X187687204Y-84641840D01*
X187801311Y-84689105D01*
X187922446Y-84713200D01*
X188045954Y-84713200D01*
X188167089Y-84689105D01*
X188281196Y-84641840D01*
X188383889Y-84573223D01*
X188471223Y-84485889D01*
X188539840Y-84383196D01*
X188587105Y-84269089D01*
X188610833Y-84149800D01*
X188627567Y-84149800D01*
X188651295Y-84269089D01*
X188698560Y-84383196D01*
X188767177Y-84485889D01*
X188854511Y-84573223D01*
X188957204Y-84641840D01*
X189071311Y-84689105D01*
X189192446Y-84713200D01*
X189315954Y-84713200D01*
X189437089Y-84689105D01*
X189551196Y-84641840D01*
X189653889Y-84573223D01*
X189741223Y-84485889D01*
X189809840Y-84383196D01*
X189857105Y-84269089D01*
X189880833Y-84149800D01*
X189897567Y-84149800D01*
X189921295Y-84269089D01*
X189968560Y-84383196D01*
X190037177Y-84485889D01*
X190124511Y-84573223D01*
X190227204Y-84641840D01*
X190341311Y-84689105D01*
X190462446Y-84713200D01*
X190585954Y-84713200D01*
X190707089Y-84689105D01*
X190821196Y-84641840D01*
X190923889Y-84573223D01*
X191011223Y-84485889D01*
X191079840Y-84383196D01*
X191127105Y-84269089D01*
X191150833Y-84149800D01*
X191167567Y-84149800D01*
X191191295Y-84269089D01*
X191238560Y-84383196D01*
X191307177Y-84485889D01*
X191394511Y-84573223D01*
X191497204Y-84641840D01*
X191611311Y-84689105D01*
X191732446Y-84713200D01*
X191855954Y-84713200D01*
X191977089Y-84689105D01*
X192091196Y-84641840D01*
X192193889Y-84573223D01*
X192281223Y-84485889D01*
X192349840Y-84383196D01*
X192397105Y-84269089D01*
X192420833Y-84149800D01*
X192437567Y-84149800D01*
X192461295Y-84269089D01*
X192508560Y-84383196D01*
X192577177Y-84485889D01*
X192664511Y-84573223D01*
X192767204Y-84641840D01*
X192881311Y-84689105D01*
X193002446Y-84713200D01*
X193125954Y-84713200D01*
X193247089Y-84689105D01*
X193361196Y-84641840D01*
X193463889Y-84573223D01*
X193551223Y-84485889D01*
X193619840Y-84383196D01*
X193667105Y-84269089D01*
X193690833Y-84149800D01*
X193707567Y-84149800D01*
X193731295Y-84269089D01*
X193778560Y-84383196D01*
X193847177Y-84485889D01*
X193934511Y-84573223D01*
X194037204Y-84641840D01*
X194151311Y-84689105D01*
X194272446Y-84713200D01*
X194395954Y-84713200D01*
X194517089Y-84689105D01*
X194631196Y-84641840D01*
X194733889Y-84573223D01*
X194821223Y-84485889D01*
X194889840Y-84383196D01*
X194937105Y-84269089D01*
X194960833Y-84149800D01*
X194977567Y-84149800D01*
X195001295Y-84269089D01*
X195048560Y-84383196D01*
X195117177Y-84485889D01*
X195204511Y-84573223D01*
X195307204Y-84641840D01*
X195421311Y-84689105D01*
X195542446Y-84713200D01*
X195665954Y-84713200D01*
X195787089Y-84689105D01*
X195901196Y-84641840D01*
X196003889Y-84573223D01*
X196091223Y-84485889D01*
X196159840Y-84383196D01*
X196207105Y-84269089D01*
X196230833Y-84149800D01*
X196247567Y-84149800D01*
X196271295Y-84269089D01*
X196302990Y-84345607D01*
X195649786Y-84988400D01*
X195083229Y-84988400D01*
X195072000Y-84987294D01*
X195027186Y-84991708D01*
X194984095Y-85004779D01*
X194944382Y-85026006D01*
X194909573Y-85054573D01*
X194902411Y-85063300D01*
X194042002Y-85923710D01*
X194033275Y-85930872D01*
X194004708Y-85965681D01*
X193993361Y-85986909D01*
X193983480Y-86005395D01*
X193970409Y-86048486D01*
X193965995Y-86093299D01*
X193967102Y-86104538D01*
X193967101Y-88563483D01*
X193958352Y-88554734D01*
X193885550Y-88506089D01*
X193804656Y-88472582D01*
X193718779Y-88455500D01*
X193631221Y-88455500D01*
X193545344Y-88472582D01*
X193464450Y-88506089D01*
X193391648Y-88554734D01*
X193329734Y-88616648D01*
X193293150Y-88671400D01*
X191431929Y-88671400D01*
X191420700Y-88670294D01*
X191375886Y-88674708D01*
X191336596Y-88686626D01*
X191332795Y-88687779D01*
X191327219Y-88690759D01*
X191245479Y-88674500D01*
X191157921Y-88674500D01*
X191072044Y-88691582D01*
X190991150Y-88725089D01*
X190918348Y-88773734D01*
X190856434Y-88835648D01*
X190807789Y-88908450D01*
X190774282Y-88989344D01*
X190757200Y-89075221D01*
X190757200Y-89162779D01*
X190774282Y-89248656D01*
X190807789Y-89329550D01*
X190856434Y-89402352D01*
X190918348Y-89464266D01*
X190973100Y-89500850D01*
X190973101Y-91721913D01*
X190971994Y-91733152D01*
X190976408Y-91777965D01*
X190989479Y-91821056D01*
X190999360Y-91839542D01*
X191010707Y-91860770D01*
X191039274Y-91895579D01*
X191048001Y-91902741D01*
X191304426Y-92159166D01*
X191291579Y-92223752D01*
X191291579Y-92311310D01*
X191308661Y-92397187D01*
X191342168Y-92478081D01*
X191390813Y-92550883D01*
X191452727Y-92612797D01*
X191482080Y-92632410D01*
X191482079Y-99817778D01*
X188195604Y-103104254D01*
X188185928Y-103112195D01*
X188177987Y-103121871D01*
X188177978Y-103121880D01*
X188154186Y-103150872D01*
X188130600Y-103194997D01*
X188125376Y-103212220D01*
X188116077Y-103242875D01*
X188113409Y-103269967D01*
X188111173Y-103292668D01*
X188112401Y-103305136D01*
X188112400Y-103673521D01*
X188083048Y-103693134D01*
X188021134Y-103755048D01*
X187972489Y-103827850D01*
X187938982Y-103908744D01*
X187921900Y-103994621D01*
X187921900Y-104082179D01*
X187938982Y-104168056D01*
X187972489Y-104248950D01*
X188021134Y-104321752D01*
X188083048Y-104383666D01*
X188155850Y-104432311D01*
X188236744Y-104465818D01*
X188322621Y-104482900D01*
X188410179Y-104482900D01*
X188496056Y-104465818D01*
X188576950Y-104432311D01*
X188649752Y-104383666D01*
X188711666Y-104321752D01*
X188760311Y-104248950D01*
X188793818Y-104168056D01*
X188810900Y-104082179D01*
X188810900Y-103994621D01*
X188793818Y-103908744D01*
X188760311Y-103827850D01*
X188711666Y-103755048D01*
X188649752Y-103693134D01*
X188620400Y-103673522D01*
X188620400Y-103397878D01*
X188829449Y-103188829D01*
X188829449Y-103237128D01*
X188846531Y-103323005D01*
X188880038Y-103403899D01*
X188928683Y-103476701D01*
X188990597Y-103538615D01*
X189045349Y-103575200D01*
X189045350Y-104477510D01*
X189044243Y-104488749D01*
X189048657Y-104533562D01*
X189061728Y-104576653D01*
X189061729Y-104576654D01*
X189082956Y-104616367D01*
X189111523Y-104651176D01*
X189120250Y-104658338D01*
X189543010Y-105081099D01*
X189550173Y-105089827D01*
X189584982Y-105118394D01*
X189624695Y-105139621D01*
X189657757Y-105149650D01*
X189667786Y-105152692D01*
X189712599Y-105157106D01*
X189723828Y-105156000D01*
X190633912Y-105156000D01*
X192834800Y-107356889D01*
X192834800Y-107578829D01*
X192766404Y-107607160D01*
X192663711Y-107675777D01*
X192576377Y-107763111D01*
X192507760Y-107865804D01*
X192460495Y-107979911D01*
X192436400Y-108101046D01*
X192436400Y-108128200D01*
X192420400Y-108128200D01*
X192420400Y-108101046D01*
X192396305Y-107979911D01*
X192349040Y-107865804D01*
X192280423Y-107763111D01*
X192193089Y-107675777D01*
X192090396Y-107607160D01*
X192022000Y-107578829D01*
X192022000Y-107349629D01*
X192023106Y-107338400D01*
X192018692Y-107293586D01*
X192005621Y-107250495D01*
X192000769Y-107241418D01*
X191984394Y-107210782D01*
X191955827Y-107175973D01*
X191947101Y-107168812D01*
X190567994Y-105789706D01*
X190560827Y-105780973D01*
X190526018Y-105752406D01*
X190486305Y-105731179D01*
X190443213Y-105718108D01*
X190409629Y-105714800D01*
X190398400Y-105713694D01*
X190387171Y-105714800D01*
X189019890Y-105714800D01*
X187502800Y-104197712D01*
X187502800Y-103582050D01*
X187557552Y-103545466D01*
X187619466Y-103483552D01*
X187668111Y-103410750D01*
X187701618Y-103329856D01*
X187718700Y-103243979D01*
X187718700Y-103156421D01*
X187701618Y-103070544D01*
X187668111Y-102989650D01*
X187619466Y-102916848D01*
X187557552Y-102854934D01*
X187484750Y-102806289D01*
X187403856Y-102772782D01*
X187317979Y-102755700D01*
X187230421Y-102755700D01*
X187144544Y-102772782D01*
X187063650Y-102806289D01*
X186990848Y-102854934D01*
X186928934Y-102916848D01*
X186905899Y-102951323D01*
X186882863Y-102916848D01*
X186820949Y-102854934D01*
X186748147Y-102806289D01*
X186667253Y-102772782D01*
X186581376Y-102755700D01*
X186493818Y-102755700D01*
X186407941Y-102772782D01*
X186327047Y-102806289D01*
X186254245Y-102854934D01*
X186192331Y-102916848D01*
X186143686Y-102989650D01*
X186110179Y-103070544D01*
X186093097Y-103156421D01*
X186093097Y-103243979D01*
X186110179Y-103329856D01*
X186143686Y-103410750D01*
X186192331Y-103483552D01*
X186254245Y-103545466D01*
X186308997Y-103582051D01*
X186308998Y-104306558D01*
X186307891Y-104317797D01*
X186312305Y-104362610D01*
X186325376Y-104405701D01*
X186333029Y-104420018D01*
X186346604Y-104445415D01*
X186375171Y-104480224D01*
X186383898Y-104487386D01*
X188501611Y-106605100D01*
X188508773Y-106613827D01*
X188543582Y-106642394D01*
X188583295Y-106663621D01*
X188615303Y-106673330D01*
X188626386Y-106676692D01*
X188671199Y-106681106D01*
X188682428Y-106680000D01*
X189668712Y-106680000D01*
X190294800Y-107306089D01*
X190294800Y-107578829D01*
X190226404Y-107607160D01*
X190123711Y-107675777D01*
X190036377Y-107763111D01*
X189967760Y-107865804D01*
X189939430Y-107934198D01*
X189888078Y-107934198D01*
X189900950Y-107828789D01*
X189823345Y-107708876D01*
X189723837Y-107606407D01*
X189606251Y-107525320D01*
X189587408Y-107515269D01*
X189482000Y-107531462D01*
X189482000Y-107934200D01*
X189502000Y-107934200D01*
X189502000Y-108128200D01*
X189004800Y-108128200D01*
X189004800Y-107934200D01*
X189024800Y-107934200D01*
X189024800Y-107531462D01*
X188919392Y-107515269D01*
X188900549Y-107525320D01*
X188782963Y-107606407D01*
X188683455Y-107708876D01*
X188605850Y-107828789D01*
X188618722Y-107934198D01*
X188567370Y-107934198D01*
X188539040Y-107865804D01*
X188470423Y-107763111D01*
X188383089Y-107675777D01*
X188280396Y-107607160D01*
X188166289Y-107559895D01*
X188045154Y-107535800D01*
X187921646Y-107535800D01*
X187800511Y-107559895D01*
X187686404Y-107607160D01*
X187583711Y-107675777D01*
X187496377Y-107763111D01*
X187427760Y-107865804D01*
X187380495Y-107979911D01*
X187356400Y-108101046D01*
X187356400Y-108128200D01*
X187340400Y-108128200D01*
X187340400Y-108101046D01*
X187316305Y-107979911D01*
X187269040Y-107865804D01*
X187200423Y-107763111D01*
X187113089Y-107675777D01*
X187010396Y-107607160D01*
X186942000Y-107578829D01*
X186942000Y-107070229D01*
X186943106Y-107059000D01*
X186938692Y-107014186D01*
X186925621Y-106971095D01*
X186917971Y-106956783D01*
X186904394Y-106931382D01*
X186875827Y-106896573D01*
X186867101Y-106889412D01*
X185570911Y-105593223D01*
X185570911Y-96849561D01*
X185625663Y-96812977D01*
X185687577Y-96751063D01*
X185736222Y-96678261D01*
X185769729Y-96597367D01*
X185786811Y-96511490D01*
X185786811Y-96423932D01*
X185769729Y-96338055D01*
X185736222Y-96257161D01*
X185687577Y-96184359D01*
X185625663Y-96122445D01*
X185552861Y-96073800D01*
X185471967Y-96040293D01*
X185386090Y-96023211D01*
X185298532Y-96023211D01*
X185212655Y-96040293D01*
X185131761Y-96073800D01*
X185093176Y-96099582D01*
X185077444Y-96020493D01*
X185043937Y-95939599D01*
X184995292Y-95866797D01*
X184933378Y-95804883D01*
X184860576Y-95756238D01*
X184779682Y-95722731D01*
X184693805Y-95705649D01*
X184606247Y-95705649D01*
X184520370Y-95722731D01*
X184439476Y-95756238D01*
X184381078Y-95795259D01*
X184377827Y-95778916D01*
X184344320Y-95698022D01*
X184295675Y-95625220D01*
X184233761Y-95563306D01*
X184160959Y-95514661D01*
X184080065Y-95481154D01*
X183994188Y-95464072D01*
X183906630Y-95464072D01*
X183820753Y-95481154D01*
X183739859Y-95514661D01*
X183667057Y-95563306D01*
X183605143Y-95625220D01*
X183556498Y-95698022D01*
X183522991Y-95778916D01*
X183508696Y-95850782D01*
X183503873Y-95847559D01*
X183422979Y-95814052D01*
X183337102Y-95796970D01*
X183249544Y-95796970D01*
X183163667Y-95814052D01*
X183082773Y-95847559D01*
X183009971Y-95896204D01*
X182948057Y-95958118D01*
X182911473Y-96012870D01*
X182810138Y-96012870D01*
X182798909Y-96011764D01*
X182754095Y-96016178D01*
X182725358Y-96024895D01*
X182711004Y-96029249D01*
X182671291Y-96050476D01*
X182636482Y-96079043D01*
X182629320Y-96087770D01*
X179648457Y-99068634D01*
X179639724Y-99075801D01*
X179611157Y-99110611D01*
X179592460Y-99145591D01*
X179589930Y-99150324D01*
X179576859Y-99193415D01*
X179572445Y-99238228D01*
X179573551Y-99249457D01*
X179573552Y-106308712D01*
X179572445Y-106319951D01*
X179576859Y-106364764D01*
X179589930Y-106407855D01*
X179589931Y-106407856D01*
X179611158Y-106447569D01*
X179639725Y-106482378D01*
X179648452Y-106489540D01*
X180134800Y-106975889D01*
X180134801Y-107578829D01*
X180066404Y-107607160D01*
X179963711Y-107675777D01*
X179876377Y-107763111D01*
X179807760Y-107865804D01*
X179760495Y-107979911D01*
X179736400Y-108101046D01*
X179736400Y-108128200D01*
X179720400Y-108128200D01*
X179720400Y-108101046D01*
X179696305Y-107979911D01*
X179649040Y-107865804D01*
X179580423Y-107763111D01*
X179493089Y-107675777D01*
X179390396Y-107607160D01*
X179276289Y-107559895D01*
X179155154Y-107535800D01*
X179031646Y-107535800D01*
X178910511Y-107559895D01*
X178796404Y-107607160D01*
X178693711Y-107675777D01*
X178606377Y-107763111D01*
X178552169Y-107844239D01*
X178553106Y-107662800D01*
X178548692Y-107617987D01*
X178535621Y-107574895D01*
X178514394Y-107535182D01*
X178485827Y-107500373D01*
X178451018Y-107471806D01*
X178411305Y-107450579D01*
X178368213Y-107437508D01*
X178323400Y-107433094D01*
X178109150Y-107434200D01*
X178052000Y-107491350D01*
X178052000Y-107934200D01*
X178072000Y-107934200D01*
X178072000Y-108128200D01*
X177574800Y-108128200D01*
X177574800Y-107934200D01*
X177594800Y-107934200D01*
X177594800Y-107491350D01*
X177537650Y-107434200D01*
X177323400Y-107433094D01*
X177278587Y-107437508D01*
X177235495Y-107450579D01*
X177195782Y-107471806D01*
X177160973Y-107500373D01*
X177132406Y-107535182D01*
X177111179Y-107574895D01*
X177098108Y-107617987D01*
X177093694Y-107662800D01*
X177094800Y-107877050D01*
X177151948Y-107934198D01*
X177094800Y-107934198D01*
X177094800Y-108128108D01*
X176732800Y-108127838D01*
X176732800Y-93021821D01*
X178473100Y-93021821D01*
X178473100Y-93109379D01*
X178490182Y-93195256D01*
X178523689Y-93276150D01*
X178572334Y-93348952D01*
X178634248Y-93410866D01*
X178707050Y-93459511D01*
X178787944Y-93493018D01*
X178873821Y-93510100D01*
X178961379Y-93510100D01*
X179047256Y-93493018D01*
X179128150Y-93459511D01*
X179200952Y-93410866D01*
X179262866Y-93348952D01*
X179299450Y-93294200D01*
X183994653Y-93294200D01*
X184384988Y-93684536D01*
X184372141Y-93749121D01*
X184372141Y-93836679D01*
X184389223Y-93922556D01*
X184422730Y-94003450D01*
X184471375Y-94076252D01*
X184533289Y-94138166D01*
X184606091Y-94186811D01*
X184686985Y-94220318D01*
X184772862Y-94237400D01*
X184860420Y-94237400D01*
X184946297Y-94220318D01*
X185027191Y-94186811D01*
X185099993Y-94138166D01*
X185161907Y-94076252D01*
X185210552Y-94003450D01*
X185244059Y-93922556D01*
X185261141Y-93836679D01*
X185261141Y-93749121D01*
X185244059Y-93663244D01*
X185210552Y-93582350D01*
X185161907Y-93509548D01*
X185099993Y-93447634D01*
X185027191Y-93398989D01*
X184946297Y-93365482D01*
X184860420Y-93348400D01*
X184772862Y-93348400D01*
X184708277Y-93361247D01*
X184258935Y-92911906D01*
X184251768Y-92903173D01*
X184216959Y-92874606D01*
X184177246Y-92853379D01*
X184134154Y-92840308D01*
X184100570Y-92837000D01*
X184089341Y-92835894D01*
X184078112Y-92837000D01*
X179299450Y-92837000D01*
X179262866Y-92782248D01*
X179200952Y-92720334D01*
X179128150Y-92671689D01*
X179047256Y-92638182D01*
X178961379Y-92621100D01*
X178873821Y-92621100D01*
X178787944Y-92638182D01*
X178707050Y-92671689D01*
X178634248Y-92720334D01*
X178572334Y-92782248D01*
X178523689Y-92855050D01*
X178490182Y-92935944D01*
X178473100Y-93021821D01*
X176732800Y-93021821D01*
X176732800Y-84149800D01*
X177095600Y-84149800D01*
X177095600Y-84314802D01*
G36*
X183944800Y-98255516D02*
G01*
X183944801Y-107102562D01*
X183944800Y-107102572D01*
X183944801Y-107578829D01*
X183876404Y-107607160D01*
X183773711Y-107675777D01*
X183686377Y-107763111D01*
X183617760Y-107865804D01*
X183570495Y-107979911D01*
X183546400Y-108101046D01*
X183546400Y-108128200D01*
X183530400Y-108128200D01*
X183530400Y-108101046D01*
X183506305Y-107979911D01*
X183459040Y-107865804D01*
X183390423Y-107763111D01*
X183303089Y-107675777D01*
X183200396Y-107607160D01*
X183132000Y-107578829D01*
X183132000Y-107146431D01*
X183133106Y-107135200D01*
X183128693Y-107090386D01*
X183115621Y-107047295D01*
X183113660Y-107043626D01*
X183094394Y-107007582D01*
X183065827Y-106972773D01*
X183057106Y-106965616D01*
X180640371Y-104548883D01*
X180640371Y-100234716D01*
X180649120Y-100243465D01*
X180721922Y-100292110D01*
X180802816Y-100325617D01*
X180888693Y-100342699D01*
X180976251Y-100342699D01*
X181062128Y-100325617D01*
X181143022Y-100292110D01*
X181215824Y-100243465D01*
X181277738Y-100181551D01*
X181326383Y-100108749D01*
X181359890Y-100027855D01*
X181376972Y-99941978D01*
X181376972Y-99854420D01*
X181364125Y-99789834D01*
X182690860Y-98463100D01*
X183094585Y-98463100D01*
X183131169Y-98517852D01*
X183193083Y-98579766D01*
X183265885Y-98628411D01*
X183346779Y-98661918D01*
X183432656Y-98679000D01*
X183520214Y-98679000D01*
X183606091Y-98661918D01*
X183686985Y-98628411D01*
X183759787Y-98579766D01*
X183821701Y-98517852D01*
X183870346Y-98445050D01*
X183903853Y-98364156D01*
X183920935Y-98278279D01*
X183920935Y-98231651D01*
X183944800Y-98255516D01*
G37*
X183944800Y-98255516D02*
X183944801Y-107102562D01*
X183944800Y-107102572D01*
X183944801Y-107578829D01*
X183876404Y-107607160D01*
X183773711Y-107675777D01*
X183686377Y-107763111D01*
X183617760Y-107865804D01*
X183570495Y-107979911D01*
X183546400Y-108101046D01*
X183546400Y-108128200D01*
X183530400Y-108128200D01*
X183530400Y-108101046D01*
X183506305Y-107979911D01*
X183459040Y-107865804D01*
X183390423Y-107763111D01*
X183303089Y-107675777D01*
X183200396Y-107607160D01*
X183132000Y-107578829D01*
X183132000Y-107146431D01*
X183133106Y-107135200D01*
X183128693Y-107090386D01*
X183115621Y-107047295D01*
X183113660Y-107043626D01*
X183094394Y-107007582D01*
X183065827Y-106972773D01*
X183057106Y-106965616D01*
X180640371Y-104548883D01*
X180640371Y-100234716D01*
X180649120Y-100243465D01*
X180721922Y-100292110D01*
X180802816Y-100325617D01*
X180888693Y-100342699D01*
X180976251Y-100342699D01*
X181062128Y-100325617D01*
X181143022Y-100292110D01*
X181215824Y-100243465D01*
X181277738Y-100181551D01*
X181326383Y-100108749D01*
X181359890Y-100027855D01*
X181376972Y-99941978D01*
X181376972Y-99854420D01*
X181364125Y-99789834D01*
X182690860Y-98463100D01*
X183094585Y-98463100D01*
X183131169Y-98517852D01*
X183193083Y-98579766D01*
X183265885Y-98628411D01*
X183346779Y-98661918D01*
X183432656Y-98679000D01*
X183520214Y-98679000D01*
X183606091Y-98661918D01*
X183686985Y-98628411D01*
X183759787Y-98579766D01*
X183821701Y-98517852D01*
X183870346Y-98445050D01*
X183903853Y-98364156D01*
X183920935Y-98278279D01*
X183920935Y-98231651D01*
X183944800Y-98255516D01*
G36*
X200672700Y-101649679D02*
G01*
X200689782Y-101735556D01*
X200723289Y-101816450D01*
X200771934Y-101889252D01*
X200833848Y-101951166D01*
X200906650Y-101999811D01*
X200987544Y-102033318D01*
X201073421Y-102050400D01*
X201160979Y-102050400D01*
X201246856Y-102033318D01*
X201327750Y-101999811D01*
X201400552Y-101951166D01*
X201462466Y-101889252D01*
X201472800Y-101873786D01*
X201472801Y-102821771D01*
X201471203Y-102837994D01*
X201475346Y-102880050D01*
X201477579Y-102902724D01*
X201479970Y-102910605D01*
X201496461Y-102964967D01*
X201527121Y-103022331D01*
X201551042Y-103051478D01*
X201568385Y-103072610D01*
X201580982Y-103082948D01*
X201844051Y-103346018D01*
X201854390Y-103358616D01*
X201887181Y-103385527D01*
X201904669Y-103399879D01*
X201962033Y-103430540D01*
X202024276Y-103449422D01*
X202089006Y-103455797D01*
X202105221Y-103454200D01*
X205215787Y-103454200D01*
X205232000Y-103455797D01*
X205248213Y-103454200D01*
X205248215Y-103454200D01*
X205296730Y-103449422D01*
X205345260Y-103434700D01*
X205409579Y-103434700D01*
X205495456Y-103417618D01*
X205576350Y-103384111D01*
X205649152Y-103335466D01*
X205711066Y-103273552D01*
X205759711Y-103200750D01*
X205793218Y-103119856D01*
X205810300Y-103033979D01*
X205810300Y-102967426D01*
X206729373Y-103886500D01*
X206736535Y-103895227D01*
X206771344Y-103923794D01*
X206811057Y-103945021D01*
X206844119Y-103955050D01*
X206854148Y-103958092D01*
X206898961Y-103962506D01*
X206910190Y-103961400D01*
X210137629Y-103961400D01*
X210165960Y-104029796D01*
X210234577Y-104132489D01*
X210321911Y-104219823D01*
X210424604Y-104288440D01*
X210492998Y-104316770D01*
X210492998Y-104368122D01*
X210387589Y-104355250D01*
X210267676Y-104432855D01*
X210165207Y-104532363D01*
X210084120Y-104649949D01*
X210074069Y-104668792D01*
X210090262Y-104774200D01*
X210493000Y-104774200D01*
X210493000Y-104754200D01*
X210668000Y-104754200D01*
X210668000Y-105251400D01*
X210493000Y-105251400D01*
X210493000Y-105231400D01*
X210090262Y-105231400D01*
X210074069Y-105336808D01*
X210084120Y-105355651D01*
X210165207Y-105473237D01*
X210267676Y-105572745D01*
X210387589Y-105650350D01*
X210492998Y-105637478D01*
X210492998Y-105731400D01*
X210668000Y-105731400D01*
X210668000Y-108128200D01*
X210200400Y-108128200D01*
X210200400Y-108101046D01*
X210176305Y-107979911D01*
X210129040Y-107865804D01*
X210060423Y-107763111D01*
X209973089Y-107675777D01*
X209870396Y-107607160D01*
X209802000Y-107578829D01*
X209802000Y-107095629D01*
X209803106Y-107084400D01*
X209798692Y-107039586D01*
X209785621Y-106996495D01*
X209780109Y-106986183D01*
X209764394Y-106956782D01*
X209735827Y-106921973D01*
X209727101Y-106914812D01*
X207230334Y-104418046D01*
X207223167Y-104409313D01*
X207188358Y-104380746D01*
X207148645Y-104359519D01*
X207105553Y-104346448D01*
X207071969Y-104343140D01*
X207060740Y-104342034D01*
X207049511Y-104343140D01*
X201594309Y-104343140D01*
X199311143Y-102059975D01*
X199323990Y-101995389D01*
X199323990Y-101907831D01*
X199306908Y-101821954D01*
X199273401Y-101741060D01*
X199224756Y-101668258D01*
X199194599Y-101638101D01*
X200672700Y-101638101D01*
X200672700Y-101649679D01*
G37*
X200672700Y-101649679D02*
X200689782Y-101735556D01*
X200723289Y-101816450D01*
X200771934Y-101889252D01*
X200833848Y-101951166D01*
X200906650Y-101999811D01*
X200987544Y-102033318D01*
X201073421Y-102050400D01*
X201160979Y-102050400D01*
X201246856Y-102033318D01*
X201327750Y-101999811D01*
X201400552Y-101951166D01*
X201462466Y-101889252D01*
X201472800Y-101873786D01*
X201472801Y-102821771D01*
X201471203Y-102837994D01*
X201475346Y-102880050D01*
X201477579Y-102902724D01*
X201479970Y-102910605D01*
X201496461Y-102964967D01*
X201527121Y-103022331D01*
X201551042Y-103051478D01*
X201568385Y-103072610D01*
X201580982Y-103082948D01*
X201844051Y-103346018D01*
X201854390Y-103358616D01*
X201887181Y-103385527D01*
X201904669Y-103399879D01*
X201962033Y-103430540D01*
X202024276Y-103449422D01*
X202089006Y-103455797D01*
X202105221Y-103454200D01*
X205215787Y-103454200D01*
X205232000Y-103455797D01*
X205248213Y-103454200D01*
X205248215Y-103454200D01*
X205296730Y-103449422D01*
X205345260Y-103434700D01*
X205409579Y-103434700D01*
X205495456Y-103417618D01*
X205576350Y-103384111D01*
X205649152Y-103335466D01*
X205711066Y-103273552D01*
X205759711Y-103200750D01*
X205793218Y-103119856D01*
X205810300Y-103033979D01*
X205810300Y-102967426D01*
X206729373Y-103886500D01*
X206736535Y-103895227D01*
X206771344Y-103923794D01*
X206811057Y-103945021D01*
X206844119Y-103955050D01*
X206854148Y-103958092D01*
X206898961Y-103962506D01*
X206910190Y-103961400D01*
X210137629Y-103961400D01*
X210165960Y-104029796D01*
X210234577Y-104132489D01*
X210321911Y-104219823D01*
X210424604Y-104288440D01*
X210492998Y-104316770D01*
X210492998Y-104368122D01*
X210387589Y-104355250D01*
X210267676Y-104432855D01*
X210165207Y-104532363D01*
X210084120Y-104649949D01*
X210074069Y-104668792D01*
X210090262Y-104774200D01*
X210493000Y-104774200D01*
X210493000Y-104754200D01*
X210668000Y-104754200D01*
X210668000Y-105251400D01*
X210493000Y-105251400D01*
X210493000Y-105231400D01*
X210090262Y-105231400D01*
X210074069Y-105336808D01*
X210084120Y-105355651D01*
X210165207Y-105473237D01*
X210267676Y-105572745D01*
X210387589Y-105650350D01*
X210492998Y-105637478D01*
X210492998Y-105731400D01*
X210668000Y-105731400D01*
X210668000Y-108128200D01*
X210200400Y-108128200D01*
X210200400Y-108101046D01*
X210176305Y-107979911D01*
X210129040Y-107865804D01*
X210060423Y-107763111D01*
X209973089Y-107675777D01*
X209870396Y-107607160D01*
X209802000Y-107578829D01*
X209802000Y-107095629D01*
X209803106Y-107084400D01*
X209798692Y-107039586D01*
X209785621Y-106996495D01*
X209780109Y-106986183D01*
X209764394Y-106956782D01*
X209735827Y-106921973D01*
X209727101Y-106914812D01*
X207230334Y-104418046D01*
X207223167Y-104409313D01*
X207188358Y-104380746D01*
X207148645Y-104359519D01*
X207105553Y-104346448D01*
X207071969Y-104343140D01*
X207060740Y-104342034D01*
X207049511Y-104343140D01*
X201594309Y-104343140D01*
X199311143Y-102059975D01*
X199323990Y-101995389D01*
X199323990Y-101907831D01*
X199306908Y-101821954D01*
X199273401Y-101741060D01*
X199224756Y-101668258D01*
X199194599Y-101638101D01*
X200672700Y-101638101D01*
X200672700Y-101649679D01*
G36*
X209344800Y-107179089D02*
G01*
X209344801Y-107578829D01*
X209276404Y-107607160D01*
X209173711Y-107675777D01*
X209086377Y-107763111D01*
X209017760Y-107865804D01*
X208970495Y-107979911D01*
X208946400Y-108101046D01*
X208946400Y-108128200D01*
X208930400Y-108128200D01*
X208930400Y-108101046D01*
X208906305Y-107979911D01*
X208859040Y-107865804D01*
X208790423Y-107763111D01*
X208703089Y-107675777D01*
X208600396Y-107607160D01*
X208532000Y-107578829D01*
X208532000Y-106867028D01*
X208533106Y-106855799D01*
X208528692Y-106810986D01*
X208523326Y-106793296D01*
X208515621Y-106767895D01*
X208494394Y-106728182D01*
X208465827Y-106693373D01*
X208457101Y-106686212D01*
X206571228Y-104800340D01*
X206966052Y-104800340D01*
X209344800Y-107179089D01*
G37*
X209344800Y-107179089D02*
X209344801Y-107578829D01*
X209276404Y-107607160D01*
X209173711Y-107675777D01*
X209086377Y-107763111D01*
X209017760Y-107865804D01*
X208970495Y-107979911D01*
X208946400Y-108101046D01*
X208946400Y-108128200D01*
X208930400Y-108128200D01*
X208930400Y-108101046D01*
X208906305Y-107979911D01*
X208859040Y-107865804D01*
X208790423Y-107763111D01*
X208703089Y-107675777D01*
X208600396Y-107607160D01*
X208532000Y-107578829D01*
X208532000Y-106867028D01*
X208533106Y-106855799D01*
X208528692Y-106810986D01*
X208523326Y-106793296D01*
X208515621Y-106767895D01*
X208494394Y-106728182D01*
X208465827Y-106693373D01*
X208457101Y-106686212D01*
X206571228Y-104800340D01*
X206966052Y-104800340D01*
X209344800Y-107179089D01*
G36*
X184914893Y-96597367D02*
G01*
X184948400Y-96678261D01*
X184997045Y-96751063D01*
X185058959Y-96812977D01*
X185113711Y-96849561D01*
X185113712Y-105676672D01*
X185112605Y-105687911D01*
X185117019Y-105732724D01*
X185130090Y-105775815D01*
X185130091Y-105775816D01*
X185151318Y-105815529D01*
X185179885Y-105850338D01*
X185188612Y-105857500D01*
X186484800Y-107153689D01*
X186484801Y-107578829D01*
X186416404Y-107607160D01*
X186313711Y-107675777D01*
X186226377Y-107763111D01*
X186157760Y-107865804D01*
X186110495Y-107979911D01*
X186086400Y-108101046D01*
X186086400Y-108128200D01*
X186070400Y-108128200D01*
X186070400Y-108101046D01*
X186046305Y-107979911D01*
X185999040Y-107865804D01*
X185930423Y-107763111D01*
X185843089Y-107675777D01*
X185740396Y-107607160D01*
X185672000Y-107578829D01*
X185672000Y-107324228D01*
X185673106Y-107312999D01*
X185668692Y-107268186D01*
X185663326Y-107250496D01*
X185655621Y-107225095D01*
X185634394Y-107185382D01*
X185605827Y-107150573D01*
X185597101Y-107143412D01*
X184878626Y-106424938D01*
X184878626Y-96531999D01*
X184899161Y-96518278D01*
X184914893Y-96597367D01*
G37*
X184914893Y-96597367D02*
X184948400Y-96678261D01*
X184997045Y-96751063D01*
X185058959Y-96812977D01*
X185113711Y-96849561D01*
X185113712Y-105676672D01*
X185112605Y-105687911D01*
X185117019Y-105732724D01*
X185130090Y-105775815D01*
X185130091Y-105775816D01*
X185151318Y-105815529D01*
X185179885Y-105850338D01*
X185188612Y-105857500D01*
X186484800Y-107153689D01*
X186484801Y-107578829D01*
X186416404Y-107607160D01*
X186313711Y-107675777D01*
X186226377Y-107763111D01*
X186157760Y-107865804D01*
X186110495Y-107979911D01*
X186086400Y-108101046D01*
X186086400Y-108128200D01*
X186070400Y-108128200D01*
X186070400Y-108101046D01*
X186046305Y-107979911D01*
X185999040Y-107865804D01*
X185930423Y-107763111D01*
X185843089Y-107675777D01*
X185740396Y-107607160D01*
X185672000Y-107578829D01*
X185672000Y-107324228D01*
X185673106Y-107312999D01*
X185668692Y-107268186D01*
X185663326Y-107250496D01*
X185655621Y-107225095D01*
X185634394Y-107185382D01*
X185605827Y-107150573D01*
X185597101Y-107143412D01*
X184878626Y-106424938D01*
X184878626Y-96531999D01*
X184899161Y-96518278D01*
X184914893Y-96597367D01*
G36*
X181404800Y-107153689D02*
G01*
X181404801Y-107578829D01*
X181336404Y-107607160D01*
X181233711Y-107675777D01*
X181146377Y-107763111D01*
X181077760Y-107865804D01*
X181030495Y-107979911D01*
X181006400Y-108101046D01*
X181006400Y-108128200D01*
X180990400Y-108128200D01*
X180990400Y-108101046D01*
X180966305Y-107979911D01*
X180919040Y-107865804D01*
X180850423Y-107763111D01*
X180763089Y-107675777D01*
X180660396Y-107607160D01*
X180592000Y-107578829D01*
X180592000Y-106892429D01*
X180593106Y-106881200D01*
X180588692Y-106836386D01*
X180575621Y-106793295D01*
X180567603Y-106778295D01*
X180554394Y-106753582D01*
X180525827Y-106718773D01*
X180517101Y-106711612D01*
X180030751Y-106225263D01*
X180030751Y-105779639D01*
X181404800Y-107153689D01*
G37*
X181404800Y-107153689D02*
X181404801Y-107578829D01*
X181336404Y-107607160D01*
X181233711Y-107675777D01*
X181146377Y-107763111D01*
X181077760Y-107865804D01*
X181030495Y-107979911D01*
X181006400Y-108101046D01*
X181006400Y-108128200D01*
X180990400Y-108128200D01*
X180990400Y-108101046D01*
X180966305Y-107979911D01*
X180919040Y-107865804D01*
X180850423Y-107763111D01*
X180763089Y-107675777D01*
X180660396Y-107607160D01*
X180592000Y-107578829D01*
X180592000Y-106892429D01*
X180593106Y-106881200D01*
X180588692Y-106836386D01*
X180575621Y-106793295D01*
X180567603Y-106778295D01*
X180554394Y-106753582D01*
X180525827Y-106718773D01*
X180517101Y-106711612D01*
X180030751Y-106225263D01*
X180030751Y-105779639D01*
X181404800Y-107153689D01*
G36*
X208074800Y-106950489D02*
G01*
X208074801Y-107578829D01*
X208006404Y-107607160D01*
X207903711Y-107675777D01*
X207816377Y-107763111D01*
X207747760Y-107865804D01*
X207700495Y-107979911D01*
X207676400Y-108101046D01*
X207676400Y-108128200D01*
X207660400Y-108128200D01*
X207660400Y-108101046D01*
X207636305Y-107979911D01*
X207589040Y-107865804D01*
X207520423Y-107763111D01*
X207433089Y-107675777D01*
X207330396Y-107607160D01*
X207262000Y-107578829D01*
X207262000Y-106994029D01*
X207263106Y-106982800D01*
X207258692Y-106937986D01*
X207245621Y-106894895D01*
X207242207Y-106888508D01*
X207224394Y-106855182D01*
X207195827Y-106820373D01*
X207187101Y-106813212D01*
X205479038Y-105105150D01*
X206229462Y-105105150D01*
X208074800Y-106950489D01*
G37*
X208074800Y-106950489D02*
X208074801Y-107578829D01*
X208006404Y-107607160D01*
X207903711Y-107675777D01*
X207816377Y-107763111D01*
X207747760Y-107865804D01*
X207700495Y-107979911D01*
X207676400Y-108101046D01*
X207676400Y-108128200D01*
X207660400Y-108128200D01*
X207660400Y-108101046D01*
X207636305Y-107979911D01*
X207589040Y-107865804D01*
X207520423Y-107763111D01*
X207433089Y-107675777D01*
X207330396Y-107607160D01*
X207262000Y-107578829D01*
X207262000Y-106994029D01*
X207263106Y-106982800D01*
X207258692Y-106937986D01*
X207245621Y-106894895D01*
X207242207Y-106888508D01*
X207224394Y-106855182D01*
X207195827Y-106820373D01*
X207187101Y-106813212D01*
X205479038Y-105105150D01*
X206229462Y-105105150D01*
X208074800Y-106950489D01*
G36*
X205534800Y-107179090D02*
G01*
X205534801Y-107578829D01*
X205466404Y-107607160D01*
X205363711Y-107675777D01*
X205276377Y-107763111D01*
X205207760Y-107865804D01*
X205179430Y-107934198D01*
X205128078Y-107934198D01*
X205140950Y-107828789D01*
X205063345Y-107708876D01*
X204963837Y-107606407D01*
X204846251Y-107525320D01*
X204827408Y-107515269D01*
X204722000Y-107531462D01*
X204722000Y-107934200D01*
X204742000Y-107934200D01*
X204742000Y-108128200D01*
X204244800Y-108128200D01*
X204244800Y-107934200D01*
X204264800Y-107934200D01*
X204264800Y-107531462D01*
X204159392Y-107515269D01*
X204140549Y-107525320D01*
X204022963Y-107606407D01*
X203923455Y-107708876D01*
X203845850Y-107828789D01*
X203858722Y-107934198D01*
X203807370Y-107934198D01*
X203779040Y-107865804D01*
X203710423Y-107763111D01*
X203623089Y-107675777D01*
X203520396Y-107607160D01*
X203406289Y-107559895D01*
X203285154Y-107535800D01*
X203161646Y-107535800D01*
X203040511Y-107559895D01*
X202926404Y-107607160D01*
X202823711Y-107675777D01*
X202736377Y-107763111D01*
X202667760Y-107865804D01*
X202620495Y-107979911D01*
X202596400Y-108101046D01*
X202596400Y-108128200D01*
X202580400Y-108128200D01*
X202580400Y-108101046D01*
X202556305Y-107979911D01*
X202509040Y-107865804D01*
X202440423Y-107763111D01*
X202353089Y-107675777D01*
X202250396Y-107607160D01*
X202182000Y-107578829D01*
X202182000Y-107121028D01*
X202183106Y-107109799D01*
X202178692Y-107064986D01*
X202165621Y-107021895D01*
X202163660Y-107018226D01*
X202144394Y-106982182D01*
X202115827Y-106947373D01*
X202107101Y-106940212D01*
X200881658Y-105714770D01*
X204070482Y-105714770D01*
X205534800Y-107179090D01*
G37*
X205534800Y-107179090D02*
X205534801Y-107578829D01*
X205466404Y-107607160D01*
X205363711Y-107675777D01*
X205276377Y-107763111D01*
X205207760Y-107865804D01*
X205179430Y-107934198D01*
X205128078Y-107934198D01*
X205140950Y-107828789D01*
X205063345Y-107708876D01*
X204963837Y-107606407D01*
X204846251Y-107525320D01*
X204827408Y-107515269D01*
X204722000Y-107531462D01*
X204722000Y-107934200D01*
X204742000Y-107934200D01*
X204742000Y-108128200D01*
X204244800Y-108128200D01*
X204244800Y-107934200D01*
X204264800Y-107934200D01*
X204264800Y-107531462D01*
X204159392Y-107515269D01*
X204140549Y-107525320D01*
X204022963Y-107606407D01*
X203923455Y-107708876D01*
X203845850Y-107828789D01*
X203858722Y-107934198D01*
X203807370Y-107934198D01*
X203779040Y-107865804D01*
X203710423Y-107763111D01*
X203623089Y-107675777D01*
X203520396Y-107607160D01*
X203406289Y-107559895D01*
X203285154Y-107535800D01*
X203161646Y-107535800D01*
X203040511Y-107559895D01*
X202926404Y-107607160D01*
X202823711Y-107675777D01*
X202736377Y-107763111D01*
X202667760Y-107865804D01*
X202620495Y-107979911D01*
X202596400Y-108101046D01*
X202596400Y-108128200D01*
X202580400Y-108128200D01*
X202580400Y-108101046D01*
X202556305Y-107979911D01*
X202509040Y-107865804D01*
X202440423Y-107763111D01*
X202353089Y-107675777D01*
X202250396Y-107607160D01*
X202182000Y-107578829D01*
X202182000Y-107121028D01*
X202183106Y-107109799D01*
X202178692Y-107064986D01*
X202165621Y-107021895D01*
X202163660Y-107018226D01*
X202144394Y-106982182D01*
X202115827Y-106947373D01*
X202107101Y-106940212D01*
X200881658Y-105714770D01*
X204070482Y-105714770D01*
X205534800Y-107179090D01*
G36*
X206804800Y-107077489D02*
G01*
X206804801Y-107578829D01*
X206736404Y-107607160D01*
X206633711Y-107675777D01*
X206546377Y-107763111D01*
X206477760Y-107865804D01*
X206430495Y-107979911D01*
X206406400Y-108101046D01*
X206406400Y-108128200D01*
X206390400Y-108128200D01*
X206390400Y-108101046D01*
X206366305Y-107979911D01*
X206319040Y-107865804D01*
X206250423Y-107763111D01*
X206163089Y-107675777D01*
X206060396Y-107607160D01*
X205992000Y-107578829D01*
X205992000Y-107095631D01*
X205993106Y-107084400D01*
X205988693Y-107039586D01*
X205975621Y-106996495D01*
X205970109Y-106986183D01*
X205954394Y-106956782D01*
X205925827Y-106921973D01*
X205917106Y-106914816D01*
X204412248Y-105409960D01*
X205137272Y-105409960D01*
X206804800Y-107077489D01*
G37*
X206804800Y-107077489D02*
X206804801Y-107578829D01*
X206736404Y-107607160D01*
X206633711Y-107675777D01*
X206546377Y-107763111D01*
X206477760Y-107865804D01*
X206430495Y-107979911D01*
X206406400Y-108101046D01*
X206406400Y-108128200D01*
X206390400Y-108128200D01*
X206390400Y-108101046D01*
X206366305Y-107979911D01*
X206319040Y-107865804D01*
X206250423Y-107763111D01*
X206163089Y-107675777D01*
X206060396Y-107607160D01*
X205992000Y-107578829D01*
X205992000Y-107095631D01*
X205993106Y-107084400D01*
X205988693Y-107039586D01*
X205975621Y-106996495D01*
X205970109Y-106986183D01*
X205954394Y-106956782D01*
X205925827Y-106921973D01*
X205917106Y-106914816D01*
X204412248Y-105409960D01*
X205137272Y-105409960D01*
X206804800Y-107077489D01*
G36*
X205161295Y-84269089D02*
G01*
X205205628Y-84376116D01*
X204064456Y-85463043D01*
X204053574Y-85471973D01*
X204041041Y-85487245D01*
X204028170Y-85502172D01*
X204026790Y-85504610D01*
X204025007Y-85506782D01*
X204015696Y-85524201D01*
X204005982Y-85541357D01*
X204005103Y-85544020D01*
X204003780Y-85546495D01*
X203998060Y-85565353D01*
X203991865Y-85584117D01*
X203991521Y-85586909D01*
X203990709Y-85589587D01*
X203988779Y-85609177D01*
X203986362Y-85628810D01*
X203987401Y-85642855D01*
X203987400Y-86646311D01*
X201441611Y-89192101D01*
X199005017Y-89192101D01*
X198993788Y-89190995D01*
X198948975Y-89195409D01*
X198938946Y-89198451D01*
X198905884Y-89208480D01*
X198866171Y-89229707D01*
X198831362Y-89258274D01*
X198824199Y-89267002D01*
X198784654Y-89306547D01*
X198720069Y-89293700D01*
X198632511Y-89293700D01*
X198546634Y-89310782D01*
X198465740Y-89344289D01*
X198392938Y-89392934D01*
X198331024Y-89454848D01*
X198282379Y-89527650D01*
X198248872Y-89608544D01*
X198231790Y-89694421D01*
X198231790Y-89781979D01*
X198248872Y-89867856D01*
X198282379Y-89948750D01*
X198305043Y-89982669D01*
X198269914Y-89982669D01*
X198184037Y-89999751D01*
X198103143Y-90033258D01*
X198030341Y-90081903D01*
X197968427Y-90143817D01*
X197919782Y-90216619D01*
X197886275Y-90297513D01*
X197869193Y-90383390D01*
X197869193Y-90470948D01*
X197886275Y-90556825D01*
X197919782Y-90637719D01*
X197968427Y-90710521D01*
X198030341Y-90772435D01*
X198087116Y-90810371D01*
X198077173Y-90817015D01*
X198015259Y-90878929D01*
X197966614Y-90951731D01*
X197933107Y-91032625D01*
X197916025Y-91118502D01*
X197916025Y-91206060D01*
X197933107Y-91291937D01*
X197966614Y-91372831D01*
X198015259Y-91445633D01*
X198077173Y-91507547D01*
X198149975Y-91556192D01*
X198230869Y-91589699D01*
X198308128Y-91605067D01*
X198285365Y-91639133D01*
X198251858Y-91720027D01*
X198234776Y-91805904D01*
X198234776Y-91893462D01*
X198251858Y-91979339D01*
X198285365Y-92060233D01*
X198334010Y-92133035D01*
X198395924Y-92194949D01*
X198468726Y-92243594D01*
X198549620Y-92277101D01*
X198635497Y-92294183D01*
X198709211Y-92294183D01*
X198689609Y-92323519D01*
X198656102Y-92404413D01*
X198639020Y-92490290D01*
X198639020Y-92577848D01*
X198656102Y-92663725D01*
X198689609Y-92744619D01*
X198738254Y-92817421D01*
X198800168Y-92879335D01*
X198859482Y-92918968D01*
X198852648Y-92923534D01*
X198790734Y-92985448D01*
X198742089Y-93058250D01*
X198708582Y-93139144D01*
X198691500Y-93225021D01*
X198691500Y-93312579D01*
X198708582Y-93398456D01*
X198742089Y-93479350D01*
X198790734Y-93552152D01*
X198852648Y-93614066D01*
X198882153Y-93633781D01*
X198874650Y-93636889D01*
X198801848Y-93685534D01*
X198739934Y-93747448D01*
X198691289Y-93820250D01*
X198657782Y-93901144D01*
X198640700Y-93987021D01*
X198640700Y-94074579D01*
X198657782Y-94160456D01*
X198691289Y-94241350D01*
X198739934Y-94314152D01*
X198801848Y-94376066D01*
X198810918Y-94382127D01*
X198751048Y-94422131D01*
X198689134Y-94484045D01*
X198640489Y-94556847D01*
X198606982Y-94637741D01*
X198589900Y-94723618D01*
X198589900Y-94811176D01*
X198606982Y-94897053D01*
X198640489Y-94977947D01*
X198689134Y-95050749D01*
X198751048Y-95112663D01*
X198785523Y-95135698D01*
X198751048Y-95158734D01*
X198689134Y-95220648D01*
X198640489Y-95293450D01*
X198606982Y-95374344D01*
X198589900Y-95460221D01*
X198589900Y-95547779D01*
X198606982Y-95633656D01*
X198640489Y-95714550D01*
X198689134Y-95787352D01*
X198751048Y-95849266D01*
X198823850Y-95897911D01*
X198904744Y-95931418D01*
X198948654Y-95940152D01*
X198891524Y-95963816D01*
X198818722Y-96012461D01*
X198756808Y-96074375D01*
X198708163Y-96147177D01*
X198674656Y-96228071D01*
X198657574Y-96313948D01*
X198657574Y-96401506D01*
X198674656Y-96487383D01*
X198708163Y-96568277D01*
X198749990Y-96630875D01*
X198746805Y-96631509D01*
X198665911Y-96665016D01*
X198593109Y-96713661D01*
X198531195Y-96775575D01*
X198482550Y-96848377D01*
X198449043Y-96929271D01*
X198431961Y-97015148D01*
X198431961Y-97102706D01*
X198449043Y-97188583D01*
X198482550Y-97269477D01*
X198531195Y-97342279D01*
X198593109Y-97404193D01*
X198665911Y-97452838D01*
X198746805Y-97486345D01*
X198832682Y-97503427D01*
X198838323Y-97503427D01*
X198833152Y-97508598D01*
X198784507Y-97581400D01*
X198751000Y-97662294D01*
X198733918Y-97748171D01*
X198733918Y-97835729D01*
X198751000Y-97921606D01*
X198784507Y-98002500D01*
X198833152Y-98075302D01*
X198895066Y-98137216D01*
X198929649Y-98160323D01*
X198853944Y-98175382D01*
X198773050Y-98208889D01*
X198700248Y-98257534D01*
X198649976Y-98307806D01*
X198649976Y-98282249D01*
X198632894Y-98196372D01*
X198599387Y-98115478D01*
X198550742Y-98042676D01*
X198488828Y-97980762D01*
X198416026Y-97932117D01*
X198335132Y-97898610D01*
X198249255Y-97881528D01*
X198161697Y-97881528D01*
X198075820Y-97898610D01*
X197994926Y-97932117D01*
X197922124Y-97980762D01*
X197860210Y-98042676D01*
X197811565Y-98115478D01*
X197778058Y-98196372D01*
X197760976Y-98282249D01*
X197760976Y-98369807D01*
X197778058Y-98455684D01*
X197811565Y-98536578D01*
X197860210Y-98609380D01*
X197922124Y-98671294D01*
X197976877Y-98707879D01*
X197976877Y-98763802D01*
X197975770Y-98775040D01*
X197980184Y-98819853D01*
X197980299Y-98820232D01*
X197980300Y-101127498D01*
X197979193Y-101138737D01*
X197983607Y-101183550D01*
X197996678Y-101226641D01*
X198005807Y-101243720D01*
X198017906Y-101266355D01*
X198046473Y-101301164D01*
X198055200Y-101308326D01*
X198310073Y-101563200D01*
X198317236Y-101571928D01*
X198352045Y-101600495D01*
X198380391Y-101615646D01*
X198391758Y-101621722D01*
X198434849Y-101634793D01*
X198479662Y-101639207D01*
X198490891Y-101638101D01*
X198564381Y-101638101D01*
X198534224Y-101668258D01*
X198485579Y-101741060D01*
X198452072Y-101821954D01*
X198434990Y-101907831D01*
X198434990Y-101995389D01*
X198452072Y-102081266D01*
X198485579Y-102162160D01*
X198534224Y-102234962D01*
X198596138Y-102296876D01*
X198621368Y-102313734D01*
X198577984Y-102342722D01*
X198516070Y-102404636D01*
X198467425Y-102477438D01*
X198433918Y-102558332D01*
X198416836Y-102644209D01*
X198416836Y-102731767D01*
X198433918Y-102817644D01*
X198462165Y-102885839D01*
X198441758Y-102881780D01*
X198354200Y-102881780D01*
X198268323Y-102898862D01*
X198187429Y-102932369D01*
X198164133Y-102947935D01*
X198153535Y-102894658D01*
X198120028Y-102813764D01*
X198071383Y-102740962D01*
X198009469Y-102679048D01*
X197936667Y-102630403D01*
X197855773Y-102596896D01*
X197769896Y-102579814D01*
X197682338Y-102579814D01*
X197596461Y-102596896D01*
X197515567Y-102630403D01*
X197442765Y-102679048D01*
X197380851Y-102740962D01*
X197360310Y-102771703D01*
X197334818Y-102733552D01*
X197272904Y-102671638D01*
X197200102Y-102622993D01*
X197119208Y-102589486D01*
X197033331Y-102572404D01*
X196945773Y-102572404D01*
X196859896Y-102589486D01*
X196779002Y-102622993D01*
X196706200Y-102671638D01*
X196644286Y-102733552D01*
X196616255Y-102775502D01*
X196598372Y-102748738D01*
X196536458Y-102686824D01*
X196463656Y-102638179D01*
X196382762Y-102604672D01*
X196296885Y-102587590D01*
X196209327Y-102587590D01*
X196123450Y-102604672D01*
X196042556Y-102638179D01*
X195969754Y-102686824D01*
X195907840Y-102748738D01*
X195884805Y-102783213D01*
X195861769Y-102748738D01*
X195799855Y-102686824D01*
X195727053Y-102638179D01*
X195646159Y-102604672D01*
X195560282Y-102587590D01*
X195472724Y-102587590D01*
X195386847Y-102604672D01*
X195305953Y-102638179D01*
X195233151Y-102686824D01*
X195171237Y-102748738D01*
X195148202Y-102783213D01*
X195125166Y-102748738D01*
X195063252Y-102686824D01*
X194990450Y-102638179D01*
X194909556Y-102604672D01*
X194823679Y-102587590D01*
X194736121Y-102587590D01*
X194650244Y-102604672D01*
X194569350Y-102638179D01*
X194496548Y-102686824D01*
X194434634Y-102748738D01*
X194385989Y-102821540D01*
X194352482Y-102902434D01*
X194335400Y-102988311D01*
X194335400Y-103075869D01*
X194352482Y-103161746D01*
X194385989Y-103242640D01*
X194434634Y-103315442D01*
X194496548Y-103377356D01*
X194551300Y-103413940D01*
X194551301Y-105513051D01*
X194550194Y-105524290D01*
X194554608Y-105569103D01*
X194567679Y-105612194D01*
X194576424Y-105628554D01*
X194588907Y-105651908D01*
X194617474Y-105686717D01*
X194626201Y-105693879D01*
X194824921Y-105892600D01*
X194379289Y-105892600D01*
X192807183Y-104320495D01*
X192807183Y-103516065D01*
X192861935Y-103479481D01*
X192923849Y-103417567D01*
X192972494Y-103344765D01*
X193006001Y-103263871D01*
X193018714Y-103199956D01*
X193039779Y-103250811D01*
X193088424Y-103323613D01*
X193150338Y-103385527D01*
X193223140Y-103434172D01*
X193304034Y-103467679D01*
X193389911Y-103484761D01*
X193477469Y-103484761D01*
X193563346Y-103467679D01*
X193644240Y-103434172D01*
X193717042Y-103385527D01*
X193778956Y-103323613D01*
X193827601Y-103250811D01*
X193861108Y-103169917D01*
X193878190Y-103084040D01*
X193878190Y-102996482D01*
X193861108Y-102910605D01*
X193827601Y-102829711D01*
X193778956Y-102756909D01*
X193717042Y-102694995D01*
X193662290Y-102658411D01*
X193662290Y-92352919D01*
X193663396Y-92341690D01*
X193658982Y-92296876D01*
X193645911Y-92253785D01*
X193639102Y-92241046D01*
X193624684Y-92214072D01*
X193596117Y-92179263D01*
X193587389Y-92172101D01*
X193141600Y-91726312D01*
X193141600Y-89917199D01*
X193169656Y-89911618D01*
X193250550Y-89878111D01*
X193323352Y-89829466D01*
X193385266Y-89767552D01*
X193386938Y-89765049D01*
X193415800Y-89834729D01*
X193464445Y-89907531D01*
X193526359Y-89969445D01*
X193599161Y-90018090D01*
X193680055Y-90051597D01*
X193765932Y-90068679D01*
X193839452Y-90068679D01*
X193815682Y-90126066D01*
X193798600Y-90211943D01*
X193798600Y-90299501D01*
X193815682Y-90385378D01*
X193849189Y-90466272D01*
X193897834Y-90539074D01*
X193959748Y-90600988D01*
X194032550Y-90649633D01*
X194113444Y-90683140D01*
X194199321Y-90700222D01*
X194286879Y-90700222D01*
X194372756Y-90683140D01*
X194453650Y-90649633D01*
X194526452Y-90600988D01*
X194588366Y-90539074D01*
X194637011Y-90466272D01*
X194670518Y-90385378D01*
X194687600Y-90299501D01*
X194687600Y-90211943D01*
X194670518Y-90126066D01*
X194637011Y-90045172D01*
X194588366Y-89972370D01*
X194571906Y-89955910D01*
X194654211Y-89873605D01*
X194662938Y-89866444D01*
X194691505Y-89831635D01*
X194712732Y-89791922D01*
X194715748Y-89781979D01*
X194725803Y-89748831D01*
X194730217Y-89704018D01*
X194729111Y-89692789D01*
X194729111Y-89338118D01*
X194737859Y-89346866D01*
X194810661Y-89395511D01*
X194891555Y-89429018D01*
X194977432Y-89446100D01*
X195064990Y-89446100D01*
X195073817Y-89444344D01*
X195070618Y-89452068D01*
X195053536Y-89537945D01*
X195053536Y-89625503D01*
X195070618Y-89711380D01*
X195104125Y-89792274D01*
X195152770Y-89865076D01*
X195214684Y-89926990D01*
X195287486Y-89975635D01*
X195368380Y-90009142D01*
X195454257Y-90026224D01*
X195541815Y-90026224D01*
X195627692Y-90009142D01*
X195708586Y-89975635D01*
X195781388Y-89926990D01*
X195790137Y-89918241D01*
X195790136Y-92057398D01*
X195735384Y-92093982D01*
X195673470Y-92155896D01*
X195624825Y-92228698D01*
X195591318Y-92309592D01*
X195574236Y-92395469D01*
X195574236Y-92483027D01*
X195591318Y-92568904D01*
X195624825Y-92649798D01*
X195673470Y-92722600D01*
X195735384Y-92784514D01*
X195808186Y-92833159D01*
X195889080Y-92866666D01*
X195974957Y-92883748D01*
X196062515Y-92883748D01*
X196148392Y-92866666D01*
X196229286Y-92833159D01*
X196302088Y-92784514D01*
X196364002Y-92722600D01*
X196412647Y-92649798D01*
X196446154Y-92568904D01*
X196463236Y-92483027D01*
X196463236Y-92395469D01*
X196446154Y-92309592D01*
X196412647Y-92228698D01*
X196364002Y-92155896D01*
X196302088Y-92093982D01*
X196247336Y-92057398D01*
X196247336Y-89344500D01*
X196258779Y-89344500D01*
X196344656Y-89327418D01*
X196425550Y-89293911D01*
X196498352Y-89245266D01*
X196560266Y-89183352D01*
X196608911Y-89110550D01*
X196642418Y-89029656D01*
X196644111Y-89021143D01*
X196703114Y-89060568D01*
X196784008Y-89094075D01*
X196869885Y-89111157D01*
X196957443Y-89111157D01*
X197043320Y-89094075D01*
X197124214Y-89060568D01*
X197197016Y-89011923D01*
X197258930Y-88950009D01*
X197307575Y-88877207D01*
X197315089Y-88859067D01*
X197360297Y-88904275D01*
X197433099Y-88952920D01*
X197513993Y-88986427D01*
X197599870Y-89003509D01*
X197687428Y-89003509D01*
X197773305Y-88986427D01*
X197854199Y-88952920D01*
X197927001Y-88904275D01*
X197988915Y-88842361D01*
X198003542Y-88820470D01*
X198003542Y-88829479D01*
X198020624Y-88915356D01*
X198054131Y-88996250D01*
X198102776Y-89069052D01*
X198164690Y-89130966D01*
X198237492Y-89179611D01*
X198318386Y-89213118D01*
X198404263Y-89230200D01*
X198491821Y-89230200D01*
X198577698Y-89213118D01*
X198658592Y-89179611D01*
X198731394Y-89130966D01*
X198793308Y-89069052D01*
X198829892Y-89014300D01*
X199783283Y-89014300D01*
X199794330Y-89015406D01*
X199805747Y-89014300D01*
X199805929Y-89014300D01*
X199816817Y-89013228D01*
X199839150Y-89011064D01*
X199839328Y-89011010D01*
X199839513Y-89010992D01*
X199861036Y-89004463D01*
X199882262Y-88998062D01*
X199882423Y-88997976D01*
X199882605Y-88997921D01*
X199902993Y-88987024D01*
X199922009Y-88976898D01*
X199922146Y-88976786D01*
X199922318Y-88976694D01*
X199940267Y-88961963D01*
X199948130Y-88955532D01*
X199948251Y-88955411D01*
X199957127Y-88948127D01*
X199964176Y-88939537D01*
X204252698Y-84664826D01*
X204311311Y-84689105D01*
X204432446Y-84713200D01*
X204555954Y-84713200D01*
X204677089Y-84689105D01*
X204791196Y-84641840D01*
X204893889Y-84573223D01*
X204981223Y-84485889D01*
X205049840Y-84383196D01*
X205097105Y-84269089D01*
X205120833Y-84149800D01*
X205137567Y-84149800D01*
X205161295Y-84269089D01*
G37*
X205161295Y-84269089D02*
X205205628Y-84376116D01*
X204064456Y-85463043D01*
X204053574Y-85471973D01*
X204041041Y-85487245D01*
X204028170Y-85502172D01*
X204026790Y-85504610D01*
X204025007Y-85506782D01*
X204015696Y-85524201D01*
X204005982Y-85541357D01*
X204005103Y-85544020D01*
X204003780Y-85546495D01*
X203998060Y-85565353D01*
X203991865Y-85584117D01*
X203991521Y-85586909D01*
X203990709Y-85589587D01*
X203988779Y-85609177D01*
X203986362Y-85628810D01*
X203987401Y-85642855D01*
X203987400Y-86646311D01*
X201441611Y-89192101D01*
X199005017Y-89192101D01*
X198993788Y-89190995D01*
X198948975Y-89195409D01*
X198938946Y-89198451D01*
X198905884Y-89208480D01*
X198866171Y-89229707D01*
X198831362Y-89258274D01*
X198824199Y-89267002D01*
X198784654Y-89306547D01*
X198720069Y-89293700D01*
X198632511Y-89293700D01*
X198546634Y-89310782D01*
X198465740Y-89344289D01*
X198392938Y-89392934D01*
X198331024Y-89454848D01*
X198282379Y-89527650D01*
X198248872Y-89608544D01*
X198231790Y-89694421D01*
X198231790Y-89781979D01*
X198248872Y-89867856D01*
X198282379Y-89948750D01*
X198305043Y-89982669D01*
X198269914Y-89982669D01*
X198184037Y-89999751D01*
X198103143Y-90033258D01*
X198030341Y-90081903D01*
X197968427Y-90143817D01*
X197919782Y-90216619D01*
X197886275Y-90297513D01*
X197869193Y-90383390D01*
X197869193Y-90470948D01*
X197886275Y-90556825D01*
X197919782Y-90637719D01*
X197968427Y-90710521D01*
X198030341Y-90772435D01*
X198087116Y-90810371D01*
X198077173Y-90817015D01*
X198015259Y-90878929D01*
X197966614Y-90951731D01*
X197933107Y-91032625D01*
X197916025Y-91118502D01*
X197916025Y-91206060D01*
X197933107Y-91291937D01*
X197966614Y-91372831D01*
X198015259Y-91445633D01*
X198077173Y-91507547D01*
X198149975Y-91556192D01*
X198230869Y-91589699D01*
X198308128Y-91605067D01*
X198285365Y-91639133D01*
X198251858Y-91720027D01*
X198234776Y-91805904D01*
X198234776Y-91893462D01*
X198251858Y-91979339D01*
X198285365Y-92060233D01*
X198334010Y-92133035D01*
X198395924Y-92194949D01*
X198468726Y-92243594D01*
X198549620Y-92277101D01*
X198635497Y-92294183D01*
X198709211Y-92294183D01*
X198689609Y-92323519D01*
X198656102Y-92404413D01*
X198639020Y-92490290D01*
X198639020Y-92577848D01*
X198656102Y-92663725D01*
X198689609Y-92744619D01*
X198738254Y-92817421D01*
X198800168Y-92879335D01*
X198859482Y-92918968D01*
X198852648Y-92923534D01*
X198790734Y-92985448D01*
X198742089Y-93058250D01*
X198708582Y-93139144D01*
X198691500Y-93225021D01*
X198691500Y-93312579D01*
X198708582Y-93398456D01*
X198742089Y-93479350D01*
X198790734Y-93552152D01*
X198852648Y-93614066D01*
X198882153Y-93633781D01*
X198874650Y-93636889D01*
X198801848Y-93685534D01*
X198739934Y-93747448D01*
X198691289Y-93820250D01*
X198657782Y-93901144D01*
X198640700Y-93987021D01*
X198640700Y-94074579D01*
X198657782Y-94160456D01*
X198691289Y-94241350D01*
X198739934Y-94314152D01*
X198801848Y-94376066D01*
X198810918Y-94382127D01*
X198751048Y-94422131D01*
X198689134Y-94484045D01*
X198640489Y-94556847D01*
X198606982Y-94637741D01*
X198589900Y-94723618D01*
X198589900Y-94811176D01*
X198606982Y-94897053D01*
X198640489Y-94977947D01*
X198689134Y-95050749D01*
X198751048Y-95112663D01*
X198785523Y-95135698D01*
X198751048Y-95158734D01*
X198689134Y-95220648D01*
X198640489Y-95293450D01*
X198606982Y-95374344D01*
X198589900Y-95460221D01*
X198589900Y-95547779D01*
X198606982Y-95633656D01*
X198640489Y-95714550D01*
X198689134Y-95787352D01*
X198751048Y-95849266D01*
X198823850Y-95897911D01*
X198904744Y-95931418D01*
X198948654Y-95940152D01*
X198891524Y-95963816D01*
X198818722Y-96012461D01*
X198756808Y-96074375D01*
X198708163Y-96147177D01*
X198674656Y-96228071D01*
X198657574Y-96313948D01*
X198657574Y-96401506D01*
X198674656Y-96487383D01*
X198708163Y-96568277D01*
X198749990Y-96630875D01*
X198746805Y-96631509D01*
X198665911Y-96665016D01*
X198593109Y-96713661D01*
X198531195Y-96775575D01*
X198482550Y-96848377D01*
X198449043Y-96929271D01*
X198431961Y-97015148D01*
X198431961Y-97102706D01*
X198449043Y-97188583D01*
X198482550Y-97269477D01*
X198531195Y-97342279D01*
X198593109Y-97404193D01*
X198665911Y-97452838D01*
X198746805Y-97486345D01*
X198832682Y-97503427D01*
X198838323Y-97503427D01*
X198833152Y-97508598D01*
X198784507Y-97581400D01*
X198751000Y-97662294D01*
X198733918Y-97748171D01*
X198733918Y-97835729D01*
X198751000Y-97921606D01*
X198784507Y-98002500D01*
X198833152Y-98075302D01*
X198895066Y-98137216D01*
X198929649Y-98160323D01*
X198853944Y-98175382D01*
X198773050Y-98208889D01*
X198700248Y-98257534D01*
X198649976Y-98307806D01*
X198649976Y-98282249D01*
X198632894Y-98196372D01*
X198599387Y-98115478D01*
X198550742Y-98042676D01*
X198488828Y-97980762D01*
X198416026Y-97932117D01*
X198335132Y-97898610D01*
X198249255Y-97881528D01*
X198161697Y-97881528D01*
X198075820Y-97898610D01*
X197994926Y-97932117D01*
X197922124Y-97980762D01*
X197860210Y-98042676D01*
X197811565Y-98115478D01*
X197778058Y-98196372D01*
X197760976Y-98282249D01*
X197760976Y-98369807D01*
X197778058Y-98455684D01*
X197811565Y-98536578D01*
X197860210Y-98609380D01*
X197922124Y-98671294D01*
X197976877Y-98707879D01*
X197976877Y-98763802D01*
X197975770Y-98775040D01*
X197980184Y-98819853D01*
X197980299Y-98820232D01*
X197980300Y-101127498D01*
X197979193Y-101138737D01*
X197983607Y-101183550D01*
X197996678Y-101226641D01*
X198005807Y-101243720D01*
X198017906Y-101266355D01*
X198046473Y-101301164D01*
X198055200Y-101308326D01*
X198310073Y-101563200D01*
X198317236Y-101571928D01*
X198352045Y-101600495D01*
X198380391Y-101615646D01*
X198391758Y-101621722D01*
X198434849Y-101634793D01*
X198479662Y-101639207D01*
X198490891Y-101638101D01*
X198564381Y-101638101D01*
X198534224Y-101668258D01*
X198485579Y-101741060D01*
X198452072Y-101821954D01*
X198434990Y-101907831D01*
X198434990Y-101995389D01*
X198452072Y-102081266D01*
X198485579Y-102162160D01*
X198534224Y-102234962D01*
X198596138Y-102296876D01*
X198621368Y-102313734D01*
X198577984Y-102342722D01*
X198516070Y-102404636D01*
X198467425Y-102477438D01*
X198433918Y-102558332D01*
X198416836Y-102644209D01*
X198416836Y-102731767D01*
X198433918Y-102817644D01*
X198462165Y-102885839D01*
X198441758Y-102881780D01*
X198354200Y-102881780D01*
X198268323Y-102898862D01*
X198187429Y-102932369D01*
X198164133Y-102947935D01*
X198153535Y-102894658D01*
X198120028Y-102813764D01*
X198071383Y-102740962D01*
X198009469Y-102679048D01*
X197936667Y-102630403D01*
X197855773Y-102596896D01*
X197769896Y-102579814D01*
X197682338Y-102579814D01*
X197596461Y-102596896D01*
X197515567Y-102630403D01*
X197442765Y-102679048D01*
X197380851Y-102740962D01*
X197360310Y-102771703D01*
X197334818Y-102733552D01*
X197272904Y-102671638D01*
X197200102Y-102622993D01*
X197119208Y-102589486D01*
X197033331Y-102572404D01*
X196945773Y-102572404D01*
X196859896Y-102589486D01*
X196779002Y-102622993D01*
X196706200Y-102671638D01*
X196644286Y-102733552D01*
X196616255Y-102775502D01*
X196598372Y-102748738D01*
X196536458Y-102686824D01*
X196463656Y-102638179D01*
X196382762Y-102604672D01*
X196296885Y-102587590D01*
X196209327Y-102587590D01*
X196123450Y-102604672D01*
X196042556Y-102638179D01*
X195969754Y-102686824D01*
X195907840Y-102748738D01*
X195884805Y-102783213D01*
X195861769Y-102748738D01*
X195799855Y-102686824D01*
X195727053Y-102638179D01*
X195646159Y-102604672D01*
X195560282Y-102587590D01*
X195472724Y-102587590D01*
X195386847Y-102604672D01*
X195305953Y-102638179D01*
X195233151Y-102686824D01*
X195171237Y-102748738D01*
X195148202Y-102783213D01*
X195125166Y-102748738D01*
X195063252Y-102686824D01*
X194990450Y-102638179D01*
X194909556Y-102604672D01*
X194823679Y-102587590D01*
X194736121Y-102587590D01*
X194650244Y-102604672D01*
X194569350Y-102638179D01*
X194496548Y-102686824D01*
X194434634Y-102748738D01*
X194385989Y-102821540D01*
X194352482Y-102902434D01*
X194335400Y-102988311D01*
X194335400Y-103075869D01*
X194352482Y-103161746D01*
X194385989Y-103242640D01*
X194434634Y-103315442D01*
X194496548Y-103377356D01*
X194551300Y-103413940D01*
X194551301Y-105513051D01*
X194550194Y-105524290D01*
X194554608Y-105569103D01*
X194567679Y-105612194D01*
X194576424Y-105628554D01*
X194588907Y-105651908D01*
X194617474Y-105686717D01*
X194626201Y-105693879D01*
X194824921Y-105892600D01*
X194379289Y-105892600D01*
X192807183Y-104320495D01*
X192807183Y-103516065D01*
X192861935Y-103479481D01*
X192923849Y-103417567D01*
X192972494Y-103344765D01*
X193006001Y-103263871D01*
X193018714Y-103199956D01*
X193039779Y-103250811D01*
X193088424Y-103323613D01*
X193150338Y-103385527D01*
X193223140Y-103434172D01*
X193304034Y-103467679D01*
X193389911Y-103484761D01*
X193477469Y-103484761D01*
X193563346Y-103467679D01*
X193644240Y-103434172D01*
X193717042Y-103385527D01*
X193778956Y-103323613D01*
X193827601Y-103250811D01*
X193861108Y-103169917D01*
X193878190Y-103084040D01*
X193878190Y-102996482D01*
X193861108Y-102910605D01*
X193827601Y-102829711D01*
X193778956Y-102756909D01*
X193717042Y-102694995D01*
X193662290Y-102658411D01*
X193662290Y-92352919D01*
X193663396Y-92341690D01*
X193658982Y-92296876D01*
X193645911Y-92253785D01*
X193639102Y-92241046D01*
X193624684Y-92214072D01*
X193596117Y-92179263D01*
X193587389Y-92172101D01*
X193141600Y-91726312D01*
X193141600Y-89917199D01*
X193169656Y-89911618D01*
X193250550Y-89878111D01*
X193323352Y-89829466D01*
X193385266Y-89767552D01*
X193386938Y-89765049D01*
X193415800Y-89834729D01*
X193464445Y-89907531D01*
X193526359Y-89969445D01*
X193599161Y-90018090D01*
X193680055Y-90051597D01*
X193765932Y-90068679D01*
X193839452Y-90068679D01*
X193815682Y-90126066D01*
X193798600Y-90211943D01*
X193798600Y-90299501D01*
X193815682Y-90385378D01*
X193849189Y-90466272D01*
X193897834Y-90539074D01*
X193959748Y-90600988D01*
X194032550Y-90649633D01*
X194113444Y-90683140D01*
X194199321Y-90700222D01*
X194286879Y-90700222D01*
X194372756Y-90683140D01*
X194453650Y-90649633D01*
X194526452Y-90600988D01*
X194588366Y-90539074D01*
X194637011Y-90466272D01*
X194670518Y-90385378D01*
X194687600Y-90299501D01*
X194687600Y-90211943D01*
X194670518Y-90126066D01*
X194637011Y-90045172D01*
X194588366Y-89972370D01*
X194571906Y-89955910D01*
X194654211Y-89873605D01*
X194662938Y-89866444D01*
X194691505Y-89831635D01*
X194712732Y-89791922D01*
X194715748Y-89781979D01*
X194725803Y-89748831D01*
X194730217Y-89704018D01*
X194729111Y-89692789D01*
X194729111Y-89338118D01*
X194737859Y-89346866D01*
X194810661Y-89395511D01*
X194891555Y-89429018D01*
X194977432Y-89446100D01*
X195064990Y-89446100D01*
X195073817Y-89444344D01*
X195070618Y-89452068D01*
X195053536Y-89537945D01*
X195053536Y-89625503D01*
X195070618Y-89711380D01*
X195104125Y-89792274D01*
X195152770Y-89865076D01*
X195214684Y-89926990D01*
X195287486Y-89975635D01*
X195368380Y-90009142D01*
X195454257Y-90026224D01*
X195541815Y-90026224D01*
X195627692Y-90009142D01*
X195708586Y-89975635D01*
X195781388Y-89926990D01*
X195790137Y-89918241D01*
X195790136Y-92057398D01*
X195735384Y-92093982D01*
X195673470Y-92155896D01*
X195624825Y-92228698D01*
X195591318Y-92309592D01*
X195574236Y-92395469D01*
X195574236Y-92483027D01*
X195591318Y-92568904D01*
X195624825Y-92649798D01*
X195673470Y-92722600D01*
X195735384Y-92784514D01*
X195808186Y-92833159D01*
X195889080Y-92866666D01*
X195974957Y-92883748D01*
X196062515Y-92883748D01*
X196148392Y-92866666D01*
X196229286Y-92833159D01*
X196302088Y-92784514D01*
X196364002Y-92722600D01*
X196412647Y-92649798D01*
X196446154Y-92568904D01*
X196463236Y-92483027D01*
X196463236Y-92395469D01*
X196446154Y-92309592D01*
X196412647Y-92228698D01*
X196364002Y-92155896D01*
X196302088Y-92093982D01*
X196247336Y-92057398D01*
X196247336Y-89344500D01*
X196258779Y-89344500D01*
X196344656Y-89327418D01*
X196425550Y-89293911D01*
X196498352Y-89245266D01*
X196560266Y-89183352D01*
X196608911Y-89110550D01*
X196642418Y-89029656D01*
X196644111Y-89021143D01*
X196703114Y-89060568D01*
X196784008Y-89094075D01*
X196869885Y-89111157D01*
X196957443Y-89111157D01*
X197043320Y-89094075D01*
X197124214Y-89060568D01*
X197197016Y-89011923D01*
X197258930Y-88950009D01*
X197307575Y-88877207D01*
X197315089Y-88859067D01*
X197360297Y-88904275D01*
X197433099Y-88952920D01*
X197513993Y-88986427D01*
X197599870Y-89003509D01*
X197687428Y-89003509D01*
X197773305Y-88986427D01*
X197854199Y-88952920D01*
X197927001Y-88904275D01*
X197988915Y-88842361D01*
X198003542Y-88820470D01*
X198003542Y-88829479D01*
X198020624Y-88915356D01*
X198054131Y-88996250D01*
X198102776Y-89069052D01*
X198164690Y-89130966D01*
X198237492Y-89179611D01*
X198318386Y-89213118D01*
X198404263Y-89230200D01*
X198491821Y-89230200D01*
X198577698Y-89213118D01*
X198658592Y-89179611D01*
X198731394Y-89130966D01*
X198793308Y-89069052D01*
X198829892Y-89014300D01*
X199783283Y-89014300D01*
X199794330Y-89015406D01*
X199805747Y-89014300D01*
X199805929Y-89014300D01*
X199816817Y-89013228D01*
X199839150Y-89011064D01*
X199839328Y-89011010D01*
X199839513Y-89010992D01*
X199861036Y-89004463D01*
X199882262Y-88998062D01*
X199882423Y-88997976D01*
X199882605Y-88997921D01*
X199902993Y-88987024D01*
X199922009Y-88976898D01*
X199922146Y-88976786D01*
X199922318Y-88976694D01*
X199940267Y-88961963D01*
X199948130Y-88955532D01*
X199948251Y-88955411D01*
X199957127Y-88948127D01*
X199964176Y-88939537D01*
X204252698Y-84664826D01*
X204311311Y-84689105D01*
X204432446Y-84713200D01*
X204555954Y-84713200D01*
X204677089Y-84689105D01*
X204791196Y-84641840D01*
X204893889Y-84573223D01*
X204981223Y-84485889D01*
X205049840Y-84383196D01*
X205097105Y-84269089D01*
X205120833Y-84149800D01*
X205137567Y-84149800D01*
X205161295Y-84269089D01*
G36*
X197970561Y-103455936D02*
G01*
X198004068Y-103536830D01*
X198052713Y-103609632D01*
X198114627Y-103671546D01*
X198187429Y-103720191D01*
X198268323Y-103753698D01*
X198354200Y-103770780D01*
X198441758Y-103770780D01*
X198506344Y-103757933D01*
X199906211Y-105157801D01*
X199913373Y-105166528D01*
X199924899Y-105175987D01*
X200006481Y-105257570D01*
X198186321Y-105257570D01*
X197954717Y-105025967D01*
X197954717Y-103406164D01*
X197959963Y-103402659D01*
X197970561Y-103455936D01*
G37*
X197970561Y-103455936D02*
X198004068Y-103536830D01*
X198052713Y-103609632D01*
X198114627Y-103671546D01*
X198187429Y-103720191D01*
X198268323Y-103753698D01*
X198354200Y-103770780D01*
X198441758Y-103770780D01*
X198506344Y-103757933D01*
X199906211Y-105157801D01*
X199913373Y-105166528D01*
X199924899Y-105175987D01*
X200006481Y-105257570D01*
X198186321Y-105257570D01*
X197954717Y-105025967D01*
X197954717Y-103406164D01*
X197959963Y-103402659D01*
X197970561Y-103455936D01*
G36*
X208504109Y-102655398D02*
G01*
X208511272Y-102664126D01*
X208546081Y-102692693D01*
X208583403Y-102712642D01*
X208585794Y-102713920D01*
X208628885Y-102726991D01*
X208673698Y-102731405D01*
X208684927Y-102730299D01*
X210153742Y-102730299D01*
X210165960Y-102759796D01*
X210234577Y-102862489D01*
X210321911Y-102949823D01*
X210424604Y-103018440D01*
X210538711Y-103065705D01*
X210659846Y-103089800D01*
X210668000Y-103089800D01*
X210668000Y-103105800D01*
X210659846Y-103105800D01*
X210538711Y-103129895D01*
X210424604Y-103177160D01*
X210321911Y-103245777D01*
X210234577Y-103333111D01*
X210165960Y-103435804D01*
X210137629Y-103504200D01*
X206993651Y-103504200D01*
X205882739Y-102393289D01*
X208242001Y-102393289D01*
X208504109Y-102655398D01*
G37*
X208504109Y-102655398D02*
X208511272Y-102664126D01*
X208546081Y-102692693D01*
X208583403Y-102712642D01*
X208585794Y-102713920D01*
X208628885Y-102726991D01*
X208673698Y-102731405D01*
X208684927Y-102730299D01*
X210153742Y-102730299D01*
X210165960Y-102759796D01*
X210234577Y-102862489D01*
X210321911Y-102949823D01*
X210424604Y-103018440D01*
X210538711Y-103065705D01*
X210659846Y-103089800D01*
X210668000Y-103089800D01*
X210668000Y-103105800D01*
X210659846Y-103105800D01*
X210538711Y-103129895D01*
X210424604Y-103177160D01*
X210321911Y-103245777D01*
X210234577Y-103333111D01*
X210165960Y-103435804D01*
X210137629Y-103504200D01*
X206993651Y-103504200D01*
X205882739Y-102393289D01*
X208242001Y-102393289D01*
X208504109Y-102655398D01*
G36*
X199326327Y-98263148D02*
G01*
X199333490Y-98271876D01*
X199368299Y-98300443D01*
X199408012Y-98321670D01*
X199436829Y-98330411D01*
X199451103Y-98334741D01*
X199495916Y-98339155D01*
X199507145Y-98338049D01*
X200833961Y-98338049D01*
X203843211Y-101347300D01*
X203850373Y-101356027D01*
X203885182Y-101384594D01*
X203924895Y-101405821D01*
X203967986Y-101418892D01*
X204012799Y-101423306D01*
X204024028Y-101422200D01*
X210137961Y-101422200D01*
X210165960Y-101489796D01*
X210234577Y-101592489D01*
X210321911Y-101679823D01*
X210424604Y-101748440D01*
X210538711Y-101795705D01*
X210659846Y-101819800D01*
X210668000Y-101819800D01*
X210668000Y-101835800D01*
X210659846Y-101835800D01*
X210538711Y-101859895D01*
X210424604Y-101907160D01*
X210321911Y-101975777D01*
X210234577Y-102063111D01*
X210165960Y-102165804D01*
X210121517Y-102273099D01*
X208768388Y-102273099D01*
X208506283Y-102010995D01*
X208499116Y-102002262D01*
X208464307Y-101973695D01*
X208424594Y-101952468D01*
X208381502Y-101939397D01*
X208347918Y-101936089D01*
X208336689Y-101934983D01*
X208325460Y-101936089D01*
X204164178Y-101936089D01*
X200994693Y-98766605D01*
X200987526Y-98757872D01*
X200952717Y-98729305D01*
X200913004Y-98708078D01*
X200869912Y-98695007D01*
X200836328Y-98691699D01*
X200825099Y-98690593D01*
X200813870Y-98691699D01*
X199419125Y-98691699D01*
X199428100Y-98646579D01*
X199428100Y-98559021D01*
X199411018Y-98473144D01*
X199377511Y-98392250D01*
X199328866Y-98319448D01*
X199266952Y-98257534D01*
X199232369Y-98234427D01*
X199286782Y-98223603D01*
X199326327Y-98263148D01*
G37*
X199326327Y-98263148D02*
X199333490Y-98271876D01*
X199368299Y-98300443D01*
X199408012Y-98321670D01*
X199436829Y-98330411D01*
X199451103Y-98334741D01*
X199495916Y-98339155D01*
X199507145Y-98338049D01*
X200833961Y-98338049D01*
X203843211Y-101347300D01*
X203850373Y-101356027D01*
X203885182Y-101384594D01*
X203924895Y-101405821D01*
X203967986Y-101418892D01*
X204012799Y-101423306D01*
X204024028Y-101422200D01*
X210137961Y-101422200D01*
X210165960Y-101489796D01*
X210234577Y-101592489D01*
X210321911Y-101679823D01*
X210424604Y-101748440D01*
X210538711Y-101795705D01*
X210659846Y-101819800D01*
X210668000Y-101819800D01*
X210668000Y-101835800D01*
X210659846Y-101835800D01*
X210538711Y-101859895D01*
X210424604Y-101907160D01*
X210321911Y-101975777D01*
X210234577Y-102063111D01*
X210165960Y-102165804D01*
X210121517Y-102273099D01*
X208768388Y-102273099D01*
X208506283Y-102010995D01*
X208499116Y-102002262D01*
X208464307Y-101973695D01*
X208424594Y-101952468D01*
X208381502Y-101939397D01*
X208347918Y-101936089D01*
X208336689Y-101934983D01*
X208325460Y-101936089D01*
X204164178Y-101936089D01*
X200994693Y-98766605D01*
X200987526Y-98757872D01*
X200952717Y-98729305D01*
X200913004Y-98708078D01*
X200869912Y-98695007D01*
X200836328Y-98691699D01*
X200825099Y-98690593D01*
X200813870Y-98691699D01*
X199419125Y-98691699D01*
X199428100Y-98646579D01*
X199428100Y-98559021D01*
X199411018Y-98473144D01*
X199377511Y-98392250D01*
X199328866Y-98319448D01*
X199266952Y-98257534D01*
X199232369Y-98234427D01*
X199286782Y-98223603D01*
X199326327Y-98263148D01*
G36*
X199627220Y-97679286D02*
G01*
X199662707Y-97698254D01*
X199666933Y-97700513D01*
X199710024Y-97713584D01*
X199754838Y-97717998D01*
X199766067Y-97716892D01*
X201228804Y-97716892D01*
X203589211Y-100077300D01*
X203596373Y-100086027D01*
X203631182Y-100114594D01*
X203669739Y-100135203D01*
X203670895Y-100135821D01*
X203713986Y-100148892D01*
X203758800Y-100153306D01*
X203770029Y-100152200D01*
X210137961Y-100152200D01*
X210165960Y-100219796D01*
X210234577Y-100322489D01*
X210321911Y-100409823D01*
X210424604Y-100478440D01*
X210538711Y-100525705D01*
X210659846Y-100549800D01*
X210668000Y-100549800D01*
X210668000Y-100565800D01*
X210659846Y-100565800D01*
X210538711Y-100589895D01*
X210424604Y-100637160D01*
X210321911Y-100705777D01*
X210234577Y-100793111D01*
X210165960Y-100895804D01*
X210137298Y-100965000D01*
X204107489Y-100965000D01*
X201098243Y-97955755D01*
X201091076Y-97947022D01*
X201056267Y-97918455D01*
X201016554Y-97897228D01*
X200973462Y-97884157D01*
X200939878Y-97880849D01*
X200928649Y-97879743D01*
X200917420Y-97880849D01*
X199613943Y-97880849D01*
X199622918Y-97835729D01*
X199622918Y-97748171D01*
X199605836Y-97662294D01*
X199605486Y-97661450D01*
X199627220Y-97679286D01*
G37*
X199627220Y-97679286D02*
X199662707Y-97698254D01*
X199666933Y-97700513D01*
X199710024Y-97713584D01*
X199754838Y-97717998D01*
X199766067Y-97716892D01*
X201228804Y-97716892D01*
X203589211Y-100077300D01*
X203596373Y-100086027D01*
X203631182Y-100114594D01*
X203669739Y-100135203D01*
X203670895Y-100135821D01*
X203713986Y-100148892D01*
X203758800Y-100153306D01*
X203770029Y-100152200D01*
X210137961Y-100152200D01*
X210165960Y-100219796D01*
X210234577Y-100322489D01*
X210321911Y-100409823D01*
X210424604Y-100478440D01*
X210538711Y-100525705D01*
X210659846Y-100549800D01*
X210668000Y-100549800D01*
X210668000Y-100565800D01*
X210659846Y-100565800D01*
X210538711Y-100589895D01*
X210424604Y-100637160D01*
X210321911Y-100705777D01*
X210234577Y-100793111D01*
X210165960Y-100895804D01*
X210137298Y-100965000D01*
X204107489Y-100965000D01*
X201098243Y-97955755D01*
X201091076Y-97947022D01*
X201056267Y-97918455D01*
X201016554Y-97897228D01*
X200973462Y-97884157D01*
X200939878Y-97880849D01*
X200928649Y-97879743D01*
X200917420Y-97880849D01*
X199613943Y-97880849D01*
X199622918Y-97835729D01*
X199622918Y-97748171D01*
X199605836Y-97662294D01*
X199605486Y-97661450D01*
X199627220Y-97679286D01*
G36*
X203322510Y-98845399D02*
G01*
X203329672Y-98854126D01*
X203364481Y-98882693D01*
X203401831Y-98902657D01*
X203404194Y-98903920D01*
X203447285Y-98916991D01*
X203492099Y-98921405D01*
X203503328Y-98920299D01*
X210153742Y-98920299D01*
X210165960Y-98949796D01*
X210234577Y-99052489D01*
X210321911Y-99139823D01*
X210424604Y-99208440D01*
X210538711Y-99255705D01*
X210659846Y-99279800D01*
X210668000Y-99279800D01*
X210668000Y-99295800D01*
X210659846Y-99295800D01*
X210538711Y-99319895D01*
X210424604Y-99367160D01*
X210321911Y-99435777D01*
X210234577Y-99523111D01*
X210165960Y-99625804D01*
X210137298Y-99695000D01*
X203853489Y-99695000D01*
X201493086Y-97334598D01*
X201485919Y-97325865D01*
X201451110Y-97297298D01*
X201411397Y-97276071D01*
X201368305Y-97263000D01*
X201334721Y-97259692D01*
X201323492Y-97258586D01*
X201312263Y-97259692D01*
X199849527Y-97259692D01*
X199495067Y-96905233D01*
X199487900Y-96896500D01*
X199453091Y-96867933D01*
X199413378Y-96846706D01*
X199370286Y-96833635D01*
X199336702Y-96830327D01*
X199325473Y-96829221D01*
X199314244Y-96830327D01*
X199258311Y-96830327D01*
X199228545Y-96785779D01*
X199231730Y-96785145D01*
X199312624Y-96751638D01*
X199385426Y-96702993D01*
X199447340Y-96641079D01*
X199483924Y-96586327D01*
X201063439Y-96586327D01*
X203322510Y-98845399D01*
G37*
X203322510Y-98845399D02*
X203329672Y-98854126D01*
X203364481Y-98882693D01*
X203401831Y-98902657D01*
X203404194Y-98903920D01*
X203447285Y-98916991D01*
X203492099Y-98921405D01*
X203503328Y-98920299D01*
X210153742Y-98920299D01*
X210165960Y-98949796D01*
X210234577Y-99052489D01*
X210321911Y-99139823D01*
X210424604Y-99208440D01*
X210538711Y-99255705D01*
X210659846Y-99279800D01*
X210668000Y-99279800D01*
X210668000Y-99295800D01*
X210659846Y-99295800D01*
X210538711Y-99319895D01*
X210424604Y-99367160D01*
X210321911Y-99435777D01*
X210234577Y-99523111D01*
X210165960Y-99625804D01*
X210137298Y-99695000D01*
X203853489Y-99695000D01*
X201493086Y-97334598D01*
X201485919Y-97325865D01*
X201451110Y-97297298D01*
X201411397Y-97276071D01*
X201368305Y-97263000D01*
X201334721Y-97259692D01*
X201323492Y-97258586D01*
X201312263Y-97259692D01*
X199849527Y-97259692D01*
X199495067Y-96905233D01*
X199487900Y-96896500D01*
X199453091Y-96867933D01*
X199413378Y-96846706D01*
X199370286Y-96833635D01*
X199336702Y-96830327D01*
X199325473Y-96829221D01*
X199314244Y-96830327D01*
X199258311Y-96830327D01*
X199228545Y-96785779D01*
X199231730Y-96785145D01*
X199312624Y-96751638D01*
X199385426Y-96702993D01*
X199447340Y-96641079D01*
X199483924Y-96586327D01*
X201063439Y-96586327D01*
X203322510Y-98845399D01*
G36*
X204655211Y-96266500D02*
G01*
X204662373Y-96275227D01*
X204697182Y-96303794D01*
X204736895Y-96325021D01*
X204779986Y-96338092D01*
X204824799Y-96342506D01*
X204836028Y-96341400D01*
X210137629Y-96341400D01*
X210165960Y-96409796D01*
X210234577Y-96512489D01*
X210321911Y-96599823D01*
X210424604Y-96668440D01*
X210538711Y-96715705D01*
X210659846Y-96739800D01*
X210668000Y-96739800D01*
X210668000Y-96755800D01*
X210659846Y-96755800D01*
X210538711Y-96779895D01*
X210424604Y-96827160D01*
X210321911Y-96895777D01*
X210234577Y-96983111D01*
X210165960Y-97085804D01*
X210137629Y-97154200D01*
X203547889Y-97154200D01*
X201743994Y-95350306D01*
X201736827Y-95341573D01*
X201702018Y-95313006D01*
X201662305Y-95291779D01*
X201619213Y-95278708D01*
X201585629Y-95275400D01*
X201574400Y-95274294D01*
X201563171Y-95275400D01*
X199416250Y-95275400D01*
X199379666Y-95220648D01*
X199317752Y-95158734D01*
X199283277Y-95135698D01*
X199317752Y-95112663D01*
X199379666Y-95050749D01*
X199416250Y-94995997D01*
X203384709Y-94995997D01*
X204655211Y-96266500D01*
G37*
X204655211Y-96266500D02*
X204662373Y-96275227D01*
X204697182Y-96303794D01*
X204736895Y-96325021D01*
X204779986Y-96338092D01*
X204824799Y-96342506D01*
X204836028Y-96341400D01*
X210137629Y-96341400D01*
X210165960Y-96409796D01*
X210234577Y-96512489D01*
X210321911Y-96599823D01*
X210424604Y-96668440D01*
X210538711Y-96715705D01*
X210659846Y-96739800D01*
X210668000Y-96739800D01*
X210668000Y-96755800D01*
X210659846Y-96755800D01*
X210538711Y-96779895D01*
X210424604Y-96827160D01*
X210321911Y-96895777D01*
X210234577Y-96983111D01*
X210165960Y-97085804D01*
X210137629Y-97154200D01*
X203547889Y-97154200D01*
X201743994Y-95350306D01*
X201736827Y-95341573D01*
X201702018Y-95313006D01*
X201662305Y-95291779D01*
X201619213Y-95278708D01*
X201585629Y-95275400D01*
X201574400Y-95274294D01*
X201563171Y-95275400D01*
X199416250Y-95275400D01*
X199379666Y-95220648D01*
X199317752Y-95158734D01*
X199283277Y-95135698D01*
X199317752Y-95112663D01*
X199379666Y-95050749D01*
X199416250Y-94995997D01*
X203384709Y-94995997D01*
X204655211Y-96266500D01*
G36*
X207754011Y-94996500D02*
G01*
X207761173Y-95005227D01*
X207795982Y-95033794D01*
X207835695Y-95055021D01*
X207868757Y-95065050D01*
X207878786Y-95068092D01*
X207923599Y-95072506D01*
X207934828Y-95071400D01*
X210137629Y-95071400D01*
X210165960Y-95139796D01*
X210234577Y-95242489D01*
X210321911Y-95329823D01*
X210424604Y-95398440D01*
X210538711Y-95445705D01*
X210659846Y-95469800D01*
X210668001Y-95469800D01*
X210668001Y-95485800D01*
X210659846Y-95485800D01*
X210538711Y-95509895D01*
X210424604Y-95557160D01*
X210321911Y-95625777D01*
X210234577Y-95713111D01*
X210165960Y-95815804D01*
X210137629Y-95884200D01*
X204919489Y-95884200D01*
X203648991Y-94613703D01*
X203641824Y-94604970D01*
X203607015Y-94576403D01*
X203567302Y-94555176D01*
X203524210Y-94542105D01*
X203490626Y-94538797D01*
X203479397Y-94537691D01*
X203468168Y-94538797D01*
X199416250Y-94538797D01*
X199379666Y-94484045D01*
X199317752Y-94422131D01*
X199308682Y-94416070D01*
X199368552Y-94376066D01*
X199430466Y-94314152D01*
X199467050Y-94259400D01*
X207016912Y-94259400D01*
X207754011Y-94996500D01*
G37*
X207754011Y-94996500D02*
X207761173Y-95005227D01*
X207795982Y-95033794D01*
X207835695Y-95055021D01*
X207868757Y-95065050D01*
X207878786Y-95068092D01*
X207923599Y-95072506D01*
X207934828Y-95071400D01*
X210137629Y-95071400D01*
X210165960Y-95139796D01*
X210234577Y-95242489D01*
X210321911Y-95329823D01*
X210424604Y-95398440D01*
X210538711Y-95445705D01*
X210659846Y-95469800D01*
X210668001Y-95469800D01*
X210668001Y-95485800D01*
X210659846Y-95485800D01*
X210538711Y-95509895D01*
X210424604Y-95557160D01*
X210321911Y-95625777D01*
X210234577Y-95713111D01*
X210165960Y-95815804D01*
X210137629Y-95884200D01*
X204919489Y-95884200D01*
X203648991Y-94613703D01*
X203641824Y-94604970D01*
X203607015Y-94576403D01*
X203567302Y-94555176D01*
X203524210Y-94542105D01*
X203490626Y-94538797D01*
X203479397Y-94537691D01*
X203468168Y-94538797D01*
X199416250Y-94538797D01*
X199379666Y-94484045D01*
X199317752Y-94422131D01*
X199308682Y-94416070D01*
X199368552Y-94376066D01*
X199430466Y-94314152D01*
X199467050Y-94259400D01*
X207016912Y-94259400D01*
X207754011Y-94996500D01*
G36*
X208820810Y-93726499D02*
G01*
X208827973Y-93735227D01*
X208862782Y-93763794D01*
X208902495Y-93785021D01*
X208945586Y-93798092D01*
X208990400Y-93802506D01*
X209001629Y-93801400D01*
X210137629Y-93801400D01*
X210165960Y-93869796D01*
X210234577Y-93972489D01*
X210321911Y-94059823D01*
X210424604Y-94128440D01*
X210538711Y-94175705D01*
X210659846Y-94199800D01*
X210668001Y-94199800D01*
X210668001Y-94215800D01*
X210659846Y-94215800D01*
X210538711Y-94239895D01*
X210424604Y-94287160D01*
X210321911Y-94355777D01*
X210234577Y-94443111D01*
X210165960Y-94545804D01*
X210137629Y-94614200D01*
X208018289Y-94614200D01*
X207281194Y-93877106D01*
X207274027Y-93868373D01*
X207239218Y-93839806D01*
X207199505Y-93818579D01*
X207156413Y-93805508D01*
X207122829Y-93802200D01*
X207111600Y-93801094D01*
X207100371Y-93802200D01*
X199467050Y-93802200D01*
X199430466Y-93747448D01*
X199368552Y-93685534D01*
X199339047Y-93665819D01*
X199346550Y-93662711D01*
X199419352Y-93614066D01*
X199481266Y-93552152D01*
X199517850Y-93497400D01*
X208591712Y-93497400D01*
X208820810Y-93726499D01*
G37*
X208820810Y-93726499D02*
X208827973Y-93735227D01*
X208862782Y-93763794D01*
X208902495Y-93785021D01*
X208945586Y-93798092D01*
X208990400Y-93802506D01*
X209001629Y-93801400D01*
X210137629Y-93801400D01*
X210165960Y-93869796D01*
X210234577Y-93972489D01*
X210321911Y-94059823D01*
X210424604Y-94128440D01*
X210538711Y-94175705D01*
X210659846Y-94199800D01*
X210668001Y-94199800D01*
X210668001Y-94215800D01*
X210659846Y-94215800D01*
X210538711Y-94239895D01*
X210424604Y-94287160D01*
X210321911Y-94355777D01*
X210234577Y-94443111D01*
X210165960Y-94545804D01*
X210137629Y-94614200D01*
X208018289Y-94614200D01*
X207281194Y-93877106D01*
X207274027Y-93868373D01*
X207239218Y-93839806D01*
X207199505Y-93818579D01*
X207156413Y-93805508D01*
X207122829Y-93802200D01*
X207111600Y-93801094D01*
X207100371Y-93802200D01*
X199467050Y-93802200D01*
X199430466Y-93747448D01*
X199368552Y-93685534D01*
X199339047Y-93665819D01*
X199346550Y-93662711D01*
X199419352Y-93614066D01*
X199481266Y-93552152D01*
X199517850Y-93497400D01*
X208591712Y-93497400D01*
X208820810Y-93726499D01*
G36*
X210165960Y-91329796D02*
G01*
X210234577Y-91432489D01*
X210321911Y-91519823D01*
X210424604Y-91588440D01*
X210538711Y-91635705D01*
X210659846Y-91659800D01*
X210668001Y-91659800D01*
X210668001Y-91675800D01*
X210659846Y-91675800D01*
X210538711Y-91699895D01*
X210424604Y-91747160D01*
X210321911Y-91815777D01*
X210234577Y-91903111D01*
X210165960Y-92005804D01*
X210137629Y-92074200D01*
X208070085Y-92074200D01*
X208073731Y-92073094D01*
X208110622Y-92061904D01*
X208150335Y-92040677D01*
X208185144Y-92012110D01*
X208192311Y-92003377D01*
X208934289Y-91261400D01*
X210137629Y-91261400D01*
X210165960Y-91329796D01*
G37*
X210165960Y-91329796D02*
X210234577Y-91432489D01*
X210321911Y-91519823D01*
X210424604Y-91588440D01*
X210538711Y-91635705D01*
X210659846Y-91659800D01*
X210668001Y-91659800D01*
X210668001Y-91675800D01*
X210659846Y-91675800D01*
X210538711Y-91699895D01*
X210424604Y-91747160D01*
X210321911Y-91815777D01*
X210234577Y-91903111D01*
X210165960Y-92005804D01*
X210137629Y-92074200D01*
X208070085Y-92074200D01*
X208073731Y-92073094D01*
X208110622Y-92061904D01*
X208150335Y-92040677D01*
X208185144Y-92012110D01*
X208192311Y-92003377D01*
X208934289Y-91261400D01*
X210137629Y-91261400D01*
X210165960Y-91329796D01*
G36*
X210165960Y-88789796D02*
G01*
X210234577Y-88892489D01*
X210321911Y-88979823D01*
X210424604Y-89048440D01*
X210538711Y-89095705D01*
X210659846Y-89119800D01*
X210668001Y-89119800D01*
X210668001Y-89135800D01*
X210659846Y-89135800D01*
X210538711Y-89159895D01*
X210424604Y-89207160D01*
X210321911Y-89275777D01*
X210234577Y-89363111D01*
X210165960Y-89465804D01*
X210153075Y-89496911D01*
X209727052Y-89496911D01*
X209715823Y-89495805D01*
X209671009Y-89500219D01*
X209646564Y-89507634D01*
X209627918Y-89513290D01*
X209588205Y-89534517D01*
X209553396Y-89563084D01*
X209546234Y-89571811D01*
X208184365Y-90933681D01*
X198742375Y-90933681D01*
X198705791Y-90878929D01*
X198643877Y-90817015D01*
X198587102Y-90779079D01*
X198597045Y-90772435D01*
X198658959Y-90710521D01*
X198684518Y-90672270D01*
X198704243Y-90691995D01*
X198711410Y-90700728D01*
X198746219Y-90729295D01*
X198785932Y-90750522D01*
X198818994Y-90760551D01*
X198829023Y-90763593D01*
X198873836Y-90768007D01*
X198885065Y-90766901D01*
X206376470Y-90766901D01*
X206387699Y-90768007D01*
X206432512Y-90763593D01*
X206475604Y-90750522D01*
X206515317Y-90729295D01*
X206550126Y-90700728D01*
X206557293Y-90691995D01*
X208527889Y-88721400D01*
X210137629Y-88721400D01*
X210165960Y-88789796D01*
G37*
X210165960Y-88789796D02*
X210234577Y-88892489D01*
X210321911Y-88979823D01*
X210424604Y-89048440D01*
X210538711Y-89095705D01*
X210659846Y-89119800D01*
X210668001Y-89119800D01*
X210668001Y-89135800D01*
X210659846Y-89135800D01*
X210538711Y-89159895D01*
X210424604Y-89207160D01*
X210321911Y-89275777D01*
X210234577Y-89363111D01*
X210165960Y-89465804D01*
X210153075Y-89496911D01*
X209727052Y-89496911D01*
X209715823Y-89495805D01*
X209671009Y-89500219D01*
X209646564Y-89507634D01*
X209627918Y-89513290D01*
X209588205Y-89534517D01*
X209553396Y-89563084D01*
X209546234Y-89571811D01*
X208184365Y-90933681D01*
X198742375Y-90933681D01*
X198705791Y-90878929D01*
X198643877Y-90817015D01*
X198587102Y-90779079D01*
X198597045Y-90772435D01*
X198658959Y-90710521D01*
X198684518Y-90672270D01*
X198704243Y-90691995D01*
X198711410Y-90700728D01*
X198746219Y-90729295D01*
X198785932Y-90750522D01*
X198818994Y-90760551D01*
X198829023Y-90763593D01*
X198873836Y-90768007D01*
X198885065Y-90766901D01*
X206376470Y-90766901D01*
X206387699Y-90768007D01*
X206432512Y-90763593D01*
X206475604Y-90750522D01*
X206515317Y-90729295D01*
X206550126Y-90700728D01*
X206557293Y-90691995D01*
X208527889Y-88721400D01*
X210137629Y-88721400D01*
X210165960Y-88789796D01*
G36*
X206431295Y-84269089D02*
G01*
X206478560Y-84383196D01*
X206547177Y-84485889D01*
X206634511Y-84573223D01*
X206737204Y-84641840D01*
X206851311Y-84689105D01*
X206972446Y-84713200D01*
X207095954Y-84713200D01*
X207217089Y-84689105D01*
X207331196Y-84641840D01*
X207433889Y-84573223D01*
X207521223Y-84485889D01*
X207589840Y-84383196D01*
X207637105Y-84269089D01*
X207660833Y-84149800D01*
X207677567Y-84149800D01*
X207701295Y-84269089D01*
X207748560Y-84383196D01*
X207817177Y-84485889D01*
X207904511Y-84573223D01*
X208007204Y-84641840D01*
X208121311Y-84689105D01*
X208242446Y-84713200D01*
X208365954Y-84713200D01*
X208487089Y-84689105D01*
X208601196Y-84641840D01*
X208703889Y-84573223D01*
X208791223Y-84485889D01*
X208845431Y-84404761D01*
X208844494Y-84586200D01*
X208848908Y-84631013D01*
X208861979Y-84674105D01*
X208883206Y-84713818D01*
X208911773Y-84748627D01*
X208946582Y-84777194D01*
X208986295Y-84798421D01*
X209029387Y-84811492D01*
X209074200Y-84815906D01*
X209288450Y-84814800D01*
X209345600Y-84757650D01*
X209345600Y-84314800D01*
X209325600Y-84314800D01*
X209325600Y-84149800D01*
X209822800Y-84149800D01*
X209822800Y-84314800D01*
X209802800Y-84314800D01*
X209802800Y-84757650D01*
X209859950Y-84814800D01*
X210074200Y-84815906D01*
X210119013Y-84811492D01*
X210162105Y-84798421D01*
X210201818Y-84777194D01*
X210236627Y-84748627D01*
X210265194Y-84713818D01*
X210286421Y-84674105D01*
X210299492Y-84631013D01*
X210303906Y-84586200D01*
X210302800Y-84371950D01*
X210245652Y-84314802D01*
X210302800Y-84314802D01*
X210302800Y-84149800D01*
X210668001Y-84149800D01*
X210668001Y-86494200D01*
X210492998Y-86494200D01*
X210492998Y-86551348D01*
X210435850Y-86494200D01*
X210221600Y-86493094D01*
X210176787Y-86497508D01*
X210133695Y-86510579D01*
X210093982Y-86531806D01*
X210059173Y-86560373D01*
X210030606Y-86595182D01*
X210009379Y-86634895D01*
X209996308Y-86677987D01*
X209991894Y-86722800D01*
X209993000Y-86937050D01*
X210050150Y-86994200D01*
X210493000Y-86994200D01*
X210493000Y-86974200D01*
X210668001Y-86974200D01*
X210668001Y-87471400D01*
X210493000Y-87471400D01*
X210493000Y-87451400D01*
X210050150Y-87451400D01*
X209993000Y-87508550D01*
X209991894Y-87722800D01*
X209996308Y-87767613D01*
X210009379Y-87810705D01*
X210030606Y-87850418D01*
X210059173Y-87885227D01*
X210093982Y-87913794D01*
X210133695Y-87935021D01*
X210176787Y-87948092D01*
X210221600Y-87952506D01*
X210403039Y-87951569D01*
X210321911Y-88005777D01*
X210234577Y-88093111D01*
X210165960Y-88195804D01*
X210137629Y-88264200D01*
X208444428Y-88264200D01*
X208433199Y-88263094D01*
X208388386Y-88267508D01*
X208378357Y-88270550D01*
X208345295Y-88280579D01*
X208305582Y-88301806D01*
X208270773Y-88330373D01*
X208263611Y-88339100D01*
X206293011Y-90309701D01*
X198968525Y-90309701D01*
X198932299Y-90273475D01*
X198925132Y-90264742D01*
X198890323Y-90236175D01*
X198850610Y-90214948D01*
X198807518Y-90201877D01*
X198773934Y-90198569D01*
X198762705Y-90197463D01*
X198751476Y-90198569D01*
X198695543Y-90198569D01*
X198684940Y-90182700D01*
X198720069Y-90182700D01*
X198805946Y-90165618D01*
X198886840Y-90132111D01*
X198959642Y-90083466D01*
X199021556Y-90021552D01*
X199070201Y-89948750D01*
X199103708Y-89867856D01*
X199120790Y-89781979D01*
X199120790Y-89694421D01*
X199111815Y-89649301D01*
X201525070Y-89649301D01*
X201536299Y-89650407D01*
X201581112Y-89645993D01*
X201624204Y-89632922D01*
X201663917Y-89611695D01*
X201698726Y-89583128D01*
X201705893Y-89574395D01*
X204369701Y-86910588D01*
X204378427Y-86903427D01*
X204406994Y-86868618D01*
X204428221Y-86828905D01*
X204441292Y-86785813D01*
X204444600Y-86752229D01*
X204444600Y-86752228D01*
X204445706Y-86741001D01*
X204444600Y-86729772D01*
X204444600Y-85732365D01*
X205552470Y-84677159D01*
X205581311Y-84689105D01*
X205702446Y-84713200D01*
X205825954Y-84713200D01*
X205947089Y-84689105D01*
X206061196Y-84641840D01*
X206163889Y-84573223D01*
X206251223Y-84485889D01*
X206319840Y-84383196D01*
X206367105Y-84269089D01*
X206390833Y-84149800D01*
X206407567Y-84149800D01*
X206431295Y-84269089D01*
G37*
X206431295Y-84269089D02*
X206478560Y-84383196D01*
X206547177Y-84485889D01*
X206634511Y-84573223D01*
X206737204Y-84641840D01*
X206851311Y-84689105D01*
X206972446Y-84713200D01*
X207095954Y-84713200D01*
X207217089Y-84689105D01*
X207331196Y-84641840D01*
X207433889Y-84573223D01*
X207521223Y-84485889D01*
X207589840Y-84383196D01*
X207637105Y-84269089D01*
X207660833Y-84149800D01*
X207677567Y-84149800D01*
X207701295Y-84269089D01*
X207748560Y-84383196D01*
X207817177Y-84485889D01*
X207904511Y-84573223D01*
X208007204Y-84641840D01*
X208121311Y-84689105D01*
X208242446Y-84713200D01*
X208365954Y-84713200D01*
X208487089Y-84689105D01*
X208601196Y-84641840D01*
X208703889Y-84573223D01*
X208791223Y-84485889D01*
X208845431Y-84404761D01*
X208844494Y-84586200D01*
X208848908Y-84631013D01*
X208861979Y-84674105D01*
X208883206Y-84713818D01*
X208911773Y-84748627D01*
X208946582Y-84777194D01*
X208986295Y-84798421D01*
X209029387Y-84811492D01*
X209074200Y-84815906D01*
X209288450Y-84814800D01*
X209345600Y-84757650D01*
X209345600Y-84314800D01*
X209325600Y-84314800D01*
X209325600Y-84149800D01*
X209822800Y-84149800D01*
X209822800Y-84314800D01*
X209802800Y-84314800D01*
X209802800Y-84757650D01*
X209859950Y-84814800D01*
X210074200Y-84815906D01*
X210119013Y-84811492D01*
X210162105Y-84798421D01*
X210201818Y-84777194D01*
X210236627Y-84748627D01*
X210265194Y-84713818D01*
X210286421Y-84674105D01*
X210299492Y-84631013D01*
X210303906Y-84586200D01*
X210302800Y-84371950D01*
X210245652Y-84314802D01*
X210302800Y-84314802D01*
X210302800Y-84149800D01*
X210668001Y-84149800D01*
X210668001Y-86494200D01*
X210492998Y-86494200D01*
X210492998Y-86551348D01*
X210435850Y-86494200D01*
X210221600Y-86493094D01*
X210176787Y-86497508D01*
X210133695Y-86510579D01*
X210093982Y-86531806D01*
X210059173Y-86560373D01*
X210030606Y-86595182D01*
X210009379Y-86634895D01*
X209996308Y-86677987D01*
X209991894Y-86722800D01*
X209993000Y-86937050D01*
X210050150Y-86994200D01*
X210493000Y-86994200D01*
X210493000Y-86974200D01*
X210668001Y-86974200D01*
X210668001Y-87471400D01*
X210493000Y-87471400D01*
X210493000Y-87451400D01*
X210050150Y-87451400D01*
X209993000Y-87508550D01*
X209991894Y-87722800D01*
X209996308Y-87767613D01*
X210009379Y-87810705D01*
X210030606Y-87850418D01*
X210059173Y-87885227D01*
X210093982Y-87913794D01*
X210133695Y-87935021D01*
X210176787Y-87948092D01*
X210221600Y-87952506D01*
X210403039Y-87951569D01*
X210321911Y-88005777D01*
X210234577Y-88093111D01*
X210165960Y-88195804D01*
X210137629Y-88264200D01*
X208444428Y-88264200D01*
X208433199Y-88263094D01*
X208388386Y-88267508D01*
X208378357Y-88270550D01*
X208345295Y-88280579D01*
X208305582Y-88301806D01*
X208270773Y-88330373D01*
X208263611Y-88339100D01*
X206293011Y-90309701D01*
X198968525Y-90309701D01*
X198932299Y-90273475D01*
X198925132Y-90264742D01*
X198890323Y-90236175D01*
X198850610Y-90214948D01*
X198807518Y-90201877D01*
X198773934Y-90198569D01*
X198762705Y-90197463D01*
X198751476Y-90198569D01*
X198695543Y-90198569D01*
X198684940Y-90182700D01*
X198720069Y-90182700D01*
X198805946Y-90165618D01*
X198886840Y-90132111D01*
X198959642Y-90083466D01*
X199021556Y-90021552D01*
X199070201Y-89948750D01*
X199103708Y-89867856D01*
X199120790Y-89781979D01*
X199120790Y-89694421D01*
X199111815Y-89649301D01*
X201525070Y-89649301D01*
X201536299Y-89650407D01*
X201581112Y-89645993D01*
X201624204Y-89632922D01*
X201663917Y-89611695D01*
X201698726Y-89583128D01*
X201705893Y-89574395D01*
X204369701Y-86910588D01*
X204378427Y-86903427D01*
X204406994Y-86868618D01*
X204428221Y-86828905D01*
X204441292Y-86785813D01*
X204444600Y-86752229D01*
X204444600Y-86752228D01*
X204445706Y-86741001D01*
X204444600Y-86729772D01*
X204444600Y-85732365D01*
X205552470Y-84677159D01*
X205581311Y-84689105D01*
X205702446Y-84713200D01*
X205825954Y-84713200D01*
X205947089Y-84689105D01*
X206061196Y-84641840D01*
X206163889Y-84573223D01*
X206251223Y-84485889D01*
X206319840Y-84383196D01*
X206367105Y-84269089D01*
X206390833Y-84149800D01*
X206407567Y-84149800D01*
X206431295Y-84269089D01*
G36*
X198811295Y-84269089D02*
G01*
X198829339Y-84312651D01*
X194867122Y-88309920D01*
X194858785Y-88316762D01*
X194851303Y-88325879D01*
X194850952Y-88326233D01*
X194844265Y-88334455D01*
X194830218Y-88351571D01*
X194829977Y-88352022D01*
X194829658Y-88352414D01*
X194819362Y-88371882D01*
X194808991Y-88391284D01*
X194808844Y-88391767D01*
X194808605Y-88392220D01*
X194802252Y-88413500D01*
X194795920Y-88434376D01*
X194795871Y-88434877D01*
X194795724Y-88435368D01*
X194793640Y-88457520D01*
X194792612Y-88467960D01*
X194792612Y-88468452D01*
X194791507Y-88480200D01*
X194792612Y-88490934D01*
X194792612Y-88619749D01*
X194737859Y-88656334D01*
X194729111Y-88665082D01*
X194729111Y-87542815D01*
X196000402Y-86271525D01*
X196009128Y-86264364D01*
X196037695Y-86229555D01*
X196058922Y-86189842D01*
X196058922Y-86189841D01*
X196071993Y-86146751D01*
X196076407Y-86101938D01*
X196075301Y-86090709D01*
X196075301Y-85933987D01*
X196563689Y-85445600D01*
X196998119Y-85445600D01*
X197005280Y-85446562D01*
X197020578Y-85445600D01*
X197024629Y-85445600D01*
X197031780Y-85444896D01*
X197050221Y-85443736D01*
X197054163Y-85442691D01*
X197058213Y-85442292D01*
X197075881Y-85436933D01*
X197093747Y-85432196D01*
X197097405Y-85430404D01*
X197101305Y-85429221D01*
X197117616Y-85420503D01*
X197134186Y-85412385D01*
X197137419Y-85409918D01*
X197141018Y-85407994D01*
X197155321Y-85396256D01*
X197161013Y-85391912D01*
X197163963Y-85389163D01*
X197175827Y-85379427D01*
X197180418Y-85373833D01*
X197929505Y-84675931D01*
X197961311Y-84689105D01*
X198082446Y-84713200D01*
X198205954Y-84713200D01*
X198327089Y-84689105D01*
X198441196Y-84641840D01*
X198543889Y-84573223D01*
X198631223Y-84485889D01*
X198699840Y-84383196D01*
X198747105Y-84269089D01*
X198770833Y-84149800D01*
X198787567Y-84149800D01*
X198811295Y-84269089D01*
G37*
X198811295Y-84269089D02*
X198829339Y-84312651D01*
X194867122Y-88309920D01*
X194858785Y-88316762D01*
X194851303Y-88325879D01*
X194850952Y-88326233D01*
X194844265Y-88334455D01*
X194830218Y-88351571D01*
X194829977Y-88352022D01*
X194829658Y-88352414D01*
X194819362Y-88371882D01*
X194808991Y-88391284D01*
X194808844Y-88391767D01*
X194808605Y-88392220D01*
X194802252Y-88413500D01*
X194795920Y-88434376D01*
X194795871Y-88434877D01*
X194795724Y-88435368D01*
X194793640Y-88457520D01*
X194792612Y-88467960D01*
X194792612Y-88468452D01*
X194791507Y-88480200D01*
X194792612Y-88490934D01*
X194792612Y-88619749D01*
X194737859Y-88656334D01*
X194729111Y-88665082D01*
X194729111Y-87542815D01*
X196000402Y-86271525D01*
X196009128Y-86264364D01*
X196037695Y-86229555D01*
X196058922Y-86189842D01*
X196058922Y-86189841D01*
X196071993Y-86146751D01*
X196076407Y-86101938D01*
X196075301Y-86090709D01*
X196075301Y-85933987D01*
X196563689Y-85445600D01*
X196998119Y-85445600D01*
X197005280Y-85446562D01*
X197020578Y-85445600D01*
X197024629Y-85445600D01*
X197031780Y-85444896D01*
X197050221Y-85443736D01*
X197054163Y-85442691D01*
X197058213Y-85442292D01*
X197075881Y-85436933D01*
X197093747Y-85432196D01*
X197097405Y-85430404D01*
X197101305Y-85429221D01*
X197117616Y-85420503D01*
X197134186Y-85412385D01*
X197137419Y-85409918D01*
X197141018Y-85407994D01*
X197155321Y-85396256D01*
X197161013Y-85391912D01*
X197163963Y-85389163D01*
X197175827Y-85379427D01*
X197180418Y-85373833D01*
X197929505Y-84675931D01*
X197961311Y-84689105D01*
X198082446Y-84713200D01*
X198205954Y-84713200D01*
X198327089Y-84689105D01*
X198441196Y-84641840D01*
X198543889Y-84573223D01*
X198631223Y-84485889D01*
X198699840Y-84383196D01*
X198747105Y-84269089D01*
X198770833Y-84149800D01*
X198787567Y-84149800D01*
X198811295Y-84269089D01*
G36*
X202621295Y-84269089D02*
G01*
X202668560Y-84383196D01*
X202737177Y-84485889D01*
X202824511Y-84573223D01*
X202927204Y-84641840D01*
X202995600Y-84670171D01*
X202995600Y-84830445D01*
X199813136Y-88012910D01*
X197972376Y-88012910D01*
X197961147Y-88011804D01*
X197916334Y-88016218D01*
X197906305Y-88019260D01*
X197873243Y-88029289D01*
X197833530Y-88050516D01*
X197798721Y-88079083D01*
X197791558Y-88087811D01*
X197752013Y-88127356D01*
X197687428Y-88114509D01*
X197599870Y-88114509D01*
X197513993Y-88131591D01*
X197433099Y-88165098D01*
X197360297Y-88213743D01*
X197298383Y-88275657D01*
X197249738Y-88348459D01*
X197242224Y-88366599D01*
X197197016Y-88321391D01*
X197142264Y-88284807D01*
X197142264Y-87543556D01*
X198960812Y-85725010D01*
X200529653Y-85725010D01*
X200537758Y-85726031D01*
X200552107Y-85725010D01*
X200555219Y-85725010D01*
X200563317Y-85724212D01*
X200582674Y-85722835D01*
X200585691Y-85722009D01*
X200588803Y-85721702D01*
X200607383Y-85716066D01*
X200626103Y-85710938D01*
X200628898Y-85709540D01*
X200631895Y-85708631D01*
X200649053Y-85699460D01*
X200666378Y-85690795D01*
X200668842Y-85688883D01*
X200671608Y-85687404D01*
X200686656Y-85675054D01*
X200693036Y-85670102D01*
X200695278Y-85667979D01*
X200706417Y-85658837D01*
X200711609Y-85652511D01*
X201741718Y-84676847D01*
X201771311Y-84689105D01*
X201892446Y-84713200D01*
X202015954Y-84713200D01*
X202137089Y-84689105D01*
X202251196Y-84641840D01*
X202353889Y-84573223D01*
X202441223Y-84485889D01*
X202509840Y-84383196D01*
X202557105Y-84269089D01*
X202580833Y-84149800D01*
X202597567Y-84149800D01*
X202621295Y-84269089D01*
G37*
X202621295Y-84269089D02*
X202668560Y-84383196D01*
X202737177Y-84485889D01*
X202824511Y-84573223D01*
X202927204Y-84641840D01*
X202995600Y-84670171D01*
X202995600Y-84830445D01*
X199813136Y-88012910D01*
X197972376Y-88012910D01*
X197961147Y-88011804D01*
X197916334Y-88016218D01*
X197906305Y-88019260D01*
X197873243Y-88029289D01*
X197833530Y-88050516D01*
X197798721Y-88079083D01*
X197791558Y-88087811D01*
X197752013Y-88127356D01*
X197687428Y-88114509D01*
X197599870Y-88114509D01*
X197513993Y-88131591D01*
X197433099Y-88165098D01*
X197360297Y-88213743D01*
X197298383Y-88275657D01*
X197249738Y-88348459D01*
X197242224Y-88366599D01*
X197197016Y-88321391D01*
X197142264Y-88284807D01*
X197142264Y-87543556D01*
X198960812Y-85725010D01*
X200529653Y-85725010D01*
X200537758Y-85726031D01*
X200552107Y-85725010D01*
X200555219Y-85725010D01*
X200563317Y-85724212D01*
X200582674Y-85722835D01*
X200585691Y-85722009D01*
X200588803Y-85721702D01*
X200607383Y-85716066D01*
X200626103Y-85710938D01*
X200628898Y-85709540D01*
X200631895Y-85708631D01*
X200649053Y-85699460D01*
X200666378Y-85690795D01*
X200668842Y-85688883D01*
X200671608Y-85687404D01*
X200686656Y-85675054D01*
X200693036Y-85670102D01*
X200695278Y-85667979D01*
X200706417Y-85658837D01*
X200711609Y-85652511D01*
X201741718Y-84676847D01*
X201771311Y-84689105D01*
X201892446Y-84713200D01*
X202015954Y-84713200D01*
X202137089Y-84689105D01*
X202251196Y-84641840D01*
X202353889Y-84573223D01*
X202441223Y-84485889D01*
X202509840Y-84383196D01*
X202557105Y-84269089D01*
X202580833Y-84149800D01*
X202597567Y-84149800D01*
X202621295Y-84269089D01*
G36*
X197541295Y-84269089D02*
G01*
X197584228Y-84372737D01*
X196923412Y-84988400D01*
X196480229Y-84988400D01*
X196469000Y-84987294D01*
X196424186Y-84991708D01*
X196381095Y-85004779D01*
X196341382Y-85026006D01*
X196306573Y-85054573D01*
X196299411Y-85063300D01*
X195693002Y-85669710D01*
X195684275Y-85676872D01*
X195655708Y-85711681D01*
X195652805Y-85717113D01*
X195634480Y-85751395D01*
X195621409Y-85794486D01*
X195616995Y-85839299D01*
X195618102Y-85850537D01*
X195618101Y-86007248D01*
X194424301Y-87201049D01*
X194424301Y-86187987D01*
X195166689Y-85445600D01*
X195731247Y-85445600D01*
X195741555Y-85446699D01*
X195753713Y-85445600D01*
X195754629Y-85445600D01*
X195764852Y-85444593D01*
X195786402Y-85442645D01*
X195787292Y-85442383D01*
X195788213Y-85442292D01*
X195808899Y-85436017D01*
X195829596Y-85429920D01*
X195830414Y-85429491D01*
X195831305Y-85429221D01*
X195850466Y-85418979D01*
X195869479Y-85409012D01*
X195870195Y-85408434D01*
X195871018Y-85407994D01*
X195887789Y-85394230D01*
X195895737Y-85387814D01*
X195896388Y-85387173D01*
X195905827Y-85379427D01*
X195912405Y-85371412D01*
X196631106Y-84664167D01*
X196691311Y-84689105D01*
X196812446Y-84713200D01*
X196935954Y-84713200D01*
X197057089Y-84689105D01*
X197171196Y-84641840D01*
X197273889Y-84573223D01*
X197361223Y-84485889D01*
X197429840Y-84383196D01*
X197477105Y-84269089D01*
X197500833Y-84149800D01*
X197517567Y-84149800D01*
X197541295Y-84269089D01*
G37*
X197541295Y-84269089D02*
X197584228Y-84372737D01*
X196923412Y-84988400D01*
X196480229Y-84988400D01*
X196469000Y-84987294D01*
X196424186Y-84991708D01*
X196381095Y-85004779D01*
X196341382Y-85026006D01*
X196306573Y-85054573D01*
X196299411Y-85063300D01*
X195693002Y-85669710D01*
X195684275Y-85676872D01*
X195655708Y-85711681D01*
X195652805Y-85717113D01*
X195634480Y-85751395D01*
X195621409Y-85794486D01*
X195616995Y-85839299D01*
X195618102Y-85850537D01*
X195618101Y-86007248D01*
X194424301Y-87201049D01*
X194424301Y-86187987D01*
X195166689Y-85445600D01*
X195731247Y-85445600D01*
X195741555Y-85446699D01*
X195753713Y-85445600D01*
X195754629Y-85445600D01*
X195764852Y-85444593D01*
X195786402Y-85442645D01*
X195787292Y-85442383D01*
X195788213Y-85442292D01*
X195808899Y-85436017D01*
X195829596Y-85429920D01*
X195830414Y-85429491D01*
X195831305Y-85429221D01*
X195850466Y-85418979D01*
X195869479Y-85409012D01*
X195870195Y-85408434D01*
X195871018Y-85407994D01*
X195887789Y-85394230D01*
X195895737Y-85387814D01*
X195896388Y-85387173D01*
X195905827Y-85379427D01*
X195912405Y-85371412D01*
X196631106Y-84664167D01*
X196691311Y-84689105D01*
X196812446Y-84713200D01*
X196935954Y-84713200D01*
X197057089Y-84689105D01*
X197171196Y-84641840D01*
X197273889Y-84573223D01*
X197361223Y-84485889D01*
X197429840Y-84383196D01*
X197477105Y-84269089D01*
X197500833Y-84149800D01*
X197517567Y-84149800D01*
X197541295Y-84269089D01*
%TD*%
M02*
