%TF.GenerationSoftware,KiCad,Pcbnew,5.1.5+dfsg1-2build2*%
%TF.CreationDate,2021-03-18T01:20:22+03:00*%
%TF.ProjectId,som_f1c,736f6d5f-6631-4632-9e6b-696361645f70,rev?*%
%TF.SameCoordinates,Original*%
%TF.FileFunction,Legend,Top*%
%TF.FilePolarity,Positive*%
%FSLAX46Y46*%
G04 Gerber Fmt 4.6, Leading zero omitted, Abs format (unit mm)*
G04 Created by KiCad (PCBNEW 5.1.5+dfsg1-2build2) date 2021-03-18 01:20:22*
%MOMM*%
%LPD*%
G04 APERTURE LIST*
%ADD10C,0.120000*%
%ADD11C,0.150000*%
%ADD12C,0.100000*%
%ADD13C,0.063500*%
%ADD14C,0.062500*%
G04 APERTURE END LIST*
D10*
%TO.C,J3*%
X209611600Y-86462800D02*
X210721600Y-86462800D01*
X209611600Y-87222800D02*
X209611600Y-86462800D01*
X211285071Y-87982800D02*
X211831600Y-87982800D01*
X209611600Y-87982800D02*
X210158129Y-87982800D01*
X211831600Y-87982800D02*
X211831600Y-105697800D01*
X209611600Y-87982800D02*
X209611600Y-105697800D01*
X211029130Y-105697800D02*
X211831600Y-105697800D01*
X209611600Y-105697800D02*
X210414070Y-105697800D01*
%TO.C,J2*%
X210334200Y-82976200D02*
X210334200Y-84086200D01*
X209574200Y-82976200D02*
X210334200Y-82976200D01*
X208814200Y-84649671D02*
X208814200Y-85196200D01*
X208814200Y-82976200D02*
X208814200Y-83522729D01*
X208814200Y-85196200D02*
X177129200Y-85196200D01*
X208814200Y-82976200D02*
X177129200Y-82976200D01*
X177129200Y-84393730D02*
X177129200Y-85196200D01*
X177129200Y-82976200D02*
X177129200Y-83778670D01*
%TO.C,J1*%
X177063400Y-109272800D02*
X177063400Y-108162800D01*
X177823400Y-109272800D02*
X177063400Y-109272800D01*
X178583400Y-107599329D02*
X178583400Y-107052800D01*
X178583400Y-109272800D02*
X178583400Y-108726271D01*
X178583400Y-107052800D02*
X210268400Y-107052800D01*
X178583400Y-109272800D02*
X210268400Y-109272800D01*
X210268400Y-107855270D02*
X210268400Y-107052800D01*
X210268400Y-109272800D02*
X210268400Y-108470330D01*
%TO.C,U5*%
X197072400Y-100713600D02*
X197072400Y-101263600D01*
D11*
X196222400Y-100113600D02*
G75*
G03X196222400Y-100113600I-300000J0D01*
G01*
D10*
X196522400Y-101263600D02*
X197072400Y-101263600D01*
X197072400Y-90963600D02*
X197072400Y-91513600D01*
X196522400Y-90963600D02*
X197072400Y-90963600D01*
X186772400Y-90963600D02*
X186772400Y-91513600D01*
X187322400Y-90963600D02*
X186772400Y-90963600D01*
X186772400Y-101263600D02*
X186772400Y-100713600D01*
X187322400Y-101263600D02*
X186772400Y-101263600D01*
D12*
%TO.C,D2*%
X208203200Y-94074800D02*
G75*
G03X208203200Y-94074800I-50000J0D01*
G01*
D10*
%TO.C,U4*%
X184006800Y-95042400D02*
X184006800Y-93367400D01*
X184266800Y-95042400D02*
X184006800Y-95042400D01*
X184266800Y-97767400D02*
X184266800Y-95042400D01*
X184266800Y-100492400D02*
X184006800Y-100492400D01*
X184266800Y-97767400D02*
X184266800Y-100492400D01*
X178816800Y-95042400D02*
X179076800Y-95042400D01*
X178816800Y-97767400D02*
X178816800Y-95042400D01*
X178816800Y-100492400D02*
X179076800Y-100492400D01*
X178816800Y-97767400D02*
X178816800Y-100492400D01*
%TO.C,Q1*%
X200472000Y-102971400D02*
X201882000Y-102971400D01*
X201882000Y-100651400D02*
X199852000Y-100651400D01*
X201882000Y-100651400D02*
X201882000Y-101311400D01*
X201882000Y-102311400D02*
X201882000Y-102971400D01*
%TO.C,U3*%
X200675600Y-95642400D02*
X200675600Y-98092400D01*
X203895600Y-97442400D02*
X203895600Y-95642400D01*
%TO.C,U2*%
X200685800Y-89738000D02*
X200685800Y-92188000D01*
X203905800Y-91538000D02*
X203905800Y-89738000D01*
%TO.C,U1*%
X205400000Y-95638600D02*
X205400000Y-98088600D01*
X208620000Y-97438600D02*
X208620000Y-95638600D01*
%TO.C,F1*%
X208148600Y-91829064D02*
X208148600Y-90624936D01*
X206328600Y-91829064D02*
X206328600Y-90624936D01*
%TO.C,Y1*%
X181932400Y-89859800D02*
X181932400Y-92559800D01*
X184232400Y-89859800D02*
X181932400Y-89859800D01*
%TO.C,L3*%
X202567278Y-98775000D02*
X202050122Y-98775000D01*
X202567278Y-100195000D02*
X202050122Y-100195000D01*
%TO.C,L2*%
X202567278Y-92882200D02*
X202050122Y-92882200D01*
X202567278Y-94302200D02*
X202050122Y-94302200D01*
%TO.C,L1*%
X207291678Y-98775000D02*
X206774522Y-98775000D01*
X207291678Y-100195000D02*
X206774522Y-100195000D01*
D12*
%TO.C,D1*%
X204998000Y-101999600D02*
G75*
G03X204998000Y-101999600I-50000J0D01*
G01*
%TO.C,J3*%
D11*
X210388266Y-84980180D02*
X210388266Y-85694466D01*
X210340647Y-85837323D01*
X210245409Y-85932561D01*
X210102552Y-85980180D01*
X210007314Y-85980180D01*
X210769219Y-84980180D02*
X211388266Y-84980180D01*
X211054933Y-85361133D01*
X211197790Y-85361133D01*
X211293028Y-85408752D01*
X211340647Y-85456371D01*
X211388266Y-85551609D01*
X211388266Y-85789704D01*
X211340647Y-85884942D01*
X211293028Y-85932561D01*
X211197790Y-85980180D01*
X210912076Y-85980180D01*
X210816838Y-85932561D01*
X210769219Y-85884942D01*
%TO.C,J2*%
X210721580Y-84419533D02*
X211435866Y-84419533D01*
X211578723Y-84467152D01*
X211673961Y-84562390D01*
X211721580Y-84705247D01*
X211721580Y-84800485D01*
X210816819Y-83990961D02*
X210769200Y-83943342D01*
X210721580Y-83848104D01*
X210721580Y-83610009D01*
X210769200Y-83514771D01*
X210816819Y-83467152D01*
X210912057Y-83419533D01*
X211007295Y-83419533D01*
X211150152Y-83467152D01*
X211721580Y-84038580D01*
X211721580Y-83419533D01*
%TO.C,J1*%
X175580780Y-108496133D02*
X176295066Y-108496133D01*
X176437923Y-108543752D01*
X176533161Y-108638990D01*
X176580780Y-108781847D01*
X176580780Y-108877085D01*
X176580780Y-107496133D02*
X176580780Y-108067561D01*
X176580780Y-107781847D02*
X175580780Y-107781847D01*
X175723638Y-107877085D01*
X175818876Y-107972323D01*
X175866495Y-108067561D01*
%TO.C,R15*%
D13*
X205222304Y-93222085D02*
X205101352Y-93306752D01*
X205222304Y-93367228D02*
X204968304Y-93367228D01*
X204968304Y-93270466D01*
X204980400Y-93246276D01*
X204992495Y-93234180D01*
X205016685Y-93222085D01*
X205052971Y-93222085D01*
X205077161Y-93234180D01*
X205089257Y-93246276D01*
X205101352Y-93270466D01*
X205101352Y-93367228D01*
X205222304Y-92980180D02*
X205222304Y-93125323D01*
X205222304Y-93052752D02*
X204968304Y-93052752D01*
X205004590Y-93076942D01*
X205028780Y-93101133D01*
X205040876Y-93125323D01*
X204968304Y-92750371D02*
X204968304Y-92871323D01*
X205089257Y-92883419D01*
X205077161Y-92871323D01*
X205065066Y-92847133D01*
X205065066Y-92786657D01*
X205077161Y-92762466D01*
X205089257Y-92750371D01*
X205113447Y-92738276D01*
X205173923Y-92738276D01*
X205198114Y-92750371D01*
X205210209Y-92762466D01*
X205222304Y-92786657D01*
X205222304Y-92847133D01*
X205210209Y-92871323D01*
X205198114Y-92883419D01*
%TO.C,D2*%
X207178104Y-94262276D02*
X206924104Y-94262276D01*
X206924104Y-94201800D01*
X206936200Y-94165514D01*
X206960390Y-94141323D01*
X206984580Y-94129228D01*
X207032961Y-94117133D01*
X207069247Y-94117133D01*
X207117628Y-94129228D01*
X207141819Y-94141323D01*
X207166009Y-94165514D01*
X207178104Y-94201800D01*
X207178104Y-94262276D01*
X206948295Y-94020371D02*
X206936200Y-94008276D01*
X206924104Y-93984085D01*
X206924104Y-93923609D01*
X206936200Y-93899419D01*
X206948295Y-93887323D01*
X206972485Y-93875228D01*
X206996676Y-93875228D01*
X207032961Y-93887323D01*
X207178104Y-94032466D01*
X207178104Y-93875228D01*
%TO.C,U4*%
X181428104Y-97960923D02*
X181633723Y-97960923D01*
X181657914Y-97948828D01*
X181670009Y-97936733D01*
X181682104Y-97912542D01*
X181682104Y-97864161D01*
X181670009Y-97839971D01*
X181657914Y-97827876D01*
X181633723Y-97815780D01*
X181428104Y-97815780D01*
X181512771Y-97585971D02*
X181682104Y-97585971D01*
X181416009Y-97646447D02*
X181597438Y-97706923D01*
X181597438Y-97549685D01*
%TO.C,Q1*%
X201118409Y-102501095D02*
X201094219Y-102489000D01*
X201070028Y-102464809D01*
X201033742Y-102428523D01*
X201009552Y-102416428D01*
X200985361Y-102416428D01*
X200997457Y-102476904D02*
X200973266Y-102464809D01*
X200949076Y-102440619D01*
X200936980Y-102392238D01*
X200936980Y-102307571D01*
X200949076Y-102259190D01*
X200973266Y-102235000D01*
X200997457Y-102222904D01*
X201045838Y-102222904D01*
X201070028Y-102235000D01*
X201094219Y-102259190D01*
X201106314Y-102307571D01*
X201106314Y-102392238D01*
X201094219Y-102440619D01*
X201070028Y-102464809D01*
X201045838Y-102476904D01*
X200997457Y-102476904D01*
X201348219Y-102476904D02*
X201203076Y-102476904D01*
X201275647Y-102476904D02*
X201275647Y-102222904D01*
X201251457Y-102259190D01*
X201227266Y-102283380D01*
X201203076Y-102295476D01*
%TO.C,U3*%
X202146504Y-96735923D02*
X202352123Y-96735923D01*
X202376314Y-96723828D01*
X202388409Y-96711733D01*
X202400504Y-96687542D01*
X202400504Y-96639161D01*
X202388409Y-96614971D01*
X202376314Y-96602876D01*
X202352123Y-96590780D01*
X202146504Y-96590780D01*
X202146504Y-96494019D02*
X202146504Y-96336780D01*
X202243266Y-96421447D01*
X202243266Y-96385161D01*
X202255361Y-96360971D01*
X202267457Y-96348876D01*
X202291647Y-96336780D01*
X202352123Y-96336780D01*
X202376314Y-96348876D01*
X202388409Y-96360971D01*
X202400504Y-96385161D01*
X202400504Y-96457733D01*
X202388409Y-96481923D01*
X202376314Y-96494019D01*
%TO.C,U2*%
X202156704Y-90831523D02*
X202362323Y-90831523D01*
X202386514Y-90819428D01*
X202398609Y-90807333D01*
X202410704Y-90783142D01*
X202410704Y-90734761D01*
X202398609Y-90710571D01*
X202386514Y-90698476D01*
X202362323Y-90686380D01*
X202156704Y-90686380D01*
X202180895Y-90577523D02*
X202168800Y-90565428D01*
X202156704Y-90541238D01*
X202156704Y-90480761D01*
X202168800Y-90456571D01*
X202180895Y-90444476D01*
X202205085Y-90432380D01*
X202229276Y-90432380D01*
X202265561Y-90444476D01*
X202410704Y-90589619D01*
X202410704Y-90432380D01*
%TO.C,U1*%
X206870904Y-96732123D02*
X207076523Y-96732123D01*
X207100714Y-96720028D01*
X207112809Y-96707933D01*
X207124904Y-96683742D01*
X207124904Y-96635361D01*
X207112809Y-96611171D01*
X207100714Y-96599076D01*
X207076523Y-96586980D01*
X206870904Y-96586980D01*
X207124904Y-96332980D02*
X207124904Y-96478123D01*
X207124904Y-96405552D02*
X206870904Y-96405552D01*
X206907190Y-96429742D01*
X206931380Y-96453933D01*
X206943476Y-96478123D01*
%TO.C,F1*%
X207153933Y-91208857D02*
X207069266Y-91208857D01*
X207069266Y-91341904D02*
X207069266Y-91087904D01*
X207190219Y-91087904D01*
X207420028Y-91341904D02*
X207274885Y-91341904D01*
X207347457Y-91341904D02*
X207347457Y-91087904D01*
X207323266Y-91124190D01*
X207299076Y-91148380D01*
X207274885Y-91160476D01*
%TO.C,Y1*%
X182944847Y-91203752D02*
X182944847Y-91324704D01*
X182860180Y-91070704D02*
X182944847Y-91203752D01*
X183029514Y-91070704D01*
X183247228Y-91324704D02*
X183102085Y-91324704D01*
X183174657Y-91324704D02*
X183174657Y-91070704D01*
X183150466Y-91106990D01*
X183126276Y-91131180D01*
X183102085Y-91143276D01*
%TO.C,R12*%
D14*
X203973495Y-103176314D02*
X203854447Y-103259647D01*
X203973495Y-103319171D02*
X203723495Y-103319171D01*
X203723495Y-103223933D01*
X203735400Y-103200123D01*
X203747304Y-103188219D01*
X203771114Y-103176314D01*
X203806828Y-103176314D01*
X203830638Y-103188219D01*
X203842542Y-103200123D01*
X203854447Y-103223933D01*
X203854447Y-103319171D01*
X203973495Y-102938219D02*
X203973495Y-103081076D01*
X203973495Y-103009647D02*
X203723495Y-103009647D01*
X203759209Y-103033457D01*
X203783019Y-103057266D01*
X203794923Y-103081076D01*
X203747304Y-102842980D02*
X203735400Y-102831076D01*
X203723495Y-102807266D01*
X203723495Y-102747742D01*
X203735400Y-102723933D01*
X203747304Y-102712028D01*
X203771114Y-102700123D01*
X203794923Y-102700123D01*
X203830638Y-102712028D01*
X203973495Y-102854885D01*
X203973495Y-102700123D01*
%TO.C,L3*%
D13*
X202438604Y-99527333D02*
X202438604Y-99648285D01*
X202184604Y-99648285D01*
X202184604Y-99466857D02*
X202184604Y-99309619D01*
X202281366Y-99394285D01*
X202281366Y-99358000D01*
X202293461Y-99333809D01*
X202305557Y-99321714D01*
X202329747Y-99309619D01*
X202390223Y-99309619D01*
X202414414Y-99321714D01*
X202426509Y-99333809D01*
X202438604Y-99358000D01*
X202438604Y-99430571D01*
X202426509Y-99454761D01*
X202414414Y-99466857D01*
%TO.C,L2*%
X202438604Y-93634533D02*
X202438604Y-93755485D01*
X202184604Y-93755485D01*
X202208795Y-93561961D02*
X202196700Y-93549866D01*
X202184604Y-93525676D01*
X202184604Y-93465200D01*
X202196700Y-93441009D01*
X202208795Y-93428914D01*
X202232985Y-93416819D01*
X202257176Y-93416819D01*
X202293461Y-93428914D01*
X202438604Y-93574057D01*
X202438604Y-93416819D01*
%TO.C,L1*%
X207133004Y-99527333D02*
X207133004Y-99648285D01*
X206879004Y-99648285D01*
X207133004Y-99309619D02*
X207133004Y-99454761D01*
X207133004Y-99382190D02*
X206879004Y-99382190D01*
X206915290Y-99406380D01*
X206939480Y-99430571D01*
X206951576Y-99454761D01*
%TO.C,R14*%
X191967513Y-87796705D02*
X191882846Y-87675753D01*
X191822370Y-87796705D02*
X191822370Y-87542705D01*
X191919132Y-87542705D01*
X191943322Y-87554801D01*
X191955418Y-87566896D01*
X191967513Y-87591086D01*
X191967513Y-87627372D01*
X191955418Y-87651562D01*
X191943322Y-87663658D01*
X191919132Y-87675753D01*
X191822370Y-87675753D01*
X192209418Y-87796705D02*
X192064275Y-87796705D01*
X192136846Y-87796705D02*
X192136846Y-87542705D01*
X192112656Y-87578991D01*
X192088465Y-87603181D01*
X192064275Y-87615277D01*
X192427132Y-87627372D02*
X192427132Y-87796705D01*
X192366656Y-87530610D02*
X192306179Y-87712039D01*
X192463418Y-87712039D01*
%TO.C,R13*%
X192982713Y-87793304D02*
X192898046Y-87672352D01*
X192837570Y-87793304D02*
X192837570Y-87539304D01*
X192934332Y-87539304D01*
X192958522Y-87551400D01*
X192970618Y-87563495D01*
X192982713Y-87587685D01*
X192982713Y-87623971D01*
X192970618Y-87648161D01*
X192958522Y-87660257D01*
X192934332Y-87672352D01*
X192837570Y-87672352D01*
X193224618Y-87793304D02*
X193079475Y-87793304D01*
X193152046Y-87793304D02*
X193152046Y-87539304D01*
X193127856Y-87575590D01*
X193103665Y-87599780D01*
X193079475Y-87611876D01*
X193309284Y-87539304D02*
X193466522Y-87539304D01*
X193381856Y-87636066D01*
X193418141Y-87636066D01*
X193442332Y-87648161D01*
X193454427Y-87660257D01*
X193466522Y-87684447D01*
X193466522Y-87744923D01*
X193454427Y-87769114D01*
X193442332Y-87781209D01*
X193418141Y-87793304D01*
X193345570Y-87793304D01*
X193321379Y-87781209D01*
X193309284Y-87769114D01*
%TO.C,R11*%
D14*
X203973495Y-101144314D02*
X203854447Y-101227647D01*
X203973495Y-101287171D02*
X203723495Y-101287171D01*
X203723495Y-101191933D01*
X203735400Y-101168123D01*
X203747304Y-101156219D01*
X203771114Y-101144314D01*
X203806828Y-101144314D01*
X203830638Y-101156219D01*
X203842542Y-101168123D01*
X203854447Y-101191933D01*
X203854447Y-101287171D01*
X203973495Y-100906219D02*
X203973495Y-101049076D01*
X203973495Y-100977647D02*
X203723495Y-100977647D01*
X203759209Y-101001457D01*
X203783019Y-101025266D01*
X203794923Y-101049076D01*
X203973495Y-100668123D02*
X203973495Y-100810980D01*
X203973495Y-100739552D02*
X203723495Y-100739552D01*
X203759209Y-100763361D01*
X203783019Y-100787171D01*
X203794923Y-100810980D01*
%TO.C,R10*%
D13*
X180892304Y-92476485D02*
X180771352Y-92561152D01*
X180892304Y-92621628D02*
X180638304Y-92621628D01*
X180638304Y-92524866D01*
X180650400Y-92500676D01*
X180662495Y-92488580D01*
X180686685Y-92476485D01*
X180722971Y-92476485D01*
X180747161Y-92488580D01*
X180759257Y-92500676D01*
X180771352Y-92524866D01*
X180771352Y-92621628D01*
X180892304Y-92234580D02*
X180892304Y-92379723D01*
X180892304Y-92307152D02*
X180638304Y-92307152D01*
X180674590Y-92331342D01*
X180698780Y-92355533D01*
X180710876Y-92379723D01*
X180638304Y-92077342D02*
X180638304Y-92053152D01*
X180650400Y-92028961D01*
X180662495Y-92016866D01*
X180686685Y-92004771D01*
X180735066Y-91992676D01*
X180795542Y-91992676D01*
X180843923Y-92004771D01*
X180868114Y-92016866D01*
X180880209Y-92028961D01*
X180892304Y-92053152D01*
X180892304Y-92077342D01*
X180880209Y-92101533D01*
X180868114Y-92113628D01*
X180843923Y-92125723D01*
X180795542Y-92137819D01*
X180735066Y-92137819D01*
X180686685Y-92125723D01*
X180662495Y-92113628D01*
X180650400Y-92101533D01*
X180638304Y-92077342D01*
%TO.C,R9*%
X187206516Y-104650904D02*
X187121850Y-104529952D01*
X187061373Y-104650904D02*
X187061373Y-104396904D01*
X187158135Y-104396904D01*
X187182326Y-104409000D01*
X187194421Y-104421095D01*
X187206516Y-104445285D01*
X187206516Y-104481571D01*
X187194421Y-104505761D01*
X187182326Y-104517857D01*
X187158135Y-104529952D01*
X187061373Y-104529952D01*
X187327469Y-104650904D02*
X187375850Y-104650904D01*
X187400040Y-104638809D01*
X187412135Y-104626714D01*
X187436326Y-104590428D01*
X187448421Y-104542047D01*
X187448421Y-104445285D01*
X187436326Y-104421095D01*
X187424230Y-104409000D01*
X187400040Y-104396904D01*
X187351659Y-104396904D01*
X187327469Y-104409000D01*
X187315373Y-104421095D01*
X187303278Y-104445285D01*
X187303278Y-104505761D01*
X187315373Y-104529952D01*
X187327469Y-104542047D01*
X187351659Y-104554142D01*
X187400040Y-104554142D01*
X187424230Y-104542047D01*
X187436326Y-104529952D01*
X187448421Y-104505761D01*
%TO.C,R8*%
X197559917Y-104655704D02*
X197475251Y-104534752D01*
X197414774Y-104655704D02*
X197414774Y-104401704D01*
X197511536Y-104401704D01*
X197535727Y-104413800D01*
X197547822Y-104425895D01*
X197559917Y-104450085D01*
X197559917Y-104486371D01*
X197547822Y-104510561D01*
X197535727Y-104522657D01*
X197511536Y-104534752D01*
X197414774Y-104534752D01*
X197705060Y-104510561D02*
X197680870Y-104498466D01*
X197668774Y-104486371D01*
X197656679Y-104462180D01*
X197656679Y-104450085D01*
X197668774Y-104425895D01*
X197680870Y-104413800D01*
X197705060Y-104401704D01*
X197753441Y-104401704D01*
X197777631Y-104413800D01*
X197789727Y-104425895D01*
X197801822Y-104450085D01*
X197801822Y-104462180D01*
X197789727Y-104486371D01*
X197777631Y-104498466D01*
X197753441Y-104510561D01*
X197705060Y-104510561D01*
X197680870Y-104522657D01*
X197668774Y-104534752D01*
X197656679Y-104558942D01*
X197656679Y-104607323D01*
X197668774Y-104631514D01*
X197680870Y-104643609D01*
X197705060Y-104655704D01*
X197753441Y-104655704D01*
X197777631Y-104643609D01*
X197789727Y-104631514D01*
X197801822Y-104607323D01*
X197801822Y-104558942D01*
X197789727Y-104534752D01*
X197777631Y-104522657D01*
X197753441Y-104510561D01*
%TO.C,R7*%
X195537716Y-104650904D02*
X195453050Y-104529952D01*
X195392573Y-104650904D02*
X195392573Y-104396904D01*
X195489335Y-104396904D01*
X195513526Y-104409000D01*
X195525621Y-104421095D01*
X195537716Y-104445285D01*
X195537716Y-104481571D01*
X195525621Y-104505761D01*
X195513526Y-104517857D01*
X195489335Y-104529952D01*
X195392573Y-104529952D01*
X195622383Y-104396904D02*
X195791716Y-104396904D01*
X195682859Y-104650904D01*
%TO.C,R6*%
X199881066Y-97621104D02*
X199796400Y-97500152D01*
X199735923Y-97621104D02*
X199735923Y-97367104D01*
X199832685Y-97367104D01*
X199856876Y-97379200D01*
X199868971Y-97391295D01*
X199881066Y-97415485D01*
X199881066Y-97451771D01*
X199868971Y-97475961D01*
X199856876Y-97488057D01*
X199832685Y-97500152D01*
X199735923Y-97500152D01*
X200098780Y-97367104D02*
X200050400Y-97367104D01*
X200026209Y-97379200D01*
X200014114Y-97391295D01*
X199989923Y-97427580D01*
X199977828Y-97475961D01*
X199977828Y-97572723D01*
X199989923Y-97596914D01*
X200002019Y-97609009D01*
X200026209Y-97621104D01*
X200074590Y-97621104D01*
X200098780Y-97609009D01*
X200110876Y-97596914D01*
X200122971Y-97572723D01*
X200122971Y-97512247D01*
X200110876Y-97488057D01*
X200098780Y-97475961D01*
X200074590Y-97463866D01*
X200026209Y-97463866D01*
X200002019Y-97475961D01*
X199989923Y-97488057D01*
X199977828Y-97512247D01*
%TO.C,R5*%
X199881066Y-91723504D02*
X199796400Y-91602552D01*
X199735923Y-91723504D02*
X199735923Y-91469504D01*
X199832685Y-91469504D01*
X199856876Y-91481600D01*
X199868971Y-91493695D01*
X199881066Y-91517885D01*
X199881066Y-91554171D01*
X199868971Y-91578361D01*
X199856876Y-91590457D01*
X199832685Y-91602552D01*
X199735923Y-91602552D01*
X200110876Y-91469504D02*
X199989923Y-91469504D01*
X199977828Y-91590457D01*
X199989923Y-91578361D01*
X200014114Y-91566266D01*
X200074590Y-91566266D01*
X200098780Y-91578361D01*
X200110876Y-91590457D01*
X200122971Y-91614647D01*
X200122971Y-91675123D01*
X200110876Y-91699314D01*
X200098780Y-91711409D01*
X200074590Y-91723504D01*
X200014114Y-91723504D01*
X199989923Y-91711409D01*
X199977828Y-91699314D01*
%TO.C,R4*%
D14*
X204605466Y-97615295D02*
X204520800Y-97494343D01*
X204460323Y-97615295D02*
X204460323Y-97361295D01*
X204557085Y-97361295D01*
X204581276Y-97373391D01*
X204593371Y-97385486D01*
X204605466Y-97409676D01*
X204605466Y-97445962D01*
X204593371Y-97470152D01*
X204581276Y-97482248D01*
X204557085Y-97494343D01*
X204460323Y-97494343D01*
X204823180Y-97445962D02*
X204823180Y-97615295D01*
X204762704Y-97349200D02*
X204702228Y-97530629D01*
X204859466Y-97530629D01*
%TO.C,R3*%
D13*
X199931866Y-95685904D02*
X199847200Y-95564952D01*
X199786723Y-95685904D02*
X199786723Y-95431904D01*
X199883485Y-95431904D01*
X199907676Y-95444000D01*
X199919771Y-95456095D01*
X199931866Y-95480285D01*
X199931866Y-95516571D01*
X199919771Y-95540761D01*
X199907676Y-95552857D01*
X199883485Y-95564952D01*
X199786723Y-95564952D01*
X200016533Y-95431904D02*
X200173771Y-95431904D01*
X200089104Y-95528666D01*
X200125390Y-95528666D01*
X200149580Y-95540761D01*
X200161676Y-95552857D01*
X200173771Y-95577047D01*
X200173771Y-95637523D01*
X200161676Y-95661714D01*
X200149580Y-95673809D01*
X200125390Y-95685904D01*
X200052819Y-95685904D01*
X200028628Y-95673809D01*
X200016533Y-95661714D01*
%TO.C,R2*%
X199881066Y-89792368D02*
X199796400Y-89671416D01*
X199735923Y-89792368D02*
X199735923Y-89538368D01*
X199832685Y-89538368D01*
X199856876Y-89550464D01*
X199868971Y-89562559D01*
X199881066Y-89586749D01*
X199881066Y-89623035D01*
X199868971Y-89647225D01*
X199856876Y-89659321D01*
X199832685Y-89671416D01*
X199735923Y-89671416D01*
X199977828Y-89562559D02*
X199989923Y-89550464D01*
X200014114Y-89538368D01*
X200074590Y-89538368D01*
X200098780Y-89550464D01*
X200110876Y-89562559D01*
X200122971Y-89586749D01*
X200122971Y-89610940D01*
X200110876Y-89647225D01*
X199965733Y-89792368D01*
X200122971Y-89792368D01*
%TO.C,R1*%
D14*
X204605466Y-95684396D02*
X204520800Y-95563444D01*
X204460323Y-95684396D02*
X204460323Y-95430396D01*
X204557085Y-95430396D01*
X204581276Y-95442492D01*
X204593371Y-95454587D01*
X204605466Y-95478777D01*
X204605466Y-95515063D01*
X204593371Y-95539253D01*
X204581276Y-95551349D01*
X204557085Y-95563444D01*
X204460323Y-95563444D01*
X204847371Y-95684396D02*
X204702228Y-95684396D01*
X204774800Y-95684396D02*
X204774800Y-95430396D01*
X204750609Y-95466682D01*
X204726419Y-95490872D01*
X204702228Y-95502968D01*
%TO.C,D1*%
X203973495Y-102184123D02*
X203723495Y-102184123D01*
X203723495Y-102124600D01*
X203735400Y-102088885D01*
X203759209Y-102065076D01*
X203783019Y-102053171D01*
X203830638Y-102041266D01*
X203866352Y-102041266D01*
X203913971Y-102053171D01*
X203937780Y-102065076D01*
X203961590Y-102088885D01*
X203973495Y-102124600D01*
X203973495Y-102184123D01*
X203973495Y-101803171D02*
X203973495Y-101946028D01*
X203973495Y-101874600D02*
X203723495Y-101874600D01*
X203759209Y-101898409D01*
X203783019Y-101922219D01*
X203794923Y-101946028D01*
%TO.C,C22*%
D13*
X180865714Y-90444485D02*
X180877809Y-90456580D01*
X180889904Y-90492866D01*
X180889904Y-90517057D01*
X180877809Y-90553342D01*
X180853619Y-90577533D01*
X180829428Y-90589628D01*
X180781047Y-90601723D01*
X180744761Y-90601723D01*
X180696380Y-90589628D01*
X180672190Y-90577533D01*
X180648000Y-90553342D01*
X180635904Y-90517057D01*
X180635904Y-90492866D01*
X180648000Y-90456580D01*
X180660095Y-90444485D01*
X180660095Y-90347723D02*
X180648000Y-90335628D01*
X180635904Y-90311438D01*
X180635904Y-90250961D01*
X180648000Y-90226771D01*
X180660095Y-90214676D01*
X180684285Y-90202580D01*
X180708476Y-90202580D01*
X180744761Y-90214676D01*
X180889904Y-90359819D01*
X180889904Y-90202580D01*
X180660095Y-90105819D02*
X180648000Y-90093723D01*
X180635904Y-90069533D01*
X180635904Y-90009057D01*
X180648000Y-89984866D01*
X180660095Y-89972771D01*
X180684285Y-89960676D01*
X180708476Y-89960676D01*
X180744761Y-89972771D01*
X180889904Y-90117914D01*
X180889904Y-89960676D01*
%TO.C,C21*%
X180865714Y-91460485D02*
X180877809Y-91472580D01*
X180889904Y-91508866D01*
X180889904Y-91533057D01*
X180877809Y-91569342D01*
X180853619Y-91593533D01*
X180829428Y-91605628D01*
X180781047Y-91617723D01*
X180744761Y-91617723D01*
X180696380Y-91605628D01*
X180672190Y-91593533D01*
X180648000Y-91569342D01*
X180635904Y-91533057D01*
X180635904Y-91508866D01*
X180648000Y-91472580D01*
X180660095Y-91460485D01*
X180660095Y-91363723D02*
X180648000Y-91351628D01*
X180635904Y-91327438D01*
X180635904Y-91266961D01*
X180648000Y-91242771D01*
X180660095Y-91230676D01*
X180684285Y-91218580D01*
X180708476Y-91218580D01*
X180744761Y-91230676D01*
X180889904Y-91375819D01*
X180889904Y-91218580D01*
X180889904Y-90976676D02*
X180889904Y-91121819D01*
X180889904Y-91049247D02*
X180635904Y-91049247D01*
X180672190Y-91073438D01*
X180696380Y-91097628D01*
X180708476Y-91121819D01*
%TO.C,C20*%
X189930314Y-87769114D02*
X189918219Y-87781209D01*
X189881933Y-87793304D01*
X189857742Y-87793304D01*
X189821457Y-87781209D01*
X189797266Y-87757019D01*
X189785171Y-87732828D01*
X189773076Y-87684447D01*
X189773076Y-87648161D01*
X189785171Y-87599780D01*
X189797266Y-87575590D01*
X189821457Y-87551400D01*
X189857742Y-87539304D01*
X189881933Y-87539304D01*
X189918219Y-87551400D01*
X189930314Y-87563495D01*
X190027076Y-87563495D02*
X190039171Y-87551400D01*
X190063361Y-87539304D01*
X190123838Y-87539304D01*
X190148028Y-87551400D01*
X190160123Y-87563495D01*
X190172219Y-87587685D01*
X190172219Y-87611876D01*
X190160123Y-87648161D01*
X190014980Y-87793304D01*
X190172219Y-87793304D01*
X190329457Y-87539304D02*
X190353647Y-87539304D01*
X190377838Y-87551400D01*
X190389933Y-87563495D01*
X190402028Y-87587685D01*
X190414123Y-87636066D01*
X190414123Y-87696542D01*
X190402028Y-87744923D01*
X190389933Y-87769114D01*
X190377838Y-87781209D01*
X190353647Y-87793304D01*
X190329457Y-87793304D01*
X190305266Y-87781209D01*
X190293171Y-87769114D01*
X190281076Y-87744923D01*
X190268980Y-87696542D01*
X190268980Y-87636066D01*
X190281076Y-87587685D01*
X190293171Y-87563495D01*
X190305266Y-87551400D01*
X190329457Y-87539304D01*
%TO.C,C19*%
X190946314Y-87769114D02*
X190934219Y-87781209D01*
X190897933Y-87793304D01*
X190873742Y-87793304D01*
X190837457Y-87781209D01*
X190813266Y-87757019D01*
X190801171Y-87732828D01*
X190789076Y-87684447D01*
X190789076Y-87648161D01*
X190801171Y-87599780D01*
X190813266Y-87575590D01*
X190837457Y-87551400D01*
X190873742Y-87539304D01*
X190897933Y-87539304D01*
X190934219Y-87551400D01*
X190946314Y-87563495D01*
X191188219Y-87793304D02*
X191043076Y-87793304D01*
X191115647Y-87793304D02*
X191115647Y-87539304D01*
X191091457Y-87575590D01*
X191067266Y-87599780D01*
X191043076Y-87611876D01*
X191309171Y-87793304D02*
X191357552Y-87793304D01*
X191381742Y-87781209D01*
X191393838Y-87769114D01*
X191418028Y-87732828D01*
X191430123Y-87684447D01*
X191430123Y-87587685D01*
X191418028Y-87563495D01*
X191405933Y-87551400D01*
X191381742Y-87539304D01*
X191333361Y-87539304D01*
X191309171Y-87551400D01*
X191297076Y-87563495D01*
X191284980Y-87587685D01*
X191284980Y-87648161D01*
X191297076Y-87672352D01*
X191309171Y-87684447D01*
X191333361Y-87696542D01*
X191381742Y-87696542D01*
X191405933Y-87684447D01*
X191418028Y-87672352D01*
X191430123Y-87648161D01*
%TO.C,C18*%
X188203114Y-104614114D02*
X188191019Y-104626209D01*
X188154733Y-104638304D01*
X188130542Y-104638304D01*
X188094257Y-104626209D01*
X188070066Y-104602019D01*
X188057971Y-104577828D01*
X188045876Y-104529447D01*
X188045876Y-104493161D01*
X188057971Y-104444780D01*
X188070066Y-104420590D01*
X188094257Y-104396400D01*
X188130542Y-104384304D01*
X188154733Y-104384304D01*
X188191019Y-104396400D01*
X188203114Y-104408495D01*
X188445019Y-104638304D02*
X188299876Y-104638304D01*
X188372447Y-104638304D02*
X188372447Y-104384304D01*
X188348257Y-104420590D01*
X188324066Y-104444780D01*
X188299876Y-104456876D01*
X188590161Y-104493161D02*
X188565971Y-104481066D01*
X188553876Y-104468971D01*
X188541780Y-104444780D01*
X188541780Y-104432685D01*
X188553876Y-104408495D01*
X188565971Y-104396400D01*
X188590161Y-104384304D01*
X188638542Y-104384304D01*
X188662733Y-104396400D01*
X188674828Y-104408495D01*
X188686923Y-104432685D01*
X188686923Y-104444780D01*
X188674828Y-104468971D01*
X188662733Y-104481066D01*
X188638542Y-104493161D01*
X188590161Y-104493161D01*
X188565971Y-104505257D01*
X188553876Y-104517352D01*
X188541780Y-104541542D01*
X188541780Y-104589923D01*
X188553876Y-104614114D01*
X188565971Y-104626209D01*
X188590161Y-104638304D01*
X188638542Y-104638304D01*
X188662733Y-104626209D01*
X188674828Y-104614114D01*
X188686923Y-104589923D01*
X188686923Y-104541542D01*
X188674828Y-104517352D01*
X188662733Y-104505257D01*
X188638542Y-104493161D01*
%TO.C,C17*%
X193994314Y-87769114D02*
X193982219Y-87781209D01*
X193945933Y-87793304D01*
X193921742Y-87793304D01*
X193885457Y-87781209D01*
X193861266Y-87757019D01*
X193849171Y-87732828D01*
X193837076Y-87684447D01*
X193837076Y-87648161D01*
X193849171Y-87599780D01*
X193861266Y-87575590D01*
X193885457Y-87551400D01*
X193921742Y-87539304D01*
X193945933Y-87539304D01*
X193982219Y-87551400D01*
X193994314Y-87563495D01*
X194236219Y-87793304D02*
X194091076Y-87793304D01*
X194163647Y-87793304D02*
X194163647Y-87539304D01*
X194139457Y-87575590D01*
X194115266Y-87599780D01*
X194091076Y-87611876D01*
X194320885Y-87539304D02*
X194490219Y-87539304D01*
X194381361Y-87793304D01*
%TO.C,C16*%
X195035714Y-87769114D02*
X195023619Y-87781209D01*
X194987333Y-87793304D01*
X194963142Y-87793304D01*
X194926857Y-87781209D01*
X194902666Y-87757019D01*
X194890571Y-87732828D01*
X194878476Y-87684447D01*
X194878476Y-87648161D01*
X194890571Y-87599780D01*
X194902666Y-87575590D01*
X194926857Y-87551400D01*
X194963142Y-87539304D01*
X194987333Y-87539304D01*
X195023619Y-87551400D01*
X195035714Y-87563495D01*
X195277619Y-87793304D02*
X195132476Y-87793304D01*
X195205047Y-87793304D02*
X195205047Y-87539304D01*
X195180857Y-87575590D01*
X195156666Y-87599780D01*
X195132476Y-87611876D01*
X195495333Y-87539304D02*
X195446952Y-87539304D01*
X195422761Y-87551400D01*
X195410666Y-87563495D01*
X195386476Y-87599780D01*
X195374380Y-87648161D01*
X195374380Y-87744923D01*
X195386476Y-87769114D01*
X195398571Y-87781209D01*
X195422761Y-87793304D01*
X195471142Y-87793304D01*
X195495333Y-87781209D01*
X195507428Y-87769114D01*
X195519523Y-87744923D01*
X195519523Y-87684447D01*
X195507428Y-87660257D01*
X195495333Y-87648161D01*
X195471142Y-87636066D01*
X195422761Y-87636066D01*
X195398571Y-87648161D01*
X195386476Y-87660257D01*
X195374380Y-87684447D01*
%TO.C,C15*%
X193389965Y-104631514D02*
X193377870Y-104643609D01*
X193341584Y-104655704D01*
X193317393Y-104655704D01*
X193281108Y-104643609D01*
X193256917Y-104619419D01*
X193244822Y-104595228D01*
X193232727Y-104546847D01*
X193232727Y-104510561D01*
X193244822Y-104462180D01*
X193256917Y-104437990D01*
X193281108Y-104413800D01*
X193317393Y-104401704D01*
X193341584Y-104401704D01*
X193377870Y-104413800D01*
X193389965Y-104425895D01*
X193631870Y-104655704D02*
X193486727Y-104655704D01*
X193559298Y-104655704D02*
X193559298Y-104401704D01*
X193535108Y-104437990D01*
X193510917Y-104462180D01*
X193486727Y-104474276D01*
X193861679Y-104401704D02*
X193740727Y-104401704D01*
X193728631Y-104522657D01*
X193740727Y-104510561D01*
X193764917Y-104498466D01*
X193825393Y-104498466D01*
X193849584Y-104510561D01*
X193861679Y-104522657D01*
X193873774Y-104546847D01*
X193873774Y-104607323D01*
X193861679Y-104631514D01*
X193849584Y-104643609D01*
X193825393Y-104655704D01*
X193764917Y-104655704D01*
X193740727Y-104643609D01*
X193728631Y-104631514D01*
%TO.C,C14*%
X196051714Y-87769114D02*
X196039619Y-87781209D01*
X196003333Y-87793304D01*
X195979142Y-87793304D01*
X195942857Y-87781209D01*
X195918666Y-87757019D01*
X195906571Y-87732828D01*
X195894476Y-87684447D01*
X195894476Y-87648161D01*
X195906571Y-87599780D01*
X195918666Y-87575590D01*
X195942857Y-87551400D01*
X195979142Y-87539304D01*
X196003333Y-87539304D01*
X196039619Y-87551400D01*
X196051714Y-87563495D01*
X196293619Y-87793304D02*
X196148476Y-87793304D01*
X196221047Y-87793304D02*
X196221047Y-87539304D01*
X196196857Y-87575590D01*
X196172666Y-87599780D01*
X196148476Y-87611876D01*
X196511333Y-87623971D02*
X196511333Y-87793304D01*
X196450857Y-87527209D02*
X196390380Y-87708638D01*
X196547619Y-87708638D01*
%TO.C,C13*%
X189219164Y-104631514D02*
X189207069Y-104643609D01*
X189170783Y-104655704D01*
X189146592Y-104655704D01*
X189110307Y-104643609D01*
X189086116Y-104619419D01*
X189074021Y-104595228D01*
X189061926Y-104546847D01*
X189061926Y-104510561D01*
X189074021Y-104462180D01*
X189086116Y-104437990D01*
X189110307Y-104413800D01*
X189146592Y-104401704D01*
X189170783Y-104401704D01*
X189207069Y-104413800D01*
X189219164Y-104425895D01*
X189461069Y-104655704D02*
X189315926Y-104655704D01*
X189388497Y-104655704D02*
X189388497Y-104401704D01*
X189364307Y-104437990D01*
X189340116Y-104462180D01*
X189315926Y-104474276D01*
X189545735Y-104401704D02*
X189702973Y-104401704D01*
X189618307Y-104498466D01*
X189654592Y-104498466D01*
X189678783Y-104510561D01*
X189690878Y-104522657D01*
X189702973Y-104546847D01*
X189702973Y-104607323D01*
X189690878Y-104631514D01*
X189678783Y-104643609D01*
X189654592Y-104655704D01*
X189582021Y-104655704D01*
X189557830Y-104643609D01*
X189545735Y-104631514D01*
%TO.C,C12*%
X186069564Y-104626714D02*
X186057469Y-104638809D01*
X186021183Y-104650904D01*
X185996992Y-104650904D01*
X185960707Y-104638809D01*
X185936516Y-104614619D01*
X185924421Y-104590428D01*
X185912326Y-104542047D01*
X185912326Y-104505761D01*
X185924421Y-104457380D01*
X185936516Y-104433190D01*
X185960707Y-104409000D01*
X185996992Y-104396904D01*
X186021183Y-104396904D01*
X186057469Y-104409000D01*
X186069564Y-104421095D01*
X186311469Y-104650904D02*
X186166326Y-104650904D01*
X186238897Y-104650904D02*
X186238897Y-104396904D01*
X186214707Y-104433190D01*
X186190516Y-104457380D01*
X186166326Y-104469476D01*
X186408230Y-104421095D02*
X186420326Y-104409000D01*
X186444516Y-104396904D01*
X186504992Y-104396904D01*
X186529183Y-104409000D01*
X186541278Y-104421095D01*
X186553373Y-104445285D01*
X186553373Y-104469476D01*
X186541278Y-104505761D01*
X186396135Y-104650904D01*
X186553373Y-104650904D01*
%TO.C,C11*%
X179117914Y-91944314D02*
X179105819Y-91956409D01*
X179069533Y-91968504D01*
X179045342Y-91968504D01*
X179009057Y-91956409D01*
X178984866Y-91932219D01*
X178972771Y-91908028D01*
X178960676Y-91859647D01*
X178960676Y-91823361D01*
X178972771Y-91774980D01*
X178984866Y-91750790D01*
X179009057Y-91726600D01*
X179045342Y-91714504D01*
X179069533Y-91714504D01*
X179105819Y-91726600D01*
X179117914Y-91738695D01*
X179359819Y-91968504D02*
X179214676Y-91968504D01*
X179287247Y-91968504D02*
X179287247Y-91714504D01*
X179263057Y-91750790D01*
X179238866Y-91774980D01*
X179214676Y-91787076D01*
X179601723Y-91968504D02*
X179456580Y-91968504D01*
X179529152Y-91968504D02*
X179529152Y-91714504D01*
X179504961Y-91750790D01*
X179480771Y-91774980D01*
X179456580Y-91787076D01*
%TO.C,C10*%
X196432764Y-104626714D02*
X196420669Y-104638809D01*
X196384383Y-104650904D01*
X196360192Y-104650904D01*
X196323907Y-104638809D01*
X196299716Y-104614619D01*
X196287621Y-104590428D01*
X196275526Y-104542047D01*
X196275526Y-104505761D01*
X196287621Y-104457380D01*
X196299716Y-104433190D01*
X196323907Y-104409000D01*
X196360192Y-104396904D01*
X196384383Y-104396904D01*
X196420669Y-104409000D01*
X196432764Y-104421095D01*
X196674669Y-104650904D02*
X196529526Y-104650904D01*
X196602097Y-104650904D02*
X196602097Y-104396904D01*
X196577907Y-104433190D01*
X196553716Y-104457380D01*
X196529526Y-104469476D01*
X196831907Y-104396904D02*
X196856097Y-104396904D01*
X196880288Y-104409000D01*
X196892383Y-104421095D01*
X196904478Y-104445285D01*
X196916573Y-104493666D01*
X196916573Y-104554142D01*
X196904478Y-104602523D01*
X196892383Y-104626714D01*
X196880288Y-104638809D01*
X196856097Y-104650904D01*
X196831907Y-104650904D01*
X196807716Y-104638809D01*
X196795621Y-104626714D01*
X196783526Y-104602523D01*
X196771430Y-104554142D01*
X196771430Y-104493666D01*
X196783526Y-104445285D01*
X196795621Y-104421095D01*
X196807716Y-104409000D01*
X196831907Y-104396904D01*
%TO.C,C9*%
X192489716Y-104631514D02*
X192477621Y-104643609D01*
X192441335Y-104655704D01*
X192417145Y-104655704D01*
X192380859Y-104643609D01*
X192356669Y-104619419D01*
X192344573Y-104595228D01*
X192332478Y-104546847D01*
X192332478Y-104510561D01*
X192344573Y-104462180D01*
X192356669Y-104437990D01*
X192380859Y-104413800D01*
X192417145Y-104401704D01*
X192441335Y-104401704D01*
X192477621Y-104413800D01*
X192489716Y-104425895D01*
X192610669Y-104655704D02*
X192659050Y-104655704D01*
X192683240Y-104643609D01*
X192695335Y-104631514D01*
X192719526Y-104595228D01*
X192731621Y-104546847D01*
X192731621Y-104450085D01*
X192719526Y-104425895D01*
X192707430Y-104413800D01*
X192683240Y-104401704D01*
X192634859Y-104401704D01*
X192610669Y-104413800D01*
X192598573Y-104425895D01*
X192586478Y-104450085D01*
X192586478Y-104510561D01*
X192598573Y-104534752D01*
X192610669Y-104546847D01*
X192634859Y-104558942D01*
X192683240Y-104558942D01*
X192707430Y-104546847D01*
X192719526Y-104534752D01*
X192731621Y-104510561D01*
%TO.C,C8*%
X191473716Y-104631514D02*
X191461621Y-104643609D01*
X191425335Y-104655704D01*
X191401145Y-104655704D01*
X191364859Y-104643609D01*
X191340669Y-104619419D01*
X191328573Y-104595228D01*
X191316478Y-104546847D01*
X191316478Y-104510561D01*
X191328573Y-104462180D01*
X191340669Y-104437990D01*
X191364859Y-104413800D01*
X191401145Y-104401704D01*
X191425335Y-104401704D01*
X191461621Y-104413800D01*
X191473716Y-104425895D01*
X191618859Y-104510561D02*
X191594669Y-104498466D01*
X191582573Y-104486371D01*
X191570478Y-104462180D01*
X191570478Y-104450085D01*
X191582573Y-104425895D01*
X191594669Y-104413800D01*
X191618859Y-104401704D01*
X191667240Y-104401704D01*
X191691430Y-104413800D01*
X191703526Y-104425895D01*
X191715621Y-104450085D01*
X191715621Y-104462180D01*
X191703526Y-104486371D01*
X191691430Y-104498466D01*
X191667240Y-104510561D01*
X191618859Y-104510561D01*
X191594669Y-104522657D01*
X191582573Y-104534752D01*
X191570478Y-104558942D01*
X191570478Y-104607323D01*
X191582573Y-104631514D01*
X191594669Y-104643609D01*
X191618859Y-104655704D01*
X191667240Y-104655704D01*
X191691430Y-104643609D01*
X191703526Y-104631514D01*
X191715621Y-104607323D01*
X191715621Y-104558942D01*
X191703526Y-104534752D01*
X191691430Y-104522657D01*
X191667240Y-104510561D01*
%TO.C,C7*%
X190457716Y-104626714D02*
X190445621Y-104638809D01*
X190409335Y-104650904D01*
X190385145Y-104650904D01*
X190348859Y-104638809D01*
X190324669Y-104614619D01*
X190312573Y-104590428D01*
X190300478Y-104542047D01*
X190300478Y-104505761D01*
X190312573Y-104457380D01*
X190324669Y-104433190D01*
X190348859Y-104409000D01*
X190385145Y-104396904D01*
X190409335Y-104396904D01*
X190445621Y-104409000D01*
X190457716Y-104421095D01*
X190542383Y-104396904D02*
X190711716Y-104396904D01*
X190602859Y-104650904D01*
%TO.C,C6*%
X194521716Y-104626714D02*
X194509621Y-104638809D01*
X194473335Y-104650904D01*
X194449145Y-104650904D01*
X194412859Y-104638809D01*
X194388669Y-104614619D01*
X194376573Y-104590428D01*
X194364478Y-104542047D01*
X194364478Y-104505761D01*
X194376573Y-104457380D01*
X194388669Y-104433190D01*
X194412859Y-104409000D01*
X194449145Y-104396904D01*
X194473335Y-104396904D01*
X194509621Y-104409000D01*
X194521716Y-104421095D01*
X194739430Y-104396904D02*
X194691050Y-104396904D01*
X194666859Y-104409000D01*
X194654764Y-104421095D01*
X194630573Y-104457380D01*
X194618478Y-104505761D01*
X194618478Y-104602523D01*
X194630573Y-104626714D01*
X194642669Y-104638809D01*
X194666859Y-104650904D01*
X194715240Y-104650904D01*
X194739430Y-104638809D01*
X194751526Y-104626714D01*
X194763621Y-104602523D01*
X194763621Y-104542047D01*
X194751526Y-104517857D01*
X194739430Y-104505761D01*
X194715240Y-104493666D01*
X194666859Y-104493666D01*
X194642669Y-104505761D01*
X194630573Y-104517857D01*
X194618478Y-104542047D01*
%TO.C,C5*%
X199881066Y-99524914D02*
X199868971Y-99537009D01*
X199832685Y-99549104D01*
X199808495Y-99549104D01*
X199772209Y-99537009D01*
X199748019Y-99512819D01*
X199735923Y-99488628D01*
X199723828Y-99440247D01*
X199723828Y-99403961D01*
X199735923Y-99355580D01*
X199748019Y-99331390D01*
X199772209Y-99307200D01*
X199808495Y-99295104D01*
X199832685Y-99295104D01*
X199868971Y-99307200D01*
X199881066Y-99319295D01*
X200110876Y-99295104D02*
X199989923Y-99295104D01*
X199977828Y-99416057D01*
X199989923Y-99403961D01*
X200014114Y-99391866D01*
X200074590Y-99391866D01*
X200098780Y-99403961D01*
X200110876Y-99416057D01*
X200122971Y-99440247D01*
X200122971Y-99500723D01*
X200110876Y-99524914D01*
X200098780Y-99537009D01*
X200074590Y-99549104D01*
X200014114Y-99549104D01*
X199989923Y-99537009D01*
X199977828Y-99524914D01*
%TO.C,C4*%
X199881066Y-93632114D02*
X199868971Y-93644209D01*
X199832685Y-93656304D01*
X199808495Y-93656304D01*
X199772209Y-93644209D01*
X199748019Y-93620019D01*
X199735923Y-93595828D01*
X199723828Y-93547447D01*
X199723828Y-93511161D01*
X199735923Y-93462780D01*
X199748019Y-93438590D01*
X199772209Y-93414400D01*
X199808495Y-93402304D01*
X199832685Y-93402304D01*
X199868971Y-93414400D01*
X199881066Y-93426495D01*
X200098780Y-93486971D02*
X200098780Y-93656304D01*
X200038304Y-93390209D02*
X199977828Y-93571638D01*
X200135066Y-93571638D01*
%TO.C,C3*%
X204605466Y-99552094D02*
X204593371Y-99564189D01*
X204557085Y-99576284D01*
X204532895Y-99576284D01*
X204496609Y-99564189D01*
X204472419Y-99539999D01*
X204460323Y-99515808D01*
X204448228Y-99467427D01*
X204448228Y-99431141D01*
X204460323Y-99382760D01*
X204472419Y-99358570D01*
X204496609Y-99334380D01*
X204532895Y-99322284D01*
X204557085Y-99322284D01*
X204593371Y-99334380D01*
X204605466Y-99346475D01*
X204690133Y-99322284D02*
X204847371Y-99322284D01*
X204762704Y-99419046D01*
X204798990Y-99419046D01*
X204823180Y-99431141D01*
X204835276Y-99443237D01*
X204847371Y-99467427D01*
X204847371Y-99527903D01*
X204835276Y-99552094D01*
X204823180Y-99564189D01*
X204798990Y-99576284D01*
X204726419Y-99576284D01*
X204702228Y-99564189D01*
X204690133Y-99552094D01*
%TO.C,C2*%
X205170314Y-92085133D02*
X205182409Y-92097228D01*
X205194504Y-92133514D01*
X205194504Y-92157704D01*
X205182409Y-92193990D01*
X205158219Y-92218180D01*
X205134028Y-92230276D01*
X205085647Y-92242371D01*
X205049361Y-92242371D01*
X205000980Y-92230276D01*
X204976790Y-92218180D01*
X204952600Y-92193990D01*
X204940504Y-92157704D01*
X204940504Y-92133514D01*
X204952600Y-92097228D01*
X204964695Y-92085133D01*
X204964695Y-91988371D02*
X204952600Y-91976276D01*
X204940504Y-91952085D01*
X204940504Y-91891609D01*
X204952600Y-91867419D01*
X204964695Y-91855323D01*
X204988885Y-91843228D01*
X205013076Y-91843228D01*
X205049361Y-91855323D01*
X205194504Y-92000466D01*
X205194504Y-91843228D01*
%TO.C,C1*%
X205198114Y-94117133D02*
X205210209Y-94129228D01*
X205222304Y-94165514D01*
X205222304Y-94189704D01*
X205210209Y-94225990D01*
X205186019Y-94250180D01*
X205161828Y-94262276D01*
X205113447Y-94274371D01*
X205077161Y-94274371D01*
X205028780Y-94262276D01*
X205004590Y-94250180D01*
X204980400Y-94225990D01*
X204968304Y-94189704D01*
X204968304Y-94165514D01*
X204980400Y-94129228D01*
X204992495Y-94117133D01*
X205222304Y-93875228D02*
X205222304Y-94020371D01*
X205222304Y-93947800D02*
X204968304Y-93947800D01*
X205004590Y-93971990D01*
X205028780Y-93996180D01*
X205040876Y-94020371D01*
%TD*%
M02*
