M48
; DRILL file {KiCad 6.0.8+dfsg-1~bpo11+1+rpt1} date Mon 27 Mar 2023 08:05:06 PM +03
; FORMAT={-:-/ absolute / inch / decimal}
; #@! TF.CreationDate,2023-03-27T20:05:06+03:00
; #@! TF.GenerationSoftware,Kicad,Pcbnew,6.0.8+dfsg-1~bpo11+1+rpt1
; #@! TF.FileFunction,Plated,1,2,PTH
FMAT,2
INCH
; #@! TA.AperFunction,Plated,PTH,ViaDrill
T1C0.0120
; #@! TA.AperFunction,Plated,PTH,ViaDrill
T2C0.0160
; #@! TA.AperFunction,Plated,PTH,ComponentDrill
T3C0.0256
%
G90
G05
T1
X2.4845Y-3.994
X2.4845Y-4.094
X2.4845Y-4.194
X2.4845Y-4.294
X2.4845Y-4.394
X2.5Y-3.88
X2.5Y-4.705
X2.5145Y-3.944
X2.5385Y-4.158
X2.5445Y-4.044
X2.5483Y-4.554
X2.5486Y-4.5835
X2.5492Y-4.6417
X2.5493Y-4.6125
X2.5695Y-4.269
X2.5695Y-4.319
X2.5695Y-4.369
X2.5745Y-3.894
X2.5745Y-3.994
X2.6178Y-4.427
X2.6195Y-3.994
X2.6195Y-4.269
X2.6195Y-4.319
X2.6195Y-4.714
X2.625Y-3.895
X2.6695Y-3.894
X2.6895Y-4.429
X2.6909Y-4.5335
X2.6993Y-4.3097
X2.7001Y-4.3387
X2.7108Y-4.283
X2.715Y-4.71
X2.7165Y-4.6437
X2.718Y-4.3615
X2.7195Y-3.894
X2.7366Y-4.2699
X2.7642Y-4.2794
X2.7695Y-3.894
X2.7707Y-4.1866
X2.7914Y-4.2919
X2.8Y-4.709
X2.8195Y-3.894
X2.8245Y-3.994
X2.8385Y-4.557
X2.8445Y-4.044
X2.8675Y-4.557
X2.8695Y-4.714
X2.9105Y-4.59
X2.9462Y-4.5567
X2.95Y-4.71
X2.965Y-4.21
X2.965Y-4.275
X2.965Y-4.34
X3.0474Y-4.556
X3.055Y-4.21
X3.055Y-4.275
X3.055Y-4.34
X3.0595Y-3.894
X3.0787Y-4.5571
X3.0827Y-4.5217
X3.1195Y-3.894
X3.1195Y-3.994
X3.1248Y-4.0225
X3.1419Y-4.0474
X3.145Y-4.21
X3.145Y-4.275
X3.145Y-4.34
X3.163Y-4.5504
X3.1725Y-3.998
X3.1845Y-3.874
X3.1913Y-4.0208
X3.192Y-4.5504
X3.2118Y-4.1333
X3.2195Y-3.994
X3.221Y-4.5504
X3.2395Y-3.874
X3.247Y-3.9848
X3.25Y-4.5498
X3.2715Y-3.947
X3.2757Y-3.9806
X3.279Y-4.5501
X3.2979Y-4.3651
X3.3021Y-4.0541
X3.304Y-4.0831
X3.3054Y-4.562
X3.3074Y-3.9895
X3.3145Y-4.619
X3.3164Y-4.027
X3.3165Y-4.1101
X3.3237Y-4.5368
X3.3243Y-4.3152
X3.3244Y-4.4085
X3.3244Y-4.5078
X3.3285Y-4.376
X3.3305Y-4.225
X3.3305Y-4.254
X3.3324Y-4.1371
X3.3325Y-3.89
X3.3325Y-4.196
X3.3332Y-4.2876
X3.3345Y-4.166
X3.3362Y-4.3441
X3.35Y-3.935
X3.3875Y-3.892
X3.4345Y-3.859
X3.4345Y-4.574
X3.4395Y-3.959
X3.4595Y-4.019
X3.4595Y-4.254
X3.4695Y-4.709
X3.4795Y-3.924
X3.4995Y-4.589
X3.5045Y-3.979
X3.5095Y-3.884
X3.535Y-4.68
X3.5485Y-3.946
X3.55Y-4.71
X3.5525Y-4.038
X3.5745Y-3.884
X3.5798Y-4.5487
X3.5995Y-3.919
X3.6085Y-4.586
X3.6165Y-3.984
X3.6185Y-4.71
X3.6445Y-4.254
X3.6445Y-4.552
X3.6525Y-3.948
X3.6695Y-4.71
X3.6825Y-4.554
X3.6865Y-4.608
X3.7185Y-4.024
X3.7195Y-4.716
X3.7205Y-4.554
X3.7245Y-4.502
X3.725Y-3.89
X3.7265Y-4.628
X3.7325Y-3.928
X3.7425Y-4.454
X3.7445Y-4.106
X3.7445Y-4.202
X3.7445Y-4.302
X3.7445Y-4.404
X3.7675Y-3.869
T2
X3.0Y-4.12
X3.0157Y-4.002
X3.0945Y-4.017
X3.1083Y-4.5433
X3.3228Y-4.4567
X3.4114Y-4.5
T3
X2.4488Y-4.4799
X2.4488Y-4.5299
X2.4488Y-4.5799
X2.4488Y-4.6299
X2.5Y-3.805
X2.5Y-4.755
X2.55Y-3.805
X2.55Y-4.755
X2.6Y-3.805
X2.6Y-4.755
X2.65Y-3.805
X2.65Y-4.755
X2.7Y-3.805
X2.7Y-4.755
X2.75Y-3.805
X2.75Y-4.755
X2.8Y-3.805
X2.8Y-4.755
X2.85Y-3.805
X2.85Y-4.755
X2.9Y-3.805
X2.9Y-4.755
X2.95Y-3.805
X2.95Y-4.755
X3.0Y-3.805
X3.0Y-4.755
X3.05Y-3.805
X3.05Y-4.755
X3.1Y-3.805
X3.1Y-4.755
X3.15Y-3.805
X3.15Y-4.755
X3.2Y-3.805
X3.2Y-4.755
X3.25Y-3.805
X3.25Y-4.755
X3.3Y-3.805
X3.3Y-4.755
X3.35Y-3.805
X3.35Y-4.755
X3.4Y-3.805
X3.4Y-4.755
X3.45Y-3.805
X3.45Y-4.755
X3.5Y-3.805
X3.5Y-4.755
X3.55Y-3.805
X3.55Y-4.755
X3.6Y-3.805
X3.6Y-4.755
X3.65Y-3.805
X3.65Y-4.755
X3.7Y-3.805
X3.7Y-4.755
X3.75Y-3.805
X3.75Y-4.755
X3.8Y-3.93
X3.8Y-3.98
X3.8Y-4.03
X3.8Y-4.08
X3.8Y-4.13
X3.8Y-4.18
X3.8Y-4.23
X3.8Y-4.28
X3.8Y-4.33
X3.8Y-4.38
X3.8Y-4.43
X3.8Y-4.48
X3.8Y-4.53
X3.8Y-4.58
X3.8Y-4.63
T0
M30
