%TF.GenerationSoftware,KiCad,Pcbnew,6.0.8+dfsg-1~bpo11+1+rpt1*%
%TF.CreationDate,2023-03-27T20:05:11+03:00*%
%TF.ProjectId,som_f1c,736f6d5f-6631-4632-9e6b-696361645f70,rev?*%
%TF.SameCoordinates,Original*%
%TF.FileFunction,Paste,Top*%
%TF.FilePolarity,Positive*%
%FSLAX46Y46*%
G04 Gerber Fmt 4.6, Leading zero omitted, Abs format (unit mm)*
G04 Created by KiCad (PCBNEW 6.0.8+dfsg-1~bpo11+1+rpt1) date 2023-03-27 20:05:11*
%MOMM*%
%LPD*%
G01*
G04 APERTURE LIST*
G04 Aperture macros list*
%AMRoundRect*
0 Rectangle with rounded corners*
0 $1 Rounding radius*
0 $2 $3 $4 $5 $6 $7 $8 $9 X,Y pos of 4 corners*
0 Add a 4 corners polygon primitive as box body*
4,1,4,$2,$3,$4,$5,$6,$7,$8,$9,$2,$3,0*
0 Add four circle primitives for the rounded corners*
1,1,$1+$1,$2,$3*
1,1,$1+$1,$4,$5*
1,1,$1+$1,$6,$7*
1,1,$1+$1,$8,$9*
0 Add four rect primitives between the rounded corners*
20,1,$1+$1,$2,$3,$4,$5,0*
20,1,$1+$1,$4,$5,$6,$7,0*
20,1,$1+$1,$6,$7,$8,$9,0*
20,1,$1+$1,$8,$9,$2,$3,0*%
G04 Aperture macros list end*
%ADD10RoundRect,0.150000X-0.150000X0.650000X-0.150000X-0.650000X0.150000X-0.650000X0.150000X0.650000X0*%
%ADD11R,0.650000X1.060000*%
%ADD12RoundRect,0.147500X0.147500X0.172500X-0.147500X0.172500X-0.147500X-0.172500X0.147500X-0.172500X0*%
%ADD13RoundRect,0.147500X-0.147500X-0.172500X0.147500X-0.172500X0.147500X0.172500X-0.147500X0.172500X0*%
%ADD14O,0.800000X0.200000*%
%ADD15O,0.200000X0.800000*%
%ADD16R,3.420000X3.420000*%
%ADD17RoundRect,0.147500X0.172500X-0.147500X0.172500X0.147500X-0.172500X0.147500X-0.172500X-0.147500X0*%
%ADD18RoundRect,0.147500X-0.172500X0.147500X-0.172500X-0.147500X0.172500X-0.147500X0.172500X0.147500X0*%
%ADD19RoundRect,0.243750X0.243750X0.456250X-0.243750X0.456250X-0.243750X-0.456250X0.243750X-0.456250X0*%
%ADD20R,0.800000X0.900000*%
%ADD21RoundRect,0.250000X0.625000X-0.375000X0.625000X0.375000X-0.625000X0.375000X-0.625000X-0.375000X0*%
%ADD22R,0.700000X0.450000*%
G04 APERTURE END LIST*
D10*
%TO.C,U4*%
X69007100Y-106715000D03*
X67737100Y-106715000D03*
X66467100Y-106715000D03*
X65197100Y-106715000D03*
X65197100Y-113915000D03*
X66467100Y-113915000D03*
X67737100Y-113915000D03*
X69007100Y-113915000D03*
%TD*%
D11*
%TO.C,U3*%
X86895900Y-110190000D03*
X87845900Y-110190000D03*
X88795900Y-110190000D03*
X88795900Y-107990000D03*
X86895900Y-107990000D03*
%TD*%
D12*
%TO.C,D2*%
X93108500Y-106622400D03*
X92138500Y-106622400D03*
%TD*%
D13*
%TO.C,R15*%
X90182700Y-105606400D03*
X91152700Y-105606400D03*
%TD*%
D14*
%TO.C,U5*%
X82382700Y-112861200D03*
X82382700Y-112461200D03*
X82382700Y-112061200D03*
X82382700Y-111661200D03*
X82382700Y-111261200D03*
X82382700Y-110861200D03*
X82382700Y-110461200D03*
X82382700Y-110061200D03*
X82382700Y-109661200D03*
X82382700Y-109261200D03*
X82382700Y-108861200D03*
X82382700Y-108461200D03*
X82382700Y-108061200D03*
X82382700Y-107661200D03*
X82382700Y-107261200D03*
X82382700Y-106861200D03*
X82382700Y-106461200D03*
X82382700Y-106061200D03*
X82382700Y-105661200D03*
X82382700Y-105261200D03*
X82382700Y-104861200D03*
X82382700Y-104461200D03*
D15*
X81682700Y-103761200D03*
X81282700Y-103761200D03*
X80882700Y-103761200D03*
X80482700Y-103761200D03*
X80082700Y-103761200D03*
X79682700Y-103761200D03*
X79282700Y-103761200D03*
X78882700Y-103761200D03*
X78482700Y-103761200D03*
X78082700Y-103761200D03*
X77682700Y-103761200D03*
X77282700Y-103761200D03*
X76882700Y-103761200D03*
X76482700Y-103761200D03*
X76082700Y-103761200D03*
X75682700Y-103761200D03*
X75282700Y-103761200D03*
X74882700Y-103761200D03*
X74482700Y-103761200D03*
X74082700Y-103761200D03*
X73682700Y-103761200D03*
X73282700Y-103761200D03*
D14*
X72582700Y-104461200D03*
X72582700Y-104861200D03*
X72582700Y-105261200D03*
X72582700Y-105661200D03*
X72582700Y-106061200D03*
X72582700Y-106461200D03*
X72582700Y-106861200D03*
X72582700Y-107261200D03*
X72582700Y-107661200D03*
X72582700Y-108061200D03*
X72582700Y-108461200D03*
X72582700Y-108861200D03*
X72582700Y-109261200D03*
X72582700Y-109661200D03*
X72582700Y-110061200D03*
X72582700Y-110461200D03*
X72582700Y-110861200D03*
X72582700Y-111261200D03*
X72582700Y-111661200D03*
X72582700Y-112061200D03*
X72582700Y-112461200D03*
X72582700Y-112861200D03*
D15*
X73282700Y-113561200D03*
X73682700Y-113561200D03*
X74082700Y-113561200D03*
X74482700Y-113561200D03*
X74882700Y-113561200D03*
X75282700Y-113561200D03*
X75682700Y-113561200D03*
X76082700Y-113561200D03*
X76482700Y-113561200D03*
X76882700Y-113561200D03*
X77282700Y-113561200D03*
X77682700Y-113561200D03*
X78082700Y-113561200D03*
X78482700Y-113561200D03*
X78882700Y-113561200D03*
X79282700Y-113561200D03*
X79682700Y-113561200D03*
X80082700Y-113561200D03*
X80482700Y-113561200D03*
X80882700Y-113561200D03*
X81282700Y-113561200D03*
X81682700Y-113561200D03*
D16*
X77482700Y-108661200D03*
%TD*%
D17*
%TO.C,C16*%
X80759300Y-100711000D03*
X80759300Y-99741000D03*
%TD*%
D18*
%TO.C,C15*%
X79108350Y-116603400D03*
X79108350Y-117573400D03*
%TD*%
%TO.C,C17*%
X79717900Y-99741000D03*
X79717900Y-100711000D03*
%TD*%
D13*
%TO.C,C22*%
X65852700Y-102828800D03*
X66822700Y-102828800D03*
%TD*%
D18*
%TO.C,C13*%
X74942750Y-116603400D03*
X74942750Y-117573400D03*
%TD*%
D19*
%TO.C,L2*%
X88806500Y-106139800D03*
X86931500Y-106139800D03*
%TD*%
D17*
%TO.C,R1*%
X90208100Y-108603600D03*
X90208100Y-107633600D03*
%TD*%
D18*
%TO.C,C6*%
X80124350Y-116598600D03*
X80124350Y-117568600D03*
%TD*%
D20*
%TO.C,Y1*%
X68092700Y-103057400D03*
X68092700Y-104457400D03*
X69192700Y-104457400D03*
X69192700Y-103057400D03*
%TD*%
D18*
%TO.C,C10*%
X82156350Y-116598600D03*
X82156350Y-117568600D03*
%TD*%
D13*
%TO.C,R10*%
X65852700Y-104860800D03*
X66822700Y-104860800D03*
%TD*%
D17*
%TO.C,C14*%
X81775300Y-100711000D03*
X81775300Y-99741000D03*
%TD*%
D11*
%TO.C,U2*%
X86906100Y-104285600D03*
X87856100Y-104285600D03*
X88806100Y-104285600D03*
X88806100Y-102085600D03*
X86906100Y-102085600D03*
%TD*%
D12*
%TO.C,R11*%
X89903300Y-113531200D03*
X88933300Y-113531200D03*
%TD*%
D18*
%TO.C,C3*%
X90208100Y-111524600D03*
X90208100Y-112494600D03*
%TD*%
%TO.C,R8*%
X83172350Y-116603400D03*
X83172350Y-117573400D03*
%TD*%
D21*
%TO.C,F1*%
X92798900Y-105174600D03*
X92798900Y-102374600D03*
%TD*%
D18*
%TO.C,C18*%
X73926700Y-116586000D03*
X73926700Y-117556000D03*
%TD*%
%TO.C,C9*%
X78092350Y-116603400D03*
X78092350Y-117573400D03*
%TD*%
D12*
%TO.C,D1*%
X89903300Y-114547200D03*
X88933300Y-114547200D03*
%TD*%
D17*
%TO.C,R6*%
X85483700Y-110538800D03*
X85483700Y-109568800D03*
%TD*%
D19*
%TO.C,L1*%
X93530900Y-112032600D03*
X91655900Y-112032600D03*
%TD*%
D13*
%TO.C,C21*%
X65852700Y-103844800D03*
X66822700Y-103844800D03*
%TD*%
D17*
%TO.C,R5*%
X85483700Y-104641200D03*
X85483700Y-103671200D03*
%TD*%
%TO.C,R4*%
X90208100Y-110534000D03*
X90208100Y-109564000D03*
%TD*%
D18*
%TO.C,C8*%
X77076350Y-116603400D03*
X77076350Y-117573400D03*
%TD*%
D17*
%TO.C,C19*%
X76669900Y-100711000D03*
X76669900Y-99741000D03*
%TD*%
D18*
%TO.C,R7*%
X81140350Y-116598600D03*
X81140350Y-117568600D03*
%TD*%
%TO.C,C7*%
X76060350Y-116598600D03*
X76060350Y-117568600D03*
%TD*%
D17*
%TO.C,R3*%
X85483700Y-108603600D03*
X85483700Y-107633600D03*
%TD*%
D13*
%TO.C,C1*%
X90182700Y-106622400D03*
X91152700Y-106622400D03*
%TD*%
D17*
%TO.C,R13*%
X78701900Y-100711000D03*
X78701900Y-99741000D03*
%TD*%
D18*
%TO.C,C4*%
X85483700Y-105631800D03*
X85483700Y-106601800D03*
%TD*%
D17*
%TO.C,C20*%
X75653900Y-100711000D03*
X75653900Y-99741000D03*
%TD*%
%TO.C,R2*%
X85483700Y-102710800D03*
X85483700Y-101740800D03*
%TD*%
D13*
%TO.C,C2*%
X90182700Y-104590400D03*
X91152700Y-104590400D03*
%TD*%
D17*
%TO.C,C11*%
X64841500Y-104886200D03*
X64841500Y-103916200D03*
%TD*%
D19*
%TO.C,L3*%
X88806500Y-112032600D03*
X86931500Y-112032600D03*
%TD*%
D18*
%TO.C,C12*%
X71793150Y-116598600D03*
X71793150Y-117568600D03*
%TD*%
D12*
%TO.C,R12*%
X89903300Y-115563200D03*
X88933300Y-115563200D03*
%TD*%
D17*
%TO.C,R9*%
X72809150Y-117568600D03*
X72809150Y-116598600D03*
%TD*%
%TO.C,R14*%
X77685900Y-100715800D03*
X77685900Y-99745800D03*
%TD*%
D11*
%TO.C,U1*%
X91620300Y-110186200D03*
X92570300Y-110186200D03*
X93520300Y-110186200D03*
X93520300Y-107986200D03*
X91620300Y-107986200D03*
%TD*%
D22*
%TO.C,Q1*%
X85712300Y-113709000D03*
X85712300Y-115009000D03*
X87712300Y-114359000D03*
%TD*%
D18*
%TO.C,C5*%
X85483700Y-111524600D03*
X85483700Y-112494600D03*
%TD*%
M02*
