%TF.GenerationSoftware,KiCad,Pcbnew,5.1.5+dfsg1-2build2*%
%TF.CreationDate,2021-03-18T01:20:22+03:00*%
%TF.ProjectId,som_f1c,736f6d5f-6631-4632-9e6b-696361645f70,rev?*%
%TF.SameCoordinates,Original*%
%TF.FileFunction,Soldermask,Top*%
%TF.FilePolarity,Negative*%
%FSLAX46Y46*%
G04 Gerber Fmt 4.6, Leading zero omitted, Abs format (unit mm)*
G04 Created by KiCad (PCBNEW 5.1.5+dfsg1-2build2) date 2021-03-18 01:20:22*
%MOMM*%
%LPD*%
G04 APERTURE LIST*
%ADD10O,1.000000X1.000000*%
%ADD11R,1.000000X1.000000*%
%ADD12R,6.840000X6.840000*%
%ADD13O,0.800000X0.200000*%
%ADD14O,0.200000X0.800000*%
%ADD15C,0.100000*%
%ADD16R,0.700000X0.450000*%
%ADD17R,0.650000X1.060000*%
%ADD18R,0.800000X0.900000*%
G04 APERTURE END LIST*
D10*
%TO.C,J3*%
X210721600Y-105002800D03*
X210721600Y-103732800D03*
X210721600Y-102462800D03*
X210721600Y-101192800D03*
X210721600Y-99922800D03*
X210721600Y-98652800D03*
X210721600Y-97382800D03*
X210721600Y-96112800D03*
X210721600Y-94842800D03*
X210721600Y-93572800D03*
X210721600Y-92302800D03*
X210721600Y-91032800D03*
X210721600Y-89762800D03*
X210721600Y-88492800D03*
D11*
X210721600Y-87222800D03*
%TD*%
D10*
%TO.C,J2*%
X177824200Y-84086200D03*
X179094200Y-84086200D03*
X180364200Y-84086200D03*
X181634200Y-84086200D03*
X182904200Y-84086200D03*
X184174200Y-84086200D03*
X185444200Y-84086200D03*
X186714200Y-84086200D03*
X187984200Y-84086200D03*
X189254200Y-84086200D03*
X190524200Y-84086200D03*
X191794200Y-84086200D03*
X193064200Y-84086200D03*
X194334200Y-84086200D03*
X195604200Y-84086200D03*
X196874200Y-84086200D03*
X198144200Y-84086200D03*
X199414200Y-84086200D03*
X200684200Y-84086200D03*
X201954200Y-84086200D03*
X203224200Y-84086200D03*
X204494200Y-84086200D03*
X205764200Y-84086200D03*
X207034200Y-84086200D03*
X208304200Y-84086200D03*
D11*
X209574200Y-84086200D03*
%TD*%
D10*
%TO.C,J1*%
X209573400Y-108162800D03*
X208303400Y-108162800D03*
X207033400Y-108162800D03*
X205763400Y-108162800D03*
X204493400Y-108162800D03*
X203223400Y-108162800D03*
X201953400Y-108162800D03*
X200683400Y-108162800D03*
X199413400Y-108162800D03*
X198143400Y-108162800D03*
X196873400Y-108162800D03*
X195603400Y-108162800D03*
X194333400Y-108162800D03*
X193063400Y-108162800D03*
X191793400Y-108162800D03*
X190523400Y-108162800D03*
X189253400Y-108162800D03*
X187983400Y-108162800D03*
X186713400Y-108162800D03*
X185443400Y-108162800D03*
X184173400Y-108162800D03*
X182903400Y-108162800D03*
X181633400Y-108162800D03*
X180363400Y-108162800D03*
X179093400Y-108162800D03*
D11*
X177823400Y-108162800D03*
%TD*%
D12*
%TO.C,U5*%
X191922400Y-96113600D03*
D13*
X196822400Y-100313600D03*
X196822400Y-99913600D03*
X196822400Y-99513600D03*
X196822400Y-99113600D03*
X196822400Y-98713600D03*
X196822400Y-98313600D03*
X196822400Y-97913600D03*
X196822400Y-97513600D03*
X196822400Y-97113600D03*
X196822400Y-96713600D03*
X196822400Y-96313600D03*
X196822400Y-95913600D03*
X196822400Y-95513600D03*
X196822400Y-95113600D03*
X196822400Y-94713600D03*
X196822400Y-94313600D03*
X196822400Y-93913600D03*
X196822400Y-93513600D03*
X196822400Y-93113600D03*
X196822400Y-92713600D03*
X196822400Y-92313600D03*
X196822400Y-91913600D03*
D14*
X196122400Y-91213600D03*
X195722400Y-91213600D03*
X195322400Y-91213600D03*
X194922400Y-91213600D03*
X194522400Y-91213600D03*
X194122400Y-91213600D03*
X193722400Y-91213600D03*
X193322400Y-91213600D03*
X192922400Y-91213600D03*
X192522400Y-91213600D03*
X192122400Y-91213600D03*
X191722400Y-91213600D03*
X191322400Y-91213600D03*
X190922400Y-91213600D03*
X190522400Y-91213600D03*
X190122400Y-91213600D03*
X189722400Y-91213600D03*
X189322400Y-91213600D03*
X188922400Y-91213600D03*
X188522400Y-91213600D03*
X188122400Y-91213600D03*
X187722400Y-91213600D03*
D13*
X187022400Y-91913600D03*
X187022400Y-92313600D03*
X187022400Y-92713600D03*
X187022400Y-93113600D03*
X187022400Y-93513600D03*
X187022400Y-93913600D03*
X187022400Y-94313600D03*
X187022400Y-94713600D03*
X187022400Y-95113600D03*
X187022400Y-95513600D03*
X187022400Y-95913600D03*
X187022400Y-96313600D03*
X187022400Y-96713600D03*
X187022400Y-97113600D03*
X187022400Y-97513600D03*
X187022400Y-97913600D03*
X187022400Y-98313600D03*
X187022400Y-98713600D03*
X187022400Y-99113600D03*
X187022400Y-99513600D03*
X187022400Y-99913600D03*
X187022400Y-100313600D03*
D14*
X187722400Y-101013600D03*
X188122400Y-101013600D03*
X188522400Y-101013600D03*
X188922400Y-101013600D03*
X189322400Y-101013600D03*
X189722400Y-101013600D03*
X190122400Y-101013600D03*
X190522400Y-101013600D03*
X190922400Y-101013600D03*
X191322400Y-101013600D03*
X191722400Y-101013600D03*
X192122400Y-101013600D03*
X192522400Y-101013600D03*
X192922400Y-101013600D03*
X193322400Y-101013600D03*
X193722400Y-101013600D03*
X194122400Y-101013600D03*
X194522400Y-101013600D03*
X194922400Y-101013600D03*
X195322400Y-101013600D03*
X195722400Y-101013600D03*
X196122400Y-101013600D03*
%TD*%
D15*
%TO.C,R15*%
G36*
X205754358Y-92739510D02*
G01*
X205768676Y-92741634D01*
X205782717Y-92745151D01*
X205796346Y-92750028D01*
X205809431Y-92756217D01*
X205821847Y-92763658D01*
X205833473Y-92772281D01*
X205844198Y-92782002D01*
X205853919Y-92792727D01*
X205862542Y-92804353D01*
X205869983Y-92816769D01*
X205876172Y-92829854D01*
X205881049Y-92843483D01*
X205884566Y-92857524D01*
X205886690Y-92871842D01*
X205887400Y-92886300D01*
X205887400Y-93231300D01*
X205886690Y-93245758D01*
X205884566Y-93260076D01*
X205881049Y-93274117D01*
X205876172Y-93287746D01*
X205869983Y-93300831D01*
X205862542Y-93313247D01*
X205853919Y-93324873D01*
X205844198Y-93335598D01*
X205833473Y-93345319D01*
X205821847Y-93353942D01*
X205809431Y-93361383D01*
X205796346Y-93367572D01*
X205782717Y-93372449D01*
X205768676Y-93375966D01*
X205754358Y-93378090D01*
X205739900Y-93378800D01*
X205444900Y-93378800D01*
X205430442Y-93378090D01*
X205416124Y-93375966D01*
X205402083Y-93372449D01*
X205388454Y-93367572D01*
X205375369Y-93361383D01*
X205362953Y-93353942D01*
X205351327Y-93345319D01*
X205340602Y-93335598D01*
X205330881Y-93324873D01*
X205322258Y-93313247D01*
X205314817Y-93300831D01*
X205308628Y-93287746D01*
X205303751Y-93274117D01*
X205300234Y-93260076D01*
X205298110Y-93245758D01*
X205297400Y-93231300D01*
X205297400Y-92886300D01*
X205298110Y-92871842D01*
X205300234Y-92857524D01*
X205303751Y-92843483D01*
X205308628Y-92829854D01*
X205314817Y-92816769D01*
X205322258Y-92804353D01*
X205330881Y-92792727D01*
X205340602Y-92782002D01*
X205351327Y-92772281D01*
X205362953Y-92763658D01*
X205375369Y-92756217D01*
X205388454Y-92750028D01*
X205402083Y-92745151D01*
X205416124Y-92741634D01*
X205430442Y-92739510D01*
X205444900Y-92738800D01*
X205739900Y-92738800D01*
X205754358Y-92739510D01*
G37*
G36*
X204784358Y-92739510D02*
G01*
X204798676Y-92741634D01*
X204812717Y-92745151D01*
X204826346Y-92750028D01*
X204839431Y-92756217D01*
X204851847Y-92763658D01*
X204863473Y-92772281D01*
X204874198Y-92782002D01*
X204883919Y-92792727D01*
X204892542Y-92804353D01*
X204899983Y-92816769D01*
X204906172Y-92829854D01*
X204911049Y-92843483D01*
X204914566Y-92857524D01*
X204916690Y-92871842D01*
X204917400Y-92886300D01*
X204917400Y-93231300D01*
X204916690Y-93245758D01*
X204914566Y-93260076D01*
X204911049Y-93274117D01*
X204906172Y-93287746D01*
X204899983Y-93300831D01*
X204892542Y-93313247D01*
X204883919Y-93324873D01*
X204874198Y-93335598D01*
X204863473Y-93345319D01*
X204851847Y-93353942D01*
X204839431Y-93361383D01*
X204826346Y-93367572D01*
X204812717Y-93372449D01*
X204798676Y-93375966D01*
X204784358Y-93378090D01*
X204769900Y-93378800D01*
X204474900Y-93378800D01*
X204460442Y-93378090D01*
X204446124Y-93375966D01*
X204432083Y-93372449D01*
X204418454Y-93367572D01*
X204405369Y-93361383D01*
X204392953Y-93353942D01*
X204381327Y-93345319D01*
X204370602Y-93335598D01*
X204360881Y-93324873D01*
X204352258Y-93313247D01*
X204344817Y-93300831D01*
X204338628Y-93287746D01*
X204333751Y-93274117D01*
X204330234Y-93260076D01*
X204328110Y-93245758D01*
X204327400Y-93231300D01*
X204327400Y-92886300D01*
X204328110Y-92871842D01*
X204330234Y-92857524D01*
X204333751Y-92843483D01*
X204338628Y-92829854D01*
X204344817Y-92816769D01*
X204352258Y-92804353D01*
X204360881Y-92792727D01*
X204370602Y-92782002D01*
X204381327Y-92772281D01*
X204392953Y-92763658D01*
X204405369Y-92756217D01*
X204418454Y-92750028D01*
X204432083Y-92745151D01*
X204446124Y-92741634D01*
X204460442Y-92739510D01*
X204474900Y-92738800D01*
X204769900Y-92738800D01*
X204784358Y-92739510D01*
G37*
%TD*%
%TO.C,D2*%
G36*
X206740158Y-93755510D02*
G01*
X206754476Y-93757634D01*
X206768517Y-93761151D01*
X206782146Y-93766028D01*
X206795231Y-93772217D01*
X206807647Y-93779658D01*
X206819273Y-93788281D01*
X206829998Y-93798002D01*
X206839719Y-93808727D01*
X206848342Y-93820353D01*
X206855783Y-93832769D01*
X206861972Y-93845854D01*
X206866849Y-93859483D01*
X206870366Y-93873524D01*
X206872490Y-93887842D01*
X206873200Y-93902300D01*
X206873200Y-94247300D01*
X206872490Y-94261758D01*
X206870366Y-94276076D01*
X206866849Y-94290117D01*
X206861972Y-94303746D01*
X206855783Y-94316831D01*
X206848342Y-94329247D01*
X206839719Y-94340873D01*
X206829998Y-94351598D01*
X206819273Y-94361319D01*
X206807647Y-94369942D01*
X206795231Y-94377383D01*
X206782146Y-94383572D01*
X206768517Y-94388449D01*
X206754476Y-94391966D01*
X206740158Y-94394090D01*
X206725700Y-94394800D01*
X206430700Y-94394800D01*
X206416242Y-94394090D01*
X206401924Y-94391966D01*
X206387883Y-94388449D01*
X206374254Y-94383572D01*
X206361169Y-94377383D01*
X206348753Y-94369942D01*
X206337127Y-94361319D01*
X206326402Y-94351598D01*
X206316681Y-94340873D01*
X206308058Y-94329247D01*
X206300617Y-94316831D01*
X206294428Y-94303746D01*
X206289551Y-94290117D01*
X206286034Y-94276076D01*
X206283910Y-94261758D01*
X206283200Y-94247300D01*
X206283200Y-93902300D01*
X206283910Y-93887842D01*
X206286034Y-93873524D01*
X206289551Y-93859483D01*
X206294428Y-93845854D01*
X206300617Y-93832769D01*
X206308058Y-93820353D01*
X206316681Y-93808727D01*
X206326402Y-93798002D01*
X206337127Y-93788281D01*
X206348753Y-93779658D01*
X206361169Y-93772217D01*
X206374254Y-93766028D01*
X206387883Y-93761151D01*
X206401924Y-93757634D01*
X206416242Y-93755510D01*
X206430700Y-93754800D01*
X206725700Y-93754800D01*
X206740158Y-93755510D01*
G37*
G36*
X207710158Y-93755510D02*
G01*
X207724476Y-93757634D01*
X207738517Y-93761151D01*
X207752146Y-93766028D01*
X207765231Y-93772217D01*
X207777647Y-93779658D01*
X207789273Y-93788281D01*
X207799998Y-93798002D01*
X207809719Y-93808727D01*
X207818342Y-93820353D01*
X207825783Y-93832769D01*
X207831972Y-93845854D01*
X207836849Y-93859483D01*
X207840366Y-93873524D01*
X207842490Y-93887842D01*
X207843200Y-93902300D01*
X207843200Y-94247300D01*
X207842490Y-94261758D01*
X207840366Y-94276076D01*
X207836849Y-94290117D01*
X207831972Y-94303746D01*
X207825783Y-94316831D01*
X207818342Y-94329247D01*
X207809719Y-94340873D01*
X207799998Y-94351598D01*
X207789273Y-94361319D01*
X207777647Y-94369942D01*
X207765231Y-94377383D01*
X207752146Y-94383572D01*
X207738517Y-94388449D01*
X207724476Y-94391966D01*
X207710158Y-94394090D01*
X207695700Y-94394800D01*
X207400700Y-94394800D01*
X207386242Y-94394090D01*
X207371924Y-94391966D01*
X207357883Y-94388449D01*
X207344254Y-94383572D01*
X207331169Y-94377383D01*
X207318753Y-94369942D01*
X207307127Y-94361319D01*
X207296402Y-94351598D01*
X207286681Y-94340873D01*
X207278058Y-94329247D01*
X207270617Y-94316831D01*
X207264428Y-94303746D01*
X207259551Y-94290117D01*
X207256034Y-94276076D01*
X207253910Y-94261758D01*
X207253200Y-94247300D01*
X207253200Y-93902300D01*
X207253910Y-93887842D01*
X207256034Y-93873524D01*
X207259551Y-93859483D01*
X207264428Y-93845854D01*
X207270617Y-93832769D01*
X207278058Y-93820353D01*
X207286681Y-93808727D01*
X207296402Y-93798002D01*
X207307127Y-93788281D01*
X207318753Y-93779658D01*
X207331169Y-93772217D01*
X207344254Y-93766028D01*
X207357883Y-93761151D01*
X207371924Y-93757634D01*
X207386242Y-93755510D01*
X207400700Y-93754800D01*
X207695700Y-93754800D01*
X207710158Y-93755510D01*
G37*
%TD*%
%TO.C,U4*%
G36*
X183611503Y-100568122D02*
G01*
X183626064Y-100570282D01*
X183640343Y-100573859D01*
X183654203Y-100578818D01*
X183667510Y-100585112D01*
X183680136Y-100592680D01*
X183691959Y-100601448D01*
X183702866Y-100611334D01*
X183712752Y-100622241D01*
X183721520Y-100634064D01*
X183729088Y-100646690D01*
X183735382Y-100659997D01*
X183740341Y-100673857D01*
X183743918Y-100688136D01*
X183746078Y-100702697D01*
X183746800Y-100717400D01*
X183746800Y-102017400D01*
X183746078Y-102032103D01*
X183743918Y-102046664D01*
X183740341Y-102060943D01*
X183735382Y-102074803D01*
X183729088Y-102088110D01*
X183721520Y-102100736D01*
X183712752Y-102112559D01*
X183702866Y-102123466D01*
X183691959Y-102133352D01*
X183680136Y-102142120D01*
X183667510Y-102149688D01*
X183654203Y-102155982D01*
X183640343Y-102160941D01*
X183626064Y-102164518D01*
X183611503Y-102166678D01*
X183596800Y-102167400D01*
X183296800Y-102167400D01*
X183282097Y-102166678D01*
X183267536Y-102164518D01*
X183253257Y-102160941D01*
X183239397Y-102155982D01*
X183226090Y-102149688D01*
X183213464Y-102142120D01*
X183201641Y-102133352D01*
X183190734Y-102123466D01*
X183180848Y-102112559D01*
X183172080Y-102100736D01*
X183164512Y-102088110D01*
X183158218Y-102074803D01*
X183153259Y-102060943D01*
X183149682Y-102046664D01*
X183147522Y-102032103D01*
X183146800Y-102017400D01*
X183146800Y-100717400D01*
X183147522Y-100702697D01*
X183149682Y-100688136D01*
X183153259Y-100673857D01*
X183158218Y-100659997D01*
X183164512Y-100646690D01*
X183172080Y-100634064D01*
X183180848Y-100622241D01*
X183190734Y-100611334D01*
X183201641Y-100601448D01*
X183213464Y-100592680D01*
X183226090Y-100585112D01*
X183239397Y-100578818D01*
X183253257Y-100573859D01*
X183267536Y-100570282D01*
X183282097Y-100568122D01*
X183296800Y-100567400D01*
X183596800Y-100567400D01*
X183611503Y-100568122D01*
G37*
G36*
X182341503Y-100568122D02*
G01*
X182356064Y-100570282D01*
X182370343Y-100573859D01*
X182384203Y-100578818D01*
X182397510Y-100585112D01*
X182410136Y-100592680D01*
X182421959Y-100601448D01*
X182432866Y-100611334D01*
X182442752Y-100622241D01*
X182451520Y-100634064D01*
X182459088Y-100646690D01*
X182465382Y-100659997D01*
X182470341Y-100673857D01*
X182473918Y-100688136D01*
X182476078Y-100702697D01*
X182476800Y-100717400D01*
X182476800Y-102017400D01*
X182476078Y-102032103D01*
X182473918Y-102046664D01*
X182470341Y-102060943D01*
X182465382Y-102074803D01*
X182459088Y-102088110D01*
X182451520Y-102100736D01*
X182442752Y-102112559D01*
X182432866Y-102123466D01*
X182421959Y-102133352D01*
X182410136Y-102142120D01*
X182397510Y-102149688D01*
X182384203Y-102155982D01*
X182370343Y-102160941D01*
X182356064Y-102164518D01*
X182341503Y-102166678D01*
X182326800Y-102167400D01*
X182026800Y-102167400D01*
X182012097Y-102166678D01*
X181997536Y-102164518D01*
X181983257Y-102160941D01*
X181969397Y-102155982D01*
X181956090Y-102149688D01*
X181943464Y-102142120D01*
X181931641Y-102133352D01*
X181920734Y-102123466D01*
X181910848Y-102112559D01*
X181902080Y-102100736D01*
X181894512Y-102088110D01*
X181888218Y-102074803D01*
X181883259Y-102060943D01*
X181879682Y-102046664D01*
X181877522Y-102032103D01*
X181876800Y-102017400D01*
X181876800Y-100717400D01*
X181877522Y-100702697D01*
X181879682Y-100688136D01*
X181883259Y-100673857D01*
X181888218Y-100659997D01*
X181894512Y-100646690D01*
X181902080Y-100634064D01*
X181910848Y-100622241D01*
X181920734Y-100611334D01*
X181931641Y-100601448D01*
X181943464Y-100592680D01*
X181956090Y-100585112D01*
X181969397Y-100578818D01*
X181983257Y-100573859D01*
X181997536Y-100570282D01*
X182012097Y-100568122D01*
X182026800Y-100567400D01*
X182326800Y-100567400D01*
X182341503Y-100568122D01*
G37*
G36*
X181071503Y-100568122D02*
G01*
X181086064Y-100570282D01*
X181100343Y-100573859D01*
X181114203Y-100578818D01*
X181127510Y-100585112D01*
X181140136Y-100592680D01*
X181151959Y-100601448D01*
X181162866Y-100611334D01*
X181172752Y-100622241D01*
X181181520Y-100634064D01*
X181189088Y-100646690D01*
X181195382Y-100659997D01*
X181200341Y-100673857D01*
X181203918Y-100688136D01*
X181206078Y-100702697D01*
X181206800Y-100717400D01*
X181206800Y-102017400D01*
X181206078Y-102032103D01*
X181203918Y-102046664D01*
X181200341Y-102060943D01*
X181195382Y-102074803D01*
X181189088Y-102088110D01*
X181181520Y-102100736D01*
X181172752Y-102112559D01*
X181162866Y-102123466D01*
X181151959Y-102133352D01*
X181140136Y-102142120D01*
X181127510Y-102149688D01*
X181114203Y-102155982D01*
X181100343Y-102160941D01*
X181086064Y-102164518D01*
X181071503Y-102166678D01*
X181056800Y-102167400D01*
X180756800Y-102167400D01*
X180742097Y-102166678D01*
X180727536Y-102164518D01*
X180713257Y-102160941D01*
X180699397Y-102155982D01*
X180686090Y-102149688D01*
X180673464Y-102142120D01*
X180661641Y-102133352D01*
X180650734Y-102123466D01*
X180640848Y-102112559D01*
X180632080Y-102100736D01*
X180624512Y-102088110D01*
X180618218Y-102074803D01*
X180613259Y-102060943D01*
X180609682Y-102046664D01*
X180607522Y-102032103D01*
X180606800Y-102017400D01*
X180606800Y-100717400D01*
X180607522Y-100702697D01*
X180609682Y-100688136D01*
X180613259Y-100673857D01*
X180618218Y-100659997D01*
X180624512Y-100646690D01*
X180632080Y-100634064D01*
X180640848Y-100622241D01*
X180650734Y-100611334D01*
X180661641Y-100601448D01*
X180673464Y-100592680D01*
X180686090Y-100585112D01*
X180699397Y-100578818D01*
X180713257Y-100573859D01*
X180727536Y-100570282D01*
X180742097Y-100568122D01*
X180756800Y-100567400D01*
X181056800Y-100567400D01*
X181071503Y-100568122D01*
G37*
G36*
X179801503Y-100568122D02*
G01*
X179816064Y-100570282D01*
X179830343Y-100573859D01*
X179844203Y-100578818D01*
X179857510Y-100585112D01*
X179870136Y-100592680D01*
X179881959Y-100601448D01*
X179892866Y-100611334D01*
X179902752Y-100622241D01*
X179911520Y-100634064D01*
X179919088Y-100646690D01*
X179925382Y-100659997D01*
X179930341Y-100673857D01*
X179933918Y-100688136D01*
X179936078Y-100702697D01*
X179936800Y-100717400D01*
X179936800Y-102017400D01*
X179936078Y-102032103D01*
X179933918Y-102046664D01*
X179930341Y-102060943D01*
X179925382Y-102074803D01*
X179919088Y-102088110D01*
X179911520Y-102100736D01*
X179902752Y-102112559D01*
X179892866Y-102123466D01*
X179881959Y-102133352D01*
X179870136Y-102142120D01*
X179857510Y-102149688D01*
X179844203Y-102155982D01*
X179830343Y-102160941D01*
X179816064Y-102164518D01*
X179801503Y-102166678D01*
X179786800Y-102167400D01*
X179486800Y-102167400D01*
X179472097Y-102166678D01*
X179457536Y-102164518D01*
X179443257Y-102160941D01*
X179429397Y-102155982D01*
X179416090Y-102149688D01*
X179403464Y-102142120D01*
X179391641Y-102133352D01*
X179380734Y-102123466D01*
X179370848Y-102112559D01*
X179362080Y-102100736D01*
X179354512Y-102088110D01*
X179348218Y-102074803D01*
X179343259Y-102060943D01*
X179339682Y-102046664D01*
X179337522Y-102032103D01*
X179336800Y-102017400D01*
X179336800Y-100717400D01*
X179337522Y-100702697D01*
X179339682Y-100688136D01*
X179343259Y-100673857D01*
X179348218Y-100659997D01*
X179354512Y-100646690D01*
X179362080Y-100634064D01*
X179370848Y-100622241D01*
X179380734Y-100611334D01*
X179391641Y-100601448D01*
X179403464Y-100592680D01*
X179416090Y-100585112D01*
X179429397Y-100578818D01*
X179443257Y-100573859D01*
X179457536Y-100570282D01*
X179472097Y-100568122D01*
X179486800Y-100567400D01*
X179786800Y-100567400D01*
X179801503Y-100568122D01*
G37*
G36*
X179801503Y-93368122D02*
G01*
X179816064Y-93370282D01*
X179830343Y-93373859D01*
X179844203Y-93378818D01*
X179857510Y-93385112D01*
X179870136Y-93392680D01*
X179881959Y-93401448D01*
X179892866Y-93411334D01*
X179902752Y-93422241D01*
X179911520Y-93434064D01*
X179919088Y-93446690D01*
X179925382Y-93459997D01*
X179930341Y-93473857D01*
X179933918Y-93488136D01*
X179936078Y-93502697D01*
X179936800Y-93517400D01*
X179936800Y-94817400D01*
X179936078Y-94832103D01*
X179933918Y-94846664D01*
X179930341Y-94860943D01*
X179925382Y-94874803D01*
X179919088Y-94888110D01*
X179911520Y-94900736D01*
X179902752Y-94912559D01*
X179892866Y-94923466D01*
X179881959Y-94933352D01*
X179870136Y-94942120D01*
X179857510Y-94949688D01*
X179844203Y-94955982D01*
X179830343Y-94960941D01*
X179816064Y-94964518D01*
X179801503Y-94966678D01*
X179786800Y-94967400D01*
X179486800Y-94967400D01*
X179472097Y-94966678D01*
X179457536Y-94964518D01*
X179443257Y-94960941D01*
X179429397Y-94955982D01*
X179416090Y-94949688D01*
X179403464Y-94942120D01*
X179391641Y-94933352D01*
X179380734Y-94923466D01*
X179370848Y-94912559D01*
X179362080Y-94900736D01*
X179354512Y-94888110D01*
X179348218Y-94874803D01*
X179343259Y-94860943D01*
X179339682Y-94846664D01*
X179337522Y-94832103D01*
X179336800Y-94817400D01*
X179336800Y-93517400D01*
X179337522Y-93502697D01*
X179339682Y-93488136D01*
X179343259Y-93473857D01*
X179348218Y-93459997D01*
X179354512Y-93446690D01*
X179362080Y-93434064D01*
X179370848Y-93422241D01*
X179380734Y-93411334D01*
X179391641Y-93401448D01*
X179403464Y-93392680D01*
X179416090Y-93385112D01*
X179429397Y-93378818D01*
X179443257Y-93373859D01*
X179457536Y-93370282D01*
X179472097Y-93368122D01*
X179486800Y-93367400D01*
X179786800Y-93367400D01*
X179801503Y-93368122D01*
G37*
G36*
X181071503Y-93368122D02*
G01*
X181086064Y-93370282D01*
X181100343Y-93373859D01*
X181114203Y-93378818D01*
X181127510Y-93385112D01*
X181140136Y-93392680D01*
X181151959Y-93401448D01*
X181162866Y-93411334D01*
X181172752Y-93422241D01*
X181181520Y-93434064D01*
X181189088Y-93446690D01*
X181195382Y-93459997D01*
X181200341Y-93473857D01*
X181203918Y-93488136D01*
X181206078Y-93502697D01*
X181206800Y-93517400D01*
X181206800Y-94817400D01*
X181206078Y-94832103D01*
X181203918Y-94846664D01*
X181200341Y-94860943D01*
X181195382Y-94874803D01*
X181189088Y-94888110D01*
X181181520Y-94900736D01*
X181172752Y-94912559D01*
X181162866Y-94923466D01*
X181151959Y-94933352D01*
X181140136Y-94942120D01*
X181127510Y-94949688D01*
X181114203Y-94955982D01*
X181100343Y-94960941D01*
X181086064Y-94964518D01*
X181071503Y-94966678D01*
X181056800Y-94967400D01*
X180756800Y-94967400D01*
X180742097Y-94966678D01*
X180727536Y-94964518D01*
X180713257Y-94960941D01*
X180699397Y-94955982D01*
X180686090Y-94949688D01*
X180673464Y-94942120D01*
X180661641Y-94933352D01*
X180650734Y-94923466D01*
X180640848Y-94912559D01*
X180632080Y-94900736D01*
X180624512Y-94888110D01*
X180618218Y-94874803D01*
X180613259Y-94860943D01*
X180609682Y-94846664D01*
X180607522Y-94832103D01*
X180606800Y-94817400D01*
X180606800Y-93517400D01*
X180607522Y-93502697D01*
X180609682Y-93488136D01*
X180613259Y-93473857D01*
X180618218Y-93459997D01*
X180624512Y-93446690D01*
X180632080Y-93434064D01*
X180640848Y-93422241D01*
X180650734Y-93411334D01*
X180661641Y-93401448D01*
X180673464Y-93392680D01*
X180686090Y-93385112D01*
X180699397Y-93378818D01*
X180713257Y-93373859D01*
X180727536Y-93370282D01*
X180742097Y-93368122D01*
X180756800Y-93367400D01*
X181056800Y-93367400D01*
X181071503Y-93368122D01*
G37*
G36*
X182341503Y-93368122D02*
G01*
X182356064Y-93370282D01*
X182370343Y-93373859D01*
X182384203Y-93378818D01*
X182397510Y-93385112D01*
X182410136Y-93392680D01*
X182421959Y-93401448D01*
X182432866Y-93411334D01*
X182442752Y-93422241D01*
X182451520Y-93434064D01*
X182459088Y-93446690D01*
X182465382Y-93459997D01*
X182470341Y-93473857D01*
X182473918Y-93488136D01*
X182476078Y-93502697D01*
X182476800Y-93517400D01*
X182476800Y-94817400D01*
X182476078Y-94832103D01*
X182473918Y-94846664D01*
X182470341Y-94860943D01*
X182465382Y-94874803D01*
X182459088Y-94888110D01*
X182451520Y-94900736D01*
X182442752Y-94912559D01*
X182432866Y-94923466D01*
X182421959Y-94933352D01*
X182410136Y-94942120D01*
X182397510Y-94949688D01*
X182384203Y-94955982D01*
X182370343Y-94960941D01*
X182356064Y-94964518D01*
X182341503Y-94966678D01*
X182326800Y-94967400D01*
X182026800Y-94967400D01*
X182012097Y-94966678D01*
X181997536Y-94964518D01*
X181983257Y-94960941D01*
X181969397Y-94955982D01*
X181956090Y-94949688D01*
X181943464Y-94942120D01*
X181931641Y-94933352D01*
X181920734Y-94923466D01*
X181910848Y-94912559D01*
X181902080Y-94900736D01*
X181894512Y-94888110D01*
X181888218Y-94874803D01*
X181883259Y-94860943D01*
X181879682Y-94846664D01*
X181877522Y-94832103D01*
X181876800Y-94817400D01*
X181876800Y-93517400D01*
X181877522Y-93502697D01*
X181879682Y-93488136D01*
X181883259Y-93473857D01*
X181888218Y-93459997D01*
X181894512Y-93446690D01*
X181902080Y-93434064D01*
X181910848Y-93422241D01*
X181920734Y-93411334D01*
X181931641Y-93401448D01*
X181943464Y-93392680D01*
X181956090Y-93385112D01*
X181969397Y-93378818D01*
X181983257Y-93373859D01*
X181997536Y-93370282D01*
X182012097Y-93368122D01*
X182026800Y-93367400D01*
X182326800Y-93367400D01*
X182341503Y-93368122D01*
G37*
G36*
X183611503Y-93368122D02*
G01*
X183626064Y-93370282D01*
X183640343Y-93373859D01*
X183654203Y-93378818D01*
X183667510Y-93385112D01*
X183680136Y-93392680D01*
X183691959Y-93401448D01*
X183702866Y-93411334D01*
X183712752Y-93422241D01*
X183721520Y-93434064D01*
X183729088Y-93446690D01*
X183735382Y-93459997D01*
X183740341Y-93473857D01*
X183743918Y-93488136D01*
X183746078Y-93502697D01*
X183746800Y-93517400D01*
X183746800Y-94817400D01*
X183746078Y-94832103D01*
X183743918Y-94846664D01*
X183740341Y-94860943D01*
X183735382Y-94874803D01*
X183729088Y-94888110D01*
X183721520Y-94900736D01*
X183712752Y-94912559D01*
X183702866Y-94923466D01*
X183691959Y-94933352D01*
X183680136Y-94942120D01*
X183667510Y-94949688D01*
X183654203Y-94955982D01*
X183640343Y-94960941D01*
X183626064Y-94964518D01*
X183611503Y-94966678D01*
X183596800Y-94967400D01*
X183296800Y-94967400D01*
X183282097Y-94966678D01*
X183267536Y-94964518D01*
X183253257Y-94960941D01*
X183239397Y-94955982D01*
X183226090Y-94949688D01*
X183213464Y-94942120D01*
X183201641Y-94933352D01*
X183190734Y-94923466D01*
X183180848Y-94912559D01*
X183172080Y-94900736D01*
X183164512Y-94888110D01*
X183158218Y-94874803D01*
X183153259Y-94860943D01*
X183149682Y-94846664D01*
X183147522Y-94832103D01*
X183146800Y-94817400D01*
X183146800Y-93517400D01*
X183147522Y-93502697D01*
X183149682Y-93488136D01*
X183153259Y-93473857D01*
X183158218Y-93459997D01*
X183164512Y-93446690D01*
X183172080Y-93434064D01*
X183180848Y-93422241D01*
X183190734Y-93411334D01*
X183201641Y-93401448D01*
X183213464Y-93392680D01*
X183226090Y-93385112D01*
X183239397Y-93378818D01*
X183253257Y-93373859D01*
X183267536Y-93370282D01*
X183282097Y-93368122D01*
X183296800Y-93367400D01*
X183596800Y-93367400D01*
X183611503Y-93368122D01*
G37*
%TD*%
D16*
%TO.C,Q1*%
X202152000Y-101811400D03*
X200152000Y-102461400D03*
X200152000Y-101161400D03*
%TD*%
D17*
%TO.C,U3*%
X201335600Y-95442400D03*
X203235600Y-95442400D03*
X203235600Y-97642400D03*
X202285600Y-97642400D03*
X201335600Y-97642400D03*
%TD*%
%TO.C,U2*%
X201345800Y-89538000D03*
X203245800Y-89538000D03*
X203245800Y-91738000D03*
X202295800Y-91738000D03*
X201345800Y-91738000D03*
%TD*%
%TO.C,U1*%
X206060000Y-95438600D03*
X207960000Y-95438600D03*
X207960000Y-97638600D03*
X207010000Y-97638600D03*
X206060000Y-97638600D03*
%TD*%
D15*
%TO.C,F1*%
G36*
X207888104Y-89203204D02*
G01*
X207912373Y-89206804D01*
X207936171Y-89212765D01*
X207959271Y-89221030D01*
X207981449Y-89231520D01*
X208002493Y-89244133D01*
X208022198Y-89258747D01*
X208040377Y-89275223D01*
X208056853Y-89293402D01*
X208071467Y-89313107D01*
X208084080Y-89334151D01*
X208094570Y-89356329D01*
X208102835Y-89379429D01*
X208108796Y-89403227D01*
X208112396Y-89427496D01*
X208113600Y-89452000D01*
X208113600Y-90202000D01*
X208112396Y-90226504D01*
X208108796Y-90250773D01*
X208102835Y-90274571D01*
X208094570Y-90297671D01*
X208084080Y-90319849D01*
X208071467Y-90340893D01*
X208056853Y-90360598D01*
X208040377Y-90378777D01*
X208022198Y-90395253D01*
X208002493Y-90409867D01*
X207981449Y-90422480D01*
X207959271Y-90432970D01*
X207936171Y-90441235D01*
X207912373Y-90447196D01*
X207888104Y-90450796D01*
X207863600Y-90452000D01*
X206613600Y-90452000D01*
X206589096Y-90450796D01*
X206564827Y-90447196D01*
X206541029Y-90441235D01*
X206517929Y-90432970D01*
X206495751Y-90422480D01*
X206474707Y-90409867D01*
X206455002Y-90395253D01*
X206436823Y-90378777D01*
X206420347Y-90360598D01*
X206405733Y-90340893D01*
X206393120Y-90319849D01*
X206382630Y-90297671D01*
X206374365Y-90274571D01*
X206368404Y-90250773D01*
X206364804Y-90226504D01*
X206363600Y-90202000D01*
X206363600Y-89452000D01*
X206364804Y-89427496D01*
X206368404Y-89403227D01*
X206374365Y-89379429D01*
X206382630Y-89356329D01*
X206393120Y-89334151D01*
X206405733Y-89313107D01*
X206420347Y-89293402D01*
X206436823Y-89275223D01*
X206455002Y-89258747D01*
X206474707Y-89244133D01*
X206495751Y-89231520D01*
X206517929Y-89221030D01*
X206541029Y-89212765D01*
X206564827Y-89206804D01*
X206589096Y-89203204D01*
X206613600Y-89202000D01*
X207863600Y-89202000D01*
X207888104Y-89203204D01*
G37*
G36*
X207888104Y-92003204D02*
G01*
X207912373Y-92006804D01*
X207936171Y-92012765D01*
X207959271Y-92021030D01*
X207981449Y-92031520D01*
X208002493Y-92044133D01*
X208022198Y-92058747D01*
X208040377Y-92075223D01*
X208056853Y-92093402D01*
X208071467Y-92113107D01*
X208084080Y-92134151D01*
X208094570Y-92156329D01*
X208102835Y-92179429D01*
X208108796Y-92203227D01*
X208112396Y-92227496D01*
X208113600Y-92252000D01*
X208113600Y-93002000D01*
X208112396Y-93026504D01*
X208108796Y-93050773D01*
X208102835Y-93074571D01*
X208094570Y-93097671D01*
X208084080Y-93119849D01*
X208071467Y-93140893D01*
X208056853Y-93160598D01*
X208040377Y-93178777D01*
X208022198Y-93195253D01*
X208002493Y-93209867D01*
X207981449Y-93222480D01*
X207959271Y-93232970D01*
X207936171Y-93241235D01*
X207912373Y-93247196D01*
X207888104Y-93250796D01*
X207863600Y-93252000D01*
X206613600Y-93252000D01*
X206589096Y-93250796D01*
X206564827Y-93247196D01*
X206541029Y-93241235D01*
X206517929Y-93232970D01*
X206495751Y-93222480D01*
X206474707Y-93209867D01*
X206455002Y-93195253D01*
X206436823Y-93178777D01*
X206420347Y-93160598D01*
X206405733Y-93140893D01*
X206393120Y-93119849D01*
X206382630Y-93097671D01*
X206374365Y-93074571D01*
X206368404Y-93050773D01*
X206364804Y-93026504D01*
X206363600Y-93002000D01*
X206363600Y-92252000D01*
X206364804Y-92227496D01*
X206368404Y-92203227D01*
X206374365Y-92179429D01*
X206382630Y-92156329D01*
X206393120Y-92134151D01*
X206405733Y-92113107D01*
X206420347Y-92093402D01*
X206436823Y-92075223D01*
X206455002Y-92058747D01*
X206474707Y-92044133D01*
X206495751Y-92031520D01*
X206517929Y-92021030D01*
X206541029Y-92012765D01*
X206564827Y-92006804D01*
X206589096Y-92003204D01*
X206613600Y-92002000D01*
X207863600Y-92002000D01*
X207888104Y-92003204D01*
G37*
%TD*%
D18*
%TO.C,Y1*%
X183632400Y-90509800D03*
X183632400Y-91909800D03*
X182532400Y-91909800D03*
X182532400Y-90509800D03*
%TD*%
D15*
%TO.C,R12*%
G36*
X203534958Y-102696310D02*
G01*
X203549276Y-102698434D01*
X203563317Y-102701951D01*
X203576946Y-102706828D01*
X203590031Y-102713017D01*
X203602447Y-102720458D01*
X203614073Y-102729081D01*
X203624798Y-102738802D01*
X203634519Y-102749527D01*
X203643142Y-102761153D01*
X203650583Y-102773569D01*
X203656772Y-102786654D01*
X203661649Y-102800283D01*
X203665166Y-102814324D01*
X203667290Y-102828642D01*
X203668000Y-102843100D01*
X203668000Y-103188100D01*
X203667290Y-103202558D01*
X203665166Y-103216876D01*
X203661649Y-103230917D01*
X203656772Y-103244546D01*
X203650583Y-103257631D01*
X203643142Y-103270047D01*
X203634519Y-103281673D01*
X203624798Y-103292398D01*
X203614073Y-103302119D01*
X203602447Y-103310742D01*
X203590031Y-103318183D01*
X203576946Y-103324372D01*
X203563317Y-103329249D01*
X203549276Y-103332766D01*
X203534958Y-103334890D01*
X203520500Y-103335600D01*
X203225500Y-103335600D01*
X203211042Y-103334890D01*
X203196724Y-103332766D01*
X203182683Y-103329249D01*
X203169054Y-103324372D01*
X203155969Y-103318183D01*
X203143553Y-103310742D01*
X203131927Y-103302119D01*
X203121202Y-103292398D01*
X203111481Y-103281673D01*
X203102858Y-103270047D01*
X203095417Y-103257631D01*
X203089228Y-103244546D01*
X203084351Y-103230917D01*
X203080834Y-103216876D01*
X203078710Y-103202558D01*
X203078000Y-103188100D01*
X203078000Y-102843100D01*
X203078710Y-102828642D01*
X203080834Y-102814324D01*
X203084351Y-102800283D01*
X203089228Y-102786654D01*
X203095417Y-102773569D01*
X203102858Y-102761153D01*
X203111481Y-102749527D01*
X203121202Y-102738802D01*
X203131927Y-102729081D01*
X203143553Y-102720458D01*
X203155969Y-102713017D01*
X203169054Y-102706828D01*
X203182683Y-102701951D01*
X203196724Y-102698434D01*
X203211042Y-102696310D01*
X203225500Y-102695600D01*
X203520500Y-102695600D01*
X203534958Y-102696310D01*
G37*
G36*
X204504958Y-102696310D02*
G01*
X204519276Y-102698434D01*
X204533317Y-102701951D01*
X204546946Y-102706828D01*
X204560031Y-102713017D01*
X204572447Y-102720458D01*
X204584073Y-102729081D01*
X204594798Y-102738802D01*
X204604519Y-102749527D01*
X204613142Y-102761153D01*
X204620583Y-102773569D01*
X204626772Y-102786654D01*
X204631649Y-102800283D01*
X204635166Y-102814324D01*
X204637290Y-102828642D01*
X204638000Y-102843100D01*
X204638000Y-103188100D01*
X204637290Y-103202558D01*
X204635166Y-103216876D01*
X204631649Y-103230917D01*
X204626772Y-103244546D01*
X204620583Y-103257631D01*
X204613142Y-103270047D01*
X204604519Y-103281673D01*
X204594798Y-103292398D01*
X204584073Y-103302119D01*
X204572447Y-103310742D01*
X204560031Y-103318183D01*
X204546946Y-103324372D01*
X204533317Y-103329249D01*
X204519276Y-103332766D01*
X204504958Y-103334890D01*
X204490500Y-103335600D01*
X204195500Y-103335600D01*
X204181042Y-103334890D01*
X204166724Y-103332766D01*
X204152683Y-103329249D01*
X204139054Y-103324372D01*
X204125969Y-103318183D01*
X204113553Y-103310742D01*
X204101927Y-103302119D01*
X204091202Y-103292398D01*
X204081481Y-103281673D01*
X204072858Y-103270047D01*
X204065417Y-103257631D01*
X204059228Y-103244546D01*
X204054351Y-103230917D01*
X204050834Y-103216876D01*
X204048710Y-103202558D01*
X204048000Y-103188100D01*
X204048000Y-102843100D01*
X204048710Y-102828642D01*
X204050834Y-102814324D01*
X204054351Y-102800283D01*
X204059228Y-102786654D01*
X204065417Y-102773569D01*
X204072858Y-102761153D01*
X204081481Y-102749527D01*
X204091202Y-102738802D01*
X204101927Y-102729081D01*
X204113553Y-102720458D01*
X204125969Y-102713017D01*
X204139054Y-102706828D01*
X204152683Y-102701951D01*
X204166724Y-102698434D01*
X204181042Y-102696310D01*
X204195500Y-102695600D01*
X204490500Y-102695600D01*
X204504958Y-102696310D01*
G37*
%TD*%
%TO.C,L3*%
G36*
X201638842Y-98786174D02*
G01*
X201662503Y-98789684D01*
X201685707Y-98795496D01*
X201708229Y-98803554D01*
X201729853Y-98813782D01*
X201750370Y-98826079D01*
X201769583Y-98840329D01*
X201787307Y-98856393D01*
X201803371Y-98874117D01*
X201817621Y-98893330D01*
X201829918Y-98913847D01*
X201840146Y-98935471D01*
X201848204Y-98957993D01*
X201854016Y-98981197D01*
X201857526Y-99004858D01*
X201858700Y-99028750D01*
X201858700Y-99941250D01*
X201857526Y-99965142D01*
X201854016Y-99988803D01*
X201848204Y-100012007D01*
X201840146Y-100034529D01*
X201829918Y-100056153D01*
X201817621Y-100076670D01*
X201803371Y-100095883D01*
X201787307Y-100113607D01*
X201769583Y-100129671D01*
X201750370Y-100143921D01*
X201729853Y-100156218D01*
X201708229Y-100166446D01*
X201685707Y-100174504D01*
X201662503Y-100180316D01*
X201638842Y-100183826D01*
X201614950Y-100185000D01*
X201127450Y-100185000D01*
X201103558Y-100183826D01*
X201079897Y-100180316D01*
X201056693Y-100174504D01*
X201034171Y-100166446D01*
X201012547Y-100156218D01*
X200992030Y-100143921D01*
X200972817Y-100129671D01*
X200955093Y-100113607D01*
X200939029Y-100095883D01*
X200924779Y-100076670D01*
X200912482Y-100056153D01*
X200902254Y-100034529D01*
X200894196Y-100012007D01*
X200888384Y-99988803D01*
X200884874Y-99965142D01*
X200883700Y-99941250D01*
X200883700Y-99028750D01*
X200884874Y-99004858D01*
X200888384Y-98981197D01*
X200894196Y-98957993D01*
X200902254Y-98935471D01*
X200912482Y-98913847D01*
X200924779Y-98893330D01*
X200939029Y-98874117D01*
X200955093Y-98856393D01*
X200972817Y-98840329D01*
X200992030Y-98826079D01*
X201012547Y-98813782D01*
X201034171Y-98803554D01*
X201056693Y-98795496D01*
X201079897Y-98789684D01*
X201103558Y-98786174D01*
X201127450Y-98785000D01*
X201614950Y-98785000D01*
X201638842Y-98786174D01*
G37*
G36*
X203513842Y-98786174D02*
G01*
X203537503Y-98789684D01*
X203560707Y-98795496D01*
X203583229Y-98803554D01*
X203604853Y-98813782D01*
X203625370Y-98826079D01*
X203644583Y-98840329D01*
X203662307Y-98856393D01*
X203678371Y-98874117D01*
X203692621Y-98893330D01*
X203704918Y-98913847D01*
X203715146Y-98935471D01*
X203723204Y-98957993D01*
X203729016Y-98981197D01*
X203732526Y-99004858D01*
X203733700Y-99028750D01*
X203733700Y-99941250D01*
X203732526Y-99965142D01*
X203729016Y-99988803D01*
X203723204Y-100012007D01*
X203715146Y-100034529D01*
X203704918Y-100056153D01*
X203692621Y-100076670D01*
X203678371Y-100095883D01*
X203662307Y-100113607D01*
X203644583Y-100129671D01*
X203625370Y-100143921D01*
X203604853Y-100156218D01*
X203583229Y-100166446D01*
X203560707Y-100174504D01*
X203537503Y-100180316D01*
X203513842Y-100183826D01*
X203489950Y-100185000D01*
X203002450Y-100185000D01*
X202978558Y-100183826D01*
X202954897Y-100180316D01*
X202931693Y-100174504D01*
X202909171Y-100166446D01*
X202887547Y-100156218D01*
X202867030Y-100143921D01*
X202847817Y-100129671D01*
X202830093Y-100113607D01*
X202814029Y-100095883D01*
X202799779Y-100076670D01*
X202787482Y-100056153D01*
X202777254Y-100034529D01*
X202769196Y-100012007D01*
X202763384Y-99988803D01*
X202759874Y-99965142D01*
X202758700Y-99941250D01*
X202758700Y-99028750D01*
X202759874Y-99004858D01*
X202763384Y-98981197D01*
X202769196Y-98957993D01*
X202777254Y-98935471D01*
X202787482Y-98913847D01*
X202799779Y-98893330D01*
X202814029Y-98874117D01*
X202830093Y-98856393D01*
X202847817Y-98840329D01*
X202867030Y-98826079D01*
X202887547Y-98813782D01*
X202909171Y-98803554D01*
X202931693Y-98795496D01*
X202954897Y-98789684D01*
X202978558Y-98786174D01*
X203002450Y-98785000D01*
X203489950Y-98785000D01*
X203513842Y-98786174D01*
G37*
%TD*%
%TO.C,L2*%
G36*
X201638842Y-92893374D02*
G01*
X201662503Y-92896884D01*
X201685707Y-92902696D01*
X201708229Y-92910754D01*
X201729853Y-92920982D01*
X201750370Y-92933279D01*
X201769583Y-92947529D01*
X201787307Y-92963593D01*
X201803371Y-92981317D01*
X201817621Y-93000530D01*
X201829918Y-93021047D01*
X201840146Y-93042671D01*
X201848204Y-93065193D01*
X201854016Y-93088397D01*
X201857526Y-93112058D01*
X201858700Y-93135950D01*
X201858700Y-94048450D01*
X201857526Y-94072342D01*
X201854016Y-94096003D01*
X201848204Y-94119207D01*
X201840146Y-94141729D01*
X201829918Y-94163353D01*
X201817621Y-94183870D01*
X201803371Y-94203083D01*
X201787307Y-94220807D01*
X201769583Y-94236871D01*
X201750370Y-94251121D01*
X201729853Y-94263418D01*
X201708229Y-94273646D01*
X201685707Y-94281704D01*
X201662503Y-94287516D01*
X201638842Y-94291026D01*
X201614950Y-94292200D01*
X201127450Y-94292200D01*
X201103558Y-94291026D01*
X201079897Y-94287516D01*
X201056693Y-94281704D01*
X201034171Y-94273646D01*
X201012547Y-94263418D01*
X200992030Y-94251121D01*
X200972817Y-94236871D01*
X200955093Y-94220807D01*
X200939029Y-94203083D01*
X200924779Y-94183870D01*
X200912482Y-94163353D01*
X200902254Y-94141729D01*
X200894196Y-94119207D01*
X200888384Y-94096003D01*
X200884874Y-94072342D01*
X200883700Y-94048450D01*
X200883700Y-93135950D01*
X200884874Y-93112058D01*
X200888384Y-93088397D01*
X200894196Y-93065193D01*
X200902254Y-93042671D01*
X200912482Y-93021047D01*
X200924779Y-93000530D01*
X200939029Y-92981317D01*
X200955093Y-92963593D01*
X200972817Y-92947529D01*
X200992030Y-92933279D01*
X201012547Y-92920982D01*
X201034171Y-92910754D01*
X201056693Y-92902696D01*
X201079897Y-92896884D01*
X201103558Y-92893374D01*
X201127450Y-92892200D01*
X201614950Y-92892200D01*
X201638842Y-92893374D01*
G37*
G36*
X203513842Y-92893374D02*
G01*
X203537503Y-92896884D01*
X203560707Y-92902696D01*
X203583229Y-92910754D01*
X203604853Y-92920982D01*
X203625370Y-92933279D01*
X203644583Y-92947529D01*
X203662307Y-92963593D01*
X203678371Y-92981317D01*
X203692621Y-93000530D01*
X203704918Y-93021047D01*
X203715146Y-93042671D01*
X203723204Y-93065193D01*
X203729016Y-93088397D01*
X203732526Y-93112058D01*
X203733700Y-93135950D01*
X203733700Y-94048450D01*
X203732526Y-94072342D01*
X203729016Y-94096003D01*
X203723204Y-94119207D01*
X203715146Y-94141729D01*
X203704918Y-94163353D01*
X203692621Y-94183870D01*
X203678371Y-94203083D01*
X203662307Y-94220807D01*
X203644583Y-94236871D01*
X203625370Y-94251121D01*
X203604853Y-94263418D01*
X203583229Y-94273646D01*
X203560707Y-94281704D01*
X203537503Y-94287516D01*
X203513842Y-94291026D01*
X203489950Y-94292200D01*
X203002450Y-94292200D01*
X202978558Y-94291026D01*
X202954897Y-94287516D01*
X202931693Y-94281704D01*
X202909171Y-94273646D01*
X202887547Y-94263418D01*
X202867030Y-94251121D01*
X202847817Y-94236871D01*
X202830093Y-94220807D01*
X202814029Y-94203083D01*
X202799779Y-94183870D01*
X202787482Y-94163353D01*
X202777254Y-94141729D01*
X202769196Y-94119207D01*
X202763384Y-94096003D01*
X202759874Y-94072342D01*
X202758700Y-94048450D01*
X202758700Y-93135950D01*
X202759874Y-93112058D01*
X202763384Y-93088397D01*
X202769196Y-93065193D01*
X202777254Y-93042671D01*
X202787482Y-93021047D01*
X202799779Y-93000530D01*
X202814029Y-92981317D01*
X202830093Y-92963593D01*
X202847817Y-92947529D01*
X202867030Y-92933279D01*
X202887547Y-92920982D01*
X202909171Y-92910754D01*
X202931693Y-92902696D01*
X202954897Y-92896884D01*
X202978558Y-92893374D01*
X203002450Y-92892200D01*
X203489950Y-92892200D01*
X203513842Y-92893374D01*
G37*
%TD*%
%TO.C,L1*%
G36*
X206363242Y-98786174D02*
G01*
X206386903Y-98789684D01*
X206410107Y-98795496D01*
X206432629Y-98803554D01*
X206454253Y-98813782D01*
X206474770Y-98826079D01*
X206493983Y-98840329D01*
X206511707Y-98856393D01*
X206527771Y-98874117D01*
X206542021Y-98893330D01*
X206554318Y-98913847D01*
X206564546Y-98935471D01*
X206572604Y-98957993D01*
X206578416Y-98981197D01*
X206581926Y-99004858D01*
X206583100Y-99028750D01*
X206583100Y-99941250D01*
X206581926Y-99965142D01*
X206578416Y-99988803D01*
X206572604Y-100012007D01*
X206564546Y-100034529D01*
X206554318Y-100056153D01*
X206542021Y-100076670D01*
X206527771Y-100095883D01*
X206511707Y-100113607D01*
X206493983Y-100129671D01*
X206474770Y-100143921D01*
X206454253Y-100156218D01*
X206432629Y-100166446D01*
X206410107Y-100174504D01*
X206386903Y-100180316D01*
X206363242Y-100183826D01*
X206339350Y-100185000D01*
X205851850Y-100185000D01*
X205827958Y-100183826D01*
X205804297Y-100180316D01*
X205781093Y-100174504D01*
X205758571Y-100166446D01*
X205736947Y-100156218D01*
X205716430Y-100143921D01*
X205697217Y-100129671D01*
X205679493Y-100113607D01*
X205663429Y-100095883D01*
X205649179Y-100076670D01*
X205636882Y-100056153D01*
X205626654Y-100034529D01*
X205618596Y-100012007D01*
X205612784Y-99988803D01*
X205609274Y-99965142D01*
X205608100Y-99941250D01*
X205608100Y-99028750D01*
X205609274Y-99004858D01*
X205612784Y-98981197D01*
X205618596Y-98957993D01*
X205626654Y-98935471D01*
X205636882Y-98913847D01*
X205649179Y-98893330D01*
X205663429Y-98874117D01*
X205679493Y-98856393D01*
X205697217Y-98840329D01*
X205716430Y-98826079D01*
X205736947Y-98813782D01*
X205758571Y-98803554D01*
X205781093Y-98795496D01*
X205804297Y-98789684D01*
X205827958Y-98786174D01*
X205851850Y-98785000D01*
X206339350Y-98785000D01*
X206363242Y-98786174D01*
G37*
G36*
X208238242Y-98786174D02*
G01*
X208261903Y-98789684D01*
X208285107Y-98795496D01*
X208307629Y-98803554D01*
X208329253Y-98813782D01*
X208349770Y-98826079D01*
X208368983Y-98840329D01*
X208386707Y-98856393D01*
X208402771Y-98874117D01*
X208417021Y-98893330D01*
X208429318Y-98913847D01*
X208439546Y-98935471D01*
X208447604Y-98957993D01*
X208453416Y-98981197D01*
X208456926Y-99004858D01*
X208458100Y-99028750D01*
X208458100Y-99941250D01*
X208456926Y-99965142D01*
X208453416Y-99988803D01*
X208447604Y-100012007D01*
X208439546Y-100034529D01*
X208429318Y-100056153D01*
X208417021Y-100076670D01*
X208402771Y-100095883D01*
X208386707Y-100113607D01*
X208368983Y-100129671D01*
X208349770Y-100143921D01*
X208329253Y-100156218D01*
X208307629Y-100166446D01*
X208285107Y-100174504D01*
X208261903Y-100180316D01*
X208238242Y-100183826D01*
X208214350Y-100185000D01*
X207726850Y-100185000D01*
X207702958Y-100183826D01*
X207679297Y-100180316D01*
X207656093Y-100174504D01*
X207633571Y-100166446D01*
X207611947Y-100156218D01*
X207591430Y-100143921D01*
X207572217Y-100129671D01*
X207554493Y-100113607D01*
X207538429Y-100095883D01*
X207524179Y-100076670D01*
X207511882Y-100056153D01*
X207501654Y-100034529D01*
X207493596Y-100012007D01*
X207487784Y-99988803D01*
X207484274Y-99965142D01*
X207483100Y-99941250D01*
X207483100Y-99028750D01*
X207484274Y-99004858D01*
X207487784Y-98981197D01*
X207493596Y-98957993D01*
X207501654Y-98935471D01*
X207511882Y-98913847D01*
X207524179Y-98893330D01*
X207538429Y-98874117D01*
X207554493Y-98856393D01*
X207572217Y-98840329D01*
X207591430Y-98826079D01*
X207611947Y-98813782D01*
X207633571Y-98803554D01*
X207656093Y-98795496D01*
X207679297Y-98789684D01*
X207702958Y-98786174D01*
X207726850Y-98785000D01*
X208214350Y-98785000D01*
X208238242Y-98786174D01*
G37*
%TD*%
%TO.C,R14*%
G36*
X192312558Y-86903910D02*
G01*
X192326876Y-86906034D01*
X192340917Y-86909551D01*
X192354546Y-86914428D01*
X192367631Y-86920617D01*
X192380047Y-86928058D01*
X192391673Y-86936681D01*
X192402398Y-86946402D01*
X192412119Y-86957127D01*
X192420742Y-86968753D01*
X192428183Y-86981169D01*
X192434372Y-86994254D01*
X192439249Y-87007883D01*
X192442766Y-87021924D01*
X192444890Y-87036242D01*
X192445600Y-87050700D01*
X192445600Y-87345700D01*
X192444890Y-87360158D01*
X192442766Y-87374476D01*
X192439249Y-87388517D01*
X192434372Y-87402146D01*
X192428183Y-87415231D01*
X192420742Y-87427647D01*
X192412119Y-87439273D01*
X192402398Y-87449998D01*
X192391673Y-87459719D01*
X192380047Y-87468342D01*
X192367631Y-87475783D01*
X192354546Y-87481972D01*
X192340917Y-87486849D01*
X192326876Y-87490366D01*
X192312558Y-87492490D01*
X192298100Y-87493200D01*
X191953100Y-87493200D01*
X191938642Y-87492490D01*
X191924324Y-87490366D01*
X191910283Y-87486849D01*
X191896654Y-87481972D01*
X191883569Y-87475783D01*
X191871153Y-87468342D01*
X191859527Y-87459719D01*
X191848802Y-87449998D01*
X191839081Y-87439273D01*
X191830458Y-87427647D01*
X191823017Y-87415231D01*
X191816828Y-87402146D01*
X191811951Y-87388517D01*
X191808434Y-87374476D01*
X191806310Y-87360158D01*
X191805600Y-87345700D01*
X191805600Y-87050700D01*
X191806310Y-87036242D01*
X191808434Y-87021924D01*
X191811951Y-87007883D01*
X191816828Y-86994254D01*
X191823017Y-86981169D01*
X191830458Y-86968753D01*
X191839081Y-86957127D01*
X191848802Y-86946402D01*
X191859527Y-86936681D01*
X191871153Y-86928058D01*
X191883569Y-86920617D01*
X191896654Y-86914428D01*
X191910283Y-86909551D01*
X191924324Y-86906034D01*
X191938642Y-86903910D01*
X191953100Y-86903200D01*
X192298100Y-86903200D01*
X192312558Y-86903910D01*
G37*
G36*
X192312558Y-87873910D02*
G01*
X192326876Y-87876034D01*
X192340917Y-87879551D01*
X192354546Y-87884428D01*
X192367631Y-87890617D01*
X192380047Y-87898058D01*
X192391673Y-87906681D01*
X192402398Y-87916402D01*
X192412119Y-87927127D01*
X192420742Y-87938753D01*
X192428183Y-87951169D01*
X192434372Y-87964254D01*
X192439249Y-87977883D01*
X192442766Y-87991924D01*
X192444890Y-88006242D01*
X192445600Y-88020700D01*
X192445600Y-88315700D01*
X192444890Y-88330158D01*
X192442766Y-88344476D01*
X192439249Y-88358517D01*
X192434372Y-88372146D01*
X192428183Y-88385231D01*
X192420742Y-88397647D01*
X192412119Y-88409273D01*
X192402398Y-88419998D01*
X192391673Y-88429719D01*
X192380047Y-88438342D01*
X192367631Y-88445783D01*
X192354546Y-88451972D01*
X192340917Y-88456849D01*
X192326876Y-88460366D01*
X192312558Y-88462490D01*
X192298100Y-88463200D01*
X191953100Y-88463200D01*
X191938642Y-88462490D01*
X191924324Y-88460366D01*
X191910283Y-88456849D01*
X191896654Y-88451972D01*
X191883569Y-88445783D01*
X191871153Y-88438342D01*
X191859527Y-88429719D01*
X191848802Y-88419998D01*
X191839081Y-88409273D01*
X191830458Y-88397647D01*
X191823017Y-88385231D01*
X191816828Y-88372146D01*
X191811951Y-88358517D01*
X191808434Y-88344476D01*
X191806310Y-88330158D01*
X191805600Y-88315700D01*
X191805600Y-88020700D01*
X191806310Y-88006242D01*
X191808434Y-87991924D01*
X191811951Y-87977883D01*
X191816828Y-87964254D01*
X191823017Y-87951169D01*
X191830458Y-87938753D01*
X191839081Y-87927127D01*
X191848802Y-87916402D01*
X191859527Y-87906681D01*
X191871153Y-87898058D01*
X191883569Y-87890617D01*
X191896654Y-87884428D01*
X191910283Y-87879551D01*
X191924324Y-87876034D01*
X191938642Y-87873910D01*
X191953100Y-87873200D01*
X192298100Y-87873200D01*
X192312558Y-87873910D01*
G37*
%TD*%
%TO.C,R13*%
G36*
X193328558Y-86899110D02*
G01*
X193342876Y-86901234D01*
X193356917Y-86904751D01*
X193370546Y-86909628D01*
X193383631Y-86915817D01*
X193396047Y-86923258D01*
X193407673Y-86931881D01*
X193418398Y-86941602D01*
X193428119Y-86952327D01*
X193436742Y-86963953D01*
X193444183Y-86976369D01*
X193450372Y-86989454D01*
X193455249Y-87003083D01*
X193458766Y-87017124D01*
X193460890Y-87031442D01*
X193461600Y-87045900D01*
X193461600Y-87340900D01*
X193460890Y-87355358D01*
X193458766Y-87369676D01*
X193455249Y-87383717D01*
X193450372Y-87397346D01*
X193444183Y-87410431D01*
X193436742Y-87422847D01*
X193428119Y-87434473D01*
X193418398Y-87445198D01*
X193407673Y-87454919D01*
X193396047Y-87463542D01*
X193383631Y-87470983D01*
X193370546Y-87477172D01*
X193356917Y-87482049D01*
X193342876Y-87485566D01*
X193328558Y-87487690D01*
X193314100Y-87488400D01*
X192969100Y-87488400D01*
X192954642Y-87487690D01*
X192940324Y-87485566D01*
X192926283Y-87482049D01*
X192912654Y-87477172D01*
X192899569Y-87470983D01*
X192887153Y-87463542D01*
X192875527Y-87454919D01*
X192864802Y-87445198D01*
X192855081Y-87434473D01*
X192846458Y-87422847D01*
X192839017Y-87410431D01*
X192832828Y-87397346D01*
X192827951Y-87383717D01*
X192824434Y-87369676D01*
X192822310Y-87355358D01*
X192821600Y-87340900D01*
X192821600Y-87045900D01*
X192822310Y-87031442D01*
X192824434Y-87017124D01*
X192827951Y-87003083D01*
X192832828Y-86989454D01*
X192839017Y-86976369D01*
X192846458Y-86963953D01*
X192855081Y-86952327D01*
X192864802Y-86941602D01*
X192875527Y-86931881D01*
X192887153Y-86923258D01*
X192899569Y-86915817D01*
X192912654Y-86909628D01*
X192926283Y-86904751D01*
X192940324Y-86901234D01*
X192954642Y-86899110D01*
X192969100Y-86898400D01*
X193314100Y-86898400D01*
X193328558Y-86899110D01*
G37*
G36*
X193328558Y-87869110D02*
G01*
X193342876Y-87871234D01*
X193356917Y-87874751D01*
X193370546Y-87879628D01*
X193383631Y-87885817D01*
X193396047Y-87893258D01*
X193407673Y-87901881D01*
X193418398Y-87911602D01*
X193428119Y-87922327D01*
X193436742Y-87933953D01*
X193444183Y-87946369D01*
X193450372Y-87959454D01*
X193455249Y-87973083D01*
X193458766Y-87987124D01*
X193460890Y-88001442D01*
X193461600Y-88015900D01*
X193461600Y-88310900D01*
X193460890Y-88325358D01*
X193458766Y-88339676D01*
X193455249Y-88353717D01*
X193450372Y-88367346D01*
X193444183Y-88380431D01*
X193436742Y-88392847D01*
X193428119Y-88404473D01*
X193418398Y-88415198D01*
X193407673Y-88424919D01*
X193396047Y-88433542D01*
X193383631Y-88440983D01*
X193370546Y-88447172D01*
X193356917Y-88452049D01*
X193342876Y-88455566D01*
X193328558Y-88457690D01*
X193314100Y-88458400D01*
X192969100Y-88458400D01*
X192954642Y-88457690D01*
X192940324Y-88455566D01*
X192926283Y-88452049D01*
X192912654Y-88447172D01*
X192899569Y-88440983D01*
X192887153Y-88433542D01*
X192875527Y-88424919D01*
X192864802Y-88415198D01*
X192855081Y-88404473D01*
X192846458Y-88392847D01*
X192839017Y-88380431D01*
X192832828Y-88367346D01*
X192827951Y-88353717D01*
X192824434Y-88339676D01*
X192822310Y-88325358D01*
X192821600Y-88310900D01*
X192821600Y-88015900D01*
X192822310Y-88001442D01*
X192824434Y-87987124D01*
X192827951Y-87973083D01*
X192832828Y-87959454D01*
X192839017Y-87946369D01*
X192846458Y-87933953D01*
X192855081Y-87922327D01*
X192864802Y-87911602D01*
X192875527Y-87901881D01*
X192887153Y-87893258D01*
X192899569Y-87885817D01*
X192912654Y-87879628D01*
X192926283Y-87874751D01*
X192940324Y-87871234D01*
X192954642Y-87869110D01*
X192969100Y-87868400D01*
X193314100Y-87868400D01*
X193328558Y-87869110D01*
G37*
%TD*%
%TO.C,R11*%
G36*
X203534958Y-100664310D02*
G01*
X203549276Y-100666434D01*
X203563317Y-100669951D01*
X203576946Y-100674828D01*
X203590031Y-100681017D01*
X203602447Y-100688458D01*
X203614073Y-100697081D01*
X203624798Y-100706802D01*
X203634519Y-100717527D01*
X203643142Y-100729153D01*
X203650583Y-100741569D01*
X203656772Y-100754654D01*
X203661649Y-100768283D01*
X203665166Y-100782324D01*
X203667290Y-100796642D01*
X203668000Y-100811100D01*
X203668000Y-101156100D01*
X203667290Y-101170558D01*
X203665166Y-101184876D01*
X203661649Y-101198917D01*
X203656772Y-101212546D01*
X203650583Y-101225631D01*
X203643142Y-101238047D01*
X203634519Y-101249673D01*
X203624798Y-101260398D01*
X203614073Y-101270119D01*
X203602447Y-101278742D01*
X203590031Y-101286183D01*
X203576946Y-101292372D01*
X203563317Y-101297249D01*
X203549276Y-101300766D01*
X203534958Y-101302890D01*
X203520500Y-101303600D01*
X203225500Y-101303600D01*
X203211042Y-101302890D01*
X203196724Y-101300766D01*
X203182683Y-101297249D01*
X203169054Y-101292372D01*
X203155969Y-101286183D01*
X203143553Y-101278742D01*
X203131927Y-101270119D01*
X203121202Y-101260398D01*
X203111481Y-101249673D01*
X203102858Y-101238047D01*
X203095417Y-101225631D01*
X203089228Y-101212546D01*
X203084351Y-101198917D01*
X203080834Y-101184876D01*
X203078710Y-101170558D01*
X203078000Y-101156100D01*
X203078000Y-100811100D01*
X203078710Y-100796642D01*
X203080834Y-100782324D01*
X203084351Y-100768283D01*
X203089228Y-100754654D01*
X203095417Y-100741569D01*
X203102858Y-100729153D01*
X203111481Y-100717527D01*
X203121202Y-100706802D01*
X203131927Y-100697081D01*
X203143553Y-100688458D01*
X203155969Y-100681017D01*
X203169054Y-100674828D01*
X203182683Y-100669951D01*
X203196724Y-100666434D01*
X203211042Y-100664310D01*
X203225500Y-100663600D01*
X203520500Y-100663600D01*
X203534958Y-100664310D01*
G37*
G36*
X204504958Y-100664310D02*
G01*
X204519276Y-100666434D01*
X204533317Y-100669951D01*
X204546946Y-100674828D01*
X204560031Y-100681017D01*
X204572447Y-100688458D01*
X204584073Y-100697081D01*
X204594798Y-100706802D01*
X204604519Y-100717527D01*
X204613142Y-100729153D01*
X204620583Y-100741569D01*
X204626772Y-100754654D01*
X204631649Y-100768283D01*
X204635166Y-100782324D01*
X204637290Y-100796642D01*
X204638000Y-100811100D01*
X204638000Y-101156100D01*
X204637290Y-101170558D01*
X204635166Y-101184876D01*
X204631649Y-101198917D01*
X204626772Y-101212546D01*
X204620583Y-101225631D01*
X204613142Y-101238047D01*
X204604519Y-101249673D01*
X204594798Y-101260398D01*
X204584073Y-101270119D01*
X204572447Y-101278742D01*
X204560031Y-101286183D01*
X204546946Y-101292372D01*
X204533317Y-101297249D01*
X204519276Y-101300766D01*
X204504958Y-101302890D01*
X204490500Y-101303600D01*
X204195500Y-101303600D01*
X204181042Y-101302890D01*
X204166724Y-101300766D01*
X204152683Y-101297249D01*
X204139054Y-101292372D01*
X204125969Y-101286183D01*
X204113553Y-101278742D01*
X204101927Y-101270119D01*
X204091202Y-101260398D01*
X204081481Y-101249673D01*
X204072858Y-101238047D01*
X204065417Y-101225631D01*
X204059228Y-101212546D01*
X204054351Y-101198917D01*
X204050834Y-101184876D01*
X204048710Y-101170558D01*
X204048000Y-101156100D01*
X204048000Y-100811100D01*
X204048710Y-100796642D01*
X204050834Y-100782324D01*
X204054351Y-100768283D01*
X204059228Y-100754654D01*
X204065417Y-100741569D01*
X204072858Y-100729153D01*
X204081481Y-100717527D01*
X204091202Y-100706802D01*
X204101927Y-100697081D01*
X204113553Y-100688458D01*
X204125969Y-100681017D01*
X204139054Y-100674828D01*
X204152683Y-100669951D01*
X204166724Y-100666434D01*
X204181042Y-100664310D01*
X204195500Y-100663600D01*
X204490500Y-100663600D01*
X204504958Y-100664310D01*
G37*
%TD*%
%TO.C,R10*%
G36*
X181424358Y-91993910D02*
G01*
X181438676Y-91996034D01*
X181452717Y-91999551D01*
X181466346Y-92004428D01*
X181479431Y-92010617D01*
X181491847Y-92018058D01*
X181503473Y-92026681D01*
X181514198Y-92036402D01*
X181523919Y-92047127D01*
X181532542Y-92058753D01*
X181539983Y-92071169D01*
X181546172Y-92084254D01*
X181551049Y-92097883D01*
X181554566Y-92111924D01*
X181556690Y-92126242D01*
X181557400Y-92140700D01*
X181557400Y-92485700D01*
X181556690Y-92500158D01*
X181554566Y-92514476D01*
X181551049Y-92528517D01*
X181546172Y-92542146D01*
X181539983Y-92555231D01*
X181532542Y-92567647D01*
X181523919Y-92579273D01*
X181514198Y-92589998D01*
X181503473Y-92599719D01*
X181491847Y-92608342D01*
X181479431Y-92615783D01*
X181466346Y-92621972D01*
X181452717Y-92626849D01*
X181438676Y-92630366D01*
X181424358Y-92632490D01*
X181409900Y-92633200D01*
X181114900Y-92633200D01*
X181100442Y-92632490D01*
X181086124Y-92630366D01*
X181072083Y-92626849D01*
X181058454Y-92621972D01*
X181045369Y-92615783D01*
X181032953Y-92608342D01*
X181021327Y-92599719D01*
X181010602Y-92589998D01*
X181000881Y-92579273D01*
X180992258Y-92567647D01*
X180984817Y-92555231D01*
X180978628Y-92542146D01*
X180973751Y-92528517D01*
X180970234Y-92514476D01*
X180968110Y-92500158D01*
X180967400Y-92485700D01*
X180967400Y-92140700D01*
X180968110Y-92126242D01*
X180970234Y-92111924D01*
X180973751Y-92097883D01*
X180978628Y-92084254D01*
X180984817Y-92071169D01*
X180992258Y-92058753D01*
X181000881Y-92047127D01*
X181010602Y-92036402D01*
X181021327Y-92026681D01*
X181032953Y-92018058D01*
X181045369Y-92010617D01*
X181058454Y-92004428D01*
X181072083Y-91999551D01*
X181086124Y-91996034D01*
X181100442Y-91993910D01*
X181114900Y-91993200D01*
X181409900Y-91993200D01*
X181424358Y-91993910D01*
G37*
G36*
X180454358Y-91993910D02*
G01*
X180468676Y-91996034D01*
X180482717Y-91999551D01*
X180496346Y-92004428D01*
X180509431Y-92010617D01*
X180521847Y-92018058D01*
X180533473Y-92026681D01*
X180544198Y-92036402D01*
X180553919Y-92047127D01*
X180562542Y-92058753D01*
X180569983Y-92071169D01*
X180576172Y-92084254D01*
X180581049Y-92097883D01*
X180584566Y-92111924D01*
X180586690Y-92126242D01*
X180587400Y-92140700D01*
X180587400Y-92485700D01*
X180586690Y-92500158D01*
X180584566Y-92514476D01*
X180581049Y-92528517D01*
X180576172Y-92542146D01*
X180569983Y-92555231D01*
X180562542Y-92567647D01*
X180553919Y-92579273D01*
X180544198Y-92589998D01*
X180533473Y-92599719D01*
X180521847Y-92608342D01*
X180509431Y-92615783D01*
X180496346Y-92621972D01*
X180482717Y-92626849D01*
X180468676Y-92630366D01*
X180454358Y-92632490D01*
X180439900Y-92633200D01*
X180144900Y-92633200D01*
X180130442Y-92632490D01*
X180116124Y-92630366D01*
X180102083Y-92626849D01*
X180088454Y-92621972D01*
X180075369Y-92615783D01*
X180062953Y-92608342D01*
X180051327Y-92599719D01*
X180040602Y-92589998D01*
X180030881Y-92579273D01*
X180022258Y-92567647D01*
X180014817Y-92555231D01*
X180008628Y-92542146D01*
X180003751Y-92528517D01*
X180000234Y-92514476D01*
X179998110Y-92500158D01*
X179997400Y-92485700D01*
X179997400Y-92140700D01*
X179998110Y-92126242D01*
X180000234Y-92111924D01*
X180003751Y-92097883D01*
X180008628Y-92084254D01*
X180014817Y-92071169D01*
X180022258Y-92058753D01*
X180030881Y-92047127D01*
X180040602Y-92036402D01*
X180051327Y-92026681D01*
X180062953Y-92018058D01*
X180075369Y-92010617D01*
X180088454Y-92004428D01*
X180102083Y-91999551D01*
X180116124Y-91996034D01*
X180130442Y-91993910D01*
X180144900Y-91993200D01*
X180439900Y-91993200D01*
X180454358Y-91993910D01*
G37*
%TD*%
%TO.C,R9*%
G36*
X187435808Y-103756710D02*
G01*
X187450126Y-103758834D01*
X187464167Y-103762351D01*
X187477796Y-103767228D01*
X187490881Y-103773417D01*
X187503297Y-103780858D01*
X187514923Y-103789481D01*
X187525648Y-103799202D01*
X187535369Y-103809927D01*
X187543992Y-103821553D01*
X187551433Y-103833969D01*
X187557622Y-103847054D01*
X187562499Y-103860683D01*
X187566016Y-103874724D01*
X187568140Y-103889042D01*
X187568850Y-103903500D01*
X187568850Y-104198500D01*
X187568140Y-104212958D01*
X187566016Y-104227276D01*
X187562499Y-104241317D01*
X187557622Y-104254946D01*
X187551433Y-104268031D01*
X187543992Y-104280447D01*
X187535369Y-104292073D01*
X187525648Y-104302798D01*
X187514923Y-104312519D01*
X187503297Y-104321142D01*
X187490881Y-104328583D01*
X187477796Y-104334772D01*
X187464167Y-104339649D01*
X187450126Y-104343166D01*
X187435808Y-104345290D01*
X187421350Y-104346000D01*
X187076350Y-104346000D01*
X187061892Y-104345290D01*
X187047574Y-104343166D01*
X187033533Y-104339649D01*
X187019904Y-104334772D01*
X187006819Y-104328583D01*
X186994403Y-104321142D01*
X186982777Y-104312519D01*
X186972052Y-104302798D01*
X186962331Y-104292073D01*
X186953708Y-104280447D01*
X186946267Y-104268031D01*
X186940078Y-104254946D01*
X186935201Y-104241317D01*
X186931684Y-104227276D01*
X186929560Y-104212958D01*
X186928850Y-104198500D01*
X186928850Y-103903500D01*
X186929560Y-103889042D01*
X186931684Y-103874724D01*
X186935201Y-103860683D01*
X186940078Y-103847054D01*
X186946267Y-103833969D01*
X186953708Y-103821553D01*
X186962331Y-103809927D01*
X186972052Y-103799202D01*
X186982777Y-103789481D01*
X186994403Y-103780858D01*
X187006819Y-103773417D01*
X187019904Y-103767228D01*
X187033533Y-103762351D01*
X187047574Y-103758834D01*
X187061892Y-103756710D01*
X187076350Y-103756000D01*
X187421350Y-103756000D01*
X187435808Y-103756710D01*
G37*
G36*
X187435808Y-104726710D02*
G01*
X187450126Y-104728834D01*
X187464167Y-104732351D01*
X187477796Y-104737228D01*
X187490881Y-104743417D01*
X187503297Y-104750858D01*
X187514923Y-104759481D01*
X187525648Y-104769202D01*
X187535369Y-104779927D01*
X187543992Y-104791553D01*
X187551433Y-104803969D01*
X187557622Y-104817054D01*
X187562499Y-104830683D01*
X187566016Y-104844724D01*
X187568140Y-104859042D01*
X187568850Y-104873500D01*
X187568850Y-105168500D01*
X187568140Y-105182958D01*
X187566016Y-105197276D01*
X187562499Y-105211317D01*
X187557622Y-105224946D01*
X187551433Y-105238031D01*
X187543992Y-105250447D01*
X187535369Y-105262073D01*
X187525648Y-105272798D01*
X187514923Y-105282519D01*
X187503297Y-105291142D01*
X187490881Y-105298583D01*
X187477796Y-105304772D01*
X187464167Y-105309649D01*
X187450126Y-105313166D01*
X187435808Y-105315290D01*
X187421350Y-105316000D01*
X187076350Y-105316000D01*
X187061892Y-105315290D01*
X187047574Y-105313166D01*
X187033533Y-105309649D01*
X187019904Y-105304772D01*
X187006819Y-105298583D01*
X186994403Y-105291142D01*
X186982777Y-105282519D01*
X186972052Y-105272798D01*
X186962331Y-105262073D01*
X186953708Y-105250447D01*
X186946267Y-105238031D01*
X186940078Y-105224946D01*
X186935201Y-105211317D01*
X186931684Y-105197276D01*
X186929560Y-105182958D01*
X186928850Y-105168500D01*
X186928850Y-104873500D01*
X186929560Y-104859042D01*
X186931684Y-104844724D01*
X186935201Y-104830683D01*
X186940078Y-104817054D01*
X186946267Y-104803969D01*
X186953708Y-104791553D01*
X186962331Y-104779927D01*
X186972052Y-104769202D01*
X186982777Y-104759481D01*
X186994403Y-104750858D01*
X187006819Y-104743417D01*
X187019904Y-104737228D01*
X187033533Y-104732351D01*
X187047574Y-104728834D01*
X187061892Y-104726710D01*
X187076350Y-104726000D01*
X187421350Y-104726000D01*
X187435808Y-104726710D01*
G37*
%TD*%
%TO.C,R8*%
G36*
X197799008Y-104731510D02*
G01*
X197813326Y-104733634D01*
X197827367Y-104737151D01*
X197840996Y-104742028D01*
X197854081Y-104748217D01*
X197866497Y-104755658D01*
X197878123Y-104764281D01*
X197888848Y-104774002D01*
X197898569Y-104784727D01*
X197907192Y-104796353D01*
X197914633Y-104808769D01*
X197920822Y-104821854D01*
X197925699Y-104835483D01*
X197929216Y-104849524D01*
X197931340Y-104863842D01*
X197932050Y-104878300D01*
X197932050Y-105173300D01*
X197931340Y-105187758D01*
X197929216Y-105202076D01*
X197925699Y-105216117D01*
X197920822Y-105229746D01*
X197914633Y-105242831D01*
X197907192Y-105255247D01*
X197898569Y-105266873D01*
X197888848Y-105277598D01*
X197878123Y-105287319D01*
X197866497Y-105295942D01*
X197854081Y-105303383D01*
X197840996Y-105309572D01*
X197827367Y-105314449D01*
X197813326Y-105317966D01*
X197799008Y-105320090D01*
X197784550Y-105320800D01*
X197439550Y-105320800D01*
X197425092Y-105320090D01*
X197410774Y-105317966D01*
X197396733Y-105314449D01*
X197383104Y-105309572D01*
X197370019Y-105303383D01*
X197357603Y-105295942D01*
X197345977Y-105287319D01*
X197335252Y-105277598D01*
X197325531Y-105266873D01*
X197316908Y-105255247D01*
X197309467Y-105242831D01*
X197303278Y-105229746D01*
X197298401Y-105216117D01*
X197294884Y-105202076D01*
X197292760Y-105187758D01*
X197292050Y-105173300D01*
X197292050Y-104878300D01*
X197292760Y-104863842D01*
X197294884Y-104849524D01*
X197298401Y-104835483D01*
X197303278Y-104821854D01*
X197309467Y-104808769D01*
X197316908Y-104796353D01*
X197325531Y-104784727D01*
X197335252Y-104774002D01*
X197345977Y-104764281D01*
X197357603Y-104755658D01*
X197370019Y-104748217D01*
X197383104Y-104742028D01*
X197396733Y-104737151D01*
X197410774Y-104733634D01*
X197425092Y-104731510D01*
X197439550Y-104730800D01*
X197784550Y-104730800D01*
X197799008Y-104731510D01*
G37*
G36*
X197799008Y-103761510D02*
G01*
X197813326Y-103763634D01*
X197827367Y-103767151D01*
X197840996Y-103772028D01*
X197854081Y-103778217D01*
X197866497Y-103785658D01*
X197878123Y-103794281D01*
X197888848Y-103804002D01*
X197898569Y-103814727D01*
X197907192Y-103826353D01*
X197914633Y-103838769D01*
X197920822Y-103851854D01*
X197925699Y-103865483D01*
X197929216Y-103879524D01*
X197931340Y-103893842D01*
X197932050Y-103908300D01*
X197932050Y-104203300D01*
X197931340Y-104217758D01*
X197929216Y-104232076D01*
X197925699Y-104246117D01*
X197920822Y-104259746D01*
X197914633Y-104272831D01*
X197907192Y-104285247D01*
X197898569Y-104296873D01*
X197888848Y-104307598D01*
X197878123Y-104317319D01*
X197866497Y-104325942D01*
X197854081Y-104333383D01*
X197840996Y-104339572D01*
X197827367Y-104344449D01*
X197813326Y-104347966D01*
X197799008Y-104350090D01*
X197784550Y-104350800D01*
X197439550Y-104350800D01*
X197425092Y-104350090D01*
X197410774Y-104347966D01*
X197396733Y-104344449D01*
X197383104Y-104339572D01*
X197370019Y-104333383D01*
X197357603Y-104325942D01*
X197345977Y-104317319D01*
X197335252Y-104307598D01*
X197325531Y-104296873D01*
X197316908Y-104285247D01*
X197309467Y-104272831D01*
X197303278Y-104259746D01*
X197298401Y-104246117D01*
X197294884Y-104232076D01*
X197292760Y-104217758D01*
X197292050Y-104203300D01*
X197292050Y-103908300D01*
X197292760Y-103893842D01*
X197294884Y-103879524D01*
X197298401Y-103865483D01*
X197303278Y-103851854D01*
X197309467Y-103838769D01*
X197316908Y-103826353D01*
X197325531Y-103814727D01*
X197335252Y-103804002D01*
X197345977Y-103794281D01*
X197357603Y-103785658D01*
X197370019Y-103778217D01*
X197383104Y-103772028D01*
X197396733Y-103767151D01*
X197410774Y-103763634D01*
X197425092Y-103761510D01*
X197439550Y-103760800D01*
X197784550Y-103760800D01*
X197799008Y-103761510D01*
G37*
%TD*%
%TO.C,R7*%
G36*
X195767008Y-104726710D02*
G01*
X195781326Y-104728834D01*
X195795367Y-104732351D01*
X195808996Y-104737228D01*
X195822081Y-104743417D01*
X195834497Y-104750858D01*
X195846123Y-104759481D01*
X195856848Y-104769202D01*
X195866569Y-104779927D01*
X195875192Y-104791553D01*
X195882633Y-104803969D01*
X195888822Y-104817054D01*
X195893699Y-104830683D01*
X195897216Y-104844724D01*
X195899340Y-104859042D01*
X195900050Y-104873500D01*
X195900050Y-105168500D01*
X195899340Y-105182958D01*
X195897216Y-105197276D01*
X195893699Y-105211317D01*
X195888822Y-105224946D01*
X195882633Y-105238031D01*
X195875192Y-105250447D01*
X195866569Y-105262073D01*
X195856848Y-105272798D01*
X195846123Y-105282519D01*
X195834497Y-105291142D01*
X195822081Y-105298583D01*
X195808996Y-105304772D01*
X195795367Y-105309649D01*
X195781326Y-105313166D01*
X195767008Y-105315290D01*
X195752550Y-105316000D01*
X195407550Y-105316000D01*
X195393092Y-105315290D01*
X195378774Y-105313166D01*
X195364733Y-105309649D01*
X195351104Y-105304772D01*
X195338019Y-105298583D01*
X195325603Y-105291142D01*
X195313977Y-105282519D01*
X195303252Y-105272798D01*
X195293531Y-105262073D01*
X195284908Y-105250447D01*
X195277467Y-105238031D01*
X195271278Y-105224946D01*
X195266401Y-105211317D01*
X195262884Y-105197276D01*
X195260760Y-105182958D01*
X195260050Y-105168500D01*
X195260050Y-104873500D01*
X195260760Y-104859042D01*
X195262884Y-104844724D01*
X195266401Y-104830683D01*
X195271278Y-104817054D01*
X195277467Y-104803969D01*
X195284908Y-104791553D01*
X195293531Y-104779927D01*
X195303252Y-104769202D01*
X195313977Y-104759481D01*
X195325603Y-104750858D01*
X195338019Y-104743417D01*
X195351104Y-104737228D01*
X195364733Y-104732351D01*
X195378774Y-104728834D01*
X195393092Y-104726710D01*
X195407550Y-104726000D01*
X195752550Y-104726000D01*
X195767008Y-104726710D01*
G37*
G36*
X195767008Y-103756710D02*
G01*
X195781326Y-103758834D01*
X195795367Y-103762351D01*
X195808996Y-103767228D01*
X195822081Y-103773417D01*
X195834497Y-103780858D01*
X195846123Y-103789481D01*
X195856848Y-103799202D01*
X195866569Y-103809927D01*
X195875192Y-103821553D01*
X195882633Y-103833969D01*
X195888822Y-103847054D01*
X195893699Y-103860683D01*
X195897216Y-103874724D01*
X195899340Y-103889042D01*
X195900050Y-103903500D01*
X195900050Y-104198500D01*
X195899340Y-104212958D01*
X195897216Y-104227276D01*
X195893699Y-104241317D01*
X195888822Y-104254946D01*
X195882633Y-104268031D01*
X195875192Y-104280447D01*
X195866569Y-104292073D01*
X195856848Y-104302798D01*
X195846123Y-104312519D01*
X195834497Y-104321142D01*
X195822081Y-104328583D01*
X195808996Y-104334772D01*
X195795367Y-104339649D01*
X195781326Y-104343166D01*
X195767008Y-104345290D01*
X195752550Y-104346000D01*
X195407550Y-104346000D01*
X195393092Y-104345290D01*
X195378774Y-104343166D01*
X195364733Y-104339649D01*
X195351104Y-104334772D01*
X195338019Y-104328583D01*
X195325603Y-104321142D01*
X195313977Y-104312519D01*
X195303252Y-104302798D01*
X195293531Y-104292073D01*
X195284908Y-104280447D01*
X195277467Y-104268031D01*
X195271278Y-104254946D01*
X195266401Y-104241317D01*
X195262884Y-104227276D01*
X195260760Y-104212958D01*
X195260050Y-104198500D01*
X195260050Y-103903500D01*
X195260760Y-103889042D01*
X195262884Y-103874724D01*
X195266401Y-103860683D01*
X195271278Y-103847054D01*
X195277467Y-103833969D01*
X195284908Y-103821553D01*
X195293531Y-103809927D01*
X195303252Y-103799202D01*
X195313977Y-103789481D01*
X195325603Y-103780858D01*
X195338019Y-103773417D01*
X195351104Y-103767228D01*
X195364733Y-103762351D01*
X195378774Y-103758834D01*
X195393092Y-103756710D01*
X195407550Y-103756000D01*
X195752550Y-103756000D01*
X195767008Y-103756710D01*
G37*
%TD*%
%TO.C,R6*%
G36*
X200110358Y-96726910D02*
G01*
X200124676Y-96729034D01*
X200138717Y-96732551D01*
X200152346Y-96737428D01*
X200165431Y-96743617D01*
X200177847Y-96751058D01*
X200189473Y-96759681D01*
X200200198Y-96769402D01*
X200209919Y-96780127D01*
X200218542Y-96791753D01*
X200225983Y-96804169D01*
X200232172Y-96817254D01*
X200237049Y-96830883D01*
X200240566Y-96844924D01*
X200242690Y-96859242D01*
X200243400Y-96873700D01*
X200243400Y-97168700D01*
X200242690Y-97183158D01*
X200240566Y-97197476D01*
X200237049Y-97211517D01*
X200232172Y-97225146D01*
X200225983Y-97238231D01*
X200218542Y-97250647D01*
X200209919Y-97262273D01*
X200200198Y-97272998D01*
X200189473Y-97282719D01*
X200177847Y-97291342D01*
X200165431Y-97298783D01*
X200152346Y-97304972D01*
X200138717Y-97309849D01*
X200124676Y-97313366D01*
X200110358Y-97315490D01*
X200095900Y-97316200D01*
X199750900Y-97316200D01*
X199736442Y-97315490D01*
X199722124Y-97313366D01*
X199708083Y-97309849D01*
X199694454Y-97304972D01*
X199681369Y-97298783D01*
X199668953Y-97291342D01*
X199657327Y-97282719D01*
X199646602Y-97272998D01*
X199636881Y-97262273D01*
X199628258Y-97250647D01*
X199620817Y-97238231D01*
X199614628Y-97225146D01*
X199609751Y-97211517D01*
X199606234Y-97197476D01*
X199604110Y-97183158D01*
X199603400Y-97168700D01*
X199603400Y-96873700D01*
X199604110Y-96859242D01*
X199606234Y-96844924D01*
X199609751Y-96830883D01*
X199614628Y-96817254D01*
X199620817Y-96804169D01*
X199628258Y-96791753D01*
X199636881Y-96780127D01*
X199646602Y-96769402D01*
X199657327Y-96759681D01*
X199668953Y-96751058D01*
X199681369Y-96743617D01*
X199694454Y-96737428D01*
X199708083Y-96732551D01*
X199722124Y-96729034D01*
X199736442Y-96726910D01*
X199750900Y-96726200D01*
X200095900Y-96726200D01*
X200110358Y-96726910D01*
G37*
G36*
X200110358Y-97696910D02*
G01*
X200124676Y-97699034D01*
X200138717Y-97702551D01*
X200152346Y-97707428D01*
X200165431Y-97713617D01*
X200177847Y-97721058D01*
X200189473Y-97729681D01*
X200200198Y-97739402D01*
X200209919Y-97750127D01*
X200218542Y-97761753D01*
X200225983Y-97774169D01*
X200232172Y-97787254D01*
X200237049Y-97800883D01*
X200240566Y-97814924D01*
X200242690Y-97829242D01*
X200243400Y-97843700D01*
X200243400Y-98138700D01*
X200242690Y-98153158D01*
X200240566Y-98167476D01*
X200237049Y-98181517D01*
X200232172Y-98195146D01*
X200225983Y-98208231D01*
X200218542Y-98220647D01*
X200209919Y-98232273D01*
X200200198Y-98242998D01*
X200189473Y-98252719D01*
X200177847Y-98261342D01*
X200165431Y-98268783D01*
X200152346Y-98274972D01*
X200138717Y-98279849D01*
X200124676Y-98283366D01*
X200110358Y-98285490D01*
X200095900Y-98286200D01*
X199750900Y-98286200D01*
X199736442Y-98285490D01*
X199722124Y-98283366D01*
X199708083Y-98279849D01*
X199694454Y-98274972D01*
X199681369Y-98268783D01*
X199668953Y-98261342D01*
X199657327Y-98252719D01*
X199646602Y-98242998D01*
X199636881Y-98232273D01*
X199628258Y-98220647D01*
X199620817Y-98208231D01*
X199614628Y-98195146D01*
X199609751Y-98181517D01*
X199606234Y-98167476D01*
X199604110Y-98153158D01*
X199603400Y-98138700D01*
X199603400Y-97843700D01*
X199604110Y-97829242D01*
X199606234Y-97814924D01*
X199609751Y-97800883D01*
X199614628Y-97787254D01*
X199620817Y-97774169D01*
X199628258Y-97761753D01*
X199636881Y-97750127D01*
X199646602Y-97739402D01*
X199657327Y-97729681D01*
X199668953Y-97721058D01*
X199681369Y-97713617D01*
X199694454Y-97707428D01*
X199708083Y-97702551D01*
X199722124Y-97699034D01*
X199736442Y-97696910D01*
X199750900Y-97696200D01*
X200095900Y-97696200D01*
X200110358Y-97696910D01*
G37*
%TD*%
%TO.C,R5*%
G36*
X200110358Y-90829310D02*
G01*
X200124676Y-90831434D01*
X200138717Y-90834951D01*
X200152346Y-90839828D01*
X200165431Y-90846017D01*
X200177847Y-90853458D01*
X200189473Y-90862081D01*
X200200198Y-90871802D01*
X200209919Y-90882527D01*
X200218542Y-90894153D01*
X200225983Y-90906569D01*
X200232172Y-90919654D01*
X200237049Y-90933283D01*
X200240566Y-90947324D01*
X200242690Y-90961642D01*
X200243400Y-90976100D01*
X200243400Y-91271100D01*
X200242690Y-91285558D01*
X200240566Y-91299876D01*
X200237049Y-91313917D01*
X200232172Y-91327546D01*
X200225983Y-91340631D01*
X200218542Y-91353047D01*
X200209919Y-91364673D01*
X200200198Y-91375398D01*
X200189473Y-91385119D01*
X200177847Y-91393742D01*
X200165431Y-91401183D01*
X200152346Y-91407372D01*
X200138717Y-91412249D01*
X200124676Y-91415766D01*
X200110358Y-91417890D01*
X200095900Y-91418600D01*
X199750900Y-91418600D01*
X199736442Y-91417890D01*
X199722124Y-91415766D01*
X199708083Y-91412249D01*
X199694454Y-91407372D01*
X199681369Y-91401183D01*
X199668953Y-91393742D01*
X199657327Y-91385119D01*
X199646602Y-91375398D01*
X199636881Y-91364673D01*
X199628258Y-91353047D01*
X199620817Y-91340631D01*
X199614628Y-91327546D01*
X199609751Y-91313917D01*
X199606234Y-91299876D01*
X199604110Y-91285558D01*
X199603400Y-91271100D01*
X199603400Y-90976100D01*
X199604110Y-90961642D01*
X199606234Y-90947324D01*
X199609751Y-90933283D01*
X199614628Y-90919654D01*
X199620817Y-90906569D01*
X199628258Y-90894153D01*
X199636881Y-90882527D01*
X199646602Y-90871802D01*
X199657327Y-90862081D01*
X199668953Y-90853458D01*
X199681369Y-90846017D01*
X199694454Y-90839828D01*
X199708083Y-90834951D01*
X199722124Y-90831434D01*
X199736442Y-90829310D01*
X199750900Y-90828600D01*
X200095900Y-90828600D01*
X200110358Y-90829310D01*
G37*
G36*
X200110358Y-91799310D02*
G01*
X200124676Y-91801434D01*
X200138717Y-91804951D01*
X200152346Y-91809828D01*
X200165431Y-91816017D01*
X200177847Y-91823458D01*
X200189473Y-91832081D01*
X200200198Y-91841802D01*
X200209919Y-91852527D01*
X200218542Y-91864153D01*
X200225983Y-91876569D01*
X200232172Y-91889654D01*
X200237049Y-91903283D01*
X200240566Y-91917324D01*
X200242690Y-91931642D01*
X200243400Y-91946100D01*
X200243400Y-92241100D01*
X200242690Y-92255558D01*
X200240566Y-92269876D01*
X200237049Y-92283917D01*
X200232172Y-92297546D01*
X200225983Y-92310631D01*
X200218542Y-92323047D01*
X200209919Y-92334673D01*
X200200198Y-92345398D01*
X200189473Y-92355119D01*
X200177847Y-92363742D01*
X200165431Y-92371183D01*
X200152346Y-92377372D01*
X200138717Y-92382249D01*
X200124676Y-92385766D01*
X200110358Y-92387890D01*
X200095900Y-92388600D01*
X199750900Y-92388600D01*
X199736442Y-92387890D01*
X199722124Y-92385766D01*
X199708083Y-92382249D01*
X199694454Y-92377372D01*
X199681369Y-92371183D01*
X199668953Y-92363742D01*
X199657327Y-92355119D01*
X199646602Y-92345398D01*
X199636881Y-92334673D01*
X199628258Y-92323047D01*
X199620817Y-92310631D01*
X199614628Y-92297546D01*
X199609751Y-92283917D01*
X199606234Y-92269876D01*
X199604110Y-92255558D01*
X199603400Y-92241100D01*
X199603400Y-91946100D01*
X199604110Y-91931642D01*
X199606234Y-91917324D01*
X199609751Y-91903283D01*
X199614628Y-91889654D01*
X199620817Y-91876569D01*
X199628258Y-91864153D01*
X199636881Y-91852527D01*
X199646602Y-91841802D01*
X199657327Y-91832081D01*
X199668953Y-91823458D01*
X199681369Y-91816017D01*
X199694454Y-91809828D01*
X199708083Y-91804951D01*
X199722124Y-91801434D01*
X199736442Y-91799310D01*
X199750900Y-91798600D01*
X200095900Y-91798600D01*
X200110358Y-91799310D01*
G37*
%TD*%
%TO.C,R4*%
G36*
X204834758Y-96722110D02*
G01*
X204849076Y-96724234D01*
X204863117Y-96727751D01*
X204876746Y-96732628D01*
X204889831Y-96738817D01*
X204902247Y-96746258D01*
X204913873Y-96754881D01*
X204924598Y-96764602D01*
X204934319Y-96775327D01*
X204942942Y-96786953D01*
X204950383Y-96799369D01*
X204956572Y-96812454D01*
X204961449Y-96826083D01*
X204964966Y-96840124D01*
X204967090Y-96854442D01*
X204967800Y-96868900D01*
X204967800Y-97163900D01*
X204967090Y-97178358D01*
X204964966Y-97192676D01*
X204961449Y-97206717D01*
X204956572Y-97220346D01*
X204950383Y-97233431D01*
X204942942Y-97245847D01*
X204934319Y-97257473D01*
X204924598Y-97268198D01*
X204913873Y-97277919D01*
X204902247Y-97286542D01*
X204889831Y-97293983D01*
X204876746Y-97300172D01*
X204863117Y-97305049D01*
X204849076Y-97308566D01*
X204834758Y-97310690D01*
X204820300Y-97311400D01*
X204475300Y-97311400D01*
X204460842Y-97310690D01*
X204446524Y-97308566D01*
X204432483Y-97305049D01*
X204418854Y-97300172D01*
X204405769Y-97293983D01*
X204393353Y-97286542D01*
X204381727Y-97277919D01*
X204371002Y-97268198D01*
X204361281Y-97257473D01*
X204352658Y-97245847D01*
X204345217Y-97233431D01*
X204339028Y-97220346D01*
X204334151Y-97206717D01*
X204330634Y-97192676D01*
X204328510Y-97178358D01*
X204327800Y-97163900D01*
X204327800Y-96868900D01*
X204328510Y-96854442D01*
X204330634Y-96840124D01*
X204334151Y-96826083D01*
X204339028Y-96812454D01*
X204345217Y-96799369D01*
X204352658Y-96786953D01*
X204361281Y-96775327D01*
X204371002Y-96764602D01*
X204381727Y-96754881D01*
X204393353Y-96746258D01*
X204405769Y-96738817D01*
X204418854Y-96732628D01*
X204432483Y-96727751D01*
X204446524Y-96724234D01*
X204460842Y-96722110D01*
X204475300Y-96721400D01*
X204820300Y-96721400D01*
X204834758Y-96722110D01*
G37*
G36*
X204834758Y-97692110D02*
G01*
X204849076Y-97694234D01*
X204863117Y-97697751D01*
X204876746Y-97702628D01*
X204889831Y-97708817D01*
X204902247Y-97716258D01*
X204913873Y-97724881D01*
X204924598Y-97734602D01*
X204934319Y-97745327D01*
X204942942Y-97756953D01*
X204950383Y-97769369D01*
X204956572Y-97782454D01*
X204961449Y-97796083D01*
X204964966Y-97810124D01*
X204967090Y-97824442D01*
X204967800Y-97838900D01*
X204967800Y-98133900D01*
X204967090Y-98148358D01*
X204964966Y-98162676D01*
X204961449Y-98176717D01*
X204956572Y-98190346D01*
X204950383Y-98203431D01*
X204942942Y-98215847D01*
X204934319Y-98227473D01*
X204924598Y-98238198D01*
X204913873Y-98247919D01*
X204902247Y-98256542D01*
X204889831Y-98263983D01*
X204876746Y-98270172D01*
X204863117Y-98275049D01*
X204849076Y-98278566D01*
X204834758Y-98280690D01*
X204820300Y-98281400D01*
X204475300Y-98281400D01*
X204460842Y-98280690D01*
X204446524Y-98278566D01*
X204432483Y-98275049D01*
X204418854Y-98270172D01*
X204405769Y-98263983D01*
X204393353Y-98256542D01*
X204381727Y-98247919D01*
X204371002Y-98238198D01*
X204361281Y-98227473D01*
X204352658Y-98215847D01*
X204345217Y-98203431D01*
X204339028Y-98190346D01*
X204334151Y-98176717D01*
X204330634Y-98162676D01*
X204328510Y-98148358D01*
X204327800Y-98133900D01*
X204327800Y-97838900D01*
X204328510Y-97824442D01*
X204330634Y-97810124D01*
X204334151Y-97796083D01*
X204339028Y-97782454D01*
X204345217Y-97769369D01*
X204352658Y-97756953D01*
X204361281Y-97745327D01*
X204371002Y-97734602D01*
X204381727Y-97724881D01*
X204393353Y-97716258D01*
X204405769Y-97708817D01*
X204418854Y-97702628D01*
X204432483Y-97697751D01*
X204446524Y-97694234D01*
X204460842Y-97692110D01*
X204475300Y-97691400D01*
X204820300Y-97691400D01*
X204834758Y-97692110D01*
G37*
%TD*%
%TO.C,R3*%
G36*
X200110358Y-94791710D02*
G01*
X200124676Y-94793834D01*
X200138717Y-94797351D01*
X200152346Y-94802228D01*
X200165431Y-94808417D01*
X200177847Y-94815858D01*
X200189473Y-94824481D01*
X200200198Y-94834202D01*
X200209919Y-94844927D01*
X200218542Y-94856553D01*
X200225983Y-94868969D01*
X200232172Y-94882054D01*
X200237049Y-94895683D01*
X200240566Y-94909724D01*
X200242690Y-94924042D01*
X200243400Y-94938500D01*
X200243400Y-95233500D01*
X200242690Y-95247958D01*
X200240566Y-95262276D01*
X200237049Y-95276317D01*
X200232172Y-95289946D01*
X200225983Y-95303031D01*
X200218542Y-95315447D01*
X200209919Y-95327073D01*
X200200198Y-95337798D01*
X200189473Y-95347519D01*
X200177847Y-95356142D01*
X200165431Y-95363583D01*
X200152346Y-95369772D01*
X200138717Y-95374649D01*
X200124676Y-95378166D01*
X200110358Y-95380290D01*
X200095900Y-95381000D01*
X199750900Y-95381000D01*
X199736442Y-95380290D01*
X199722124Y-95378166D01*
X199708083Y-95374649D01*
X199694454Y-95369772D01*
X199681369Y-95363583D01*
X199668953Y-95356142D01*
X199657327Y-95347519D01*
X199646602Y-95337798D01*
X199636881Y-95327073D01*
X199628258Y-95315447D01*
X199620817Y-95303031D01*
X199614628Y-95289946D01*
X199609751Y-95276317D01*
X199606234Y-95262276D01*
X199604110Y-95247958D01*
X199603400Y-95233500D01*
X199603400Y-94938500D01*
X199604110Y-94924042D01*
X199606234Y-94909724D01*
X199609751Y-94895683D01*
X199614628Y-94882054D01*
X199620817Y-94868969D01*
X199628258Y-94856553D01*
X199636881Y-94844927D01*
X199646602Y-94834202D01*
X199657327Y-94824481D01*
X199668953Y-94815858D01*
X199681369Y-94808417D01*
X199694454Y-94802228D01*
X199708083Y-94797351D01*
X199722124Y-94793834D01*
X199736442Y-94791710D01*
X199750900Y-94791000D01*
X200095900Y-94791000D01*
X200110358Y-94791710D01*
G37*
G36*
X200110358Y-95761710D02*
G01*
X200124676Y-95763834D01*
X200138717Y-95767351D01*
X200152346Y-95772228D01*
X200165431Y-95778417D01*
X200177847Y-95785858D01*
X200189473Y-95794481D01*
X200200198Y-95804202D01*
X200209919Y-95814927D01*
X200218542Y-95826553D01*
X200225983Y-95838969D01*
X200232172Y-95852054D01*
X200237049Y-95865683D01*
X200240566Y-95879724D01*
X200242690Y-95894042D01*
X200243400Y-95908500D01*
X200243400Y-96203500D01*
X200242690Y-96217958D01*
X200240566Y-96232276D01*
X200237049Y-96246317D01*
X200232172Y-96259946D01*
X200225983Y-96273031D01*
X200218542Y-96285447D01*
X200209919Y-96297073D01*
X200200198Y-96307798D01*
X200189473Y-96317519D01*
X200177847Y-96326142D01*
X200165431Y-96333583D01*
X200152346Y-96339772D01*
X200138717Y-96344649D01*
X200124676Y-96348166D01*
X200110358Y-96350290D01*
X200095900Y-96351000D01*
X199750900Y-96351000D01*
X199736442Y-96350290D01*
X199722124Y-96348166D01*
X199708083Y-96344649D01*
X199694454Y-96339772D01*
X199681369Y-96333583D01*
X199668953Y-96326142D01*
X199657327Y-96317519D01*
X199646602Y-96307798D01*
X199636881Y-96297073D01*
X199628258Y-96285447D01*
X199620817Y-96273031D01*
X199614628Y-96259946D01*
X199609751Y-96246317D01*
X199606234Y-96232276D01*
X199604110Y-96217958D01*
X199603400Y-96203500D01*
X199603400Y-95908500D01*
X199604110Y-95894042D01*
X199606234Y-95879724D01*
X199609751Y-95865683D01*
X199614628Y-95852054D01*
X199620817Y-95838969D01*
X199628258Y-95826553D01*
X199636881Y-95814927D01*
X199646602Y-95804202D01*
X199657327Y-95794481D01*
X199668953Y-95785858D01*
X199681369Y-95778417D01*
X199694454Y-95772228D01*
X199708083Y-95767351D01*
X199722124Y-95763834D01*
X199736442Y-95761710D01*
X199750900Y-95761000D01*
X200095900Y-95761000D01*
X200110358Y-95761710D01*
G37*
%TD*%
%TO.C,R2*%
G36*
X200110358Y-88898910D02*
G01*
X200124676Y-88901034D01*
X200138717Y-88904551D01*
X200152346Y-88909428D01*
X200165431Y-88915617D01*
X200177847Y-88923058D01*
X200189473Y-88931681D01*
X200200198Y-88941402D01*
X200209919Y-88952127D01*
X200218542Y-88963753D01*
X200225983Y-88976169D01*
X200232172Y-88989254D01*
X200237049Y-89002883D01*
X200240566Y-89016924D01*
X200242690Y-89031242D01*
X200243400Y-89045700D01*
X200243400Y-89340700D01*
X200242690Y-89355158D01*
X200240566Y-89369476D01*
X200237049Y-89383517D01*
X200232172Y-89397146D01*
X200225983Y-89410231D01*
X200218542Y-89422647D01*
X200209919Y-89434273D01*
X200200198Y-89444998D01*
X200189473Y-89454719D01*
X200177847Y-89463342D01*
X200165431Y-89470783D01*
X200152346Y-89476972D01*
X200138717Y-89481849D01*
X200124676Y-89485366D01*
X200110358Y-89487490D01*
X200095900Y-89488200D01*
X199750900Y-89488200D01*
X199736442Y-89487490D01*
X199722124Y-89485366D01*
X199708083Y-89481849D01*
X199694454Y-89476972D01*
X199681369Y-89470783D01*
X199668953Y-89463342D01*
X199657327Y-89454719D01*
X199646602Y-89444998D01*
X199636881Y-89434273D01*
X199628258Y-89422647D01*
X199620817Y-89410231D01*
X199614628Y-89397146D01*
X199609751Y-89383517D01*
X199606234Y-89369476D01*
X199604110Y-89355158D01*
X199603400Y-89340700D01*
X199603400Y-89045700D01*
X199604110Y-89031242D01*
X199606234Y-89016924D01*
X199609751Y-89002883D01*
X199614628Y-88989254D01*
X199620817Y-88976169D01*
X199628258Y-88963753D01*
X199636881Y-88952127D01*
X199646602Y-88941402D01*
X199657327Y-88931681D01*
X199668953Y-88923058D01*
X199681369Y-88915617D01*
X199694454Y-88909428D01*
X199708083Y-88904551D01*
X199722124Y-88901034D01*
X199736442Y-88898910D01*
X199750900Y-88898200D01*
X200095900Y-88898200D01*
X200110358Y-88898910D01*
G37*
G36*
X200110358Y-89868910D02*
G01*
X200124676Y-89871034D01*
X200138717Y-89874551D01*
X200152346Y-89879428D01*
X200165431Y-89885617D01*
X200177847Y-89893058D01*
X200189473Y-89901681D01*
X200200198Y-89911402D01*
X200209919Y-89922127D01*
X200218542Y-89933753D01*
X200225983Y-89946169D01*
X200232172Y-89959254D01*
X200237049Y-89972883D01*
X200240566Y-89986924D01*
X200242690Y-90001242D01*
X200243400Y-90015700D01*
X200243400Y-90310700D01*
X200242690Y-90325158D01*
X200240566Y-90339476D01*
X200237049Y-90353517D01*
X200232172Y-90367146D01*
X200225983Y-90380231D01*
X200218542Y-90392647D01*
X200209919Y-90404273D01*
X200200198Y-90414998D01*
X200189473Y-90424719D01*
X200177847Y-90433342D01*
X200165431Y-90440783D01*
X200152346Y-90446972D01*
X200138717Y-90451849D01*
X200124676Y-90455366D01*
X200110358Y-90457490D01*
X200095900Y-90458200D01*
X199750900Y-90458200D01*
X199736442Y-90457490D01*
X199722124Y-90455366D01*
X199708083Y-90451849D01*
X199694454Y-90446972D01*
X199681369Y-90440783D01*
X199668953Y-90433342D01*
X199657327Y-90424719D01*
X199646602Y-90414998D01*
X199636881Y-90404273D01*
X199628258Y-90392647D01*
X199620817Y-90380231D01*
X199614628Y-90367146D01*
X199609751Y-90353517D01*
X199606234Y-90339476D01*
X199604110Y-90325158D01*
X199603400Y-90310700D01*
X199603400Y-90015700D01*
X199604110Y-90001242D01*
X199606234Y-89986924D01*
X199609751Y-89972883D01*
X199614628Y-89959254D01*
X199620817Y-89946169D01*
X199628258Y-89933753D01*
X199636881Y-89922127D01*
X199646602Y-89911402D01*
X199657327Y-89901681D01*
X199668953Y-89893058D01*
X199681369Y-89885617D01*
X199694454Y-89879428D01*
X199708083Y-89874551D01*
X199722124Y-89871034D01*
X199736442Y-89868910D01*
X199750900Y-89868200D01*
X200095900Y-89868200D01*
X200110358Y-89868910D01*
G37*
%TD*%
%TO.C,R1*%
G36*
X204834758Y-94791710D02*
G01*
X204849076Y-94793834D01*
X204863117Y-94797351D01*
X204876746Y-94802228D01*
X204889831Y-94808417D01*
X204902247Y-94815858D01*
X204913873Y-94824481D01*
X204924598Y-94834202D01*
X204934319Y-94844927D01*
X204942942Y-94856553D01*
X204950383Y-94868969D01*
X204956572Y-94882054D01*
X204961449Y-94895683D01*
X204964966Y-94909724D01*
X204967090Y-94924042D01*
X204967800Y-94938500D01*
X204967800Y-95233500D01*
X204967090Y-95247958D01*
X204964966Y-95262276D01*
X204961449Y-95276317D01*
X204956572Y-95289946D01*
X204950383Y-95303031D01*
X204942942Y-95315447D01*
X204934319Y-95327073D01*
X204924598Y-95337798D01*
X204913873Y-95347519D01*
X204902247Y-95356142D01*
X204889831Y-95363583D01*
X204876746Y-95369772D01*
X204863117Y-95374649D01*
X204849076Y-95378166D01*
X204834758Y-95380290D01*
X204820300Y-95381000D01*
X204475300Y-95381000D01*
X204460842Y-95380290D01*
X204446524Y-95378166D01*
X204432483Y-95374649D01*
X204418854Y-95369772D01*
X204405769Y-95363583D01*
X204393353Y-95356142D01*
X204381727Y-95347519D01*
X204371002Y-95337798D01*
X204361281Y-95327073D01*
X204352658Y-95315447D01*
X204345217Y-95303031D01*
X204339028Y-95289946D01*
X204334151Y-95276317D01*
X204330634Y-95262276D01*
X204328510Y-95247958D01*
X204327800Y-95233500D01*
X204327800Y-94938500D01*
X204328510Y-94924042D01*
X204330634Y-94909724D01*
X204334151Y-94895683D01*
X204339028Y-94882054D01*
X204345217Y-94868969D01*
X204352658Y-94856553D01*
X204361281Y-94844927D01*
X204371002Y-94834202D01*
X204381727Y-94824481D01*
X204393353Y-94815858D01*
X204405769Y-94808417D01*
X204418854Y-94802228D01*
X204432483Y-94797351D01*
X204446524Y-94793834D01*
X204460842Y-94791710D01*
X204475300Y-94791000D01*
X204820300Y-94791000D01*
X204834758Y-94791710D01*
G37*
G36*
X204834758Y-95761710D02*
G01*
X204849076Y-95763834D01*
X204863117Y-95767351D01*
X204876746Y-95772228D01*
X204889831Y-95778417D01*
X204902247Y-95785858D01*
X204913873Y-95794481D01*
X204924598Y-95804202D01*
X204934319Y-95814927D01*
X204942942Y-95826553D01*
X204950383Y-95838969D01*
X204956572Y-95852054D01*
X204961449Y-95865683D01*
X204964966Y-95879724D01*
X204967090Y-95894042D01*
X204967800Y-95908500D01*
X204967800Y-96203500D01*
X204967090Y-96217958D01*
X204964966Y-96232276D01*
X204961449Y-96246317D01*
X204956572Y-96259946D01*
X204950383Y-96273031D01*
X204942942Y-96285447D01*
X204934319Y-96297073D01*
X204924598Y-96307798D01*
X204913873Y-96317519D01*
X204902247Y-96326142D01*
X204889831Y-96333583D01*
X204876746Y-96339772D01*
X204863117Y-96344649D01*
X204849076Y-96348166D01*
X204834758Y-96350290D01*
X204820300Y-96351000D01*
X204475300Y-96351000D01*
X204460842Y-96350290D01*
X204446524Y-96348166D01*
X204432483Y-96344649D01*
X204418854Y-96339772D01*
X204405769Y-96333583D01*
X204393353Y-96326142D01*
X204381727Y-96317519D01*
X204371002Y-96307798D01*
X204361281Y-96297073D01*
X204352658Y-96285447D01*
X204345217Y-96273031D01*
X204339028Y-96259946D01*
X204334151Y-96246317D01*
X204330634Y-96232276D01*
X204328510Y-96217958D01*
X204327800Y-96203500D01*
X204327800Y-95908500D01*
X204328510Y-95894042D01*
X204330634Y-95879724D01*
X204334151Y-95865683D01*
X204339028Y-95852054D01*
X204345217Y-95838969D01*
X204352658Y-95826553D01*
X204361281Y-95814927D01*
X204371002Y-95804202D01*
X204381727Y-95794481D01*
X204393353Y-95785858D01*
X204405769Y-95778417D01*
X204418854Y-95772228D01*
X204432483Y-95767351D01*
X204446524Y-95763834D01*
X204460842Y-95761710D01*
X204475300Y-95761000D01*
X204820300Y-95761000D01*
X204834758Y-95761710D01*
G37*
%TD*%
%TO.C,D1*%
G36*
X203534958Y-101680310D02*
G01*
X203549276Y-101682434D01*
X203563317Y-101685951D01*
X203576946Y-101690828D01*
X203590031Y-101697017D01*
X203602447Y-101704458D01*
X203614073Y-101713081D01*
X203624798Y-101722802D01*
X203634519Y-101733527D01*
X203643142Y-101745153D01*
X203650583Y-101757569D01*
X203656772Y-101770654D01*
X203661649Y-101784283D01*
X203665166Y-101798324D01*
X203667290Y-101812642D01*
X203668000Y-101827100D01*
X203668000Y-102172100D01*
X203667290Y-102186558D01*
X203665166Y-102200876D01*
X203661649Y-102214917D01*
X203656772Y-102228546D01*
X203650583Y-102241631D01*
X203643142Y-102254047D01*
X203634519Y-102265673D01*
X203624798Y-102276398D01*
X203614073Y-102286119D01*
X203602447Y-102294742D01*
X203590031Y-102302183D01*
X203576946Y-102308372D01*
X203563317Y-102313249D01*
X203549276Y-102316766D01*
X203534958Y-102318890D01*
X203520500Y-102319600D01*
X203225500Y-102319600D01*
X203211042Y-102318890D01*
X203196724Y-102316766D01*
X203182683Y-102313249D01*
X203169054Y-102308372D01*
X203155969Y-102302183D01*
X203143553Y-102294742D01*
X203131927Y-102286119D01*
X203121202Y-102276398D01*
X203111481Y-102265673D01*
X203102858Y-102254047D01*
X203095417Y-102241631D01*
X203089228Y-102228546D01*
X203084351Y-102214917D01*
X203080834Y-102200876D01*
X203078710Y-102186558D01*
X203078000Y-102172100D01*
X203078000Y-101827100D01*
X203078710Y-101812642D01*
X203080834Y-101798324D01*
X203084351Y-101784283D01*
X203089228Y-101770654D01*
X203095417Y-101757569D01*
X203102858Y-101745153D01*
X203111481Y-101733527D01*
X203121202Y-101722802D01*
X203131927Y-101713081D01*
X203143553Y-101704458D01*
X203155969Y-101697017D01*
X203169054Y-101690828D01*
X203182683Y-101685951D01*
X203196724Y-101682434D01*
X203211042Y-101680310D01*
X203225500Y-101679600D01*
X203520500Y-101679600D01*
X203534958Y-101680310D01*
G37*
G36*
X204504958Y-101680310D02*
G01*
X204519276Y-101682434D01*
X204533317Y-101685951D01*
X204546946Y-101690828D01*
X204560031Y-101697017D01*
X204572447Y-101704458D01*
X204584073Y-101713081D01*
X204594798Y-101722802D01*
X204604519Y-101733527D01*
X204613142Y-101745153D01*
X204620583Y-101757569D01*
X204626772Y-101770654D01*
X204631649Y-101784283D01*
X204635166Y-101798324D01*
X204637290Y-101812642D01*
X204638000Y-101827100D01*
X204638000Y-102172100D01*
X204637290Y-102186558D01*
X204635166Y-102200876D01*
X204631649Y-102214917D01*
X204626772Y-102228546D01*
X204620583Y-102241631D01*
X204613142Y-102254047D01*
X204604519Y-102265673D01*
X204594798Y-102276398D01*
X204584073Y-102286119D01*
X204572447Y-102294742D01*
X204560031Y-102302183D01*
X204546946Y-102308372D01*
X204533317Y-102313249D01*
X204519276Y-102316766D01*
X204504958Y-102318890D01*
X204490500Y-102319600D01*
X204195500Y-102319600D01*
X204181042Y-102318890D01*
X204166724Y-102316766D01*
X204152683Y-102313249D01*
X204139054Y-102308372D01*
X204125969Y-102302183D01*
X204113553Y-102294742D01*
X204101927Y-102286119D01*
X204091202Y-102276398D01*
X204081481Y-102265673D01*
X204072858Y-102254047D01*
X204065417Y-102241631D01*
X204059228Y-102228546D01*
X204054351Y-102214917D01*
X204050834Y-102200876D01*
X204048710Y-102186558D01*
X204048000Y-102172100D01*
X204048000Y-101827100D01*
X204048710Y-101812642D01*
X204050834Y-101798324D01*
X204054351Y-101784283D01*
X204059228Y-101770654D01*
X204065417Y-101757569D01*
X204072858Y-101745153D01*
X204081481Y-101733527D01*
X204091202Y-101722802D01*
X204101927Y-101713081D01*
X204113553Y-101704458D01*
X204125969Y-101697017D01*
X204139054Y-101690828D01*
X204152683Y-101685951D01*
X204166724Y-101682434D01*
X204181042Y-101680310D01*
X204195500Y-101679600D01*
X204490500Y-101679600D01*
X204504958Y-101680310D01*
G37*
%TD*%
%TO.C,C22*%
G36*
X181424358Y-89961910D02*
G01*
X181438676Y-89964034D01*
X181452717Y-89967551D01*
X181466346Y-89972428D01*
X181479431Y-89978617D01*
X181491847Y-89986058D01*
X181503473Y-89994681D01*
X181514198Y-90004402D01*
X181523919Y-90015127D01*
X181532542Y-90026753D01*
X181539983Y-90039169D01*
X181546172Y-90052254D01*
X181551049Y-90065883D01*
X181554566Y-90079924D01*
X181556690Y-90094242D01*
X181557400Y-90108700D01*
X181557400Y-90453700D01*
X181556690Y-90468158D01*
X181554566Y-90482476D01*
X181551049Y-90496517D01*
X181546172Y-90510146D01*
X181539983Y-90523231D01*
X181532542Y-90535647D01*
X181523919Y-90547273D01*
X181514198Y-90557998D01*
X181503473Y-90567719D01*
X181491847Y-90576342D01*
X181479431Y-90583783D01*
X181466346Y-90589972D01*
X181452717Y-90594849D01*
X181438676Y-90598366D01*
X181424358Y-90600490D01*
X181409900Y-90601200D01*
X181114900Y-90601200D01*
X181100442Y-90600490D01*
X181086124Y-90598366D01*
X181072083Y-90594849D01*
X181058454Y-90589972D01*
X181045369Y-90583783D01*
X181032953Y-90576342D01*
X181021327Y-90567719D01*
X181010602Y-90557998D01*
X181000881Y-90547273D01*
X180992258Y-90535647D01*
X180984817Y-90523231D01*
X180978628Y-90510146D01*
X180973751Y-90496517D01*
X180970234Y-90482476D01*
X180968110Y-90468158D01*
X180967400Y-90453700D01*
X180967400Y-90108700D01*
X180968110Y-90094242D01*
X180970234Y-90079924D01*
X180973751Y-90065883D01*
X180978628Y-90052254D01*
X180984817Y-90039169D01*
X180992258Y-90026753D01*
X181000881Y-90015127D01*
X181010602Y-90004402D01*
X181021327Y-89994681D01*
X181032953Y-89986058D01*
X181045369Y-89978617D01*
X181058454Y-89972428D01*
X181072083Y-89967551D01*
X181086124Y-89964034D01*
X181100442Y-89961910D01*
X181114900Y-89961200D01*
X181409900Y-89961200D01*
X181424358Y-89961910D01*
G37*
G36*
X180454358Y-89961910D02*
G01*
X180468676Y-89964034D01*
X180482717Y-89967551D01*
X180496346Y-89972428D01*
X180509431Y-89978617D01*
X180521847Y-89986058D01*
X180533473Y-89994681D01*
X180544198Y-90004402D01*
X180553919Y-90015127D01*
X180562542Y-90026753D01*
X180569983Y-90039169D01*
X180576172Y-90052254D01*
X180581049Y-90065883D01*
X180584566Y-90079924D01*
X180586690Y-90094242D01*
X180587400Y-90108700D01*
X180587400Y-90453700D01*
X180586690Y-90468158D01*
X180584566Y-90482476D01*
X180581049Y-90496517D01*
X180576172Y-90510146D01*
X180569983Y-90523231D01*
X180562542Y-90535647D01*
X180553919Y-90547273D01*
X180544198Y-90557998D01*
X180533473Y-90567719D01*
X180521847Y-90576342D01*
X180509431Y-90583783D01*
X180496346Y-90589972D01*
X180482717Y-90594849D01*
X180468676Y-90598366D01*
X180454358Y-90600490D01*
X180439900Y-90601200D01*
X180144900Y-90601200D01*
X180130442Y-90600490D01*
X180116124Y-90598366D01*
X180102083Y-90594849D01*
X180088454Y-90589972D01*
X180075369Y-90583783D01*
X180062953Y-90576342D01*
X180051327Y-90567719D01*
X180040602Y-90557998D01*
X180030881Y-90547273D01*
X180022258Y-90535647D01*
X180014817Y-90523231D01*
X180008628Y-90510146D01*
X180003751Y-90496517D01*
X180000234Y-90482476D01*
X179998110Y-90468158D01*
X179997400Y-90453700D01*
X179997400Y-90108700D01*
X179998110Y-90094242D01*
X180000234Y-90079924D01*
X180003751Y-90065883D01*
X180008628Y-90052254D01*
X180014817Y-90039169D01*
X180022258Y-90026753D01*
X180030881Y-90015127D01*
X180040602Y-90004402D01*
X180051327Y-89994681D01*
X180062953Y-89986058D01*
X180075369Y-89978617D01*
X180088454Y-89972428D01*
X180102083Y-89967551D01*
X180116124Y-89964034D01*
X180130442Y-89961910D01*
X180144900Y-89961200D01*
X180439900Y-89961200D01*
X180454358Y-89961910D01*
G37*
%TD*%
%TO.C,C21*%
G36*
X181424358Y-90977910D02*
G01*
X181438676Y-90980034D01*
X181452717Y-90983551D01*
X181466346Y-90988428D01*
X181479431Y-90994617D01*
X181491847Y-91002058D01*
X181503473Y-91010681D01*
X181514198Y-91020402D01*
X181523919Y-91031127D01*
X181532542Y-91042753D01*
X181539983Y-91055169D01*
X181546172Y-91068254D01*
X181551049Y-91081883D01*
X181554566Y-91095924D01*
X181556690Y-91110242D01*
X181557400Y-91124700D01*
X181557400Y-91469700D01*
X181556690Y-91484158D01*
X181554566Y-91498476D01*
X181551049Y-91512517D01*
X181546172Y-91526146D01*
X181539983Y-91539231D01*
X181532542Y-91551647D01*
X181523919Y-91563273D01*
X181514198Y-91573998D01*
X181503473Y-91583719D01*
X181491847Y-91592342D01*
X181479431Y-91599783D01*
X181466346Y-91605972D01*
X181452717Y-91610849D01*
X181438676Y-91614366D01*
X181424358Y-91616490D01*
X181409900Y-91617200D01*
X181114900Y-91617200D01*
X181100442Y-91616490D01*
X181086124Y-91614366D01*
X181072083Y-91610849D01*
X181058454Y-91605972D01*
X181045369Y-91599783D01*
X181032953Y-91592342D01*
X181021327Y-91583719D01*
X181010602Y-91573998D01*
X181000881Y-91563273D01*
X180992258Y-91551647D01*
X180984817Y-91539231D01*
X180978628Y-91526146D01*
X180973751Y-91512517D01*
X180970234Y-91498476D01*
X180968110Y-91484158D01*
X180967400Y-91469700D01*
X180967400Y-91124700D01*
X180968110Y-91110242D01*
X180970234Y-91095924D01*
X180973751Y-91081883D01*
X180978628Y-91068254D01*
X180984817Y-91055169D01*
X180992258Y-91042753D01*
X181000881Y-91031127D01*
X181010602Y-91020402D01*
X181021327Y-91010681D01*
X181032953Y-91002058D01*
X181045369Y-90994617D01*
X181058454Y-90988428D01*
X181072083Y-90983551D01*
X181086124Y-90980034D01*
X181100442Y-90977910D01*
X181114900Y-90977200D01*
X181409900Y-90977200D01*
X181424358Y-90977910D01*
G37*
G36*
X180454358Y-90977910D02*
G01*
X180468676Y-90980034D01*
X180482717Y-90983551D01*
X180496346Y-90988428D01*
X180509431Y-90994617D01*
X180521847Y-91002058D01*
X180533473Y-91010681D01*
X180544198Y-91020402D01*
X180553919Y-91031127D01*
X180562542Y-91042753D01*
X180569983Y-91055169D01*
X180576172Y-91068254D01*
X180581049Y-91081883D01*
X180584566Y-91095924D01*
X180586690Y-91110242D01*
X180587400Y-91124700D01*
X180587400Y-91469700D01*
X180586690Y-91484158D01*
X180584566Y-91498476D01*
X180581049Y-91512517D01*
X180576172Y-91526146D01*
X180569983Y-91539231D01*
X180562542Y-91551647D01*
X180553919Y-91563273D01*
X180544198Y-91573998D01*
X180533473Y-91583719D01*
X180521847Y-91592342D01*
X180509431Y-91599783D01*
X180496346Y-91605972D01*
X180482717Y-91610849D01*
X180468676Y-91614366D01*
X180454358Y-91616490D01*
X180439900Y-91617200D01*
X180144900Y-91617200D01*
X180130442Y-91616490D01*
X180116124Y-91614366D01*
X180102083Y-91610849D01*
X180088454Y-91605972D01*
X180075369Y-91599783D01*
X180062953Y-91592342D01*
X180051327Y-91583719D01*
X180040602Y-91573998D01*
X180030881Y-91563273D01*
X180022258Y-91551647D01*
X180014817Y-91539231D01*
X180008628Y-91526146D01*
X180003751Y-91512517D01*
X180000234Y-91498476D01*
X179998110Y-91484158D01*
X179997400Y-91469700D01*
X179997400Y-91124700D01*
X179998110Y-91110242D01*
X180000234Y-91095924D01*
X180003751Y-91081883D01*
X180008628Y-91068254D01*
X180014817Y-91055169D01*
X180022258Y-91042753D01*
X180030881Y-91031127D01*
X180040602Y-91020402D01*
X180051327Y-91010681D01*
X180062953Y-91002058D01*
X180075369Y-90994617D01*
X180088454Y-90988428D01*
X180102083Y-90983551D01*
X180116124Y-90980034D01*
X180130442Y-90977910D01*
X180144900Y-90977200D01*
X180439900Y-90977200D01*
X180454358Y-90977910D01*
G37*
%TD*%
%TO.C,C20*%
G36*
X190280558Y-87869110D02*
G01*
X190294876Y-87871234D01*
X190308917Y-87874751D01*
X190322546Y-87879628D01*
X190335631Y-87885817D01*
X190348047Y-87893258D01*
X190359673Y-87901881D01*
X190370398Y-87911602D01*
X190380119Y-87922327D01*
X190388742Y-87933953D01*
X190396183Y-87946369D01*
X190402372Y-87959454D01*
X190407249Y-87973083D01*
X190410766Y-87987124D01*
X190412890Y-88001442D01*
X190413600Y-88015900D01*
X190413600Y-88310900D01*
X190412890Y-88325358D01*
X190410766Y-88339676D01*
X190407249Y-88353717D01*
X190402372Y-88367346D01*
X190396183Y-88380431D01*
X190388742Y-88392847D01*
X190380119Y-88404473D01*
X190370398Y-88415198D01*
X190359673Y-88424919D01*
X190348047Y-88433542D01*
X190335631Y-88440983D01*
X190322546Y-88447172D01*
X190308917Y-88452049D01*
X190294876Y-88455566D01*
X190280558Y-88457690D01*
X190266100Y-88458400D01*
X189921100Y-88458400D01*
X189906642Y-88457690D01*
X189892324Y-88455566D01*
X189878283Y-88452049D01*
X189864654Y-88447172D01*
X189851569Y-88440983D01*
X189839153Y-88433542D01*
X189827527Y-88424919D01*
X189816802Y-88415198D01*
X189807081Y-88404473D01*
X189798458Y-88392847D01*
X189791017Y-88380431D01*
X189784828Y-88367346D01*
X189779951Y-88353717D01*
X189776434Y-88339676D01*
X189774310Y-88325358D01*
X189773600Y-88310900D01*
X189773600Y-88015900D01*
X189774310Y-88001442D01*
X189776434Y-87987124D01*
X189779951Y-87973083D01*
X189784828Y-87959454D01*
X189791017Y-87946369D01*
X189798458Y-87933953D01*
X189807081Y-87922327D01*
X189816802Y-87911602D01*
X189827527Y-87901881D01*
X189839153Y-87893258D01*
X189851569Y-87885817D01*
X189864654Y-87879628D01*
X189878283Y-87874751D01*
X189892324Y-87871234D01*
X189906642Y-87869110D01*
X189921100Y-87868400D01*
X190266100Y-87868400D01*
X190280558Y-87869110D01*
G37*
G36*
X190280558Y-86899110D02*
G01*
X190294876Y-86901234D01*
X190308917Y-86904751D01*
X190322546Y-86909628D01*
X190335631Y-86915817D01*
X190348047Y-86923258D01*
X190359673Y-86931881D01*
X190370398Y-86941602D01*
X190380119Y-86952327D01*
X190388742Y-86963953D01*
X190396183Y-86976369D01*
X190402372Y-86989454D01*
X190407249Y-87003083D01*
X190410766Y-87017124D01*
X190412890Y-87031442D01*
X190413600Y-87045900D01*
X190413600Y-87340900D01*
X190412890Y-87355358D01*
X190410766Y-87369676D01*
X190407249Y-87383717D01*
X190402372Y-87397346D01*
X190396183Y-87410431D01*
X190388742Y-87422847D01*
X190380119Y-87434473D01*
X190370398Y-87445198D01*
X190359673Y-87454919D01*
X190348047Y-87463542D01*
X190335631Y-87470983D01*
X190322546Y-87477172D01*
X190308917Y-87482049D01*
X190294876Y-87485566D01*
X190280558Y-87487690D01*
X190266100Y-87488400D01*
X189921100Y-87488400D01*
X189906642Y-87487690D01*
X189892324Y-87485566D01*
X189878283Y-87482049D01*
X189864654Y-87477172D01*
X189851569Y-87470983D01*
X189839153Y-87463542D01*
X189827527Y-87454919D01*
X189816802Y-87445198D01*
X189807081Y-87434473D01*
X189798458Y-87422847D01*
X189791017Y-87410431D01*
X189784828Y-87397346D01*
X189779951Y-87383717D01*
X189776434Y-87369676D01*
X189774310Y-87355358D01*
X189773600Y-87340900D01*
X189773600Y-87045900D01*
X189774310Y-87031442D01*
X189776434Y-87017124D01*
X189779951Y-87003083D01*
X189784828Y-86989454D01*
X189791017Y-86976369D01*
X189798458Y-86963953D01*
X189807081Y-86952327D01*
X189816802Y-86941602D01*
X189827527Y-86931881D01*
X189839153Y-86923258D01*
X189851569Y-86915817D01*
X189864654Y-86909628D01*
X189878283Y-86904751D01*
X189892324Y-86901234D01*
X189906642Y-86899110D01*
X189921100Y-86898400D01*
X190266100Y-86898400D01*
X190280558Y-86899110D01*
G37*
%TD*%
%TO.C,C19*%
G36*
X191296558Y-86899110D02*
G01*
X191310876Y-86901234D01*
X191324917Y-86904751D01*
X191338546Y-86909628D01*
X191351631Y-86915817D01*
X191364047Y-86923258D01*
X191375673Y-86931881D01*
X191386398Y-86941602D01*
X191396119Y-86952327D01*
X191404742Y-86963953D01*
X191412183Y-86976369D01*
X191418372Y-86989454D01*
X191423249Y-87003083D01*
X191426766Y-87017124D01*
X191428890Y-87031442D01*
X191429600Y-87045900D01*
X191429600Y-87340900D01*
X191428890Y-87355358D01*
X191426766Y-87369676D01*
X191423249Y-87383717D01*
X191418372Y-87397346D01*
X191412183Y-87410431D01*
X191404742Y-87422847D01*
X191396119Y-87434473D01*
X191386398Y-87445198D01*
X191375673Y-87454919D01*
X191364047Y-87463542D01*
X191351631Y-87470983D01*
X191338546Y-87477172D01*
X191324917Y-87482049D01*
X191310876Y-87485566D01*
X191296558Y-87487690D01*
X191282100Y-87488400D01*
X190937100Y-87488400D01*
X190922642Y-87487690D01*
X190908324Y-87485566D01*
X190894283Y-87482049D01*
X190880654Y-87477172D01*
X190867569Y-87470983D01*
X190855153Y-87463542D01*
X190843527Y-87454919D01*
X190832802Y-87445198D01*
X190823081Y-87434473D01*
X190814458Y-87422847D01*
X190807017Y-87410431D01*
X190800828Y-87397346D01*
X190795951Y-87383717D01*
X190792434Y-87369676D01*
X190790310Y-87355358D01*
X190789600Y-87340900D01*
X190789600Y-87045900D01*
X190790310Y-87031442D01*
X190792434Y-87017124D01*
X190795951Y-87003083D01*
X190800828Y-86989454D01*
X190807017Y-86976369D01*
X190814458Y-86963953D01*
X190823081Y-86952327D01*
X190832802Y-86941602D01*
X190843527Y-86931881D01*
X190855153Y-86923258D01*
X190867569Y-86915817D01*
X190880654Y-86909628D01*
X190894283Y-86904751D01*
X190908324Y-86901234D01*
X190922642Y-86899110D01*
X190937100Y-86898400D01*
X191282100Y-86898400D01*
X191296558Y-86899110D01*
G37*
G36*
X191296558Y-87869110D02*
G01*
X191310876Y-87871234D01*
X191324917Y-87874751D01*
X191338546Y-87879628D01*
X191351631Y-87885817D01*
X191364047Y-87893258D01*
X191375673Y-87901881D01*
X191386398Y-87911602D01*
X191396119Y-87922327D01*
X191404742Y-87933953D01*
X191412183Y-87946369D01*
X191418372Y-87959454D01*
X191423249Y-87973083D01*
X191426766Y-87987124D01*
X191428890Y-88001442D01*
X191429600Y-88015900D01*
X191429600Y-88310900D01*
X191428890Y-88325358D01*
X191426766Y-88339676D01*
X191423249Y-88353717D01*
X191418372Y-88367346D01*
X191412183Y-88380431D01*
X191404742Y-88392847D01*
X191396119Y-88404473D01*
X191386398Y-88415198D01*
X191375673Y-88424919D01*
X191364047Y-88433542D01*
X191351631Y-88440983D01*
X191338546Y-88447172D01*
X191324917Y-88452049D01*
X191310876Y-88455566D01*
X191296558Y-88457690D01*
X191282100Y-88458400D01*
X190937100Y-88458400D01*
X190922642Y-88457690D01*
X190908324Y-88455566D01*
X190894283Y-88452049D01*
X190880654Y-88447172D01*
X190867569Y-88440983D01*
X190855153Y-88433542D01*
X190843527Y-88424919D01*
X190832802Y-88415198D01*
X190823081Y-88404473D01*
X190814458Y-88392847D01*
X190807017Y-88380431D01*
X190800828Y-88367346D01*
X190795951Y-88353717D01*
X190792434Y-88339676D01*
X190790310Y-88325358D01*
X190789600Y-88310900D01*
X190789600Y-88015900D01*
X190790310Y-88001442D01*
X190792434Y-87987124D01*
X190795951Y-87973083D01*
X190800828Y-87959454D01*
X190807017Y-87946369D01*
X190814458Y-87933953D01*
X190823081Y-87922327D01*
X190832802Y-87911602D01*
X190843527Y-87901881D01*
X190855153Y-87893258D01*
X190867569Y-87885817D01*
X190880654Y-87879628D01*
X190894283Y-87874751D01*
X190908324Y-87871234D01*
X190922642Y-87869110D01*
X190937100Y-87868400D01*
X191282100Y-87868400D01*
X191296558Y-87869110D01*
G37*
%TD*%
%TO.C,C18*%
G36*
X188553358Y-103744110D02*
G01*
X188567676Y-103746234D01*
X188581717Y-103749751D01*
X188595346Y-103754628D01*
X188608431Y-103760817D01*
X188620847Y-103768258D01*
X188632473Y-103776881D01*
X188643198Y-103786602D01*
X188652919Y-103797327D01*
X188661542Y-103808953D01*
X188668983Y-103821369D01*
X188675172Y-103834454D01*
X188680049Y-103848083D01*
X188683566Y-103862124D01*
X188685690Y-103876442D01*
X188686400Y-103890900D01*
X188686400Y-104185900D01*
X188685690Y-104200358D01*
X188683566Y-104214676D01*
X188680049Y-104228717D01*
X188675172Y-104242346D01*
X188668983Y-104255431D01*
X188661542Y-104267847D01*
X188652919Y-104279473D01*
X188643198Y-104290198D01*
X188632473Y-104299919D01*
X188620847Y-104308542D01*
X188608431Y-104315983D01*
X188595346Y-104322172D01*
X188581717Y-104327049D01*
X188567676Y-104330566D01*
X188553358Y-104332690D01*
X188538900Y-104333400D01*
X188193900Y-104333400D01*
X188179442Y-104332690D01*
X188165124Y-104330566D01*
X188151083Y-104327049D01*
X188137454Y-104322172D01*
X188124369Y-104315983D01*
X188111953Y-104308542D01*
X188100327Y-104299919D01*
X188089602Y-104290198D01*
X188079881Y-104279473D01*
X188071258Y-104267847D01*
X188063817Y-104255431D01*
X188057628Y-104242346D01*
X188052751Y-104228717D01*
X188049234Y-104214676D01*
X188047110Y-104200358D01*
X188046400Y-104185900D01*
X188046400Y-103890900D01*
X188047110Y-103876442D01*
X188049234Y-103862124D01*
X188052751Y-103848083D01*
X188057628Y-103834454D01*
X188063817Y-103821369D01*
X188071258Y-103808953D01*
X188079881Y-103797327D01*
X188089602Y-103786602D01*
X188100327Y-103776881D01*
X188111953Y-103768258D01*
X188124369Y-103760817D01*
X188137454Y-103754628D01*
X188151083Y-103749751D01*
X188165124Y-103746234D01*
X188179442Y-103744110D01*
X188193900Y-103743400D01*
X188538900Y-103743400D01*
X188553358Y-103744110D01*
G37*
G36*
X188553358Y-104714110D02*
G01*
X188567676Y-104716234D01*
X188581717Y-104719751D01*
X188595346Y-104724628D01*
X188608431Y-104730817D01*
X188620847Y-104738258D01*
X188632473Y-104746881D01*
X188643198Y-104756602D01*
X188652919Y-104767327D01*
X188661542Y-104778953D01*
X188668983Y-104791369D01*
X188675172Y-104804454D01*
X188680049Y-104818083D01*
X188683566Y-104832124D01*
X188685690Y-104846442D01*
X188686400Y-104860900D01*
X188686400Y-105155900D01*
X188685690Y-105170358D01*
X188683566Y-105184676D01*
X188680049Y-105198717D01*
X188675172Y-105212346D01*
X188668983Y-105225431D01*
X188661542Y-105237847D01*
X188652919Y-105249473D01*
X188643198Y-105260198D01*
X188632473Y-105269919D01*
X188620847Y-105278542D01*
X188608431Y-105285983D01*
X188595346Y-105292172D01*
X188581717Y-105297049D01*
X188567676Y-105300566D01*
X188553358Y-105302690D01*
X188538900Y-105303400D01*
X188193900Y-105303400D01*
X188179442Y-105302690D01*
X188165124Y-105300566D01*
X188151083Y-105297049D01*
X188137454Y-105292172D01*
X188124369Y-105285983D01*
X188111953Y-105278542D01*
X188100327Y-105269919D01*
X188089602Y-105260198D01*
X188079881Y-105249473D01*
X188071258Y-105237847D01*
X188063817Y-105225431D01*
X188057628Y-105212346D01*
X188052751Y-105198717D01*
X188049234Y-105184676D01*
X188047110Y-105170358D01*
X188046400Y-105155900D01*
X188046400Y-104860900D01*
X188047110Y-104846442D01*
X188049234Y-104832124D01*
X188052751Y-104818083D01*
X188057628Y-104804454D01*
X188063817Y-104791369D01*
X188071258Y-104778953D01*
X188079881Y-104767327D01*
X188089602Y-104756602D01*
X188100327Y-104746881D01*
X188111953Y-104738258D01*
X188124369Y-104730817D01*
X188137454Y-104724628D01*
X188151083Y-104719751D01*
X188165124Y-104716234D01*
X188179442Y-104714110D01*
X188193900Y-104713400D01*
X188538900Y-104713400D01*
X188553358Y-104714110D01*
G37*
%TD*%
%TO.C,C17*%
G36*
X194344558Y-87869110D02*
G01*
X194358876Y-87871234D01*
X194372917Y-87874751D01*
X194386546Y-87879628D01*
X194399631Y-87885817D01*
X194412047Y-87893258D01*
X194423673Y-87901881D01*
X194434398Y-87911602D01*
X194444119Y-87922327D01*
X194452742Y-87933953D01*
X194460183Y-87946369D01*
X194466372Y-87959454D01*
X194471249Y-87973083D01*
X194474766Y-87987124D01*
X194476890Y-88001442D01*
X194477600Y-88015900D01*
X194477600Y-88310900D01*
X194476890Y-88325358D01*
X194474766Y-88339676D01*
X194471249Y-88353717D01*
X194466372Y-88367346D01*
X194460183Y-88380431D01*
X194452742Y-88392847D01*
X194444119Y-88404473D01*
X194434398Y-88415198D01*
X194423673Y-88424919D01*
X194412047Y-88433542D01*
X194399631Y-88440983D01*
X194386546Y-88447172D01*
X194372917Y-88452049D01*
X194358876Y-88455566D01*
X194344558Y-88457690D01*
X194330100Y-88458400D01*
X193985100Y-88458400D01*
X193970642Y-88457690D01*
X193956324Y-88455566D01*
X193942283Y-88452049D01*
X193928654Y-88447172D01*
X193915569Y-88440983D01*
X193903153Y-88433542D01*
X193891527Y-88424919D01*
X193880802Y-88415198D01*
X193871081Y-88404473D01*
X193862458Y-88392847D01*
X193855017Y-88380431D01*
X193848828Y-88367346D01*
X193843951Y-88353717D01*
X193840434Y-88339676D01*
X193838310Y-88325358D01*
X193837600Y-88310900D01*
X193837600Y-88015900D01*
X193838310Y-88001442D01*
X193840434Y-87987124D01*
X193843951Y-87973083D01*
X193848828Y-87959454D01*
X193855017Y-87946369D01*
X193862458Y-87933953D01*
X193871081Y-87922327D01*
X193880802Y-87911602D01*
X193891527Y-87901881D01*
X193903153Y-87893258D01*
X193915569Y-87885817D01*
X193928654Y-87879628D01*
X193942283Y-87874751D01*
X193956324Y-87871234D01*
X193970642Y-87869110D01*
X193985100Y-87868400D01*
X194330100Y-87868400D01*
X194344558Y-87869110D01*
G37*
G36*
X194344558Y-86899110D02*
G01*
X194358876Y-86901234D01*
X194372917Y-86904751D01*
X194386546Y-86909628D01*
X194399631Y-86915817D01*
X194412047Y-86923258D01*
X194423673Y-86931881D01*
X194434398Y-86941602D01*
X194444119Y-86952327D01*
X194452742Y-86963953D01*
X194460183Y-86976369D01*
X194466372Y-86989454D01*
X194471249Y-87003083D01*
X194474766Y-87017124D01*
X194476890Y-87031442D01*
X194477600Y-87045900D01*
X194477600Y-87340900D01*
X194476890Y-87355358D01*
X194474766Y-87369676D01*
X194471249Y-87383717D01*
X194466372Y-87397346D01*
X194460183Y-87410431D01*
X194452742Y-87422847D01*
X194444119Y-87434473D01*
X194434398Y-87445198D01*
X194423673Y-87454919D01*
X194412047Y-87463542D01*
X194399631Y-87470983D01*
X194386546Y-87477172D01*
X194372917Y-87482049D01*
X194358876Y-87485566D01*
X194344558Y-87487690D01*
X194330100Y-87488400D01*
X193985100Y-87488400D01*
X193970642Y-87487690D01*
X193956324Y-87485566D01*
X193942283Y-87482049D01*
X193928654Y-87477172D01*
X193915569Y-87470983D01*
X193903153Y-87463542D01*
X193891527Y-87454919D01*
X193880802Y-87445198D01*
X193871081Y-87434473D01*
X193862458Y-87422847D01*
X193855017Y-87410431D01*
X193848828Y-87397346D01*
X193843951Y-87383717D01*
X193840434Y-87369676D01*
X193838310Y-87355358D01*
X193837600Y-87340900D01*
X193837600Y-87045900D01*
X193838310Y-87031442D01*
X193840434Y-87017124D01*
X193843951Y-87003083D01*
X193848828Y-86989454D01*
X193855017Y-86976369D01*
X193862458Y-86963953D01*
X193871081Y-86952327D01*
X193880802Y-86941602D01*
X193891527Y-86931881D01*
X193903153Y-86923258D01*
X193915569Y-86915817D01*
X193928654Y-86909628D01*
X193942283Y-86904751D01*
X193956324Y-86901234D01*
X193970642Y-86899110D01*
X193985100Y-86898400D01*
X194330100Y-86898400D01*
X194344558Y-86899110D01*
G37*
%TD*%
%TO.C,C16*%
G36*
X195385958Y-87869110D02*
G01*
X195400276Y-87871234D01*
X195414317Y-87874751D01*
X195427946Y-87879628D01*
X195441031Y-87885817D01*
X195453447Y-87893258D01*
X195465073Y-87901881D01*
X195475798Y-87911602D01*
X195485519Y-87922327D01*
X195494142Y-87933953D01*
X195501583Y-87946369D01*
X195507772Y-87959454D01*
X195512649Y-87973083D01*
X195516166Y-87987124D01*
X195518290Y-88001442D01*
X195519000Y-88015900D01*
X195519000Y-88310900D01*
X195518290Y-88325358D01*
X195516166Y-88339676D01*
X195512649Y-88353717D01*
X195507772Y-88367346D01*
X195501583Y-88380431D01*
X195494142Y-88392847D01*
X195485519Y-88404473D01*
X195475798Y-88415198D01*
X195465073Y-88424919D01*
X195453447Y-88433542D01*
X195441031Y-88440983D01*
X195427946Y-88447172D01*
X195414317Y-88452049D01*
X195400276Y-88455566D01*
X195385958Y-88457690D01*
X195371500Y-88458400D01*
X195026500Y-88458400D01*
X195012042Y-88457690D01*
X194997724Y-88455566D01*
X194983683Y-88452049D01*
X194970054Y-88447172D01*
X194956969Y-88440983D01*
X194944553Y-88433542D01*
X194932927Y-88424919D01*
X194922202Y-88415198D01*
X194912481Y-88404473D01*
X194903858Y-88392847D01*
X194896417Y-88380431D01*
X194890228Y-88367346D01*
X194885351Y-88353717D01*
X194881834Y-88339676D01*
X194879710Y-88325358D01*
X194879000Y-88310900D01*
X194879000Y-88015900D01*
X194879710Y-88001442D01*
X194881834Y-87987124D01*
X194885351Y-87973083D01*
X194890228Y-87959454D01*
X194896417Y-87946369D01*
X194903858Y-87933953D01*
X194912481Y-87922327D01*
X194922202Y-87911602D01*
X194932927Y-87901881D01*
X194944553Y-87893258D01*
X194956969Y-87885817D01*
X194970054Y-87879628D01*
X194983683Y-87874751D01*
X194997724Y-87871234D01*
X195012042Y-87869110D01*
X195026500Y-87868400D01*
X195371500Y-87868400D01*
X195385958Y-87869110D01*
G37*
G36*
X195385958Y-86899110D02*
G01*
X195400276Y-86901234D01*
X195414317Y-86904751D01*
X195427946Y-86909628D01*
X195441031Y-86915817D01*
X195453447Y-86923258D01*
X195465073Y-86931881D01*
X195475798Y-86941602D01*
X195485519Y-86952327D01*
X195494142Y-86963953D01*
X195501583Y-86976369D01*
X195507772Y-86989454D01*
X195512649Y-87003083D01*
X195516166Y-87017124D01*
X195518290Y-87031442D01*
X195519000Y-87045900D01*
X195519000Y-87340900D01*
X195518290Y-87355358D01*
X195516166Y-87369676D01*
X195512649Y-87383717D01*
X195507772Y-87397346D01*
X195501583Y-87410431D01*
X195494142Y-87422847D01*
X195485519Y-87434473D01*
X195475798Y-87445198D01*
X195465073Y-87454919D01*
X195453447Y-87463542D01*
X195441031Y-87470983D01*
X195427946Y-87477172D01*
X195414317Y-87482049D01*
X195400276Y-87485566D01*
X195385958Y-87487690D01*
X195371500Y-87488400D01*
X195026500Y-87488400D01*
X195012042Y-87487690D01*
X194997724Y-87485566D01*
X194983683Y-87482049D01*
X194970054Y-87477172D01*
X194956969Y-87470983D01*
X194944553Y-87463542D01*
X194932927Y-87454919D01*
X194922202Y-87445198D01*
X194912481Y-87434473D01*
X194903858Y-87422847D01*
X194896417Y-87410431D01*
X194890228Y-87397346D01*
X194885351Y-87383717D01*
X194881834Y-87369676D01*
X194879710Y-87355358D01*
X194879000Y-87340900D01*
X194879000Y-87045900D01*
X194879710Y-87031442D01*
X194881834Y-87017124D01*
X194885351Y-87003083D01*
X194890228Y-86989454D01*
X194896417Y-86976369D01*
X194903858Y-86963953D01*
X194912481Y-86952327D01*
X194922202Y-86941602D01*
X194932927Y-86931881D01*
X194944553Y-86923258D01*
X194956969Y-86915817D01*
X194970054Y-86909628D01*
X194983683Y-86904751D01*
X194997724Y-86901234D01*
X195012042Y-86899110D01*
X195026500Y-86898400D01*
X195371500Y-86898400D01*
X195385958Y-86899110D01*
G37*
%TD*%
%TO.C,C15*%
G36*
X193735008Y-104731510D02*
G01*
X193749326Y-104733634D01*
X193763367Y-104737151D01*
X193776996Y-104742028D01*
X193790081Y-104748217D01*
X193802497Y-104755658D01*
X193814123Y-104764281D01*
X193824848Y-104774002D01*
X193834569Y-104784727D01*
X193843192Y-104796353D01*
X193850633Y-104808769D01*
X193856822Y-104821854D01*
X193861699Y-104835483D01*
X193865216Y-104849524D01*
X193867340Y-104863842D01*
X193868050Y-104878300D01*
X193868050Y-105173300D01*
X193867340Y-105187758D01*
X193865216Y-105202076D01*
X193861699Y-105216117D01*
X193856822Y-105229746D01*
X193850633Y-105242831D01*
X193843192Y-105255247D01*
X193834569Y-105266873D01*
X193824848Y-105277598D01*
X193814123Y-105287319D01*
X193802497Y-105295942D01*
X193790081Y-105303383D01*
X193776996Y-105309572D01*
X193763367Y-105314449D01*
X193749326Y-105317966D01*
X193735008Y-105320090D01*
X193720550Y-105320800D01*
X193375550Y-105320800D01*
X193361092Y-105320090D01*
X193346774Y-105317966D01*
X193332733Y-105314449D01*
X193319104Y-105309572D01*
X193306019Y-105303383D01*
X193293603Y-105295942D01*
X193281977Y-105287319D01*
X193271252Y-105277598D01*
X193261531Y-105266873D01*
X193252908Y-105255247D01*
X193245467Y-105242831D01*
X193239278Y-105229746D01*
X193234401Y-105216117D01*
X193230884Y-105202076D01*
X193228760Y-105187758D01*
X193228050Y-105173300D01*
X193228050Y-104878300D01*
X193228760Y-104863842D01*
X193230884Y-104849524D01*
X193234401Y-104835483D01*
X193239278Y-104821854D01*
X193245467Y-104808769D01*
X193252908Y-104796353D01*
X193261531Y-104784727D01*
X193271252Y-104774002D01*
X193281977Y-104764281D01*
X193293603Y-104755658D01*
X193306019Y-104748217D01*
X193319104Y-104742028D01*
X193332733Y-104737151D01*
X193346774Y-104733634D01*
X193361092Y-104731510D01*
X193375550Y-104730800D01*
X193720550Y-104730800D01*
X193735008Y-104731510D01*
G37*
G36*
X193735008Y-103761510D02*
G01*
X193749326Y-103763634D01*
X193763367Y-103767151D01*
X193776996Y-103772028D01*
X193790081Y-103778217D01*
X193802497Y-103785658D01*
X193814123Y-103794281D01*
X193824848Y-103804002D01*
X193834569Y-103814727D01*
X193843192Y-103826353D01*
X193850633Y-103838769D01*
X193856822Y-103851854D01*
X193861699Y-103865483D01*
X193865216Y-103879524D01*
X193867340Y-103893842D01*
X193868050Y-103908300D01*
X193868050Y-104203300D01*
X193867340Y-104217758D01*
X193865216Y-104232076D01*
X193861699Y-104246117D01*
X193856822Y-104259746D01*
X193850633Y-104272831D01*
X193843192Y-104285247D01*
X193834569Y-104296873D01*
X193824848Y-104307598D01*
X193814123Y-104317319D01*
X193802497Y-104325942D01*
X193790081Y-104333383D01*
X193776996Y-104339572D01*
X193763367Y-104344449D01*
X193749326Y-104347966D01*
X193735008Y-104350090D01*
X193720550Y-104350800D01*
X193375550Y-104350800D01*
X193361092Y-104350090D01*
X193346774Y-104347966D01*
X193332733Y-104344449D01*
X193319104Y-104339572D01*
X193306019Y-104333383D01*
X193293603Y-104325942D01*
X193281977Y-104317319D01*
X193271252Y-104307598D01*
X193261531Y-104296873D01*
X193252908Y-104285247D01*
X193245467Y-104272831D01*
X193239278Y-104259746D01*
X193234401Y-104246117D01*
X193230884Y-104232076D01*
X193228760Y-104217758D01*
X193228050Y-104203300D01*
X193228050Y-103908300D01*
X193228760Y-103893842D01*
X193230884Y-103879524D01*
X193234401Y-103865483D01*
X193239278Y-103851854D01*
X193245467Y-103838769D01*
X193252908Y-103826353D01*
X193261531Y-103814727D01*
X193271252Y-103804002D01*
X193281977Y-103794281D01*
X193293603Y-103785658D01*
X193306019Y-103778217D01*
X193319104Y-103772028D01*
X193332733Y-103767151D01*
X193346774Y-103763634D01*
X193361092Y-103761510D01*
X193375550Y-103760800D01*
X193720550Y-103760800D01*
X193735008Y-103761510D01*
G37*
%TD*%
%TO.C,C14*%
G36*
X196401958Y-86899110D02*
G01*
X196416276Y-86901234D01*
X196430317Y-86904751D01*
X196443946Y-86909628D01*
X196457031Y-86915817D01*
X196469447Y-86923258D01*
X196481073Y-86931881D01*
X196491798Y-86941602D01*
X196501519Y-86952327D01*
X196510142Y-86963953D01*
X196517583Y-86976369D01*
X196523772Y-86989454D01*
X196528649Y-87003083D01*
X196532166Y-87017124D01*
X196534290Y-87031442D01*
X196535000Y-87045900D01*
X196535000Y-87340900D01*
X196534290Y-87355358D01*
X196532166Y-87369676D01*
X196528649Y-87383717D01*
X196523772Y-87397346D01*
X196517583Y-87410431D01*
X196510142Y-87422847D01*
X196501519Y-87434473D01*
X196491798Y-87445198D01*
X196481073Y-87454919D01*
X196469447Y-87463542D01*
X196457031Y-87470983D01*
X196443946Y-87477172D01*
X196430317Y-87482049D01*
X196416276Y-87485566D01*
X196401958Y-87487690D01*
X196387500Y-87488400D01*
X196042500Y-87488400D01*
X196028042Y-87487690D01*
X196013724Y-87485566D01*
X195999683Y-87482049D01*
X195986054Y-87477172D01*
X195972969Y-87470983D01*
X195960553Y-87463542D01*
X195948927Y-87454919D01*
X195938202Y-87445198D01*
X195928481Y-87434473D01*
X195919858Y-87422847D01*
X195912417Y-87410431D01*
X195906228Y-87397346D01*
X195901351Y-87383717D01*
X195897834Y-87369676D01*
X195895710Y-87355358D01*
X195895000Y-87340900D01*
X195895000Y-87045900D01*
X195895710Y-87031442D01*
X195897834Y-87017124D01*
X195901351Y-87003083D01*
X195906228Y-86989454D01*
X195912417Y-86976369D01*
X195919858Y-86963953D01*
X195928481Y-86952327D01*
X195938202Y-86941602D01*
X195948927Y-86931881D01*
X195960553Y-86923258D01*
X195972969Y-86915817D01*
X195986054Y-86909628D01*
X195999683Y-86904751D01*
X196013724Y-86901234D01*
X196028042Y-86899110D01*
X196042500Y-86898400D01*
X196387500Y-86898400D01*
X196401958Y-86899110D01*
G37*
G36*
X196401958Y-87869110D02*
G01*
X196416276Y-87871234D01*
X196430317Y-87874751D01*
X196443946Y-87879628D01*
X196457031Y-87885817D01*
X196469447Y-87893258D01*
X196481073Y-87901881D01*
X196491798Y-87911602D01*
X196501519Y-87922327D01*
X196510142Y-87933953D01*
X196517583Y-87946369D01*
X196523772Y-87959454D01*
X196528649Y-87973083D01*
X196532166Y-87987124D01*
X196534290Y-88001442D01*
X196535000Y-88015900D01*
X196535000Y-88310900D01*
X196534290Y-88325358D01*
X196532166Y-88339676D01*
X196528649Y-88353717D01*
X196523772Y-88367346D01*
X196517583Y-88380431D01*
X196510142Y-88392847D01*
X196501519Y-88404473D01*
X196491798Y-88415198D01*
X196481073Y-88424919D01*
X196469447Y-88433542D01*
X196457031Y-88440983D01*
X196443946Y-88447172D01*
X196430317Y-88452049D01*
X196416276Y-88455566D01*
X196401958Y-88457690D01*
X196387500Y-88458400D01*
X196042500Y-88458400D01*
X196028042Y-88457690D01*
X196013724Y-88455566D01*
X195999683Y-88452049D01*
X195986054Y-88447172D01*
X195972969Y-88440983D01*
X195960553Y-88433542D01*
X195948927Y-88424919D01*
X195938202Y-88415198D01*
X195928481Y-88404473D01*
X195919858Y-88392847D01*
X195912417Y-88380431D01*
X195906228Y-88367346D01*
X195901351Y-88353717D01*
X195897834Y-88339676D01*
X195895710Y-88325358D01*
X195895000Y-88310900D01*
X195895000Y-88015900D01*
X195895710Y-88001442D01*
X195897834Y-87987124D01*
X195901351Y-87973083D01*
X195906228Y-87959454D01*
X195912417Y-87946369D01*
X195919858Y-87933953D01*
X195928481Y-87922327D01*
X195938202Y-87911602D01*
X195948927Y-87901881D01*
X195960553Y-87893258D01*
X195972969Y-87885817D01*
X195986054Y-87879628D01*
X195999683Y-87874751D01*
X196013724Y-87871234D01*
X196028042Y-87869110D01*
X196042500Y-87868400D01*
X196387500Y-87868400D01*
X196401958Y-87869110D01*
G37*
%TD*%
%TO.C,C13*%
G36*
X189569408Y-104731510D02*
G01*
X189583726Y-104733634D01*
X189597767Y-104737151D01*
X189611396Y-104742028D01*
X189624481Y-104748217D01*
X189636897Y-104755658D01*
X189648523Y-104764281D01*
X189659248Y-104774002D01*
X189668969Y-104784727D01*
X189677592Y-104796353D01*
X189685033Y-104808769D01*
X189691222Y-104821854D01*
X189696099Y-104835483D01*
X189699616Y-104849524D01*
X189701740Y-104863842D01*
X189702450Y-104878300D01*
X189702450Y-105173300D01*
X189701740Y-105187758D01*
X189699616Y-105202076D01*
X189696099Y-105216117D01*
X189691222Y-105229746D01*
X189685033Y-105242831D01*
X189677592Y-105255247D01*
X189668969Y-105266873D01*
X189659248Y-105277598D01*
X189648523Y-105287319D01*
X189636897Y-105295942D01*
X189624481Y-105303383D01*
X189611396Y-105309572D01*
X189597767Y-105314449D01*
X189583726Y-105317966D01*
X189569408Y-105320090D01*
X189554950Y-105320800D01*
X189209950Y-105320800D01*
X189195492Y-105320090D01*
X189181174Y-105317966D01*
X189167133Y-105314449D01*
X189153504Y-105309572D01*
X189140419Y-105303383D01*
X189128003Y-105295942D01*
X189116377Y-105287319D01*
X189105652Y-105277598D01*
X189095931Y-105266873D01*
X189087308Y-105255247D01*
X189079867Y-105242831D01*
X189073678Y-105229746D01*
X189068801Y-105216117D01*
X189065284Y-105202076D01*
X189063160Y-105187758D01*
X189062450Y-105173300D01*
X189062450Y-104878300D01*
X189063160Y-104863842D01*
X189065284Y-104849524D01*
X189068801Y-104835483D01*
X189073678Y-104821854D01*
X189079867Y-104808769D01*
X189087308Y-104796353D01*
X189095931Y-104784727D01*
X189105652Y-104774002D01*
X189116377Y-104764281D01*
X189128003Y-104755658D01*
X189140419Y-104748217D01*
X189153504Y-104742028D01*
X189167133Y-104737151D01*
X189181174Y-104733634D01*
X189195492Y-104731510D01*
X189209950Y-104730800D01*
X189554950Y-104730800D01*
X189569408Y-104731510D01*
G37*
G36*
X189569408Y-103761510D02*
G01*
X189583726Y-103763634D01*
X189597767Y-103767151D01*
X189611396Y-103772028D01*
X189624481Y-103778217D01*
X189636897Y-103785658D01*
X189648523Y-103794281D01*
X189659248Y-103804002D01*
X189668969Y-103814727D01*
X189677592Y-103826353D01*
X189685033Y-103838769D01*
X189691222Y-103851854D01*
X189696099Y-103865483D01*
X189699616Y-103879524D01*
X189701740Y-103893842D01*
X189702450Y-103908300D01*
X189702450Y-104203300D01*
X189701740Y-104217758D01*
X189699616Y-104232076D01*
X189696099Y-104246117D01*
X189691222Y-104259746D01*
X189685033Y-104272831D01*
X189677592Y-104285247D01*
X189668969Y-104296873D01*
X189659248Y-104307598D01*
X189648523Y-104317319D01*
X189636897Y-104325942D01*
X189624481Y-104333383D01*
X189611396Y-104339572D01*
X189597767Y-104344449D01*
X189583726Y-104347966D01*
X189569408Y-104350090D01*
X189554950Y-104350800D01*
X189209950Y-104350800D01*
X189195492Y-104350090D01*
X189181174Y-104347966D01*
X189167133Y-104344449D01*
X189153504Y-104339572D01*
X189140419Y-104333383D01*
X189128003Y-104325942D01*
X189116377Y-104317319D01*
X189105652Y-104307598D01*
X189095931Y-104296873D01*
X189087308Y-104285247D01*
X189079867Y-104272831D01*
X189073678Y-104259746D01*
X189068801Y-104246117D01*
X189065284Y-104232076D01*
X189063160Y-104217758D01*
X189062450Y-104203300D01*
X189062450Y-103908300D01*
X189063160Y-103893842D01*
X189065284Y-103879524D01*
X189068801Y-103865483D01*
X189073678Y-103851854D01*
X189079867Y-103838769D01*
X189087308Y-103826353D01*
X189095931Y-103814727D01*
X189105652Y-103804002D01*
X189116377Y-103794281D01*
X189128003Y-103785658D01*
X189140419Y-103778217D01*
X189153504Y-103772028D01*
X189167133Y-103767151D01*
X189181174Y-103763634D01*
X189195492Y-103761510D01*
X189209950Y-103760800D01*
X189554950Y-103760800D01*
X189569408Y-103761510D01*
G37*
%TD*%
%TO.C,C12*%
G36*
X186419808Y-104726710D02*
G01*
X186434126Y-104728834D01*
X186448167Y-104732351D01*
X186461796Y-104737228D01*
X186474881Y-104743417D01*
X186487297Y-104750858D01*
X186498923Y-104759481D01*
X186509648Y-104769202D01*
X186519369Y-104779927D01*
X186527992Y-104791553D01*
X186535433Y-104803969D01*
X186541622Y-104817054D01*
X186546499Y-104830683D01*
X186550016Y-104844724D01*
X186552140Y-104859042D01*
X186552850Y-104873500D01*
X186552850Y-105168500D01*
X186552140Y-105182958D01*
X186550016Y-105197276D01*
X186546499Y-105211317D01*
X186541622Y-105224946D01*
X186535433Y-105238031D01*
X186527992Y-105250447D01*
X186519369Y-105262073D01*
X186509648Y-105272798D01*
X186498923Y-105282519D01*
X186487297Y-105291142D01*
X186474881Y-105298583D01*
X186461796Y-105304772D01*
X186448167Y-105309649D01*
X186434126Y-105313166D01*
X186419808Y-105315290D01*
X186405350Y-105316000D01*
X186060350Y-105316000D01*
X186045892Y-105315290D01*
X186031574Y-105313166D01*
X186017533Y-105309649D01*
X186003904Y-105304772D01*
X185990819Y-105298583D01*
X185978403Y-105291142D01*
X185966777Y-105282519D01*
X185956052Y-105272798D01*
X185946331Y-105262073D01*
X185937708Y-105250447D01*
X185930267Y-105238031D01*
X185924078Y-105224946D01*
X185919201Y-105211317D01*
X185915684Y-105197276D01*
X185913560Y-105182958D01*
X185912850Y-105168500D01*
X185912850Y-104873500D01*
X185913560Y-104859042D01*
X185915684Y-104844724D01*
X185919201Y-104830683D01*
X185924078Y-104817054D01*
X185930267Y-104803969D01*
X185937708Y-104791553D01*
X185946331Y-104779927D01*
X185956052Y-104769202D01*
X185966777Y-104759481D01*
X185978403Y-104750858D01*
X185990819Y-104743417D01*
X186003904Y-104737228D01*
X186017533Y-104732351D01*
X186031574Y-104728834D01*
X186045892Y-104726710D01*
X186060350Y-104726000D01*
X186405350Y-104726000D01*
X186419808Y-104726710D01*
G37*
G36*
X186419808Y-103756710D02*
G01*
X186434126Y-103758834D01*
X186448167Y-103762351D01*
X186461796Y-103767228D01*
X186474881Y-103773417D01*
X186487297Y-103780858D01*
X186498923Y-103789481D01*
X186509648Y-103799202D01*
X186519369Y-103809927D01*
X186527992Y-103821553D01*
X186535433Y-103833969D01*
X186541622Y-103847054D01*
X186546499Y-103860683D01*
X186550016Y-103874724D01*
X186552140Y-103889042D01*
X186552850Y-103903500D01*
X186552850Y-104198500D01*
X186552140Y-104212958D01*
X186550016Y-104227276D01*
X186546499Y-104241317D01*
X186541622Y-104254946D01*
X186535433Y-104268031D01*
X186527992Y-104280447D01*
X186519369Y-104292073D01*
X186509648Y-104302798D01*
X186498923Y-104312519D01*
X186487297Y-104321142D01*
X186474881Y-104328583D01*
X186461796Y-104334772D01*
X186448167Y-104339649D01*
X186434126Y-104343166D01*
X186419808Y-104345290D01*
X186405350Y-104346000D01*
X186060350Y-104346000D01*
X186045892Y-104345290D01*
X186031574Y-104343166D01*
X186017533Y-104339649D01*
X186003904Y-104334772D01*
X185990819Y-104328583D01*
X185978403Y-104321142D01*
X185966777Y-104312519D01*
X185956052Y-104302798D01*
X185946331Y-104292073D01*
X185937708Y-104280447D01*
X185930267Y-104268031D01*
X185924078Y-104254946D01*
X185919201Y-104241317D01*
X185915684Y-104227276D01*
X185913560Y-104212958D01*
X185912850Y-104198500D01*
X185912850Y-103903500D01*
X185913560Y-103889042D01*
X185915684Y-103874724D01*
X185919201Y-103860683D01*
X185924078Y-103847054D01*
X185930267Y-103833969D01*
X185937708Y-103821553D01*
X185946331Y-103809927D01*
X185956052Y-103799202D01*
X185966777Y-103789481D01*
X185978403Y-103780858D01*
X185990819Y-103773417D01*
X186003904Y-103767228D01*
X186017533Y-103762351D01*
X186031574Y-103758834D01*
X186045892Y-103756710D01*
X186060350Y-103756000D01*
X186405350Y-103756000D01*
X186419808Y-103756710D01*
G37*
%TD*%
%TO.C,C11*%
G36*
X179468158Y-91074310D02*
G01*
X179482476Y-91076434D01*
X179496517Y-91079951D01*
X179510146Y-91084828D01*
X179523231Y-91091017D01*
X179535647Y-91098458D01*
X179547273Y-91107081D01*
X179557998Y-91116802D01*
X179567719Y-91127527D01*
X179576342Y-91139153D01*
X179583783Y-91151569D01*
X179589972Y-91164654D01*
X179594849Y-91178283D01*
X179598366Y-91192324D01*
X179600490Y-91206642D01*
X179601200Y-91221100D01*
X179601200Y-91516100D01*
X179600490Y-91530558D01*
X179598366Y-91544876D01*
X179594849Y-91558917D01*
X179589972Y-91572546D01*
X179583783Y-91585631D01*
X179576342Y-91598047D01*
X179567719Y-91609673D01*
X179557998Y-91620398D01*
X179547273Y-91630119D01*
X179535647Y-91638742D01*
X179523231Y-91646183D01*
X179510146Y-91652372D01*
X179496517Y-91657249D01*
X179482476Y-91660766D01*
X179468158Y-91662890D01*
X179453700Y-91663600D01*
X179108700Y-91663600D01*
X179094242Y-91662890D01*
X179079924Y-91660766D01*
X179065883Y-91657249D01*
X179052254Y-91652372D01*
X179039169Y-91646183D01*
X179026753Y-91638742D01*
X179015127Y-91630119D01*
X179004402Y-91620398D01*
X178994681Y-91609673D01*
X178986058Y-91598047D01*
X178978617Y-91585631D01*
X178972428Y-91572546D01*
X178967551Y-91558917D01*
X178964034Y-91544876D01*
X178961910Y-91530558D01*
X178961200Y-91516100D01*
X178961200Y-91221100D01*
X178961910Y-91206642D01*
X178964034Y-91192324D01*
X178967551Y-91178283D01*
X178972428Y-91164654D01*
X178978617Y-91151569D01*
X178986058Y-91139153D01*
X178994681Y-91127527D01*
X179004402Y-91116802D01*
X179015127Y-91107081D01*
X179026753Y-91098458D01*
X179039169Y-91091017D01*
X179052254Y-91084828D01*
X179065883Y-91079951D01*
X179079924Y-91076434D01*
X179094242Y-91074310D01*
X179108700Y-91073600D01*
X179453700Y-91073600D01*
X179468158Y-91074310D01*
G37*
G36*
X179468158Y-92044310D02*
G01*
X179482476Y-92046434D01*
X179496517Y-92049951D01*
X179510146Y-92054828D01*
X179523231Y-92061017D01*
X179535647Y-92068458D01*
X179547273Y-92077081D01*
X179557998Y-92086802D01*
X179567719Y-92097527D01*
X179576342Y-92109153D01*
X179583783Y-92121569D01*
X179589972Y-92134654D01*
X179594849Y-92148283D01*
X179598366Y-92162324D01*
X179600490Y-92176642D01*
X179601200Y-92191100D01*
X179601200Y-92486100D01*
X179600490Y-92500558D01*
X179598366Y-92514876D01*
X179594849Y-92528917D01*
X179589972Y-92542546D01*
X179583783Y-92555631D01*
X179576342Y-92568047D01*
X179567719Y-92579673D01*
X179557998Y-92590398D01*
X179547273Y-92600119D01*
X179535647Y-92608742D01*
X179523231Y-92616183D01*
X179510146Y-92622372D01*
X179496517Y-92627249D01*
X179482476Y-92630766D01*
X179468158Y-92632890D01*
X179453700Y-92633600D01*
X179108700Y-92633600D01*
X179094242Y-92632890D01*
X179079924Y-92630766D01*
X179065883Y-92627249D01*
X179052254Y-92622372D01*
X179039169Y-92616183D01*
X179026753Y-92608742D01*
X179015127Y-92600119D01*
X179004402Y-92590398D01*
X178994681Y-92579673D01*
X178986058Y-92568047D01*
X178978617Y-92555631D01*
X178972428Y-92542546D01*
X178967551Y-92528917D01*
X178964034Y-92514876D01*
X178961910Y-92500558D01*
X178961200Y-92486100D01*
X178961200Y-92191100D01*
X178961910Y-92176642D01*
X178964034Y-92162324D01*
X178967551Y-92148283D01*
X178972428Y-92134654D01*
X178978617Y-92121569D01*
X178986058Y-92109153D01*
X178994681Y-92097527D01*
X179004402Y-92086802D01*
X179015127Y-92077081D01*
X179026753Y-92068458D01*
X179039169Y-92061017D01*
X179052254Y-92054828D01*
X179065883Y-92049951D01*
X179079924Y-92046434D01*
X179094242Y-92044310D01*
X179108700Y-92043600D01*
X179453700Y-92043600D01*
X179468158Y-92044310D01*
G37*
%TD*%
%TO.C,C10*%
G36*
X196783008Y-104726710D02*
G01*
X196797326Y-104728834D01*
X196811367Y-104732351D01*
X196824996Y-104737228D01*
X196838081Y-104743417D01*
X196850497Y-104750858D01*
X196862123Y-104759481D01*
X196872848Y-104769202D01*
X196882569Y-104779927D01*
X196891192Y-104791553D01*
X196898633Y-104803969D01*
X196904822Y-104817054D01*
X196909699Y-104830683D01*
X196913216Y-104844724D01*
X196915340Y-104859042D01*
X196916050Y-104873500D01*
X196916050Y-105168500D01*
X196915340Y-105182958D01*
X196913216Y-105197276D01*
X196909699Y-105211317D01*
X196904822Y-105224946D01*
X196898633Y-105238031D01*
X196891192Y-105250447D01*
X196882569Y-105262073D01*
X196872848Y-105272798D01*
X196862123Y-105282519D01*
X196850497Y-105291142D01*
X196838081Y-105298583D01*
X196824996Y-105304772D01*
X196811367Y-105309649D01*
X196797326Y-105313166D01*
X196783008Y-105315290D01*
X196768550Y-105316000D01*
X196423550Y-105316000D01*
X196409092Y-105315290D01*
X196394774Y-105313166D01*
X196380733Y-105309649D01*
X196367104Y-105304772D01*
X196354019Y-105298583D01*
X196341603Y-105291142D01*
X196329977Y-105282519D01*
X196319252Y-105272798D01*
X196309531Y-105262073D01*
X196300908Y-105250447D01*
X196293467Y-105238031D01*
X196287278Y-105224946D01*
X196282401Y-105211317D01*
X196278884Y-105197276D01*
X196276760Y-105182958D01*
X196276050Y-105168500D01*
X196276050Y-104873500D01*
X196276760Y-104859042D01*
X196278884Y-104844724D01*
X196282401Y-104830683D01*
X196287278Y-104817054D01*
X196293467Y-104803969D01*
X196300908Y-104791553D01*
X196309531Y-104779927D01*
X196319252Y-104769202D01*
X196329977Y-104759481D01*
X196341603Y-104750858D01*
X196354019Y-104743417D01*
X196367104Y-104737228D01*
X196380733Y-104732351D01*
X196394774Y-104728834D01*
X196409092Y-104726710D01*
X196423550Y-104726000D01*
X196768550Y-104726000D01*
X196783008Y-104726710D01*
G37*
G36*
X196783008Y-103756710D02*
G01*
X196797326Y-103758834D01*
X196811367Y-103762351D01*
X196824996Y-103767228D01*
X196838081Y-103773417D01*
X196850497Y-103780858D01*
X196862123Y-103789481D01*
X196872848Y-103799202D01*
X196882569Y-103809927D01*
X196891192Y-103821553D01*
X196898633Y-103833969D01*
X196904822Y-103847054D01*
X196909699Y-103860683D01*
X196913216Y-103874724D01*
X196915340Y-103889042D01*
X196916050Y-103903500D01*
X196916050Y-104198500D01*
X196915340Y-104212958D01*
X196913216Y-104227276D01*
X196909699Y-104241317D01*
X196904822Y-104254946D01*
X196898633Y-104268031D01*
X196891192Y-104280447D01*
X196882569Y-104292073D01*
X196872848Y-104302798D01*
X196862123Y-104312519D01*
X196850497Y-104321142D01*
X196838081Y-104328583D01*
X196824996Y-104334772D01*
X196811367Y-104339649D01*
X196797326Y-104343166D01*
X196783008Y-104345290D01*
X196768550Y-104346000D01*
X196423550Y-104346000D01*
X196409092Y-104345290D01*
X196394774Y-104343166D01*
X196380733Y-104339649D01*
X196367104Y-104334772D01*
X196354019Y-104328583D01*
X196341603Y-104321142D01*
X196329977Y-104312519D01*
X196319252Y-104302798D01*
X196309531Y-104292073D01*
X196300908Y-104280447D01*
X196293467Y-104268031D01*
X196287278Y-104254946D01*
X196282401Y-104241317D01*
X196278884Y-104227276D01*
X196276760Y-104212958D01*
X196276050Y-104198500D01*
X196276050Y-103903500D01*
X196276760Y-103889042D01*
X196278884Y-103874724D01*
X196282401Y-103860683D01*
X196287278Y-103847054D01*
X196293467Y-103833969D01*
X196300908Y-103821553D01*
X196309531Y-103809927D01*
X196319252Y-103799202D01*
X196329977Y-103789481D01*
X196341603Y-103780858D01*
X196354019Y-103773417D01*
X196367104Y-103767228D01*
X196380733Y-103762351D01*
X196394774Y-103758834D01*
X196409092Y-103756710D01*
X196423550Y-103756000D01*
X196768550Y-103756000D01*
X196783008Y-103756710D01*
G37*
%TD*%
%TO.C,C9*%
G36*
X192719008Y-104731510D02*
G01*
X192733326Y-104733634D01*
X192747367Y-104737151D01*
X192760996Y-104742028D01*
X192774081Y-104748217D01*
X192786497Y-104755658D01*
X192798123Y-104764281D01*
X192808848Y-104774002D01*
X192818569Y-104784727D01*
X192827192Y-104796353D01*
X192834633Y-104808769D01*
X192840822Y-104821854D01*
X192845699Y-104835483D01*
X192849216Y-104849524D01*
X192851340Y-104863842D01*
X192852050Y-104878300D01*
X192852050Y-105173300D01*
X192851340Y-105187758D01*
X192849216Y-105202076D01*
X192845699Y-105216117D01*
X192840822Y-105229746D01*
X192834633Y-105242831D01*
X192827192Y-105255247D01*
X192818569Y-105266873D01*
X192808848Y-105277598D01*
X192798123Y-105287319D01*
X192786497Y-105295942D01*
X192774081Y-105303383D01*
X192760996Y-105309572D01*
X192747367Y-105314449D01*
X192733326Y-105317966D01*
X192719008Y-105320090D01*
X192704550Y-105320800D01*
X192359550Y-105320800D01*
X192345092Y-105320090D01*
X192330774Y-105317966D01*
X192316733Y-105314449D01*
X192303104Y-105309572D01*
X192290019Y-105303383D01*
X192277603Y-105295942D01*
X192265977Y-105287319D01*
X192255252Y-105277598D01*
X192245531Y-105266873D01*
X192236908Y-105255247D01*
X192229467Y-105242831D01*
X192223278Y-105229746D01*
X192218401Y-105216117D01*
X192214884Y-105202076D01*
X192212760Y-105187758D01*
X192212050Y-105173300D01*
X192212050Y-104878300D01*
X192212760Y-104863842D01*
X192214884Y-104849524D01*
X192218401Y-104835483D01*
X192223278Y-104821854D01*
X192229467Y-104808769D01*
X192236908Y-104796353D01*
X192245531Y-104784727D01*
X192255252Y-104774002D01*
X192265977Y-104764281D01*
X192277603Y-104755658D01*
X192290019Y-104748217D01*
X192303104Y-104742028D01*
X192316733Y-104737151D01*
X192330774Y-104733634D01*
X192345092Y-104731510D01*
X192359550Y-104730800D01*
X192704550Y-104730800D01*
X192719008Y-104731510D01*
G37*
G36*
X192719008Y-103761510D02*
G01*
X192733326Y-103763634D01*
X192747367Y-103767151D01*
X192760996Y-103772028D01*
X192774081Y-103778217D01*
X192786497Y-103785658D01*
X192798123Y-103794281D01*
X192808848Y-103804002D01*
X192818569Y-103814727D01*
X192827192Y-103826353D01*
X192834633Y-103838769D01*
X192840822Y-103851854D01*
X192845699Y-103865483D01*
X192849216Y-103879524D01*
X192851340Y-103893842D01*
X192852050Y-103908300D01*
X192852050Y-104203300D01*
X192851340Y-104217758D01*
X192849216Y-104232076D01*
X192845699Y-104246117D01*
X192840822Y-104259746D01*
X192834633Y-104272831D01*
X192827192Y-104285247D01*
X192818569Y-104296873D01*
X192808848Y-104307598D01*
X192798123Y-104317319D01*
X192786497Y-104325942D01*
X192774081Y-104333383D01*
X192760996Y-104339572D01*
X192747367Y-104344449D01*
X192733326Y-104347966D01*
X192719008Y-104350090D01*
X192704550Y-104350800D01*
X192359550Y-104350800D01*
X192345092Y-104350090D01*
X192330774Y-104347966D01*
X192316733Y-104344449D01*
X192303104Y-104339572D01*
X192290019Y-104333383D01*
X192277603Y-104325942D01*
X192265977Y-104317319D01*
X192255252Y-104307598D01*
X192245531Y-104296873D01*
X192236908Y-104285247D01*
X192229467Y-104272831D01*
X192223278Y-104259746D01*
X192218401Y-104246117D01*
X192214884Y-104232076D01*
X192212760Y-104217758D01*
X192212050Y-104203300D01*
X192212050Y-103908300D01*
X192212760Y-103893842D01*
X192214884Y-103879524D01*
X192218401Y-103865483D01*
X192223278Y-103851854D01*
X192229467Y-103838769D01*
X192236908Y-103826353D01*
X192245531Y-103814727D01*
X192255252Y-103804002D01*
X192265977Y-103794281D01*
X192277603Y-103785658D01*
X192290019Y-103778217D01*
X192303104Y-103772028D01*
X192316733Y-103767151D01*
X192330774Y-103763634D01*
X192345092Y-103761510D01*
X192359550Y-103760800D01*
X192704550Y-103760800D01*
X192719008Y-103761510D01*
G37*
%TD*%
%TO.C,C8*%
G36*
X191703008Y-104731510D02*
G01*
X191717326Y-104733634D01*
X191731367Y-104737151D01*
X191744996Y-104742028D01*
X191758081Y-104748217D01*
X191770497Y-104755658D01*
X191782123Y-104764281D01*
X191792848Y-104774002D01*
X191802569Y-104784727D01*
X191811192Y-104796353D01*
X191818633Y-104808769D01*
X191824822Y-104821854D01*
X191829699Y-104835483D01*
X191833216Y-104849524D01*
X191835340Y-104863842D01*
X191836050Y-104878300D01*
X191836050Y-105173300D01*
X191835340Y-105187758D01*
X191833216Y-105202076D01*
X191829699Y-105216117D01*
X191824822Y-105229746D01*
X191818633Y-105242831D01*
X191811192Y-105255247D01*
X191802569Y-105266873D01*
X191792848Y-105277598D01*
X191782123Y-105287319D01*
X191770497Y-105295942D01*
X191758081Y-105303383D01*
X191744996Y-105309572D01*
X191731367Y-105314449D01*
X191717326Y-105317966D01*
X191703008Y-105320090D01*
X191688550Y-105320800D01*
X191343550Y-105320800D01*
X191329092Y-105320090D01*
X191314774Y-105317966D01*
X191300733Y-105314449D01*
X191287104Y-105309572D01*
X191274019Y-105303383D01*
X191261603Y-105295942D01*
X191249977Y-105287319D01*
X191239252Y-105277598D01*
X191229531Y-105266873D01*
X191220908Y-105255247D01*
X191213467Y-105242831D01*
X191207278Y-105229746D01*
X191202401Y-105216117D01*
X191198884Y-105202076D01*
X191196760Y-105187758D01*
X191196050Y-105173300D01*
X191196050Y-104878300D01*
X191196760Y-104863842D01*
X191198884Y-104849524D01*
X191202401Y-104835483D01*
X191207278Y-104821854D01*
X191213467Y-104808769D01*
X191220908Y-104796353D01*
X191229531Y-104784727D01*
X191239252Y-104774002D01*
X191249977Y-104764281D01*
X191261603Y-104755658D01*
X191274019Y-104748217D01*
X191287104Y-104742028D01*
X191300733Y-104737151D01*
X191314774Y-104733634D01*
X191329092Y-104731510D01*
X191343550Y-104730800D01*
X191688550Y-104730800D01*
X191703008Y-104731510D01*
G37*
G36*
X191703008Y-103761510D02*
G01*
X191717326Y-103763634D01*
X191731367Y-103767151D01*
X191744996Y-103772028D01*
X191758081Y-103778217D01*
X191770497Y-103785658D01*
X191782123Y-103794281D01*
X191792848Y-103804002D01*
X191802569Y-103814727D01*
X191811192Y-103826353D01*
X191818633Y-103838769D01*
X191824822Y-103851854D01*
X191829699Y-103865483D01*
X191833216Y-103879524D01*
X191835340Y-103893842D01*
X191836050Y-103908300D01*
X191836050Y-104203300D01*
X191835340Y-104217758D01*
X191833216Y-104232076D01*
X191829699Y-104246117D01*
X191824822Y-104259746D01*
X191818633Y-104272831D01*
X191811192Y-104285247D01*
X191802569Y-104296873D01*
X191792848Y-104307598D01*
X191782123Y-104317319D01*
X191770497Y-104325942D01*
X191758081Y-104333383D01*
X191744996Y-104339572D01*
X191731367Y-104344449D01*
X191717326Y-104347966D01*
X191703008Y-104350090D01*
X191688550Y-104350800D01*
X191343550Y-104350800D01*
X191329092Y-104350090D01*
X191314774Y-104347966D01*
X191300733Y-104344449D01*
X191287104Y-104339572D01*
X191274019Y-104333383D01*
X191261603Y-104325942D01*
X191249977Y-104317319D01*
X191239252Y-104307598D01*
X191229531Y-104296873D01*
X191220908Y-104285247D01*
X191213467Y-104272831D01*
X191207278Y-104259746D01*
X191202401Y-104246117D01*
X191198884Y-104232076D01*
X191196760Y-104217758D01*
X191196050Y-104203300D01*
X191196050Y-103908300D01*
X191196760Y-103893842D01*
X191198884Y-103879524D01*
X191202401Y-103865483D01*
X191207278Y-103851854D01*
X191213467Y-103838769D01*
X191220908Y-103826353D01*
X191229531Y-103814727D01*
X191239252Y-103804002D01*
X191249977Y-103794281D01*
X191261603Y-103785658D01*
X191274019Y-103778217D01*
X191287104Y-103772028D01*
X191300733Y-103767151D01*
X191314774Y-103763634D01*
X191329092Y-103761510D01*
X191343550Y-103760800D01*
X191688550Y-103760800D01*
X191703008Y-103761510D01*
G37*
%TD*%
%TO.C,C7*%
G36*
X190687008Y-104726710D02*
G01*
X190701326Y-104728834D01*
X190715367Y-104732351D01*
X190728996Y-104737228D01*
X190742081Y-104743417D01*
X190754497Y-104750858D01*
X190766123Y-104759481D01*
X190776848Y-104769202D01*
X190786569Y-104779927D01*
X190795192Y-104791553D01*
X190802633Y-104803969D01*
X190808822Y-104817054D01*
X190813699Y-104830683D01*
X190817216Y-104844724D01*
X190819340Y-104859042D01*
X190820050Y-104873500D01*
X190820050Y-105168500D01*
X190819340Y-105182958D01*
X190817216Y-105197276D01*
X190813699Y-105211317D01*
X190808822Y-105224946D01*
X190802633Y-105238031D01*
X190795192Y-105250447D01*
X190786569Y-105262073D01*
X190776848Y-105272798D01*
X190766123Y-105282519D01*
X190754497Y-105291142D01*
X190742081Y-105298583D01*
X190728996Y-105304772D01*
X190715367Y-105309649D01*
X190701326Y-105313166D01*
X190687008Y-105315290D01*
X190672550Y-105316000D01*
X190327550Y-105316000D01*
X190313092Y-105315290D01*
X190298774Y-105313166D01*
X190284733Y-105309649D01*
X190271104Y-105304772D01*
X190258019Y-105298583D01*
X190245603Y-105291142D01*
X190233977Y-105282519D01*
X190223252Y-105272798D01*
X190213531Y-105262073D01*
X190204908Y-105250447D01*
X190197467Y-105238031D01*
X190191278Y-105224946D01*
X190186401Y-105211317D01*
X190182884Y-105197276D01*
X190180760Y-105182958D01*
X190180050Y-105168500D01*
X190180050Y-104873500D01*
X190180760Y-104859042D01*
X190182884Y-104844724D01*
X190186401Y-104830683D01*
X190191278Y-104817054D01*
X190197467Y-104803969D01*
X190204908Y-104791553D01*
X190213531Y-104779927D01*
X190223252Y-104769202D01*
X190233977Y-104759481D01*
X190245603Y-104750858D01*
X190258019Y-104743417D01*
X190271104Y-104737228D01*
X190284733Y-104732351D01*
X190298774Y-104728834D01*
X190313092Y-104726710D01*
X190327550Y-104726000D01*
X190672550Y-104726000D01*
X190687008Y-104726710D01*
G37*
G36*
X190687008Y-103756710D02*
G01*
X190701326Y-103758834D01*
X190715367Y-103762351D01*
X190728996Y-103767228D01*
X190742081Y-103773417D01*
X190754497Y-103780858D01*
X190766123Y-103789481D01*
X190776848Y-103799202D01*
X190786569Y-103809927D01*
X190795192Y-103821553D01*
X190802633Y-103833969D01*
X190808822Y-103847054D01*
X190813699Y-103860683D01*
X190817216Y-103874724D01*
X190819340Y-103889042D01*
X190820050Y-103903500D01*
X190820050Y-104198500D01*
X190819340Y-104212958D01*
X190817216Y-104227276D01*
X190813699Y-104241317D01*
X190808822Y-104254946D01*
X190802633Y-104268031D01*
X190795192Y-104280447D01*
X190786569Y-104292073D01*
X190776848Y-104302798D01*
X190766123Y-104312519D01*
X190754497Y-104321142D01*
X190742081Y-104328583D01*
X190728996Y-104334772D01*
X190715367Y-104339649D01*
X190701326Y-104343166D01*
X190687008Y-104345290D01*
X190672550Y-104346000D01*
X190327550Y-104346000D01*
X190313092Y-104345290D01*
X190298774Y-104343166D01*
X190284733Y-104339649D01*
X190271104Y-104334772D01*
X190258019Y-104328583D01*
X190245603Y-104321142D01*
X190233977Y-104312519D01*
X190223252Y-104302798D01*
X190213531Y-104292073D01*
X190204908Y-104280447D01*
X190197467Y-104268031D01*
X190191278Y-104254946D01*
X190186401Y-104241317D01*
X190182884Y-104227276D01*
X190180760Y-104212958D01*
X190180050Y-104198500D01*
X190180050Y-103903500D01*
X190180760Y-103889042D01*
X190182884Y-103874724D01*
X190186401Y-103860683D01*
X190191278Y-103847054D01*
X190197467Y-103833969D01*
X190204908Y-103821553D01*
X190213531Y-103809927D01*
X190223252Y-103799202D01*
X190233977Y-103789481D01*
X190245603Y-103780858D01*
X190258019Y-103773417D01*
X190271104Y-103767228D01*
X190284733Y-103762351D01*
X190298774Y-103758834D01*
X190313092Y-103756710D01*
X190327550Y-103756000D01*
X190672550Y-103756000D01*
X190687008Y-103756710D01*
G37*
%TD*%
%TO.C,C6*%
G36*
X194751008Y-104726710D02*
G01*
X194765326Y-104728834D01*
X194779367Y-104732351D01*
X194792996Y-104737228D01*
X194806081Y-104743417D01*
X194818497Y-104750858D01*
X194830123Y-104759481D01*
X194840848Y-104769202D01*
X194850569Y-104779927D01*
X194859192Y-104791553D01*
X194866633Y-104803969D01*
X194872822Y-104817054D01*
X194877699Y-104830683D01*
X194881216Y-104844724D01*
X194883340Y-104859042D01*
X194884050Y-104873500D01*
X194884050Y-105168500D01*
X194883340Y-105182958D01*
X194881216Y-105197276D01*
X194877699Y-105211317D01*
X194872822Y-105224946D01*
X194866633Y-105238031D01*
X194859192Y-105250447D01*
X194850569Y-105262073D01*
X194840848Y-105272798D01*
X194830123Y-105282519D01*
X194818497Y-105291142D01*
X194806081Y-105298583D01*
X194792996Y-105304772D01*
X194779367Y-105309649D01*
X194765326Y-105313166D01*
X194751008Y-105315290D01*
X194736550Y-105316000D01*
X194391550Y-105316000D01*
X194377092Y-105315290D01*
X194362774Y-105313166D01*
X194348733Y-105309649D01*
X194335104Y-105304772D01*
X194322019Y-105298583D01*
X194309603Y-105291142D01*
X194297977Y-105282519D01*
X194287252Y-105272798D01*
X194277531Y-105262073D01*
X194268908Y-105250447D01*
X194261467Y-105238031D01*
X194255278Y-105224946D01*
X194250401Y-105211317D01*
X194246884Y-105197276D01*
X194244760Y-105182958D01*
X194244050Y-105168500D01*
X194244050Y-104873500D01*
X194244760Y-104859042D01*
X194246884Y-104844724D01*
X194250401Y-104830683D01*
X194255278Y-104817054D01*
X194261467Y-104803969D01*
X194268908Y-104791553D01*
X194277531Y-104779927D01*
X194287252Y-104769202D01*
X194297977Y-104759481D01*
X194309603Y-104750858D01*
X194322019Y-104743417D01*
X194335104Y-104737228D01*
X194348733Y-104732351D01*
X194362774Y-104728834D01*
X194377092Y-104726710D01*
X194391550Y-104726000D01*
X194736550Y-104726000D01*
X194751008Y-104726710D01*
G37*
G36*
X194751008Y-103756710D02*
G01*
X194765326Y-103758834D01*
X194779367Y-103762351D01*
X194792996Y-103767228D01*
X194806081Y-103773417D01*
X194818497Y-103780858D01*
X194830123Y-103789481D01*
X194840848Y-103799202D01*
X194850569Y-103809927D01*
X194859192Y-103821553D01*
X194866633Y-103833969D01*
X194872822Y-103847054D01*
X194877699Y-103860683D01*
X194881216Y-103874724D01*
X194883340Y-103889042D01*
X194884050Y-103903500D01*
X194884050Y-104198500D01*
X194883340Y-104212958D01*
X194881216Y-104227276D01*
X194877699Y-104241317D01*
X194872822Y-104254946D01*
X194866633Y-104268031D01*
X194859192Y-104280447D01*
X194850569Y-104292073D01*
X194840848Y-104302798D01*
X194830123Y-104312519D01*
X194818497Y-104321142D01*
X194806081Y-104328583D01*
X194792996Y-104334772D01*
X194779367Y-104339649D01*
X194765326Y-104343166D01*
X194751008Y-104345290D01*
X194736550Y-104346000D01*
X194391550Y-104346000D01*
X194377092Y-104345290D01*
X194362774Y-104343166D01*
X194348733Y-104339649D01*
X194335104Y-104334772D01*
X194322019Y-104328583D01*
X194309603Y-104321142D01*
X194297977Y-104312519D01*
X194287252Y-104302798D01*
X194277531Y-104292073D01*
X194268908Y-104280447D01*
X194261467Y-104268031D01*
X194255278Y-104254946D01*
X194250401Y-104241317D01*
X194246884Y-104227276D01*
X194244760Y-104212958D01*
X194244050Y-104198500D01*
X194244050Y-103903500D01*
X194244760Y-103889042D01*
X194246884Y-103874724D01*
X194250401Y-103860683D01*
X194255278Y-103847054D01*
X194261467Y-103833969D01*
X194268908Y-103821553D01*
X194277531Y-103809927D01*
X194287252Y-103799202D01*
X194297977Y-103789481D01*
X194309603Y-103780858D01*
X194322019Y-103773417D01*
X194335104Y-103767228D01*
X194348733Y-103762351D01*
X194362774Y-103758834D01*
X194377092Y-103756710D01*
X194391550Y-103756000D01*
X194736550Y-103756000D01*
X194751008Y-103756710D01*
G37*
%TD*%
%TO.C,C5*%
G36*
X200110358Y-99652710D02*
G01*
X200124676Y-99654834D01*
X200138717Y-99658351D01*
X200152346Y-99663228D01*
X200165431Y-99669417D01*
X200177847Y-99676858D01*
X200189473Y-99685481D01*
X200200198Y-99695202D01*
X200209919Y-99705927D01*
X200218542Y-99717553D01*
X200225983Y-99729969D01*
X200232172Y-99743054D01*
X200237049Y-99756683D01*
X200240566Y-99770724D01*
X200242690Y-99785042D01*
X200243400Y-99799500D01*
X200243400Y-100094500D01*
X200242690Y-100108958D01*
X200240566Y-100123276D01*
X200237049Y-100137317D01*
X200232172Y-100150946D01*
X200225983Y-100164031D01*
X200218542Y-100176447D01*
X200209919Y-100188073D01*
X200200198Y-100198798D01*
X200189473Y-100208519D01*
X200177847Y-100217142D01*
X200165431Y-100224583D01*
X200152346Y-100230772D01*
X200138717Y-100235649D01*
X200124676Y-100239166D01*
X200110358Y-100241290D01*
X200095900Y-100242000D01*
X199750900Y-100242000D01*
X199736442Y-100241290D01*
X199722124Y-100239166D01*
X199708083Y-100235649D01*
X199694454Y-100230772D01*
X199681369Y-100224583D01*
X199668953Y-100217142D01*
X199657327Y-100208519D01*
X199646602Y-100198798D01*
X199636881Y-100188073D01*
X199628258Y-100176447D01*
X199620817Y-100164031D01*
X199614628Y-100150946D01*
X199609751Y-100137317D01*
X199606234Y-100123276D01*
X199604110Y-100108958D01*
X199603400Y-100094500D01*
X199603400Y-99799500D01*
X199604110Y-99785042D01*
X199606234Y-99770724D01*
X199609751Y-99756683D01*
X199614628Y-99743054D01*
X199620817Y-99729969D01*
X199628258Y-99717553D01*
X199636881Y-99705927D01*
X199646602Y-99695202D01*
X199657327Y-99685481D01*
X199668953Y-99676858D01*
X199681369Y-99669417D01*
X199694454Y-99663228D01*
X199708083Y-99658351D01*
X199722124Y-99654834D01*
X199736442Y-99652710D01*
X199750900Y-99652000D01*
X200095900Y-99652000D01*
X200110358Y-99652710D01*
G37*
G36*
X200110358Y-98682710D02*
G01*
X200124676Y-98684834D01*
X200138717Y-98688351D01*
X200152346Y-98693228D01*
X200165431Y-98699417D01*
X200177847Y-98706858D01*
X200189473Y-98715481D01*
X200200198Y-98725202D01*
X200209919Y-98735927D01*
X200218542Y-98747553D01*
X200225983Y-98759969D01*
X200232172Y-98773054D01*
X200237049Y-98786683D01*
X200240566Y-98800724D01*
X200242690Y-98815042D01*
X200243400Y-98829500D01*
X200243400Y-99124500D01*
X200242690Y-99138958D01*
X200240566Y-99153276D01*
X200237049Y-99167317D01*
X200232172Y-99180946D01*
X200225983Y-99194031D01*
X200218542Y-99206447D01*
X200209919Y-99218073D01*
X200200198Y-99228798D01*
X200189473Y-99238519D01*
X200177847Y-99247142D01*
X200165431Y-99254583D01*
X200152346Y-99260772D01*
X200138717Y-99265649D01*
X200124676Y-99269166D01*
X200110358Y-99271290D01*
X200095900Y-99272000D01*
X199750900Y-99272000D01*
X199736442Y-99271290D01*
X199722124Y-99269166D01*
X199708083Y-99265649D01*
X199694454Y-99260772D01*
X199681369Y-99254583D01*
X199668953Y-99247142D01*
X199657327Y-99238519D01*
X199646602Y-99228798D01*
X199636881Y-99218073D01*
X199628258Y-99206447D01*
X199620817Y-99194031D01*
X199614628Y-99180946D01*
X199609751Y-99167317D01*
X199606234Y-99153276D01*
X199604110Y-99138958D01*
X199603400Y-99124500D01*
X199603400Y-98829500D01*
X199604110Y-98815042D01*
X199606234Y-98800724D01*
X199609751Y-98786683D01*
X199614628Y-98773054D01*
X199620817Y-98759969D01*
X199628258Y-98747553D01*
X199636881Y-98735927D01*
X199646602Y-98725202D01*
X199657327Y-98715481D01*
X199668953Y-98706858D01*
X199681369Y-98699417D01*
X199694454Y-98693228D01*
X199708083Y-98688351D01*
X199722124Y-98684834D01*
X199736442Y-98682710D01*
X199750900Y-98682000D01*
X200095900Y-98682000D01*
X200110358Y-98682710D01*
G37*
%TD*%
%TO.C,C4*%
G36*
X200110358Y-93759910D02*
G01*
X200124676Y-93762034D01*
X200138717Y-93765551D01*
X200152346Y-93770428D01*
X200165431Y-93776617D01*
X200177847Y-93784058D01*
X200189473Y-93792681D01*
X200200198Y-93802402D01*
X200209919Y-93813127D01*
X200218542Y-93824753D01*
X200225983Y-93837169D01*
X200232172Y-93850254D01*
X200237049Y-93863883D01*
X200240566Y-93877924D01*
X200242690Y-93892242D01*
X200243400Y-93906700D01*
X200243400Y-94201700D01*
X200242690Y-94216158D01*
X200240566Y-94230476D01*
X200237049Y-94244517D01*
X200232172Y-94258146D01*
X200225983Y-94271231D01*
X200218542Y-94283647D01*
X200209919Y-94295273D01*
X200200198Y-94305998D01*
X200189473Y-94315719D01*
X200177847Y-94324342D01*
X200165431Y-94331783D01*
X200152346Y-94337972D01*
X200138717Y-94342849D01*
X200124676Y-94346366D01*
X200110358Y-94348490D01*
X200095900Y-94349200D01*
X199750900Y-94349200D01*
X199736442Y-94348490D01*
X199722124Y-94346366D01*
X199708083Y-94342849D01*
X199694454Y-94337972D01*
X199681369Y-94331783D01*
X199668953Y-94324342D01*
X199657327Y-94315719D01*
X199646602Y-94305998D01*
X199636881Y-94295273D01*
X199628258Y-94283647D01*
X199620817Y-94271231D01*
X199614628Y-94258146D01*
X199609751Y-94244517D01*
X199606234Y-94230476D01*
X199604110Y-94216158D01*
X199603400Y-94201700D01*
X199603400Y-93906700D01*
X199604110Y-93892242D01*
X199606234Y-93877924D01*
X199609751Y-93863883D01*
X199614628Y-93850254D01*
X199620817Y-93837169D01*
X199628258Y-93824753D01*
X199636881Y-93813127D01*
X199646602Y-93802402D01*
X199657327Y-93792681D01*
X199668953Y-93784058D01*
X199681369Y-93776617D01*
X199694454Y-93770428D01*
X199708083Y-93765551D01*
X199722124Y-93762034D01*
X199736442Y-93759910D01*
X199750900Y-93759200D01*
X200095900Y-93759200D01*
X200110358Y-93759910D01*
G37*
G36*
X200110358Y-92789910D02*
G01*
X200124676Y-92792034D01*
X200138717Y-92795551D01*
X200152346Y-92800428D01*
X200165431Y-92806617D01*
X200177847Y-92814058D01*
X200189473Y-92822681D01*
X200200198Y-92832402D01*
X200209919Y-92843127D01*
X200218542Y-92854753D01*
X200225983Y-92867169D01*
X200232172Y-92880254D01*
X200237049Y-92893883D01*
X200240566Y-92907924D01*
X200242690Y-92922242D01*
X200243400Y-92936700D01*
X200243400Y-93231700D01*
X200242690Y-93246158D01*
X200240566Y-93260476D01*
X200237049Y-93274517D01*
X200232172Y-93288146D01*
X200225983Y-93301231D01*
X200218542Y-93313647D01*
X200209919Y-93325273D01*
X200200198Y-93335998D01*
X200189473Y-93345719D01*
X200177847Y-93354342D01*
X200165431Y-93361783D01*
X200152346Y-93367972D01*
X200138717Y-93372849D01*
X200124676Y-93376366D01*
X200110358Y-93378490D01*
X200095900Y-93379200D01*
X199750900Y-93379200D01*
X199736442Y-93378490D01*
X199722124Y-93376366D01*
X199708083Y-93372849D01*
X199694454Y-93367972D01*
X199681369Y-93361783D01*
X199668953Y-93354342D01*
X199657327Y-93345719D01*
X199646602Y-93335998D01*
X199636881Y-93325273D01*
X199628258Y-93313647D01*
X199620817Y-93301231D01*
X199614628Y-93288146D01*
X199609751Y-93274517D01*
X199606234Y-93260476D01*
X199604110Y-93246158D01*
X199603400Y-93231700D01*
X199603400Y-92936700D01*
X199604110Y-92922242D01*
X199606234Y-92907924D01*
X199609751Y-92893883D01*
X199614628Y-92880254D01*
X199620817Y-92867169D01*
X199628258Y-92854753D01*
X199636881Y-92843127D01*
X199646602Y-92832402D01*
X199657327Y-92822681D01*
X199668953Y-92814058D01*
X199681369Y-92806617D01*
X199694454Y-92800428D01*
X199708083Y-92795551D01*
X199722124Y-92792034D01*
X199736442Y-92789910D01*
X199750900Y-92789200D01*
X200095900Y-92789200D01*
X200110358Y-92789910D01*
G37*
%TD*%
%TO.C,C3*%
G36*
X204834758Y-99652710D02*
G01*
X204849076Y-99654834D01*
X204863117Y-99658351D01*
X204876746Y-99663228D01*
X204889831Y-99669417D01*
X204902247Y-99676858D01*
X204913873Y-99685481D01*
X204924598Y-99695202D01*
X204934319Y-99705927D01*
X204942942Y-99717553D01*
X204950383Y-99729969D01*
X204956572Y-99743054D01*
X204961449Y-99756683D01*
X204964966Y-99770724D01*
X204967090Y-99785042D01*
X204967800Y-99799500D01*
X204967800Y-100094500D01*
X204967090Y-100108958D01*
X204964966Y-100123276D01*
X204961449Y-100137317D01*
X204956572Y-100150946D01*
X204950383Y-100164031D01*
X204942942Y-100176447D01*
X204934319Y-100188073D01*
X204924598Y-100198798D01*
X204913873Y-100208519D01*
X204902247Y-100217142D01*
X204889831Y-100224583D01*
X204876746Y-100230772D01*
X204863117Y-100235649D01*
X204849076Y-100239166D01*
X204834758Y-100241290D01*
X204820300Y-100242000D01*
X204475300Y-100242000D01*
X204460842Y-100241290D01*
X204446524Y-100239166D01*
X204432483Y-100235649D01*
X204418854Y-100230772D01*
X204405769Y-100224583D01*
X204393353Y-100217142D01*
X204381727Y-100208519D01*
X204371002Y-100198798D01*
X204361281Y-100188073D01*
X204352658Y-100176447D01*
X204345217Y-100164031D01*
X204339028Y-100150946D01*
X204334151Y-100137317D01*
X204330634Y-100123276D01*
X204328510Y-100108958D01*
X204327800Y-100094500D01*
X204327800Y-99799500D01*
X204328510Y-99785042D01*
X204330634Y-99770724D01*
X204334151Y-99756683D01*
X204339028Y-99743054D01*
X204345217Y-99729969D01*
X204352658Y-99717553D01*
X204361281Y-99705927D01*
X204371002Y-99695202D01*
X204381727Y-99685481D01*
X204393353Y-99676858D01*
X204405769Y-99669417D01*
X204418854Y-99663228D01*
X204432483Y-99658351D01*
X204446524Y-99654834D01*
X204460842Y-99652710D01*
X204475300Y-99652000D01*
X204820300Y-99652000D01*
X204834758Y-99652710D01*
G37*
G36*
X204834758Y-98682710D02*
G01*
X204849076Y-98684834D01*
X204863117Y-98688351D01*
X204876746Y-98693228D01*
X204889831Y-98699417D01*
X204902247Y-98706858D01*
X204913873Y-98715481D01*
X204924598Y-98725202D01*
X204934319Y-98735927D01*
X204942942Y-98747553D01*
X204950383Y-98759969D01*
X204956572Y-98773054D01*
X204961449Y-98786683D01*
X204964966Y-98800724D01*
X204967090Y-98815042D01*
X204967800Y-98829500D01*
X204967800Y-99124500D01*
X204967090Y-99138958D01*
X204964966Y-99153276D01*
X204961449Y-99167317D01*
X204956572Y-99180946D01*
X204950383Y-99194031D01*
X204942942Y-99206447D01*
X204934319Y-99218073D01*
X204924598Y-99228798D01*
X204913873Y-99238519D01*
X204902247Y-99247142D01*
X204889831Y-99254583D01*
X204876746Y-99260772D01*
X204863117Y-99265649D01*
X204849076Y-99269166D01*
X204834758Y-99271290D01*
X204820300Y-99272000D01*
X204475300Y-99272000D01*
X204460842Y-99271290D01*
X204446524Y-99269166D01*
X204432483Y-99265649D01*
X204418854Y-99260772D01*
X204405769Y-99254583D01*
X204393353Y-99247142D01*
X204381727Y-99238519D01*
X204371002Y-99228798D01*
X204361281Y-99218073D01*
X204352658Y-99206447D01*
X204345217Y-99194031D01*
X204339028Y-99180946D01*
X204334151Y-99167317D01*
X204330634Y-99153276D01*
X204328510Y-99138958D01*
X204327800Y-99124500D01*
X204327800Y-98829500D01*
X204328510Y-98815042D01*
X204330634Y-98800724D01*
X204334151Y-98786683D01*
X204339028Y-98773054D01*
X204345217Y-98759969D01*
X204352658Y-98747553D01*
X204361281Y-98735927D01*
X204371002Y-98725202D01*
X204381727Y-98715481D01*
X204393353Y-98706858D01*
X204405769Y-98699417D01*
X204418854Y-98693228D01*
X204432483Y-98688351D01*
X204446524Y-98684834D01*
X204460842Y-98682710D01*
X204475300Y-98682000D01*
X204820300Y-98682000D01*
X204834758Y-98682710D01*
G37*
%TD*%
%TO.C,C2*%
G36*
X205754358Y-91723510D02*
G01*
X205768676Y-91725634D01*
X205782717Y-91729151D01*
X205796346Y-91734028D01*
X205809431Y-91740217D01*
X205821847Y-91747658D01*
X205833473Y-91756281D01*
X205844198Y-91766002D01*
X205853919Y-91776727D01*
X205862542Y-91788353D01*
X205869983Y-91800769D01*
X205876172Y-91813854D01*
X205881049Y-91827483D01*
X205884566Y-91841524D01*
X205886690Y-91855842D01*
X205887400Y-91870300D01*
X205887400Y-92215300D01*
X205886690Y-92229758D01*
X205884566Y-92244076D01*
X205881049Y-92258117D01*
X205876172Y-92271746D01*
X205869983Y-92284831D01*
X205862542Y-92297247D01*
X205853919Y-92308873D01*
X205844198Y-92319598D01*
X205833473Y-92329319D01*
X205821847Y-92337942D01*
X205809431Y-92345383D01*
X205796346Y-92351572D01*
X205782717Y-92356449D01*
X205768676Y-92359966D01*
X205754358Y-92362090D01*
X205739900Y-92362800D01*
X205444900Y-92362800D01*
X205430442Y-92362090D01*
X205416124Y-92359966D01*
X205402083Y-92356449D01*
X205388454Y-92351572D01*
X205375369Y-92345383D01*
X205362953Y-92337942D01*
X205351327Y-92329319D01*
X205340602Y-92319598D01*
X205330881Y-92308873D01*
X205322258Y-92297247D01*
X205314817Y-92284831D01*
X205308628Y-92271746D01*
X205303751Y-92258117D01*
X205300234Y-92244076D01*
X205298110Y-92229758D01*
X205297400Y-92215300D01*
X205297400Y-91870300D01*
X205298110Y-91855842D01*
X205300234Y-91841524D01*
X205303751Y-91827483D01*
X205308628Y-91813854D01*
X205314817Y-91800769D01*
X205322258Y-91788353D01*
X205330881Y-91776727D01*
X205340602Y-91766002D01*
X205351327Y-91756281D01*
X205362953Y-91747658D01*
X205375369Y-91740217D01*
X205388454Y-91734028D01*
X205402083Y-91729151D01*
X205416124Y-91725634D01*
X205430442Y-91723510D01*
X205444900Y-91722800D01*
X205739900Y-91722800D01*
X205754358Y-91723510D01*
G37*
G36*
X204784358Y-91723510D02*
G01*
X204798676Y-91725634D01*
X204812717Y-91729151D01*
X204826346Y-91734028D01*
X204839431Y-91740217D01*
X204851847Y-91747658D01*
X204863473Y-91756281D01*
X204874198Y-91766002D01*
X204883919Y-91776727D01*
X204892542Y-91788353D01*
X204899983Y-91800769D01*
X204906172Y-91813854D01*
X204911049Y-91827483D01*
X204914566Y-91841524D01*
X204916690Y-91855842D01*
X204917400Y-91870300D01*
X204917400Y-92215300D01*
X204916690Y-92229758D01*
X204914566Y-92244076D01*
X204911049Y-92258117D01*
X204906172Y-92271746D01*
X204899983Y-92284831D01*
X204892542Y-92297247D01*
X204883919Y-92308873D01*
X204874198Y-92319598D01*
X204863473Y-92329319D01*
X204851847Y-92337942D01*
X204839431Y-92345383D01*
X204826346Y-92351572D01*
X204812717Y-92356449D01*
X204798676Y-92359966D01*
X204784358Y-92362090D01*
X204769900Y-92362800D01*
X204474900Y-92362800D01*
X204460442Y-92362090D01*
X204446124Y-92359966D01*
X204432083Y-92356449D01*
X204418454Y-92351572D01*
X204405369Y-92345383D01*
X204392953Y-92337942D01*
X204381327Y-92329319D01*
X204370602Y-92319598D01*
X204360881Y-92308873D01*
X204352258Y-92297247D01*
X204344817Y-92284831D01*
X204338628Y-92271746D01*
X204333751Y-92258117D01*
X204330234Y-92244076D01*
X204328110Y-92229758D01*
X204327400Y-92215300D01*
X204327400Y-91870300D01*
X204328110Y-91855842D01*
X204330234Y-91841524D01*
X204333751Y-91827483D01*
X204338628Y-91813854D01*
X204344817Y-91800769D01*
X204352258Y-91788353D01*
X204360881Y-91776727D01*
X204370602Y-91766002D01*
X204381327Y-91756281D01*
X204392953Y-91747658D01*
X204405369Y-91740217D01*
X204418454Y-91734028D01*
X204432083Y-91729151D01*
X204446124Y-91725634D01*
X204460442Y-91723510D01*
X204474900Y-91722800D01*
X204769900Y-91722800D01*
X204784358Y-91723510D01*
G37*
%TD*%
%TO.C,C1*%
G36*
X205754358Y-93755510D02*
G01*
X205768676Y-93757634D01*
X205782717Y-93761151D01*
X205796346Y-93766028D01*
X205809431Y-93772217D01*
X205821847Y-93779658D01*
X205833473Y-93788281D01*
X205844198Y-93798002D01*
X205853919Y-93808727D01*
X205862542Y-93820353D01*
X205869983Y-93832769D01*
X205876172Y-93845854D01*
X205881049Y-93859483D01*
X205884566Y-93873524D01*
X205886690Y-93887842D01*
X205887400Y-93902300D01*
X205887400Y-94247300D01*
X205886690Y-94261758D01*
X205884566Y-94276076D01*
X205881049Y-94290117D01*
X205876172Y-94303746D01*
X205869983Y-94316831D01*
X205862542Y-94329247D01*
X205853919Y-94340873D01*
X205844198Y-94351598D01*
X205833473Y-94361319D01*
X205821847Y-94369942D01*
X205809431Y-94377383D01*
X205796346Y-94383572D01*
X205782717Y-94388449D01*
X205768676Y-94391966D01*
X205754358Y-94394090D01*
X205739900Y-94394800D01*
X205444900Y-94394800D01*
X205430442Y-94394090D01*
X205416124Y-94391966D01*
X205402083Y-94388449D01*
X205388454Y-94383572D01*
X205375369Y-94377383D01*
X205362953Y-94369942D01*
X205351327Y-94361319D01*
X205340602Y-94351598D01*
X205330881Y-94340873D01*
X205322258Y-94329247D01*
X205314817Y-94316831D01*
X205308628Y-94303746D01*
X205303751Y-94290117D01*
X205300234Y-94276076D01*
X205298110Y-94261758D01*
X205297400Y-94247300D01*
X205297400Y-93902300D01*
X205298110Y-93887842D01*
X205300234Y-93873524D01*
X205303751Y-93859483D01*
X205308628Y-93845854D01*
X205314817Y-93832769D01*
X205322258Y-93820353D01*
X205330881Y-93808727D01*
X205340602Y-93798002D01*
X205351327Y-93788281D01*
X205362953Y-93779658D01*
X205375369Y-93772217D01*
X205388454Y-93766028D01*
X205402083Y-93761151D01*
X205416124Y-93757634D01*
X205430442Y-93755510D01*
X205444900Y-93754800D01*
X205739900Y-93754800D01*
X205754358Y-93755510D01*
G37*
G36*
X204784358Y-93755510D02*
G01*
X204798676Y-93757634D01*
X204812717Y-93761151D01*
X204826346Y-93766028D01*
X204839431Y-93772217D01*
X204851847Y-93779658D01*
X204863473Y-93788281D01*
X204874198Y-93798002D01*
X204883919Y-93808727D01*
X204892542Y-93820353D01*
X204899983Y-93832769D01*
X204906172Y-93845854D01*
X204911049Y-93859483D01*
X204914566Y-93873524D01*
X204916690Y-93887842D01*
X204917400Y-93902300D01*
X204917400Y-94247300D01*
X204916690Y-94261758D01*
X204914566Y-94276076D01*
X204911049Y-94290117D01*
X204906172Y-94303746D01*
X204899983Y-94316831D01*
X204892542Y-94329247D01*
X204883919Y-94340873D01*
X204874198Y-94351598D01*
X204863473Y-94361319D01*
X204851847Y-94369942D01*
X204839431Y-94377383D01*
X204826346Y-94383572D01*
X204812717Y-94388449D01*
X204798676Y-94391966D01*
X204784358Y-94394090D01*
X204769900Y-94394800D01*
X204474900Y-94394800D01*
X204460442Y-94394090D01*
X204446124Y-94391966D01*
X204432083Y-94388449D01*
X204418454Y-94383572D01*
X204405369Y-94377383D01*
X204392953Y-94369942D01*
X204381327Y-94361319D01*
X204370602Y-94351598D01*
X204360881Y-94340873D01*
X204352258Y-94329247D01*
X204344817Y-94316831D01*
X204338628Y-94303746D01*
X204333751Y-94290117D01*
X204330234Y-94276076D01*
X204328110Y-94261758D01*
X204327400Y-94247300D01*
X204327400Y-93902300D01*
X204328110Y-93887842D01*
X204330234Y-93873524D01*
X204333751Y-93859483D01*
X204338628Y-93845854D01*
X204344817Y-93832769D01*
X204352258Y-93820353D01*
X204360881Y-93808727D01*
X204370602Y-93798002D01*
X204381327Y-93788281D01*
X204392953Y-93779658D01*
X204405369Y-93772217D01*
X204418454Y-93766028D01*
X204432083Y-93761151D01*
X204446124Y-93757634D01*
X204460442Y-93755510D01*
X204474900Y-93754800D01*
X204769900Y-93754800D01*
X204784358Y-93755510D01*
G37*
%TD*%
M02*
